<svg width="25" height="25" viewBox="0 0 25 25" fill="none" xmlns="http://www.w3.org/2000/svg">
<g clip-path="url(#clip0_484_209790)">
<path d="M18.042 0.463623H6.95745C3.38078 0.463623 0.481934 3.36351 0.481934 6.94083V18.0264C0.481934 21.6037 3.38129 24.5036 6.95796 24.5036H18.0415C21.6182 24.5036 24.5175 21.6037 24.5175 18.0264V6.94083C24.5175 3.36351 21.6187 0.463623 18.042 0.463623Z" fill="black"/>
<path d="M18.042 0.463623H6.95745C3.38078 0.463623 0.481934 3.36351 0.481934 6.94083V18.0264C0.481934 21.6037 3.38129 24.5036 6.95796 24.5036H18.0415C21.6182 24.5036 24.5175 21.6037 24.5175 18.0264V6.94083C24.5175 3.36351 21.6187 0.463623 18.042 0.463623Z" stroke="white" stroke-width="0.861111" stroke-miterlimit="10"/>
<path d="M12.4996 18.2864C15.7038 18.2864 18.3014 15.6884 18.3014 12.4835C18.3014 9.2787 15.7038 6.68066 12.4996 6.68066C9.29531 6.68066 6.69775 9.2787 6.69775 12.4835C6.69775 15.6884 9.29531 18.2864 12.4996 18.2864Z" stroke="white" stroke-width="0.861111" stroke-miterlimit="10"/>
<path d="M19.5449 6.68098C20.2314 6.68098 20.788 6.12433 20.788 5.43766C20.788 4.75099 20.2314 4.19434 19.5449 4.19434C18.8583 4.19434 18.3018 4.75099 18.3018 5.43766C18.3018 6.12433 18.8583 6.68098 19.5449 6.68098Z" fill="white"/>
</g>
<defs>
<clipPath id="clip0_484_209790">
<rect width="25" height="25" fill="white"/>
</clipPath>
</defs>
</svg>
