<?xml version="1.0" encoding="UTF-8"?>
<svg id="Layer_1" data-name="Layer 1" xmlns="http://www.w3.org/2000/svg" viewBox="0 0 3813.7 3821.76">
  <defs>
    <style>
      .cls-1 {
        fill: #000;
      }

      .cls-1, .cls-2 {
        stroke-width: 0px;
      }

      .cls-2 {
        fill: #fff;
      }
    </style>
  </defs>
  <rect class="cls-1" x="0" y="0" width="3813.7" height="3821.76" rx="1906.85" ry="1906.85"/>
  <path class="cls-2" d="M3255.92,2199.9c67.42-33.02,72.41-127.3,8.79-167.16-123.76-77.53-289.09-166.51-381.43-211.15-91.34-44.15-203.42-85.67-324.86-120.73,19.32-19.63,39.65-40.19,61.04-61.83,37.18-37.62,79.31-80.25,124.16-126.05,97.93-100,157.79-219.42,177.93-354.96,15.61-105.05,7-218.78-25.58-338.04-27.16-99.42-66.52-185.98-99.33-248.01-29.26-55.33-100.37-72.53-151.7-36.71-43.15,30.11-57.04,87.66-32.44,134.17,27.61,52.21,61.48,126.38,83.9,210.48,24.09,90.38,30.39,174.53,18.72,250.1-6.63,42.93-19.26,83.73-37.55,121.27-20.21,41.49-48.06,80.5-82.78,115.96-44.51,45.46-84.67,86.08-123.49,125.37-30.7,31.07-59.33,60.03-86.08,87.31-86.84-188.26-184.96-371.61-288.56-537.41-269.88-431.95-366.75-589.62-400.47-645.15-28.37-46.74-87.42-65.21-137.37-42.96-49.95,22.25-75.71,78.51-59.93,130.86,29.29,97.17,97.62,357.28,99.54,673.04.96,158.16-15.11,308.41-47.81,447.48-134.6,16.94-258.32,47.87-369.75,92.56-212.67,85.3-377.96,219.67-491.26,399.4-95.99,152.25-155.46,285.89-176.79,397.2-33.73,176.11,38.11,255.98,83.94,287.91,35.98,25.07,99.02,50.99,195.02,32.07,62.18-12.26,130.9-41.79,204.23-87.77,150.18-94.16,312.95-252.55,470.71-458.05,106.16-138.28,188.43-295.42,245.25-468.21,29.57-1.39,59.7-2.1,90.37-2.14.91,0,1.78,0,2.69,0,119.77,0,240.31,10.4,356.02,27.92-20.99,26.98-40.1,53.71-57.81,81.11-79.09,122.41-125.14,249.96-169.89,470.59-32.83,161.89-38.04,331.17-14.65,476.66,26.7,166.13,88.92,296.72,179.94,377.63,52.19,46.4,112.64,75.9,179.68,87.7,21.77,3.83,44.09,5.74,66.91,5.74,48.43,0,99.1-8.61,151.35-25.78,51.16-16.81,116.32-53.51,165.5-133.43,19.58-32.5,45.24-81.7,63.34-145.14,21.87-76.64,29.79-163.83-9.31-402.67-14.68-89.69-36.75-205.37-70.69-339.49-11.74-39.91-23.49-79.82-35.23-119.74-25.85-82.95-55.16-167.51-87.4-252.53,92.67,27.7,504.91,223.54,649.56,292.9,26.44,12.67,57.22,12.54,83.54-.35h0ZM1301.51,2142.29c-173.35,225.81-314.4,341.87-402.2,399.47-64.02,42-109.24,59.12-135.9,66.08-28.54,7.46-42.44,5.31-46.72,4.21-4.1-8.68-9.69-40.48,6.41-103.22,14.54-56.65,51.1-154.67,142.71-299.99,46.01-72.98,103.66-137.17,171.34-190.78,63.86-50.59,138.31-93.11,221.26-126.38,68.22-27.36,142.41-48.74,222.1-64.05-46.36,114.54-106.25,219.9-179,314.66ZM1804.98,1590.48c-.96,0-1.94,0-2.9,0-11.76.02-23.46.12-35.09.32,27.31-137.05,40.66-282.42,39.73-433.75-.42-69.63-3.83-136.8-9.26-200.51,36.29,58.21,76.95,123.37,122.55,196.35,90.11,144.22,175.88,302.29,253.15,465.13-125.72-18.15-250.17-27.53-368.18-27.53ZM2502.5,3020.01c-21.8,60.19-50.9,75.88-70.9,82.45-43.93,14.43-83.34,18.73-117.14,12.78-28.85-5.08-54.16-17.58-77.39-38.23-53.94-47.95-93.96-138.52-112.68-255.02-19.51-121.4-14.85-264.24,13.13-402.21,39.54-194.98,76.36-299.38,140.7-398.95,12.79-19.79,26.79-39.53,42.23-59.67,33.72,87.76,64.24,175.14,90.91,260.69,55.79,179.03,92,340.39,107.61,479.59,19.33,172.35,1.71,268.37-16.47,318.56Z"/>
</svg>