<svg width="24" height="19" viewBox="0 0 24 19" fill="none" xmlns="http://www.w3.org/2000/svg">
<g clip-path="url(#clip0_673_6656)">
<path d="M22.729 2.32336V15.7867C22.729 16.2968 22.5479 16.786 22.2256 17.1467C21.9033 17.5074 21.4662 17.71 21.0104 17.71H2.1058C1.65 17.71 1.21287 17.5074 0.890572 17.1467C0.568273 16.786 0.387207 16.2968 0.387207 15.7867V2.32336M22.729 2.32336C22.729 1.81326 22.5479 1.32405 22.2256 0.963356C21.9033 0.602661 21.4662 0.400024 21.0104 0.400024H2.1058C1.65 0.400024 1.21287 0.602661 0.890572 0.963356C0.568273 1.32405 0.387207 1.81326 0.387207 2.32336M22.729 2.32336L12.536 10.2206C12.2486 10.4431 11.9075 10.5623 11.5581 10.5623C11.2087 10.5623 10.8675 10.4431 10.5802 10.2206L0.387207 2.32336" stroke="white" stroke-linecap="round" stroke-linejoin="round"/>
</g>
<defs>
<clipPath id="clip0_673_6656">
<rect width="23.2556" height="18.2" fill="white"/>
</clipPath>
</defs>
</svg>
