<?xml version="1.0" encoding="UTF-8"?>
<svg id="Layer_1" data-name="Layer 1" xmlns="http://www.w3.org/2000/svg" version="1.1" viewBox="0 0 544.5 151">
  <defs>
    <style>
      .cls-1 {
        fill: #fff;
        stroke-width: 0px;
      }
    </style>
  </defs>
  <path class="cls-1" d="M544.5,151V0s-26.9-.3-37.9,12.4c-5.9,7.1-12.6,16.6-18.1,19.4-7.5,3.8-16.5,3.8-24,0-5.5-2.8-12.2-7.2-18.1-14.4-.4-.4-.8-.9-1.1-1.3-17.2-19.1-46.3-21.2-67-5.9-2.9,2.1-5.5,4.5-7.8,7.2-5.9,7.1-12.6,11.6-18.1,14.4-7.5,3.8-16.5,3.8-24,0-5.5-2.8-12.2-7.2-18.1-14.4-3.8-4.5-8.4-7.8-13.1-10.3-15.5-8.1-34.1-8.1-49.6,0-4.7,2.5-9.4,5.8-13.1,10.3-5.9,7.1-12.6,11.6-18.1,14.4-7.6,3.8-16.5,3.8-24,0-5.5-2.8-12.2-7.2-18.1-14.4-2.3-2.7-4.9-5.1-7.8-7.2-20.7-15.3-49.8-13.2-67,5.9-.4.4-.8.9-1.1,1.3-5.9,7.1-12.6,11.6-18.1,14.4-7.6,3.8-16.5,3.8-24,0-5.5-2.8-12.2-12.2-18.1-19.4C25.2-1,0,0,0,0v151"/>
</svg>