<svg width="2321" height="1427" viewBox="0 0 2321 1427" fill="none" xmlns="http://www.w3.org/2000/svg">
<path d="M111.5 304.501C-32 -96.9995 503.5 -58.9995 487 194.501C465.84 519.589 888.5 575 1006.5 409.001C1093.5 268 1197.3 17.1003 1424.5 63.5003C1651.7 109.9 1697.5 286.834 1692 369.5C1689 419 1708 521.7 1808 536.5C1933 555 2058 561.5 2101 448.5C2144 335.5 2223.5 224.5 2316 253.5" stroke="#5C94CF" stroke-width="5" stroke-linecap="round" stroke-dasharray="30 30"/>
<path d="M113 453.109C174.5 401.609 332.8 334.009 474 475.609C650.5 652.609 538 780.109 474 844.109C410 908.109 403 1175.11 579.5 1182.61C756 1190.11 816.5 1099.61 846.5 1054.61C876.5 1009.61 981.5 671.109 1154.5 784.109C1327.5 897.109 1188.5 979.609 1196 1081.11C1203.5 1182.61 1230.5 1280.61 1373 1310.61C1487 1334.61 1575.57 1274 1598.5 1231.61C1644 1147.5 1639.6 934.5 1752.5 934.5C1874 934.5 1933 702 2028 664C2123 626 2287 626.5 2317.5 905" stroke="#5C94CF" stroke-width="5" stroke-linecap="round" stroke-dasharray="30 30"/>
<path d="M20.4998 1297C0.49983 1250.5 -35.8001 1104.6 145 1043C371 966.002 298.5 1473.5 676 1419.5C1053.5 1365.5 971 1080 944.5 972.002C917.334 861.286 769.5 673.501 1065.5 511.501C1302.3 381.901 1558.5 630.5 1574 775.501C1583.5 885 1519.3 1139.1 1652.5 1203.5C1819 1284 1936 1260.5 1979 1158.5C2022 1056.5 2236.5 1008.5 2318.5 1151" stroke="#5C94CF" stroke-width="5" stroke-linecap="round" stroke-dasharray="30 30"/>
</svg>
