<?xml version="1.0" encoding="UTF-8"?>
<svg id="Layer_1" data-name="Layer 1" xmlns="http://www.w3.org/2000/svg" viewBox="0 0 10.9 10.9">
  <defs>
    <style>
      .cls-1 {
        fill: #000;
      }

      .cls-1, .cls-2 {
        stroke-width: 0px;
      }

      .cls-2 {
        fill: #a89885;
      }
    </style>
  </defs>
  <path class="cls-2" d="M7.93,1.08c1.52.87,2.57,2.49,2.57,4.37,0,2.79-2.27,5.05-5.05,5.05-1.82,0-3.4-.97-4.29-2.42.71.57,1.82,1.24,3.17,1.24.26,0,.52-.03.79-.08.94-.19,1.64-.65,2.1-1.37.86-1.36.56-3.24.31-4.24-.42-1.69.15-2.35.4-2.55Z"/>
  <path class="cls-1" d="M5.45,0c3,0,5.45,2.45,5.45,5.45s-2.45,5.45-5.45,5.45S0,8.46,0,5.45,2.44,0,5.45,0ZM10.5,5.45c0-1.88-1.05-3.5-2.57-4.37-.25.2-.82.86-.4,2.55.25,1,.55,2.88-.31,4.24-.46.72-1.16,1.18-2.1,1.37-.27.05-.53.08-.79.08-1.35,0-2.46-.67-3.17-1.24.89,1.45,2.47,2.42,4.29,2.42,2.78,0,5.05-2.26,5.05-5.05ZM6.88,7.66c.78-1.23.5-2.99.26-3.93-.42-1.68.07-2.5.42-2.85-.64-.3-1.36-.48-2.11-.48C2.66.4.4,2.67.4,5.45c0,.59.12,1.15.31,1.68.33.36,2.13,2.15,4.33,1.71.83-.16,1.44-.56,1.84-1.18Z"/>
  <path class="cls-2" d="M7.14,3.73c.24.94.52,2.7-.26,3.93-.4.62-1.01,1.02-1.84,1.18-2.2.44-4-1.35-4.33-1.71-.19-.53-.31-1.09-.31-1.68C.4,2.67,2.66.4,5.45.4c.75,0,1.47.18,2.11.48-.35.35-.84,1.17-.42,2.85Z"/>
</svg>