<?xml version="1.0" encoding="UTF-8"?>
<svg id="Layer_1" data-name="Layer 1" xmlns="http://www.w3.org/2000/svg" version="1.1" viewBox="0 0 30.7 30.7">
  <defs>
    <style>
      .cls-1 {
        fill: #000;
      }

      .cls-1, .cls-2 {
        stroke-width: 0px;
      }

      .cls-2 {
        fill: #fff;
      }
    </style>
  </defs>
  <path class="cls-2" d="M14.4,28.7c3.5-.8,6.1-2.6,7.7-5.3,2.1-3.5,2.5-8.6,1-14.4-.9-3.6-.4-5.6.2-6.6,4.3,2.8,7.3,7.6,7.3,12.9,0,8.5-6.9,15.4-15.4,15.4s-5.3-.8-7.5-2.1c1.1.3,2.3.4,3.5.4s2,0,3-.3Z"/>
  <path class="cls-2" d="M20,9.9c1.3,4.8,1,9.1-.6,11.8-1.2,1.9-3.1,3.2-5.6,3.8-6.8,1.3-11.5-3.3-12.5-4.3C.4,19.4,0,17.4,0,15.4c0-8.2,7.2-15.4,15.4-15.4s3.5.4,5.1,1c-1,1.7-1.6,4.6-.5,8.9Z"/>
  <path class="cls-1" d="M15.4,31.5C6.5,31.5-.8,24.2-.8,15.4S6.5-.8,15.4-.8,31.5,6.5,31.5,15.4s-7.2,16.1-16.1,16.1ZM15.4.8C7.3.8.8,7.3.8,15.4s6.5,14.6,14.6,14.6,14.6-6.5,14.6-14.6S23.4.8,15.4.8Z"/>
</svg>