<?xml version="1.0" encoding="UTF-8"?>
<svg id="Layer_1" data-name="Layer 1" xmlns="http://www.w3.org/2000/svg" viewBox="0 0 10.9 10.9">
  <defs>
    <style>
      .cls-1 {
        fill: #fff;
        stroke-width: 0px;
      }
    </style>
  </defs>
  <path class="cls-1" d="M7.93,1.08c1.52.87,2.57,2.49,2.57,4.37,0,2.79-2.27,5.05-5.05,5.05-1.82,0-3.4-.97-4.29-2.42.71.57,1.82,1.24,3.17,1.24.26,0,.52-.03.79-.08.94-.19,1.64-.65,2.1-1.37.86-1.36.56-3.24.31-4.24-.42-1.69.15-2.35.4-2.55Z"/>
  <path class="cls-1" d="M7.14,3.73c.24.94.52,2.7-.26,3.93-.4.62-1.01,1.02-1.84,1.18-2.2.44-4-1.35-4.33-1.71-.19-.53-.31-1.09-.31-1.68C.4,2.67,2.66.4,5.45.4c.75,0,1.47.18,2.11.48-.35.35-.84,1.17-.42,2.85Z"/>
</svg>