<?xml version="1.0" encoding="UTF-8"?>
<svg id="Layer_1" data-name="Layer 1" xmlns="http://www.w3.org/2000/svg" version="1.1" viewBox="0 0 544.5 151">
  <defs>
    <style>
      .cls-1 {
        stroke: #050100;
      }

      .cls-1, .cls-2 {
        fill: none;
        stroke-miterlimit: 10;
      }

      .cls-2 {
        stroke: #fff;
      }

      .cls-3 {
        fill: #000;
      }

      .cls-3, .cls-4, .cls-5 {
        stroke-width: 0px;
      }

      .cls-4 {
        fill: #fff;
      }

      .cls-5 {
        fill: #a89885;
      }
    </style>
  </defs>
  <path class="cls-2" d="M-169.4,716c2.9,0,5.2-2.4,5.2-5.2s-2.4-5.2-5.2-5.2-5.2,2.4-5.2,5.2,2.4,5.2,5.2,5.2Z"/>
  <path class="cls-2" d="M-166.9,706.1s-1.2.6-.6,2.9c.6,2.3.3,4.8-2.3,5.4-2.6.5-4.6-1.8-4.6-1.8"/>
  <g>
    <path class="cls-4" d="M-159.6,676.7c-.4.4-.8,1.2-.4,2.9.2.9.5,2.7-.3,3.9-.4.6-1,1-1.8,1.2-2.2.4-4-1.4-4.3-1.7-.2-.5-.3-1.1-.3-1.7,0-2.8,2.3-5,5.1-5s1.5.2,2.1.5Z"/>
    <path class="cls-4" d="M-159.2,676.9c1.5.9,2.6,2.5,2.6,4.4,0,2.8-2.3,5.1-5,5.1s-3.4-1-4.3-2.4c.7.6,1.8,1.2,3.2,1.2s.5,0,.8,0c.9-.2,1.6-.6,2.1-1.4.9-1.4.6-3.2.3-4.2-.4-1.7.1-2.4.4-2.6Z"/>
    <path class="cls-3" d="M-160.3,683.5c.8-1.2.5-3,.3-3.9-.4-1.7,0-2.5.4-2.9-.6-.3-1.4-.5-2.1-.5-2.8,0-5.1,2.3-5.1,5s.1,1.2.3,1.7c.3.4,2.1,2.2,4.3,1.7.8-.2,1.4-.6,1.8-1.2ZM-156.2,681.3c0,3-2.4,5.5-5.4,5.5s-5.5-2.5-5.5-5.5,2.5-5.4,5.5-5.4,5.4,2.4,5.4,5.4ZM-156.6,681.3c0-1.9-1-3.5-2.6-4.4-.2.2-.8.9-.4,2.6.2,1,.5,2.9-.3,4.2-.4.7-1.2,1.2-2.1,1.4-.3,0-.5,0-.8,0-1.3,0-2.5-.7-3.2-1.2.9,1.4,2.5,2.4,4.3,2.4,2.8,0,5-2.3,5-5.1Z"/>
  </g>
  <path class="cls-5" d="M-144.7,675.8c-3,0-5.5,2.4-5.5,5.5s2.4,5.5,5.5,5.5,5.5-2.4,5.5-5.5-2.4-5.5-5.5-5.5ZM-144.7,676.2c.8,0,1.5.2,2.1.5-.3.4-.8,1.2-.4,2.9.2.9.5,2.7-.3,3.9-.4.6-1,1-1.8,1.2-2.2.4-4-1.4-4.3-1.7-.2-.5-.3-1.1-.3-1.7,0-2.8,2.3-5,5-5ZM-144.7,686.3c-1.8,0-3.4-1-4.3-2.4.7.6,1.8,1.2,3.2,1.2s.5,0,.8,0c.9-.2,1.6-.6,2.1-1.4.9-1.4.6-3.2.3-4.2-.4-1.7.2-2.4.4-2.6,1.5.9,2.6,2.5,2.6,4.4,0,2.8-2.3,5-5,5Z"/>
  <g>
    <path class="cls-4" d="M-145.7,654.8c1.5.9,2.6,2.5,2.6,4.4,0,2.8-2.3,5.1-5.1,5.1s-3.4-1-4.3-2.4c.7.6,1.8,1.2,3.2,1.2s.5,0,.8,0c.9-.2,1.6-.6,2.1-1.4.9-1.4.6-3.2.3-4.2-.4-1.7.1-2.4.4-2.6Z"/>
    <path class="cls-4" d="M-146.5,657.5c.2.9.5,2.7-.3,3.9-.4.6-1,1-1.8,1.2-2.2.4-4-1.4-4.3-1.7-.2-.5-.3-1.1-.3-1.7,0-2.8,2.3-5,5-5s1.5.2,2.1.5c-.4.4-.8,1.2-.4,2.9Z"/>
  </g>
  <path class="cls-4" d="M544.5,151V5.8s-24.6-4.3-37.9,11.6-12.6,11.6-18.1,14.4-16.5,3.8-24,0-12.2-7.2-18.1-14.4-.7-.9-1.1-1.3c-17.2-19.1-46.3-21.2-67-5.9s-5.5,4.5-7.8,7.2c-5.9,7.1-12.6,11.6-18.1,14.4s-16.5,3.8-24,0-12.2-7.2-18.1-14.4-8.4-7.8-13.1-10.3c-15.5-8.1-34.2-8.1-49.6,0s-9.4,5.8-13.1,10.3c-5.9,7.1-12.6,11.6-18.1,14.4s-16.5,3.8-24,0-12.2-7.2-18.1-14.4c-2.3-2.7-4.9-5.1-7.8-7.2-20.7-15.3-49.8-13.2-67,5.9s-.8.9-1.1,1.3c-5.9,7.1-12.6,11.6-18.1,14.4-7.6,3.8-16.5,3.8-24,0s-12.2-7.2-18.1-14.4C24.6,1.4,0,5.8,0,5.8v145.2"/>
  <rect class="cls-1" x="0" y="269.9" width="230.5" height="58.8" rx="29.4" ry="29.4"/>
</svg>