<?xml version="1.0" encoding="UTF-8"?>
<svg id="Layer_1" data-name="Layer 1" xmlns="http://www.w3.org/2000/svg" viewBox="0 0 10.9 10.9">
  <defs>
    <style>
      .cls-1 {
        fill: #000;
      }

      .cls-1, .cls-2 {
        stroke-width: 0px;
      }

      .cls-2 {
        fill: #fff;
      }
    </style>
  </defs>
  <path class="cls-2" d="M7.57.88c-.35.35-.84,1.16-.42,2.85.24.93.51,2.69-.27,3.92-.39.63-1.01,1.02-1.83,1.19-2.21.44-4.01-1.36-4.34-1.72-.19-.52-.31-1.08-.31-1.67C.4,2.66,2.67.4,5.45.4c.76,0,1.47.18,2.12.48Z"/>
  <path class="cls-2" d="M7.93,1.08c1.53.87,2.57,2.49,2.57,4.37,0,2.78-2.26,5.05-5.05,5.05-1.82,0-3.4-.98-4.29-2.42.71.56,1.83,1.23,3.17,1.23.26,0,.52-.03.79-.08.94-.19,1.65-.64,2.1-1.36.86-1.36.57-3.24.32-4.24-.43-1.7.15-2.36.39-2.55Z"/>
  <path class="cls-1" d="M6.88,7.65c.78-1.23.51-2.99.27-3.92-.42-1.69.07-2.5.42-2.85-.65-.3-1.36-.48-2.12-.48C2.67.4.4,2.66.4,5.45c0,.59.12,1.15.31,1.67.33.36,2.13,2.16,4.34,1.72.82-.17,1.44-.56,1.83-1.19ZM10.9,5.45c0,3-2.44,5.45-5.45,5.45S0,8.45,0,5.45,2.45,0,5.45,0s5.45,2.44,5.45,5.45ZM10.5,5.45c0-1.88-1.04-3.5-2.57-4.37-.24.19-.82.85-.39,2.55.25,1,.54,2.88-.32,4.24-.45.72-1.16,1.17-2.1,1.36-.27.05-.53.08-.79.08-1.34,0-2.46-.67-3.17-1.23.89,1.44,2.47,2.42,4.29,2.42,2.79,0,5.05-2.27,5.05-5.05Z"/>
</svg>