<?xml version="1.0" encoding="UTF-8"?>
<svg id="Layer_1" data-name="Layer 1" xmlns="http://www.w3.org/2000/svg" version="1.1" viewBox="0 0 1984.2 3259.8">
  <defs>
    <style>
      .cls-1 {
        opacity: .6;
      }

      .cls-2 {
        fill: #fff;
        stroke: #fff;
        stroke-linecap: square;
        stroke-linejoin: round;
      }
    </style>
  </defs>
  <g class="cls-1">
    <g id="LINE">
      <line class="cls-2" x1="1984.2" y1="0" x2="0" y2="0"/>
    </g>
    <g id="LINE-2" data-name="LINE">
      <line class="cls-2" x1="1984.2" y1="141.7" x2="0" y2="141.7"/>
    </g>
    <g id="LINE-3" data-name="LINE">
      <line class="cls-2" x1="1984.2" y1="283.5" x2="0" y2="283.5"/>
    </g>
    <g id="LINE-4" data-name="LINE">
      <line class="cls-2" x1="1984.2" y1="425.2" x2="0" y2="425.2"/>
    </g>
    <g id="LINE-5" data-name="LINE">
      <line class="cls-2" x1="1984.2" y1="566.9" x2="0" y2="566.9"/>
    </g>
    <g id="LINE-6" data-name="LINE">
      <line class="cls-2" x1="1984.2" y1="708.7" x2="0" y2="708.7"/>
    </g>
    <g id="LINE-7" data-name="LINE">
      <line class="cls-2" x1="1984.2" y1="850.4" x2="0" y2="850.4"/>
    </g>
    <g id="LINE-8" data-name="LINE">
      <line class="cls-2" x1="1984.2" y1="992.1" x2="0" y2="992.1"/>
    </g>
    <g id="LINE-9" data-name="LINE">
      <line class="cls-2" x1="1984.2" y1="1133.9" x2="0" y2="1133.9"/>
    </g>
    <g id="LINE-10" data-name="LINE">
      <line class="cls-2" x1="1984.2" y1="1275.6" x2="0" y2="1275.6"/>
    </g>
    <g id="LINE-11" data-name="LINE">
      <line class="cls-2" x1="1984.2" y1="1417.3" x2="0" y2="1417.3"/>
    </g>
    <g id="LINE-12" data-name="LINE">
      <line class="cls-2" x1="1984.2" y1="1559.1" x2="0" y2="1559.1"/>
    </g>
    <g id="LINE-13" data-name="LINE">
      <line class="cls-2" x1="1984.2" y1="1700.8" x2="0" y2="1700.8"/>
    </g>
    <g id="LINE-14" data-name="LINE">
      <line class="cls-2" x1="1984.2" y1="1842.5" x2="0" y2="1842.5"/>
    </g>
    <g id="LINE-15" data-name="LINE">
      <line class="cls-2" x1="1984.2" y1="1984.3" x2="0" y2="1984.3"/>
    </g>
    <g id="LINE-16" data-name="LINE">
      <line class="cls-2" x1="1984.2" y1="2126" x2="0" y2="2126"/>
    </g>
    <g id="LINE-17" data-name="LINE">
      <line class="cls-2" x1="1984.2" y1="2267.7" x2="0" y2="2267.7"/>
    </g>
    <g id="LINE-18" data-name="LINE">
      <line class="cls-2" x1="1984.2" y1="2409.4" x2="0" y2="2409.4"/>
    </g>
    <g id="LINE-19" data-name="LINE">
      <line class="cls-2" x1="1984.2" y1="2551.2" x2="0" y2="2551.2"/>
    </g>
    <g id="LINE-20" data-name="LINE">
      <line class="cls-2" x1="1984.2" y1="2692.9" x2="0" y2="2692.9"/>
    </g>
    <g id="LINE-21" data-name="LINE">
      <line class="cls-2" x1="1984.2" y1="2834.6" x2="0" y2="2834.6"/>
    </g>
    <g id="LINE-22" data-name="LINE">
      <line class="cls-2" x1="1984.2" y1="2976.4" x2="0" y2="2976.4"/>
    </g>
    <g id="LINE-23" data-name="LINE">
      <line class="cls-2" x1="1984.2" y1="3118.1" x2="0" y2="3118.1"/>
    </g>
    <g id="LINE-24" data-name="LINE">
      <line class="cls-2" x1="1984.2" y1="3259.8" x2="0" y2="3259.8"/>
    </g>
  </g>
  <g class="cls-1">
    <g id="LINE-25" data-name="LINE">
      <line class="cls-2" x1="1984.2" y1="0" x2="1984.2" y2="3259.8"/>
    </g>
    <g id="LINE-26" data-name="LINE">
      <line class="cls-2" x1="1913.4" y1="0" x2="1913.4" y2="3259.8"/>
    </g>
    <g id="LINE-27" data-name="LINE">
      <line class="cls-2" x1="1842.5" y1="0" x2="1842.5" y2="3259.8"/>
    </g>
    <g id="LINE-28" data-name="LINE">
      <line class="cls-2" x1="1700.8" y1="0" x2="1700.8" y2="3259.8"/>
    </g>
    <g id="LINE-29" data-name="LINE">
      <line class="cls-2" x1="1771.7" y1="0" x2="1771.7" y2="3259.8"/>
    </g>
    <g id="LINE-30" data-name="LINE">
      <line class="cls-2" x1="1559.1" y1="0" x2="1559.1" y2="3259.8"/>
    </g>
    <g id="LINE-31" data-name="LINE">
      <line class="cls-2" x1="1629.9" y1="0" x2="1629.9" y2="3259.8"/>
    </g>
    <g id="LINE-32" data-name="LINE">
      <line class="cls-2" x1="1488.2" y1="0" x2="1488.2" y2="3259.8"/>
    </g>
    <g id="LINE-33" data-name="LINE">
      <line class="cls-2" x1="1417.3" y1="0" x2="1417.3" y2="3259.8"/>
    </g>
    <g id="LINE-34" data-name="LINE">
      <line class="cls-2" x1="1346.5" y1="0" x2="1346.5" y2="3259.8"/>
    </g>
    <g id="LINE-35" data-name="LINE">
      <line class="cls-2" x1="1204.7" y1="0" x2="1204.7" y2="3259.8"/>
    </g>
    <g id="LINE-36" data-name="LINE">
      <line class="cls-2" x1="1275.6" y1="0" x2="1275.6" y2="3259.8"/>
    </g>
    <g id="LINE-37" data-name="LINE">
      <line class="cls-2" x1="1133.9" y1="0" x2="1133.9" y2="3259.8"/>
    </g>
    <g id="LINE-38" data-name="LINE">
      <line class="cls-2" x1="1063" y1="0" x2="1063" y2="3259.8"/>
    </g>
    <g id="LINE-39" data-name="LINE">
      <line class="cls-2" x1="992.1" y1="0" x2="992.1" y2="3259.8"/>
    </g>
    <g id="LINE-40" data-name="LINE">
      <line class="cls-2" x1="850.4" y1="0" x2="850.4" y2="3259.8"/>
    </g>
    <g id="LINE-41" data-name="LINE">
      <line class="cls-2" x1="921.3" y1="0" x2="921.3" y2="3259.8"/>
    </g>
    <g id="LINE-42" data-name="LINE">
      <line class="cls-2" x1="708.7" y1="0" x2="708.7" y2="3259.8"/>
    </g>
    <g id="LINE-43" data-name="LINE">
      <line class="cls-2" x1="779.5" y1="0" x2="779.5" y2="3259.8"/>
    </g>
    <g id="LINE-44" data-name="LINE">
      <line class="cls-2" x1="637.8" y1="0" x2="637.8" y2="3259.8"/>
    </g>
    <g id="LINE-45" data-name="LINE">
      <line class="cls-2" x1="566.9" y1="0" x2="566.9" y2="3259.8"/>
    </g>
    <g id="LINE-46" data-name="LINE">
      <line class="cls-2" x1="496.1" y1="0" x2="496.1" y2="3259.8"/>
    </g>
    <g id="LINE-47" data-name="LINE">
      <line class="cls-2" x1="354.3" y1="0" x2="354.3" y2="3259.8"/>
    </g>
    <g id="LINE-48" data-name="LINE">
      <line class="cls-2" x1="425.2" y1="0" x2="425.2" y2="3259.8"/>
    </g>
    <g id="LINE-49" data-name="LINE">
      <line class="cls-2" x1="283.5" y1="0" x2="283.5" y2="3259.8"/>
    </g>
    <g id="LINE-50" data-name="LINE">
      <line class="cls-2" x1="212.6" y1="0" x2="212.6" y2="3259.8"/>
    </g>
    <g id="LINE-51" data-name="LINE">
      <line class="cls-2" x1="141.7" y1="0" x2="141.7" y2="3259.8"/>
    </g>
    <g id="LINE-52" data-name="LINE">
      <line class="cls-2" x1="0" y1="0" x2="0" y2="3259.8"/>
    </g>
    <g id="LINE-53" data-name="LINE">
      <line class="cls-2" x1="70.9" y1="0" x2="70.9" y2="3259.8"/>
    </g>
  </g>
</svg>