<svg width="701" height="432" viewBox="0 0 701 432" fill="none" xmlns="http://www.w3.org/2000/svg">
<g clip-path="url(#clip0_772_104)">
<path d="M615.77 130.35L618.14 130.52V79.83H614.59V75.97H612.61V73.26H601.64V52.01H618.67C618.88 52.01 619.05 51.84 619.05 51.63V40.83C619.05 40.62 618.88 40.45 618.67 40.45H601.64V37.82C601.64 37.36 601.27 37 600.82 37C600.37 37 600 37.37 600 37.82V73.26H599.78V85.68H596.34V87.08L591.85 87.1L589.14 86.03V82.35L580.79 79.14V82.86L578.6 82.06V78.3L570.14 75.04V78.78L567.84 77.9V74.16L560.32 71.28V75.08L555.35 73.15V39.74H552.72V19.52H569.75C569.96 19.52 570.13 19.35 570.13 19.14V8.34C570.13 8.13 569.96 7.96 569.75 7.96H552.72V1.82C552.72 1.36 552.35 1 551.9 1C551.45 1 551.08 1.37 551.08 1.82V39.73H548.2V35.61L538.2 33.07V42.91H532.31V33.07L522.17 34.34V41.64L519.79 42.57V37.52L512.02 40.5V56.24H508.69V62.82H495.45V75.01H484.3V85.82L482.55 86.53V83.78L472.84 87.51V90.23L470.96 90.95V88.23L462.02 91.65V94.37L459.95 95.15V92.45L450.5 96.07V98.79L448.1 99.71V96.99L440.86 99.76V112.84L434.24 115.38V117.37L432.7 117.96V116.01L425.96 118.58V120.54L424.31 121.16V119.21L418.17 121.62V123.52L416.1 124.33V122.38L410.18 124.65V126.6H407.94V111.91H397.6L389.76 116.1V96.21H406.05C406.21 96.21 406.34 96.08 406.34 95.92V84.95C406.34 84.79 406.21 84.66 406.05 84.66H389.76V83.22C389.76 82.86 389.47 82.58 389.12 82.58H388.76C388.4 82.58 388.12 82.87 388.12 83.22V116.99L383 119.73V241.29H622.32L615.8 130.38L615.77 130.35Z" fill="#80BAE5"/>
<path d="M56.4102 180.63H58.9802V176.41H65.9102V168.23H74.5102V160.82H83.0402V153.33H91.0802V146.68H98.2102V139.17H106.1V143.31L160.44 116.95V108.87L169.24 110.74V102.74L178.5 105.25V115.54H185.01V127.89H190.84V139.66H195.87V150.52H202.32V162.43H207.9V265.85H56.4102V180.63Z" fill="#80BAE5"/>
<path d="M392.36 120.69C392.36 120.69 359.23 146.78 349.55 153.03C339.87 159.28 352.21 170.22 352.21 170.22V177.56H329.37V181.62H324.21V173.34H299.99V191.46L290.55 198.81V224.16H274.83V234.56H266.21V225.69H245.17V240.4H237.06V229.24H227.78V217.4C227.78 217.4 235.62 218.62 235.62 213.89C235.62 209.16 235.59 197.29 235.59 197.29H219.53V190.48H213.88V184.47H209.13V188.03H203.42V194.57H193.48V186.87H179.05V244.7L172.15 244.81V236.04H164.93V246.24L157.85 247.7V236.63L148.89 238.46V249.5L140.48 251.21V240.17L134.28 241.43V252.47L128.63 253.62V206.82H114.49V212.85H107.08V205.69H92.54V256.79L87.82 257.74V247.22L81.81 248.44V258.96L76.36 260.07V249.55L70.72 250.67V261.22L66.59 262.06V251.54L58.89 253.06V263.64L54.94 264.42V220.27H45.74V224.59H39.73V219.89H30.15L26.02 230.41V233.66H20.69V237.79H18.83V234.47H11.27V239.11L6.89 243.09H10.34L6.89 294.19L0 394.35L336.11 432.01H700.5L692.88 276V212.31H678.59V218.26H676.21V212.31H669.07L665.02 205.88V195.64H648.11V200.88H638.11V195.64H612.15V230.89H593.57V198.74H597.38L590.47 186.59V180.16H566.89V188.26H556.17V180.16H530.92V203.74H515.68V183.43H512.02L512.07 176.42H496.75V180.64H491.86V172.3H475.43V180.64H469.24V176.35H453.76V217.79H448.76V225.41H439.23V215.38H432.47V170.22C432.47 170.22 444.81 159.28 435.13 153.03C425.44 146.78 392.32 120.69 392.32 120.69H392.35H392.36Z" fill="#5C94CF"/>
</g>
<defs>
<clipPath id="clip0_772_104">
<rect width="700.9" height="432.01" fill="white"/>
</clipPath>
</defs>
</svg>
