<svg width="1440" height="407" viewBox="0 0 1440 407" fill="none" xmlns="http://www.w3.org/2000/svg">
<g clip-path="url(#clip0_772_69)">
<path d="M574.078 380.051L573.271 117.418V87.0053L623.966 77.5571V55.6578L646.513 42.991L676.577 51.361L739.491 62.5263L747.007 65.3136L818.939 117.41L873.483 142.177H921.062L922.508 160.874L937.723 156.345L943.075 151.657V142.64L957.507 143.359V158.15C957.507 158.15 981.58 159.149 993.713 161.816C1009.58 162.032 1056.3 162.136 1056.3 162.136L1068.65 158.302H1091.11L1116.87 169.907L1145.83 195.584L1144.97 379.979L575.955 380.043" fill="#BBDDF4"/>
<path d="M371.526 380.05V279.123C371.526 279.123 376.071 270.705 381.733 268.453C387.396 266.201 407.22 236.475 419.393 235.053C431.565 233.631 462.148 233.919 470.925 211.269C479.703 188.619 484.799 163.133 495.845 160.873C506.891 158.605 522.602 139.357 533.289 138.503C543.976 137.656 563.799 119.534 570.309 118.113C576.818 116.699 594.374 111.604 600.604 111.883C602.305 103.673 602.305 99.4241 613.631 94.8956C624.957 90.3672 634.022 75.3603 638.263 79.3217C642.512 83.2831 695.746 71.6785 703.39 74.7933C711.034 77.9081 734.819 86.9649 743.03 87.8195C751.241 88.6661 783.237 120.381 788.621 131.139C794.004 141.897 799.723 148.414 804.794 148.694C804.794 148.694 841.248 157.655 849.906 157.215C858.564 156.784 870.041 159.755 873.284 162.486C876.535 165.218 907.732 174.962 912.477 175.609C917.221 176.255 963.778 181.599 966.382 181.311C966.382 181.311 980.726 181.151 990.207 180.448C999.688 179.746 1039.49 180.377 1047.08 182.062C1054.66 183.747 1070.03 163.533 1078.88 163.74C1087.73 163.948 1099.31 166.168 1104.15 169.906C1108.99 173.644 1104.78 184.17 1111.73 185.648C1118.68 187.125 1127.53 189.753 1131.11 196.549C1134.69 203.338 1151.12 191.757 1155.96 191.965C1160.8 192.173 1171.97 198.075 1179.13 203.338C1186.3 208.601 1189.84 214.08 1204.39 215.134C1218.94 216.189 1239.37 219.974 1244.96 225.876C1250.53 231.771 1304.61 268.685 1308.66 281.767C1312.71 294.849 1308.66 380.074 1308.66 380.074L371.534 380.05" fill="#99CAED"/>
<path d="M752.934 380.05L752.918 271.632L779.555 248.151H793.301H807.047L833.676 271.632L833.668 380.05H752.934Z" fill="#5C94CF"/>
<path d="M754.667 380.05L754.683 248.151H752.055V252.121H746.273V261.273L725.043 261.122L720.834 256.649L716.625 261.122L686.984 261.329L687 380.05H754.667Z" fill="#5C94CF"/>
<path d="M630.724 380.05L630.716 272.071L642.657 263.486H658.99H675.324L687.265 272.071L687.257 380.05H630.724Z" fill="#5C94CF"/>
<path d="M597.633 380.05L597.625 274.579H614.374H631.131L631.123 380.05H597.633Z" fill="#5C94CF"/>
<path d="M575.66 267.679H587.202H595.708V262.056H598.743L598.887 380.051H575.517L575.66 267.679Z" fill="#5C94CF"/>
<path d="M483.186 381.712L483.178 276.241H497.77H512.363L512.355 381.712H483.186Z" fill="#5C94CF"/>
<path d="M453.753 380.186L453.745 267.303H468.785H483.817L483.809 380.186H453.753Z" fill="#5C94CF"/>
<path d="M361.877 380.05V284.586H408.131H454.384V380.05H361.877Z" fill="#5C94CF"/>
<path d="M543.744 281.184H520.15V267.439H515.885V281.184H511.54L511.548 380.051H575.932L575.94 281.184H543.744Z" fill="#5C94CF"/>
<path d="M335.816 279.123H315.984V268.453H312.741V279.123H309.243V380.05H362.389V279.123H335.816Z" fill="#5C94CF"/>
<path d="M287.066 279.082H298.608H307.114V273.459H310.149L310.293 391.454H286.922L287.066 279.082Z" fill="#5C94CF"/>
<path d="M260.32 386.01L260.312 273.127H275.351H290.383L290.375 386.01H260.32Z" fill="#5C94CF"/>
<path d="M117.669 390.909V295.445H163.922H210.176V390.909H117.669Z" fill="#5C94CF"/>
<path d="M235.379 285.657H215.547V274.987H212.304V285.657H208.806V386.584H261.952V285.657H235.379Z" fill="#5C94CF"/>
<path d="M917.452 159.651H884.226V196.55H917.452V159.651Z" fill="#5C94CF"/>
<path d="M948.626 196.549H851.99V377.91H948.626V196.549Z" fill="#5C94CF"/>
<path d="M966.589 201.757H961.046L958.826 197.82V186.439L956.031 183.084H950.991L940.839 163.765L931.374 183.06L920.4 182.933C920.4 182.933 919.609 176.511 919.162 171.727C918.715 166.943 919.913 156.249 919.913 156.249H917.365L917.389 149.932C917.389 149.932 922.245 138.247 922.061 126.93C921.886 115.605 911.558 103.418 910.488 101.006C912.389 99.6559 911.79 97.1002 911.327 96.4533C910.863 95.8064 909.609 92.9711 908.986 88.0593C908.986 88.0593 908.292 78.2757 909.681 75.2807C911.079 72.2858 910.68 71.4871 908.004 68.7876C905.328 66.0881 905.488 65.2895 907.285 61.2003C909.082 57.1112 908.092 52.7105 904.49 49.42C900.504 45.7781 899.993 -0.129028 899.993 -0.129028C899.993 -0.129028 899.993 46.0497 895.496 49.42C891.599 52.3431 890.904 57.1112 892.701 61.2003C894.498 65.2974 894.65 66.0961 891.982 68.7876C889.306 71.4871 888.907 72.2858 890.305 75.2807C891.702 78.2757 891 88.0593 891 88.0593C890.377 92.9711 889.123 95.8064 888.659 96.4533C888.196 97.1002 887.589 99.6559 889.498 101.006C888.428 103.426 878.108 115.613 877.925 126.93C877.749 138.255 882.597 149.932 882.597 149.932L882.621 156.249H880.073C880.073 156.249 881.271 166.943 880.824 171.727C880.377 176.511 879.57 183.084 879.57 183.084L868.372 183.06L858.708 166.408L848.987 183.084H843.947L841.152 186.439V197.82L838.932 201.757H833.389L831.719 380.051H968.259L966.582 201.757H966.589ZM863.452 288.5V295.728H856.072V288.5C856.072 288.5 855.617 284.586 859.762 282.326C863.899 284.586 863.452 288.5 863.452 288.5ZM863.452 251.841V259.069H856.072V251.841C856.072 251.841 855.617 247.928 859.762 245.667C863.899 247.928 863.452 251.841 863.452 251.841ZM863.452 205.862V213.09H856.072V205.862C856.072 205.862 855.617 201.949 859.762 199.688C863.899 201.949 863.452 205.862 863.452 205.862ZM909.202 165.969L913.451 162.495L915.768 167.127V180.457L909.202 178.931V165.969ZM895.96 165.562L899.993 160.897L904.026 165.562V178.931H895.952V165.562H895.96ZM899.993 223.904C902.565 223.904 904.649 225.988 904.649 228.56C904.649 231.132 902.565 233.216 899.993 233.216C897.421 233.216 895.337 231.132 895.337 228.56C895.337 225.988 897.421 223.904 899.993 223.904ZM884.226 167.127L886.543 162.495L890.792 165.969V178.931L884.226 180.457V167.127ZM899.993 259.636C917.764 269.971 917.173 282.893 917.173 282.893V309.505H882.813V282.893C882.813 282.893 882.222 269.971 899.993 259.636ZM922.277 350.724V377.91H877.717V350.724C877.717 350.724 877.31 332.53 900.001 320.886C922.692 332.538 922.285 350.724 922.285 350.724H922.277ZM945.096 288.5V295.728H937.716V288.5C937.716 288.5 937.261 284.586 941.406 282.326C945.551 284.586 945.096 288.5 945.096 288.5ZM945.096 251.841V259.069H937.716V251.841C937.716 251.841 937.261 247.928 941.406 245.667C945.551 247.928 945.096 251.841 945.096 251.841ZM945.096 205.862V213.09H937.716V205.862C937.716 205.862 937.261 201.949 941.406 199.688C945.551 201.949 945.096 205.862 945.096 205.862Z" fill="#5C94CF"/>
<path d="M1050.24 379.987V299.162L1044.02 290.361L1032.25 283.948L1020.48 290.361L1014.27 299.162V379.987H1050.24Z" fill="#80BAE5"/>
<path d="M1061.66 379.987V293.324H1055.53H1049.38V379.987H1061.66Z" fill="#80BAE5"/>
<path d="M1084.9 379.987V291.095H1072.86H1060.81V379.987H1084.9Z" fill="#80BAE5"/>
<path d="M1107.77 379.986L1107.78 290.353H1095.92H1084.06L1084.05 379.986H1107.77Z" fill="#80BAE5"/>
<path d="M1115.21 380.05L1115.22 295.728H1125.04" fill="#80BAE5"/>
<path d="M1196.28 380.075V297.134L1184.08 284.459H1169.06H1154.03L1141.82 297.134V380.075H1196.28Z" fill="#80BAE5"/>
<path d="M1244.95 379.987V276.871L1229.5 255.259V250.1C1229.5 250.1 1232.69 246.65 1229.5 244.038C1226.31 241.427 1226.78 232.865 1226.78 232.865C1226.78 232.865 1227.24 241.427 1224.05 244.038C1220.87 246.65 1224.05 250.1 1224.05 250.1V255.259L1208.62 276.871V379.987H1244.94H1244.95Z" fill="#80BAE5"/>
<path d="M1274.76 253.91L1281.59 261.337V268.022H1292.07L1292.06 379.987H1243.83L1243.85 268.022H1267.93V261.337L1274.76 253.91H1274.76Z" fill="#80BAE5"/>
<path d="M1291.45 379.987L1291.47 276.879H1312.52L1320.43 269.955H1337.1L1341.06 267.128H1386.56V261.904H1393.2V257.384H1440.77V379.22L1291.45 379.987Z" fill="#80BAE5"/>
<path d="M1188.92 379.987V290.281L1209.47 276.872L1209.45 379.987H1188.92Z" fill="#80BAE5"/>
<path d="M1144.95 379.987L1144.97 295.728H1126.35H1107.73L1107.71 379.987H1144.95Z" fill="#80BAE5"/>
<path d="M1440.08 407.034V377.277C1440.08 377.277 732.252 373.593 309.242 374.002C131.137 374.175 32.1123 390.296 14.4429 394.945C-3.22647 399.595 0.493074 407.034 0.493074 407.034H1440.08Z" fill="#BBDDF4"/>
<path d="M1244.88 348.76C1244.71 360.309 1244.83 377.408 1244.83 377.408H968.179L967.907 356.858C967.907 356.858 1117.15 346.883 1138.2 343.561C1159.25 340.238 1168.49 337.283 1180.68 332.851C1192.88 328.418 1262.58 304.083 1312.48 297.582C1362.37 291.08 1433.87 285.362 1440.69 285.362V334.32C1440.69 334.32 1421.94 338.281 1420.5 344.399H1428.78L1430.58 406.815H1295.58L1296.3 341.883C1288.88 341.604 1279.98 341.804 1270.04 343.153C1260.32 344.471 1251.86 346.572 1244.88 348.768V348.76Z" fill="#5C94CF"/>
</g>
<defs>
<clipPath id="clip0_772_69">
<rect width="1440" height="407" fill="white"/>
</clipPath>
</defs>
</svg>
