<?xml version="1.0" encoding="UTF-8"?>
<svg id="Dinant" xmlns="http://www.w3.org/2000/svg" version="1.1" viewBox="0 0 1416.69 527.26">
  <path d="M93.36,152.2c1.93,0,1.93-3,0-3s-1.93,3,0,3h0Z" fill="#163e62" stroke-width="0"/>
  <path d="M331.57,477.3l-1.01-328.84v-38.08l63.47-11.83v-27.42l28.23-15.86,37.64,10.48,78.77,13.98,9.41,3.49,90.06,65.23,68.29,31.01h59.57l1.81,23.41,19.05-5.67,6.7-5.87v-11.29l18.07.9v18.52s30.14,1.25,45.33,4.59c19.86.27,78.36.4,78.36.4l15.46-4.8h28.12l32.25,14.53,36.26,32.15h0l-1.07,230.88-712.42.08" fill="#bbddf4" stroke-width="0"/>
  <path d="M77.98,477.3v-126.37s5.69-10.54,12.78-13.36,31.91-40.04,47.15-41.82c15.24-1.77,53.53-1.42,64.52-29.78s17.37-60.27,31.2-63.1,33.5-26.94,46.88-28.01c13.38-1.06,38.2-23.75,46.35-25.53,8.15-1.77,30.13-8.15,37.93-7.8,2.13-10.28,2.13-15.6,16.31-21.27,14.18-5.67,25.53-24.46,30.84-19.5,5.32,4.96,71.97-9.57,81.54-5.67s39.35,15.24,49.63,16.31c10.28,1.06,50.34,40.77,57.08,54.24s13.9,21.63,20.25,21.98c0,0,45.64,11.22,56.48,10.67,10.84-.54,25.21,3.18,29.27,6.6,4.07,3.42,43.13,15.62,49.07,16.43s64.23,7.5,67.49,7.14c0,0,17.96-.2,29.83-1.08s61.7-.09,71.2,2.02,28.74-23.2,39.82-22.94,25.58,3.04,31.64,7.72c6.06,4.68.79,17.86,9.49,19.71s19.78,5.14,24.26,13.65c4.48,8.5,25.05-6,31.12-5.74,6.06.26,20.04,7.65,29.01,14.24,8.97,6.59,13.4,13.45,31.62,14.77,18.22,1.32,43.8,6.06,50.79,13.45,6.98,7.38,74.69,53.6,79.76,69.98s0,123.09,0,123.09l-1173.3-.03" fill="#99caed" stroke-width="0"/>
  <polygon points="555.51 477.3 555.49 341.55 588.84 312.15 606.05 312.15 623.26 312.15 656.6 341.55 656.59 477.3 555.51 477.3" fill="#5c94cf" stroke-width="0"/>
  <polyline points="557.68 477.3 557.7 312.15 554.41 312.15 554.41 317.12 547.17 317.12 547.17 328.58 520.59 328.39 515.32 322.79 510.05 328.39 472.94 328.65 472.96 477.3 557.68 477.3" fill="#5c94cf" stroke-width="0"/>
  <polygon points="402.5 477.3 402.49 342.1 417.44 331.34 437.89 331.34 458.34 331.34 473.29 342.1 473.28 477.3 402.5 477.3" fill="#5c94cf" stroke-width="0"/>
  <polygon points="361.07 477.3 361.06 345.24 382.03 345.24 403.01 345.24 403 477.3 361.07 477.3" fill="#5c94cf" stroke-width="0"/>
  <polygon points="333.56 336.6 348.01 336.6 358.66 336.6 358.66 329.56 362.46 329.56 362.64 477.3 333.38 477.3 333.56 336.6" fill="#5c94cf" stroke-width="0"/>
  <polygon points="217.78 479.38 217.77 347.32 236.04 347.32 254.31 347.32 254.3 479.38 217.78 479.38" fill="#5c94cf" stroke-width="0"/>
  <polygon points="180.93 477.47 180.92 336.13 199.75 336.13 218.57 336.13 218.56 477.47 180.93 477.47" fill="#5c94cf" stroke-width="0"/>
  <polygon points="65.9 477.3 65.9 357.77 123.81 357.77 181.72 357.77 181.72 477.3 65.9 477.3" fill="#5c94cf" stroke-width="0"/>
  <polygon points="293.6 353.51 264.06 353.51 264.06 336.3 258.72 336.3 258.72 353.51 253.28 353.51 253.29 477.3 333.9 477.3 333.91 353.51 293.6 353.51" fill="#5c94cf" stroke-width="0"/>
  <polygon points="33.27 350.93 8.44 350.93 8.44 337.57 4.38 337.57 4.38 350.93 0 350.93 0 477.3 66.54 477.3 66.54 350.93 33.27 350.93" fill="#5c94cf" stroke-width="0"/>
  <rect x="719.89" y="201.34" width="41.6" height="46.2" fill="#5c94cf" stroke-width="0"/>
  <rect x="679.53" y="247.54" width="120.99" height="227.08" fill="#5c94cf" stroke-width="0"/>
  <path d="M823.01,254.06h-6.94l-2.78-4.93v-14.25l-3.5-4.2h-6.31l-12.71-24.19-11.85,24.16-13.74-.16s-.99-8.04-1.55-14.03.94-19.38.94-19.38h-3.19l.03-7.91s6.08-14.63,5.85-28.8c-.22-14.18-13.15-29.44-14.49-32.46,2.38-1.69,1.63-4.89,1.05-5.7s-2.15-4.36-2.93-10.51c0,0-.87-12.25.87-16,1.75-3.75,1.25-4.75-2.1-8.13s-3.15-4.38-.9-9.5,1.01-10.63-3.5-14.75c-4.99-4.56-5.63-62.04-5.63-62.04,0,0,0,57.82-5.63,62.04-4.88,3.66-5.75,9.63-3.5,14.75,2.25,5.13,2.44,6.13-.9,9.5-3.35,3.38-3.85,4.38-2.1,8.13s.87,16,.87,16c-.78,6.15-2.35,9.7-2.93,10.51-.58.81-1.34,4.01,1.05,5.7-1.34,3.03-14.26,18.29-14.49,32.46-.22,14.18,5.85,28.8,5.85,28.8l.03,7.91h-3.19s1.5,13.39.94,19.38-1.57,14.22-1.57,14.22l-14.02-.03-12.1-20.85-12.17,20.88h-6.31l-3.5,4.2v14.25l-2.78,4.93h-6.94l-2.09,223.24h170.95l-2.1-223.24h.01ZM693.88,362.67v9.05h-9.24v-9.05s-.57-4.9,4.62-7.73c5.18,2.83,4.62,7.73,4.62,7.73ZM693.88,316.77v9.05h-9.24v-9.05s-.57-4.9,4.62-7.73c5.18,2.83,4.62,7.73,4.62,7.73ZM693.88,259.2v9.05h-9.24v-9.05s-.57-4.9,4.62-7.73c5.18,2.83,4.62,7.73,4.62,7.73ZM751.16,209.25l5.32-4.35,2.9,5.8v16.69l-8.22-1.91v-16.23h0ZM734.58,208.73l5.05-5.84,5.05,5.84v16.74h-10.11v-16.74h.01ZM739.63,281.79c3.22,0,5.83,2.61,5.83,5.83s-2.61,5.83-5.83,5.83-5.83-2.61-5.83-5.83,2.61-5.83,5.83-5.83ZM719.89,210.7l2.9-5.8,5.32,4.35v16.23l-8.22,1.91v-16.69h0ZM739.63,326.52c22.25,12.94,21.51,29.12,21.51,29.12v33.32h-43.02v-33.32s-.74-16.18,21.51-29.12ZM767.53,440.58v34.04h-55.79v-34.04s-.51-22.78,27.9-37.36c28.41,14.59,27.9,37.36,27.9,37.36h-.01ZM796.1,362.67v9.05h-9.24v-9.05s-.57-4.9,4.62-7.73c5.19,2.83,4.62,7.73,4.62,7.73ZM796.1,316.77v9.05h-9.24v-9.05s-.57-4.9,4.62-7.73c5.19,2.83,4.62,7.73,4.62,7.73ZM796.1,259.2v9.05h-9.24v-9.05s-.57-4.9,4.62-7.73c5.19,2.83,4.62,7.73,4.62,7.73Z" fill="#5c94cf" stroke-width="0"/>
  <g>
    <polygon points="927.74 477.22 927.74 376.02 919.96 365 905.22 356.97 890.48 365 882.7 376.02 882.7 477.22 927.74 477.22" fill="#80bae5" stroke-width="0"/>
    <polygon points="942.04 477.22 942.04 368.71 934.36 368.71 926.67 368.71 926.67 477.22 942.04 477.22" fill="#80bae5" stroke-width="0"/>
    <polygon points="971.14 477.22 971.14 365.92 956.06 365.92 940.98 365.92 940.98 477.22 971.14 477.22" fill="#80bae5" stroke-width="0"/>
    <polygon points="999.77 477.22 999.78 364.99 984.93 364.99 970.08 364.99 970.07 477.22 999.77 477.22" fill="#80bae5" stroke-width="0"/>
    <polyline points="1009.09 477.3 1009.1 371.72 1021.39 371.72" fill="#80bae5" stroke-width="0"/>
    <polygon points="1110.59 477.33 1110.59 373.48 1095.31 357.6 1076.5 357.6 1057.68 357.6 1042.4 373.48 1042.4 477.33 1110.59 477.33" fill="#80bae5" stroke-width="0"/>
    <path d="M1171.52,477.22v-129.11l-19.34-27.06v-6.46s3.99-4.32,0-7.59-3.41-13.99-3.41-13.99c0,0,.58,10.72-3.41,13.99s0,7.59,0,7.59v6.46l-19.33,27.06v129.11h45.49Z" fill="#80bae5" stroke-width="0"/>
    <polygon points="1208.83 319.36 1217.39 328.65 1217.39 337.02 1230.52 337.02 1230.51 477.22 1170.12 477.22 1170.13 337.02 1200.29 337.02 1200.29 328.65 1208.85 319.36 1208.83 319.36" fill="#80bae5" stroke-width="0"/>
    <polygon points="1229.74 477.22 1229.76 348.12 1256.11 348.12 1266.02 339.45 1286.9 339.45 1291.85 335.91 1348.82 335.91 1348.82 329.37 1357.13 329.37 1357.13 323.7 1416.69 323.7 1416.69 476.26 1229.74 477.22" fill="#80bae5" stroke-width="0"/>
    <polygon points="1101.37 477.22 1101.37 364.9 1127.1 348.11 1127.08 477.22 1101.37 477.22" fill="#80bae5" stroke-width="0"/>
    <polygon points="1046.32 477.22 1046.34 371.72 1023.03 371.72 999.72 371.72 999.7 477.22 1046.32 477.22" fill="#80bae5" stroke-width="0"/>
  </g>
  <path d="M0,514.11c44.594,6.16,111.648,12.997,193.304,11.607,100.398-1.71,137.149-14.397,227.009-18.517,124.366-5.701,120.393,15.557,266.677,18.533,181.083,3.683,222.188-28.18,340.867-15.038,60.609,6.711,121.602,9.338,182.391,14.152,3.711.294,16.212,1.251,32.317,1.028,17.453-.242,26.287-1.658,40.685-2.905,40.502-3.506,84.756-2.177,101.56,1.039,1.999.383,9.247,1.87,19.11,2.141,5.382.148,9.818-.114,12.77-.366-.003-16.475-.007-32.95-.01-49.424H0v37.75Z" fill="#bbddf4" stroke-width="0"/>
  <path d="M1171.43,440.45c-.21,14.46-.06,35.87-.06,35.87h-346.37l-.34-25.73s186.85-12.49,213.21-16.65,37.92-7.86,53.19-13.41c15.26-5.55,102.54-36.02,165.01-44.16s151.99-15.3,160.52-15.3v61.3s-23.47,4.96-25.28,12.62h10.37l2.25,91.15h-169.02l.9-94.3c-9.29-.35-20.43-.1-32.87,1.59-12.18,1.65-22.77,4.28-31.51,7.03v-.01Z" fill="#5c94cf" stroke-width="0"/>
</svg>