<?xml version="1.0" encoding="UTF-8"?>
<svg id="Layer_1" data-name="Layer 1" xmlns="http://www.w3.org/2000/svg" version="1.1" viewBox="0 0 960 1024">
  <defs>
    <style>
      .cls-1 {
        fill: #b5b5b5;
      }

      .cls-1, .cls-2, .cls-3, .cls-4, .cls-5, .cls-6, .cls-7, .cls-8, .cls-9, .cls-10, .cls-11, .cls-12, .cls-13, .cls-14, .cls-15, .cls-16, .cls-17, .cls-18, .cls-19, .cls-20, .cls-21, .cls-22 {
        stroke-width: 0px;
      }

      .cls-2 {
        fill: #898989;
      }

      .cls-3 {
        fill: #282828;
      }

      .cls-4, .cls-23 {
        fill: none;
      }

      .cls-5 {
        fill: #809da8;
      }

      .cls-6 {
        fill: #c4e5f9;
      }

      .cls-7, .cls-10 {
        fill: #d6eefc;
      }

      .cls-8 {
        fill: #9fd4f3;
      }

      .cls-9 {
        fill: #d82f20;
      }

      .cls-10 {
        fill-rule: evenodd;
      }

      .cls-23 {
        stroke: #9fd4f3;
        stroke-miterlimit: 10;
        stroke-width: .5px;
      }

      .cls-11 {
        fill: #b2b2b2;
      }

      .cls-12 {
        fill: #475c63;
      }

      .cls-13 {
        fill: #a8a8a8;
      }

      .cls-14 {
        fill: #777;
      }

      .cls-15 {
        fill: #033376;
      }

      .cls-16 {
        fill: #a5ddf9;
      }

      .cls-17 {
        fill: #161616;
      }

      .cls-18 {
        fill: #383838;
      }

      .cls-19 {
        fill: #fcea5c;
      }

      .cls-20 {
        fill: #494949;
      }

      .cls-21 {
        fill: #01527f;
      }

      .cls-22 {
        fill: #fff;
      }
    </style>
  </defs>
  <g>
    <rect class="cls-4" x="-1.1" width="961.1" height="1024.9"/>
    <g>
      <path class="cls-7" d="M648,55.9l1.5-2.6-.9-2,3-5.2h1.4l-.3-3.2-.5-.3,1.1-.8s.4-.2.2-.7h0c.5,0,1.3-.3,1.7-.8.6-.6.5-1.5,0-1.9s-1.1-.4-1.1-.4c0,0,0-.9-.9-1.2-.8-.3-2.4-.6-2.7-1.4-.3-.8-.4-2.3-.4-2.7s-.5-1.2-1.2-1.3c-.7,0-1.3.3-1.8.8-.5.4-.8.8-.9,1.4,0,.6.3,1,0,1.4-.2.3-.6.4-.6.4,0,0-.7-.4-1.1-.2-.4.2-.3.8-.3.8,0,0-.7.3-.7.9s0,.7.4.9l-2.8,1.2.6,1.3-3,5.2-2.2.3-1.2,2.2-27.2,5.5c-.7,0-1.9.3-3.3.5-29.1,4-51.9-7.9-64.6-13-26-10.4-50-8.5-71.1-6.8-65.9,5.3-75.1,52.5-135.4,51.8-18.6-.2-31.4-4.8-53.3,1.5-18.5,5.3-23.5,15.3-46.5,25.4-5.8,2.6-11,4.2-15.5,5.5-7,2.1-13,3.3-17.5,4.1-3.9.7-6.8,1-7.4,1.1-4.6.6-31.4,4.7-49.3,14.9-27.5,15.8-26.9,42.4-50.2,58.3-1.3.9-6.4,4.3-10.2,10.6-1.1,1.8-7.4,12.1-3.6,22.3.6,1.6,1.7,4,5.8,8.4,9,9.5,18.8,14.1,20.1,14.7,10.9,5.2,28.9,16.1,56.3,34.4l537.7,68.6c34.9-19.4,69.8-38.8,104.7-58.3,3.8-2.6,9.1-6.9,13.7-13.6,6.9-9.9,8.3-19.9,10.6-31.7,1.4-7.1,2-14.7,2-23.7-4.6-7.7-11.7-18.6-22-30.3-22.7-25.9-47.4-40.7-64.1-50.5-25.5-15-30.4-13.5-47.6-26.4-14.3-10.8-25.8-18.3-34.2-29.4-4.8-6.3-11.9-17.8-15-36h-.2ZM654.1,38.4s1.3.3,1,1.2c-.2.7-1.3,1-1.7,1.2v-1.5l.7-.8h0ZM645.2,38.5l-1.1-.6h.2c.7.2,1.3-.2,1.3-.8s-.4-.7-.4-.7c0,0,0-.5.4-.4.4,0,.8.2,1,.4s.5.2.4.5-.3.8-.7.9c-.2,0-.8.5-1,.7h-.1ZM649.5,41l-3.7-2.1c.3-.2.7-.5,1-.7.4-.3.6-.4.8-.6.2-.2,1.3.7,2.1.9s1.7,0,1.7,0c0,0-.6.8-.6,1.3s0,.5-.3.7c-.3,0-.8.4-1.1.5h0ZM652.5,41.6c-.2,0-.7.4-1,.6l-1.4-.8c.4,0,1.1-.4,1.1-.5,0-.2.2-.9.5-1,.4,0,.6.5.7.8,0,.3.3.8,0,.9h.1Z"/>
      <path class="cls-6" d="M313.7,115.1l-.7-1.2v-.5c-.1,0-.9-.2-.9-.2l-.6-1v-.5h-.6l-.2-.3-.9-.7.2,1.1.2.3h-.3c0,0,.6,1.2.6,1.2l-8.5,5-1.5-2.5v-.3l-.5-.9-.6-.2-.5-.8v-.2l-.3-.6h-.5c0,0-.4-.9-.4-.9v-.3l-.2-.5-.7-.2-.7-1.2h-.2v.4c.1,0-.1.2-.1.2l-.4-.8v-.2l-.4-.8h-.1v-.2h-.1l-.4-.8h0c0,0-.1,0-.1,0l-.9-1.3h0l-.6-1.1h0v.2h0l-.3-.4h-.2l-.4-.6h0v-.2h-.2v.2h0c0,0,.1,0,.1,0l-.2-.3h-.2l-.2-.4h-.2c0,0,0,0,0,0h0l-.2-.4h-.2c0,0,0,0,0,0h.1v-.3h-.1l-.2-.2h0l-.2-.3v-.2h-.2c0,0-.2.3-.2.3h0l.2.2.2.4h0l.2.3h0v.3h.2-.2c0,0,.2.4.2.4h-.2c0,0,.2.4.2.4h-.2l.2.4h.1-.1v.3h.1c0,0,.4.9.4.9h-.2l.3.5h0l.6,1.1h0l.7,1.4h-.1l.4.8h.1v.2h-.1l.5.9h.2l.4.8-.3.2v-.2h-.3v.2l.7,1.2-.2.7.3.5h.3l.4.8v.5c-.1,0,.2.6.2.6h.2l.5.9-.2.6.5.9h.3c0,0,1.5,2.7,1.5,2.7l-11.3,6.6-.5-.9-.5.3-.3-.6-.3.2.7,1.2v.6h-.2l-.4-.7-.3.2.3.6h-.1l-.4-.6h.1l-.2-.3v-.4c.1,0-.2-.5-.2-.5h-.6l-1.1-1.3.6,1.6-.4.3h0c0,0-.2,0-.2,0l.3.5h0c0,.1.2.4.2.4h.3l.8,1.4v.2l.2.4h-.1l-.2-.3-.2.3.2.4h0c0,.1.2.4.2.4h.3l.9,1.6-.3.7.6,1h.2c0,.1.2.5.2.5l3.7,6.3,30-17.5-4.7-8-.8-.2h0l-.6-.7ZM294.1,112.7h-.2l-.5-.9.3-.2.3.4v.6h.1ZM296.1,110.7l-.3-.4.3-.2.5.9v.2l-.5-.4h0Z"/>
      <path class="cls-6" d="M321,72.5c-6.1,1.6-5.2,1.5-8.1,3.3l-7.1-11.5-3,1.9-.5-.8-1.7,1.1-2.7-4.4-.4.3-.5-.8-2.8,1.8-.2-.3-.5.3-.2-.4-.5.3v-.2c-.2-.3-.5-.7-.7-1s-.5-.7-.8-1c.1.4.3.8.5,1.1.2.4.4.7.6,1.1,0,0,0,0,.1.2l-.7.4.2.4-.5.3.2.3-2.6,1.6.5.9-.7.4,3,4.8-1.9,1.2-3.4-2c.4-1.1.4-2.3-.3-3.3-.9-1.5-2.7-2-4.2-1.6l-3-5.7c1.6-1.3,1.9-3.8.4-5.4-1.1-1.3-2.9-1.7-4.4-1-1.3.5-2,1.6-2.3,2.8l-9.9-.2c0-.6-.3-1.1-.7-1.6-1.1-1.5-3.2-2-4.8-1-1.8,1.1-2.3,3.4-1.2,5.1.3.4.6.7.9,1l-4.1,9.1c-1.1-.3-2.3,0-3.3.6-1.5,1.1-2,3.1-1.2,4.8,1,2,3.4,2.7,5.3,1.7l3.8,5.3c-1,1.2-1.1,2.9-.3,4.3.7,1.2,2,1.8,3.2,1.7l.4,3.6-.6.5-.6-.8-1,.7.6.8-1,.7-2.3-3.2-2,1.4-1.6-2.2-.9.7-.4-.5-2.6,1.9.4.5-.8.6,3.1,4.2-.9.7-3.5-4.8-.3-.4-.7.5-.5-.6-1,.7.7,1-.4.3,2.2,3-5.3,3.8.6.8-.5.4.7,1-.9.6-.8-1.2-.4.3-.5-.7-4.6,3.4.8,1.1-.6.5.7,1-.5.4-.7-1-2.9,2.1-3.3-4.5-.6.5-.6-.8-2.5,1.8-.2-.3-.4.3-.2-.3-.6.5s0,0-.1-.2c-.2-.3-.5-.7-.8-1s-.5-.6-.9-.9c.2.4.4.7.6,1.1.2.4.4.7.7,1,0,0,0,0,.1.2l-.5.3.2.3-.4.3.2.3-2.7,2,.6.8-.4.3,3,4.2-1.6,1.2.5.7-2.9,2.1,8.1,11c-34.3,21.7-57.3,36.2-77.8,49-20.9,13.1-37.8,23.5-42.3,42.8-2.6,11.1-3.5,23.4-1.1,30.1l52.6,32.3,551.7,67.9c42.8-43.6,80.7-57.1,109.2-60.6,22.7-2.8,44,1,56.6-14,12.3-14.7,14.7-42.8,3-59-8.5-11.8-20-11.4-25.7-26.4-3.3-8.7-1.1-13.5-6.7-21.5-1-1.5-.9-2.7-12.8-15-.9-1-1.7-1.7-2.5-2.5-1.6-1.6-3.6-2.9-5.8-3.6-1.7-.6-3.5-1.2-6.5-3-3.5-2-4.9-3.5-7.9-5.4-24.8-15.8-37-11.7-94.6-27.7-34.8-9.7-52.2-14.6-69.3-21.5-27.9-11.4-55.3-26.1-77.4-38-25.4-13.6-27.6-16-39.9-20.8-13.4-5.2-36-13.8-65.5-13.8s-52.5,2-93.4,30.4l-50.2,21.8h.1ZM279.2,79.1l-3.1,1.9-3.1-3.6c1.1-1.3,1.3-3.2.3-4.8-.1-.2-.2-.3-.3-.5l6.7-.8c0,.3.2.6.4,1,.3.5.6.8,1.1,1.1,0,0-2,5.7-2,5.7ZM275.8,62c.7.2,1.5,0,2.2-.2l3,5.7c-.8.6-1.3,1.6-1.4,2.6l-7.4.9,3.6-9h0ZM272.1,78.4l.8-.5.2.2-.3.6-.4.2-.3-.5h0ZM274.5,79.8h-.7l.2.9-.5-.9h.3l-.4-1.3,1.1,1.3ZM275.7,81.3l-.9.6-.6-1,.4-.9,1.1,1.4h0ZM265.7,84.6l-1.5-.2c0-.6-.2-1.3-.6-1.8-.1-.2-.3-.4-.5-.6l3.2-5.3s0,.2.1.3c.9,1.5,2.7,2.2,4.3,1.8l.3.5-.8.5.2.4,3.1,5-.3.2h-.9l-2.5-4.1-.9.5-.4-.6-2.7,1.7.4.6-.9.6.3.4h0ZM265.7,75.2l-3.6,6.1c-1-.5-2.3-.5-3.4,0l-3.8-5.2c.4-.5.7-1,.9-1.6l10,.7h0ZM258.4,61.3c.7.2,1.5.2,2.3,0l6.6,10.5c-.6.6-1.1,1.3-1.2,2.1l-10.1-.7c0-.6-.2-1.1-.6-1.6-.3-.4-.6-.8-1-1.1l4.1-9.1h0ZM272.9,58.8c0,.5.3,1,.5,1.5.3.5.7.9,1.2,1.2l-3.7,9.3c-.8-.2-1.7,0-2.5.2l-6.5-10.5c.6-.5,1-1.2,1.2-1.9l9.9.2h-.1ZM286,72.8l3,1.8.6.9-.5.3-.6-1-.7.4-.7-1.1-4.9,3,.4.7-.5.3.8,1.2-.9.6-.6-1-.5.3-.2-.3,1.8-5.1c.9.2,1.9,0,2.8-.5.3-.2.5-.4.8-.6h0ZM268.1,100c-.1,0-.2,0-.4.2l-5.2-7.1-.6-5.2c.2,0,.4-.2.5-.3.8-.5,1.3-1.2,1.5-1.9l2.6.3.3.4-2.1,1.3,2.1,3.3-1,.7-.5-.9-1,.7.5.9-1,.7,4.4,7h0Z"/>
      <path class="cls-8" d="M132.9,192.8c-1.2,1.5-4,1.1-3.7,0,.5-1.8-.6-1.3-1.1-.9-1.3,1-3.2-2.3-2.6-3.9.3-.9-2.7-1.7-6.7,2.7-3.7,4.7-2.4,7.5-1.6,7.1,1.4-.8,5,.6,4.2,2-.3.5-.6,1.6,1.1.9,1-.4,1.8,2.3.5,3.7,1.8,3.8.7,6.3.7,6.3-1.1,1.3-2.7,3.2-2.7,3.2l46.4,39.4,20.8-24.6-46.4-39.4s-1.6,1.9-2.7,3.1c0,0-2.3,1.5-6.3.3h.1Z"/>
      <path class="cls-8" d="M191.3,156.4l-1.5,1.3-1.3-1.5-1.2-1.3-1.9,1.8-2.3-2.5-1.6,1.5-2.2-2.4-1.4,1.3-2.6-2.9-1.6,1.5-2.3-2.6-1.7,1.5-2.3-2.5-1.6,1.4-2.1-2.3-.4.3-1.1,1,2.1,2.3-1.6,1.4,2.3,2.5-1.7,1.5,2.3,2.6-1.6,1.5,2.6,2.9-1.4,1.3,2.2,2.4-1.6,1.5,2.3,2.5-1.9,1.8,1.2,1.3-1.1,1-1.2-1.3-1.9,1.8-2.3-2.5-1.6,1.5-2.2-2.4-1.4,1.3-2.6-2.9-1.6,1.5-2.3-2.6-1.7,1.5-2.3-2.5-1.6,1.4-2.1-2.3-1.1,1-.7.7,2.1,2.3-1.6,1.4,2.3,2.5-1.7,1.5,2.3,2.6-1.6,1.5,2.6,2.9-1.4,1.3,2.2,2.4-1.6,1.5,2.3,2.5-1.9,1.8,2.4,2.6-1.1,1,36.5,40.1,46.6-42.4-36.6-39.7h-.2Z"/>
      <path class="cls-8" d="M453.3,40l-.2-2.7.6-.5h-.6s-.9-1.2-.8-4.1c0-.8.5-.5-.2-1.1s-.1-.5,0-.8c0-.2.2-1-.5-.5-.3.3,0,.7-.2.8-.2.1-.6.2-.5,1.4v3.5l-.3.8-3.4.2-1.1-1.3s-.2-2.3,0-2.4c.2-.2,1-.6.3-1.5-.2-.8,0-.8-.4-.8s-.4-.9-1.2-.4c-.3.2.6.7.2.9-.3.2-.6.2-.6.9s-.2.9-.2.9l-1-1.2-2,.2v-1.5h-1.3l-.2-2.3-2.7.2.2,2.5h-.7l-2.2-1.6-.3-4.7,1.1-.8v-.4l-.7-.4v-.9l-.7-1.3h-.5s-.7-3.3-5.4-6.1v-.5s-.5.2-.8-.1c-.2-.3,1.2-.4,0-1-1.1-.6-1.7-.5-1.7-.5v-.3h0v-.3h-.4s0-.5-.3-.7v-.4s.3-.9-.3-1c0-.6-.3-2.3-.3-2.6s1.1,1.4,1.1,1.5,0,.7.3.5c.2-.3-1.1-2-1.1-2.7s-.2-1.1.3-1.1.9-.7.3-1.6,0-1.2-1.2-.8c-1.2.3-1.5,1-1.9,1.1-.5.2.4,1,.5,1.2.1.3,1,0,1,0,0,0,.1.5,0,.9,0,.4.5,2.9.6,3.5-.4.3,0,1,0,1v.4c-.3.2-.2.7-.2.7h-.3v.3h0v.3s-.6,0-1.6.8c-1,.7.4.6.2,1-.2.3-.7.3-.7.3v.5c-4.2,3.5-4.5,6.9-4.5,6.9h-.5l-.4,1.4v.9l-.6.5v.4l1.3.6.6,8s-.1-.7-.5-.7,0-.4,0-.6-.1-.8-.6-.6-.3.6-.1.7c.2,0,.2.3.1.3,0,0-.7,0-.8.5,0,.4-.1.4-.1.4l-4.3.3s-.2-.8-.8-.9c-.2-.3-.1-.2,0-.4,0,0,0-.6-.3-.5-.4,0-.5.3-.3.7s-.4.5-.4.7v.6h-1.2v-.5h-.5v.6h-.4v-.6h-.6v.6l-2,.7s-.1-1.4-1-1.4c-.1-.3,0-.3,0-.4s0-.6-.5-.5c-.6,0,0,.7,0,.9-.2.2-.7,0-.7.9s.2.8.5.8,0,1.9.3,3.4h-.4v.7l.7.4,6.1,87.2,49.6-3.5-5.8-82.5,1.1-1.7h-1.2l.2.2ZM423.8,4.3c-.3,0-.4.6-.2.7.3,0,.2.4.2.4,0,0-.3,0-.4,0s-.5,0-.9-.3-.2-.8.3-1c.5-.2.7-.4,1.2-.7s.8.2.8.3,0,.7.3.8.2.6,0,.6h-.8v-.4c0-.3-.1-.6-.5-.5h0Z"/>
      <path class="cls-8" d="M403.7,37c0-.2-.2-.6-.6-.7v-.4s.6-.6.2-.9c-.1-.6-.2-1.2-.2-1.2,0,0,1.2-.9-.4-1.4-.2-.6-.4-1-.5-1.3,0-.1-.2,0-.2,0v1.3c-1.3,1,.1,1.5.1,1.5,0,0,.1.6.2,1.1-.3.5.5.8.5.8v.4c-.3.3-.3.6-.3.9h-.8v.5l1,.2v.5s-3.5-.4-3.8-3.8c0-.4.5-.7.5-.7v-.4h-.6l-.2-1.1.4-.3v-.4l.4-.6v-.5l-1.2.2c0-.2-.2-.6-.6-.7v-.4s.6-.6.2-.9l-.2-1.2s1.2-.9-.4-1.4c-.2-.6-.4-1-.5-1.3,0-.1-.2,0-.2,0v1.3c-1.3,1,.1,1.5.1,1.5,0,0,.1.6.2,1.1-.3.5.5.8.5.8v.4c-.3.3-.3.6-.3.9h-.7c0,.1-3.6-3.9-3.6-3.9,0,0,2,3.9.4,3.6-1.6-.2-1-4.5-1-4.5h-.5v-.6c-.1,0,1-1.5,1-1.5,0,0-.6-2.7-4.2-3.3.1-.9,0-2.9-2.3-2.5-2.2.4-1.8,2.3-1.4,3.1-3.3,1.7-3,4.4-3,4.4l1.5,1.1v.6c.1,0-.4,0-.4,0,0,0,1.9,3.9.5,4.6s-.8-3.6-.8-3.6l-2.1,4.9h-.7c0,0-.2-.5-.6-.6v-.4s.6-.6.2-.9l-.2-1.2s1.2-.9-.4-1.4c-.2-.6-.4-1-.5-1.3,0-.1-.2,0-.2,0v1.3c-1.3,1,.1,1.5.1,1.5,0,0,.1.6.2,1.1-.3.5.5.8.5.8v.4c-.3.3-.3.6-.3.9l-1.1.2v.5l.7.5v.4h.6c0,0,.2,1.2.2,1.2h-.6v.4s.5.2.6.5c.8,3.3-2.5,4.8-2.5,4.8v-.5l.8-.5v-.4h-.9c0-.1-.2-.5-.6-.6v-.4s.6-.6.2-.9c-.1-.6-.2-1.2-.2-1.2,0,0,1.2-.9-.4-1.4-.2-.6-.4-1-.5-1.3,0,0-.2,0-.2,0v1.3c-1.3,1,.1,1.5.1,1.5,0,0,.1.6.2,1.1-.3.5.5.8.5.8v.4c-.3.3-.3.6-.3.9h-.8v.5l1,.2,12,74,28.4-4.6-12-74,.9-.5v-.4h-.9c0,0,0,1.1,0,1.1Z"/>
      <path class="cls-8" d="M374,42.3c-.6,0-.9.5-.8,1.1,0,.6-2.4-.2-1-2.5.4-.6-.2-.8-1.9-2.3h-.3c0-.3.2-1-.6-1.3-.2-.6-.3-.9-.3-.9,0,0,.3-.5-.3-.7-.1-.4-.2-.9-.2-.9,0,0,.2-.8-.4-.7-.5.2,0,.8,0,.8,0,0,.2.5.2.9-.4.5,0,.7,0,.7l.3.9c-.5.6,0,1.2.2,1.4-.2,0-.4,0-.4,0l-.7-2.6-1.7.5-.4-1.6h.5c0,0-.2-.7-.2-.7h-.5c0,0-.2-.7-.2-.7h-.4c0,0-.3-1.1-.3-1.1l.2-.4v-.4h-.6c0,.1-.4-1.3-.4-1.3l.2-.3v-.2h-.5c0,.1-.3-.9-.3-.9h-.5c0,.1.3,1.1.3,1.1h-.5v.3h.3l.4,1.5h-.5c0,0-.9-1-2.2-.9v.5c.1,0-.4.1-.4.1l-.4-1.4.4-.3-.3-1.1.7-.7-.2-.6-1.2.3-2-.5-.9.3v-.2l.6-.5v-.5c-.1,0-1.3.3-1.3.3l-.3-1.2h-.4c0-.1-.2-.7-.2-.7.3-.2.5-.6.4-1s-.5-.7-.8-.7l-.2-.5c0-.2-.2-.3-.4-.2-.2,0-.3.2-.2.4l.2.5c-.3.2-.5.6-.4,1s.5.7.8.7l.2.5-.3.3.3,1.2-1.1.3v.5h1v.2l-.9.3-1.5,1.5-1.2.3.2.6,1,.3.3,1.1h.5l.4,1.5h-.5c0,0-.1-.3-.1-.3-1.1.6-1.4,2.1-1.4,2.1h-.5c0,0-.4-1.3-.4-1.3l.2-.3v-.2h-.5c0,0-.3-.9-.3-.9h-.5c0,0,.3,1.1.3,1.1h-.5v.3h.3l.4,1.5h-.5v.5l.4.2.3,1.2h-.4c0,0,.2.9.2.9h-.5c0,0,.2.7.2.7h.5c0,0,.4,1.5.4,1.5l-1.7.5.7,2.6s-.2,0-.4,0c0-.3.2-1-.6-1.3-.2-.6-.3-.9-.3-.9,0,0,.3-.5-.3-.7-.1-.4-.2-.9-.2-.9,0,0,.2-.8-.4-.7-.5.2,0,.8,0,.8,0,0,.2.5.2.9-.4.5,0,.7,0,.7,0,0,0,.3.3.9-.5.6,0,1.2.2,1.4h-.3c-.7,2.2-1.1,2.6-.4,2.9,2.4,1.2.7,3.2.4,2.7-.3-.5-.7-.8-1.3-.5-2,1-.2,3.2-.2,3.2l19.3,69.8,29.6-8.2-19.3-69.8s.5-2.8-1.8-2.6h0l.5.6Z"/>
      <path class="cls-8" d="M737.9,192.8l.7-.2-.3,2-1.3,1.7,1.9,1.6,3.6,1.2,20.6-24.9s-.3-.4-.2-.9c.5-.3,3.4-1.4,9.4-6-1.6,3.8-2,4.6-2,4.6,0,0,.6-.6,1.2-.1.8-.7,5.2-3.3,6.7-4.5-1.8,4.3-4.3,8.8-4.2,10.3-.9.4-1.1.4-1.1.4l-1.4,1.7,4.5,3.7,23.4-28.4s-.3-.3,0-.8c.8-.2,2.3-.8,6.4-3.2-.4,2.1-1.1,3.8-1.1,3.8h1l.8-1s-.2-.6,0-1.1c.6-.2,2.1-.6,7.1-3.4-.7,1.9-1.5,4.1-1.5,4.1l7.3-2.2,1.8-2.1v-.4l-.6-.5v-.3h.3l.6.5h.4l.9-1.1v-.5c.2-.2.5-.2.7,0s.2.5,0,.7c0,.2-.3.2-.5.1l-.9,1.1v.4l.6.5v.3h-.3l-.6-.5h-.4l-1.8,2.1-1.1,12.6,1.5,1.2s3.7-1.6,5.8-3.3c-.5,2.1-1.9,6.1-1.7,7.3-.6.4-1.2.5-1.2.5l-20.7,25.2,12.4,2.6-4.1,17.4,1.6,5-1.7.3,1.9,11.2,1.8,1.5-1,1.3v.8l5,4.1-23.9,29-68.4-59.1,9.4-17.8,2.8,1.6h-.1Z"/>
      <path class="cls-8" d="M340,127.2l-24-67.3.4-.6-1.2-3.3h-.6l.4-1.9s-.2-.5.1-.9-.6-.3-.8-.8c-.2-.5-1-2.1.3-2.5,1.3-.5,1.7,1.3,1.9,1.8.2.5-.6,1.1,0,1.2.5,0,.7.6.7.6l2-4.7v-.4c-.1,0-.6.2-.6.2v-.2l.3-1,.7-.2-.2-.7.7-.8,2.4-.8s.3-1.2.9-2.6c-.5-1.3.8-2.1.3-2.3-.5-.3-1.4.2-1.9.2s-.3-.2.4-.9c.7-.6,1-.9,1.6-.6.6.3.4.5.5,0,.1-.6-.6-.5-.4-.9s.5-.3.6,0c0,.3.6.4.6.4l.5-1.4h.3c0,0,.1,0,.8.5,1.8-.3,2.5.7,2.5.7l-.8.3,6,3.8.7-.2,1,.6v.2l-.4.2v.4c.1,0,4.7,2.4,4.7,2.4,0,0-.2-.5.1-.9s-.6-.3-.8-.8c-.2-.5-1-2.1.3-2.5,1.3-.5,1.7,1.3,1.9,1.8.2.5-.6,1.1,0,1.2.5,0,.7.6.7.6l1.4,1.2-.4.5,1.2,3.3.7.2,24,67.3-28.7,10.2h0l-.8-.6Z"/>
      <path class="cls-8" d="M322,142.7l-24.9-73.8,1.2-1-.7-4.1-.6-1.8.5-6.1s-1.5-.8-.4-1.7,2.3,0,2.2-2.2c0-.6.7-.9,1.3-.6s1.1-.6.7-1.4c-.4-.8.9-1,.9-1,0,0,1.2-.7,1.3.2.2.9,1.1,1.3,1.4.7s1-.8,1.4-.4c1.4,1.9,1.7.3,3.1.4,1.4,0,.7,1.6.7,1.6l4.1,4.5.6,1.8,1.9,3.7h1.5l24.9,73.9-21.2,7.2h.1Z"/>
      <path class="cls-23" d="M227.4,91.9c1.3-.5,5.4-3.4,5.4-3.4,0,0,.6,1,1.1,1.5"/>
      <path class="cls-23" d="M233.9,90.4s-4.9,1.8-6,1.8"/>
      <path class="cls-23" d="M233.6,91.7s-2.8,2.3-3.7,2.4"/>
      <path class="cls-23" d="M241,83.9s2.5.3,4.8-1"/>
      <path class="cls-23" d="M242.2,86.8s2.4-2.5,3.6-3.6"/>
      <path class="cls-8" d="M245.4,80.8s-.1.5,0,.8c0,.3,0,.8-.2,1.2"/>
      <path class="cls-8" d="M303.2,85.9l-2.1-3.7-.8.5s-.5.2-.8-.3h-.2c0,0-.4-.6-.4-.6h-.2c0,0-.3,0-.3,0l-1.1-1.9h-.2c0,0-.2-.3-.2-.3,0,0-.8,0-1.1-.3h-.1l-.4-.6s-.5,0-.4-.4c0-.4-.3-1.1-.3-1.1,0,0-.1-.2-.3,0-.2,0,0-.3,0-.3h0c0,0-.1-.3-.1-.3v-.4c.1,0,0,0,0,0l-.5.3-.3-.2h-.2c0,0-.5.2-.5.2l-.2-.3-1.7,1v.4h-.2v.7h-.2v1.7c-.1,0,0,0,0,0h.9c0,0-.4.5-.4.5l.4.7h.4c0,0,.2.4.2.4v.2c-.1,0,.3,1.1.3,1.1v.5l-3.1,1.8v-.3c-.1,0-.4,0-.4,0l-.2-.4-1.7,1v.6l-18.2,10.5-.8-1.3h-.2s.2-.5-.3-.8-1,.2-1,.2v-.2c-.1,0-.9.4-.9.4l-1.8.4s0-.3-.2-.2c-.1,0-.8-.2-.8-.2,0,0,.3-.3.3-.4,0,0-.4-.3-.1-.5s.3-.4-.1-.5c-.5,0-.8-.4-1.1-.2-.3.2-.4,0-.3-.3,0,0,0-.5-.3-.7-.3,0-.8.3-.6.6.2.3.6.7.3.9-.3.2-.7.3-.7.7-.3.2-.8,0-.8,0,0,0,0,0-.2-.2-.1,0,.1.3,0,.3s-.6-.2-.7-.2l-.7-.3-1.4-4.2-1.4.8-.7-1.2-1.2.7-.5-.8-.8-.5-1.7,1s-.7-1-.6-1.2c0-.2-.4-.9-.4-.9,0,0,.1-1.1.6-1.3.1,0,.4.2.4-.2s.3-.7.3-.7c0,0,.4.8.5.9.1,0,.1.2.1.2,0,0-.3.5,0,.8.4.3.7-.2.6-.5-.1-.2-.4-.6-.3-.7,0,0,0-.3-.3-.4-.2,0-.4-.9-.5-1-.2,0-.4-.2-.6,0-.2.3-.5-.7-.8-.9-.3-.3-.6-.4-.7-.7-.2-.3-.4-.5-.7-.8s-.4-.7,0-1c.3-.3.6-.3.5-.5,0-.2.2-.3,0-.5s-.3-.3-.7-.2c-.4,0-.9.4-1,.2-.1-.2-.6-.4-.7.4-.1.7-.9,1.5-.9,1.6s.7-.2.9-.5c.3-.3,0,.4,0,.4,0,0-.6.7-.3,1,.3.4,0-.6.5-.5.5,0,.3.6.3.6,0,0-.4-.4-.5-.2,0,.2.1.5.1.5,0,0-.5,0-.5.2s.4.5.2.7c-.2.3.2.6.5.4.4-.2.6-.4.6-.4,0,0,.1,1.3-.4,1.8s-.7,1.1-.5,1.4c-.2.2-.4.2-.4.2l-.4-.7s0-.3-.2-.6c0-.4.2-.3,0-.6-.2-.3-.4-.5-.4-.8s-.2-.4-.4-.3c-.2,0-.1-.8-1.8-.8v-.2c-.1,0-.3-.2-.1-.3.1-.2,0-.6,0-.6,0,0,.1-.3-.1-.4-.2,0-.8-.3-1-.3s-.3-.5-.5-.2,0,.6-.1.6c0,0-.6-.4-.9,0-.3.4,0,1,.2,1s.2.5,0,.5-.7,0-1.1.2c-.5.3-1.2,0-1.5-.4-.4-.4-.3-.9-1.2-.7l-.2-.3s-.1-.8-.9-.3c-.5.3.2,1.1.4,1,.2,0,.3.3.3.3,0,0-.3.4-.2.6-.2.4-.4.6-.4.6,0,0-.7,0-.8,0,0,0-.5-.4-.6-.4-.2-.2-.8-1.2-.7-1.4,0-.2-.9-1.6-1-1.6s-.7,2-.6,2.3c0,.3.7,1.2,1.1,1.2s.9,1.4.9,1.4h-.1c0,0-.7-.2-.8,0-.1,0,.1.4.1.5,0,0-.4.4-.3.6,0,.2.1.3.1.3v.4c.2,0,.3.2.4.4,0,.2.2.2.4,0,.1,0,.2,0,.3.2,0,0,0,.5.2.8s-.2.7.1,1.3c.3.6.5,1.6.5,1.6,0,0,.4,1.3.6,1.7-.2.2-.5.2-.5.2,0,0-.8-.6-1.2-.4s-.3-.2-.9,0c-.6,0,0-1.3-.8-1.6-.9-.2-1-.4-.9-.4,0,0,.7-.2.1-.3-.5,0-.6,0-.9-.2-.3-.2,1.2,0,0-.4-1.2-.5-1.3-.9-1.8-.6-.2.2,0,.3,0,.4,0,0-.6.6-.7.7,0,0-.3.2-.3.4s0,.5.4.4c.3,0,0,.4.3.2.3,0,.3-.2.3-.2h.5c0,0,.8,1.7.9,1.9,0,.2-.3.4.4,1.7-.5.4-.3.7,0,.9.2,0,.5.8.5.8,0,0-.1,0,.1.3.3.2.2.4.2.5,0,0,.3.5.6.3s.3-.7,0-.8c-.3,0-.5-.2-.5-.3s0-.2-.2-.2l-.3-.5s.4.3.7,0c.3,0,.6-.4.9,0,.3.3.8,0,.8,0,0,0,.3.7.6.8.3,0,.7,1.1.7,1.1l-2.1,1.2v.8l.6.9-1.3.8.7,1.1-1.4.8,2.9,3.5s.1,1.7,0,2c-.2.4-.5-.5-.3.3.2.7-.2.8-.2.8,0,0-.8-.8-1.2-.5-.4.2-.9.4-.7,0,.1-.4-.2-.9-.2-.9,0,0-.4-.4-.7.3-.3.7.3.7.3.7,0,0,.4.4-.2,1s0,1.2,0,1.2c0,0-.6,0-.7.2-.1.3.2.3.4.3s.2.3.4.3h.5l.3.8-1.6.9.2.4s-1.3.6-.3,1.4l1,1.7-18.4,10.3-.5-.3-1.7,1,.2.4h-.2c0,.1.1.4.1.4l-3.1,1.8-.5-.2-.7-.9h-.2l-.2-.2v-.4l-.3-.7h-.5c0,.1,0,0,0,0l.5-.8h0c0-.1-1.5-.9-1.5-.9h-.2c0,.1-.6-.2-.6-.2h-.5l-1.7,1,.2.3-.5.3v.2c.1,0,0,0,0,0v.4l-.5.3h0l.4.2v.2h.2s.4,0,.2.2c-.2.1-.1.3-.1.3,0,0,.4.6.8.8.4.2.1.5.1.5l.4.6h-.1c.1.4-.3,1.1-.3,1.1l.2.4h-.2c0,.1,1.1,2,1.1,2v.3h-.3c0,.1.4.9.4.9h-.2c.2.6-.2.9-.2.9l-.8.5,2.1,3.7-3.7,2.1h.2v.2l1.5.3.2.4,3.7.9,1.5,2.6-.5.3v.2c.1,0,.7.2.7.2l.3.6h.3l.3.6-.5.4h0c0,.1.2.2.6.2-.2.5,0,.9.4,1.3.4.5,1.1-.2,1.1-.2l.3.5.3.2,14.3,25.5c-.2.2,0,.4,0,.4l.2.3-.2.3.2.3-.5.3.4.6-.5.3.2.4.7.4,2.4,4.2-.3.4h0c0,.1.2.2.2.2v.5l-.3.2.5.9h-.2l.9,1.6-1,.6,2.3,4,17.4-10.1-16.3-28.2c-2.7-4.7-.8-10.8,4.2-13.7s11.3-1.5,14,3.2l16.3,28.2,9.1-5.3-16.3-28.2c-2.7-4.7-.8-10.8,4.2-13.7,5-2.9,11.3-1.5,14,3.2l16.3,28.2,9.1-5.3-16.3-28.2c-2.7-4.7-.8-10.8,4.2-13.7,5-2.9,11.3-1.5,14,3.2l16.3,28.2,17.7-10.3-2.3-4-1,.6-.9-1.5h-.2l-.5-.8-.3.2-.5-.3v-.2h0c0-.1-.5-.1-.5-.1l-2.4-4.1v-.8l-.2-.4-.5.3-.4-.6-.5.3-.2-.3h-.4l-.2-.3s-.1-.3-.3-.3l-15-25.1v-.4l-.3-.5s.9-.2.7-.8c-.2-.6-.4-1-.9-1,0-.3.2-.6.2-.6h0l-.6.2-.3-.6v-.3c.1,0-.2-.6-.2-.6v-.6c.1,0,0-.2,0-.2l-.5.3-1.5-2.6,1-3.7-.2-.4.4-1.3v-.2h0c0,0-3.7,2-3.7,2l-1.3.5ZM234.3,99.3l-.5.3h-.2c-.3-.3-.4-1.3,0-1.2s.7.9.7.9h0ZM236.4,97.6c.2,0,.3.4.3.4l-1.7,1s-.5-.7-.6-1c0-.3-.4-1.2-.4-1.2h.7c.1-.2.4,0,1-.2s.4,1.1.6,1.1h0ZM235.9,91.6l-.6-.9h.6c.2,0,0,.9,0,.9ZM235.8,90.4s-.2-.4-.4-.6-.4-.5-.4-.5h.6c.5.2.4,1,.3,1h-.1ZM234.6,86.5c-.4.4-.3.8-.3.9s-.2.3-.1.5c.1.2,0,.7,0,.7,0,0-.4-.7-.5-.9,0-.2-.2-.2-.4-.6-.1-.4-.4-.8-.4-.8,0,0,.8.5,1.2.3.4-.3.9-.5.5,0h0ZM238.8,86.6c.1.4.9,1.7.8,2v.6c0,0-.1.3-.1.3l-.6.3s-.4-.9-.6-1c-.2,0-1-1.5-1-1.7s-1-1.7-1-1.7c0,0,.7.6,1.2.5.1.3,0,.4,0,.7s.3,0,.4,0,.3.2.4-.6h.2c0,0,0,.3.2.6h.1ZM240.8,86.6c-.2,0-.4,0-.5-.4s.1-.4.1-.4c0,0,.6.8.4.9h0ZM243.9,90.2c.3,0,0-.9.1-.9.2,0,.4-.2.4-.2,0,0,.6.9.2,1-.3,0,0,0-.4.3-.3.2-.4,0-.4,0h0ZM247.2,91.9l-1.7,1s0,0-.3-.5c0-.6-.3-.8-.5-.9-.1,0-.4-.6-.2-.5.2,0,.7-.3.9-.4,0-.2.1-.4.4-.6.9.3,1.5,1.9,1.5,1.9h0ZM248.1,91.4l-.3.2s-.2-.5-.5-1.2c.8,0,.9,1,.9,1h0ZM249.2,90.5v.2c-.1,0-.6.3-.6.3,0,0-.3-1.4-.2-1.8l.7,1.2h.1ZM245.8,85.1c0,0,.2-.4.2-.4.2.3-.2.5-.2.4ZM260,95.9l-.8-.2s.5,0,.7-.3c.3,0,.4.2.4.2l-.3.3h0Z"/>
      <path class="cls-16" d="M587.4,60.4c.3-1.2,1.7-6.7,1.7-6.7l-.4-.9,1.2-.6.4-1.4s0-1.3,1.2-1c1-1.2,1.8-1.8,1.8-1.8l.3-1.2.7.2.6-2.2s-2.5-2.6,1-3.6c.3-.9.2-1,.8-1.2.3-1,1.8-5.2,2.3-7.1-.5,1.9-1.2,6.3-1.4,7.3.4.5.3.5,0,1.4,2.5,2.6-1,3.6-1,3.6l-.6,2.2.7.2-.3,1.2s.4,1,.7,2.4c1.1.3.5,1.5.5,1.5l-.4,1.4.8,1.1-.8.6s-.8,3-1.1,4.1c.5.2,0,1.4,0,1.4l-.6,2.1,1.2,3.1-12.4,47.7-17.4-4.6,9.9-38.2s-.2,0-.7-.6,1.8-1.7,1.8-1.7l1.1-3.8h-.5c0,0,1.2-2.3,1.2-2.3l3.1.8,4.1-3.7"/>
      <path class="cls-8" d="M631.6,66.3l-10.3-2.3,1.4-6.4s1.4-.4.5-1.5c-.9-1.2.4-2.3-.5-3.5s0-2,0-2.3-.5-.6-.2-1.2c.3-.6.8-1.1,0-1.3s-.6.5-.6,1.2-.7.7-.7,1,.3,1.4-1,2.1c-1.3.7-.6,2.3-1.9,2.9-1.3.7-.2,1.6-.2,1.6l-1.5,6.4-9.9-2.3h-.3s-1.1,1.2-2.7,2.9l-1.2-.3-1.5,1.3v.4h.3l-.2,1c-2.3,2.2-4.8,4.3-6.3,4.8l-4.8,21.1-4.5-4.5-14.6-3.3-14.6-3.3-6.1,2.2-6.1,26.8,11.3,2.6,2.5-11s.9-5.9,10-3.8,7.3,7.7,7.3,7.7l-2.5,11,11.2,2.5,62.6,14.2,8.7-38.3-3-6.9-6.9-6.5-1.8-.4.9-3.9s.5-1.3-.8-1.7c-1.3-.3-1.6,0-2.2.3-.6.4-1.2.7-.8,1.8-.2,1.1-.7,3.3-.7,3.3l-2.1-3.6-1-.2-1.5-3.1.3-1.1h.4v-.3l-.8-1.8-1.7-.4-1.9-3.9h-.3.3Z"/>
      <path class="cls-7" d="M485.2,31.1l-31.1-.8-.5,20.8,31.1.8s.5-20.8.5-20.8Z"/>
      <path class="cls-7" d="M477.5,70.5l-.6,26.5-25-.6-.2,7.5,96.6,2.4.2-7.5.6-26.5-71.6-1.8h0Z"/>
      <path class="cls-8" d="M513.9,52c-2.3.9-3.1,1.5-3.1,1.5,0,0-2.3,1.5-1.8,3.9l.6.4-.5,11.8-17.3-.4.3-18.7s.2,0,1.3-.9c-13.2-6.3-7.2-20-7.2-20,0,0-31.5-.9-33.8-1,0,3,.9,4.8.9,4.8l-.3,12v.8l-1.2,48.3v3h1.6l-.2,6.6h.6l.2-6.5h2.1l-.2,6.6h.6l.2-6.5h2.1l-.2,6.6h.6l.2-6.5h2l-.2,6.6h.6l.2-6.5h2.1l-.2,6.6h.6l.2-6.5h2.1l-.2,6.6h.6l.2-6.5h2.2l-.2,6.6h.6l.2-6.5h2.2l-.2,6.6h.6l.2-6.5h2.2l-.2,6.6h.6l.2-6.5h2.1l-.2,6.6h.6l.2-6.5h2.1l-.2,6.6h.6l.2-6.5h2.1l-.2,6.6h.6l.2-6.5h2l-.2,6.6h.6l.2-6.5h2.1l-.2,6.6h.6l.2-6.5h2.1l-.2,6.6h.6l.2-6.5h2.2l-.2,6.6h.6l.2-6.5h2.2l-.2,6.6h.6l.2-6.5h2.2l-.2,6.6h.6l.2-6.5h2.2l-.2,6.6h.6l.2-6.5h2.1l-.2,6.6h.6l.2-6.5h2.1l-.2,6.6h.6l.2-6.5h2l-.2,6.6h.6l.2-6.5h2.1l-.2,6.6h.6l.2-6.5h2.1l-.2,6.6h.6l.2-6.5h2.2l-.2,6.6h.6l.2-6.5h2.2l-.2,6.6h.6l.2-6.5h2.2l-.2,6.6h.6l.2-6.5h2.3l-.2,6.6h.6l.2-6.5h2.1l-.2,6.6h.6l.2-6.5h2.1l-.2,6.6h.6l.2-6.5h2l-.2,6.6h.6l.2-6.5h2.1l-.2,6.6h.6l.2-6.5h2.1l-.2,6.6h.6l.2-6.5h2l-.2,6.6h.6l.2-6.5h2l-.2,6.6h.6l.2-6.5v-3l-38.2-.9c.1-.2.7-.4,1.6-.7v.7h.4v-.8c.6-.2,1.3-.4,2.1-.6v1.5h.4v-1.6c.7-.2,1.4-.3,2.1-.5v2.2h.4v-2.3c.7-.2,1.4-.3,2.1-.5v2.9h.4v-3c.8-.2,1.5-.3,2.3-.5v3.5h2.3v-4.1c.7,0,1.2-.2,1.8-.4v4.5c0,0,.3,0,.3,0v-4.7c.9-.2,1.7-.3,2.5-.5v5.2c0,0,.3,0,.3,0v-5.3c.8,0,1.5-.3,2.2-.4v5.8c0,0,.3,0,.3,0v-5.9c.9-.2,1.7-.3,2.4-.4l-.2,6.4h.4l.2-6.5c.7,0,1.4-.3,2.1-.4l-.2,6.9h2.4l.2-7.3c.7,0,1.3-.2,2-.4l-.2,7.8h.4l.2-7.9c.7,0,1.4-.3,2-.4l-.2,8.4h.4l.2-8.5c.7,0,1.3-.3,2-.5l-.2,9h.4l.2-9.1c.7-.2,1.4-.4,2.1-.5l-.2,9.7h.4l.2-9.8c5.3-1.4,9.6-2.8,9.6-2.8l.7-30.5s4.7-2-.6-4.2c-5.3-2.3-20.6-2.3-32.1-.4-6,1-9.7,2.1-12.1,2.9h-.4v.2l2.1-1.3ZM454,31.6h2.1v6.1h-2.2v-6.1ZM461.6,31.8v6h-2.2v-6h2.2ZM462.2,31.8h2.1v6.1h-2.2s.1-6.1.1-6.1ZM465,31.9h2.1v6.1h-2.2v-6.1ZM467.7,31.9h2.2v6.1h-2.3v-6.1ZM470.6,32h2.2v6.1h-2.3s.1-6.1.1-6.1ZM473.4,32.1h2.2v6.1h-2.3v-6.1ZM476.3,32.1h2.2v6.1h-2.3v-6.1ZM479.1,32.2h2.1v6.1h-2.2v-6.1ZM481.9,32.3h2.1v6.1h-2.2v-6.1ZM456.8,31.7h2.1v6.1h-2.2s.1-6.1.1-6.1ZM458.8,38.2l-.2,7.3h-2.1l.2-7.3h2.1ZM459.4,38.2h2l-.2,7.3h-2l.2-7.3ZM462,38.3h2.1l-.2,7.3h-2.1l.2-7.3ZM464.8,38.3h2.1l-.2,7.3h-2.1l.2-7.3ZM467.6,38.4h2.2l-.2,7.3h-2.2l.2-7.3ZM470.4,38.5h2.2l-.2,7.3h-2.2l.2-7.3ZM473.3,38.5h2.2l-.2,7.3h-2.2l.2-7.3ZM476.2,38.6h2.2l-.2,7.3h-2.2l.2-7.3ZM479,38.7h2.1l-.2,7.3h-2.1l.2-7.3ZM481.7,38.8h2.1l-.2,7.3h-2.1l.2-7.3ZM483.6,72h2.1l-.2,6.8h-2.1l.2-6.8ZM488.9,78.9l.2-6.7h2.1l-.2,6.8h-2.1ZM488.3,78.9h-2.1l.2-6.8h2.1l-.2,6.8ZM488.3,81.9l-.3,13.3h-2.1l.3-13.4h2.1ZM488.9,81.9h2.1l-.3,13.4h-2.1l.3-13.4ZM491.7,82h2l-.3,13.4h-2l.3-13.4ZM505.5,79.3l.2-6.7h2.2l-.2,6.8h-2.2ZM504.9,79.3h-2.2l.2-6.8h2.2l-.2,6.8ZM502,79.2h-2.2l.2-6.8h2.2l-.2,6.8ZM499.2,79.1h-2.1l.2-6.8h2.1l-.2,6.8ZM496.4,79.1h-2.1l.2-6.8h2.1l-.2,6.8ZM494.3,82h2.1l-.3,13.4h-2.1l.3-13.4ZM497.1,82.1h2.1l-.3,13.4h-2.1l.3-13.4ZM499.8,82.2h2.2l-.3,13.4h-2.2l.3-13.4ZM502.7,82.2h2.2l-.3,13.4h-2.2l.3-13.4ZM505.5,82.3h2.2l-.3,13.4h-2.2l.3-13.4ZM508.4,79.4l.2-6.7h2.2l-.2,6.8h-2.2ZM493.8,72.3l-.2,6.7h-2l.2-6.8h2ZM453.9,38.1h2.1l-.2,7.3h-2.1l.2-7.3ZM483.4,81.8h2.1l-.3,13.4h-2.1l.3-13.4ZM508.1,95.7l.3-13.3h2.1l-.3,13.4h-2.1Z"/>
      <path class="cls-8" d="M708,136l6.5-14.1-3.4-1.6-1.8,4-2.1-1,1.8-3.8-3.5-1.6-1.7,3.7-4.9-2.3,1.4-3-2.4-1.1,1.6-3.4-2.6-1.2,1.5-3.2-3-1.4,2.6-5.6-2.7-1.2,1.5-3.3-3-1.4,1.5-3.3-3-1.4,1.4-3.1-1.9-.9-1.9-.9-1.4,3.1-3-1.4-1.5,3.3-3-1.4-1.5,3.3-2.7-1.3-2.6,5.6-3-1.4-1.5,3.2-2.6-1.2-1.6,3.4-2.4-1.1-1.4,3-2.5-1.2-1.2,2.6-5.4-2.5-14.8,31.9,58,27.8,12-24.8.2.2Z"/>
      <path class="cls-8" d="M692.6,162.3l10.9,6.3h.2c0,.1,13.5-23.9,13.5-23.9l-.8-.4,1.1-1.9-1.2-.7,1.2-2.1-1.2-.7,1.2-2.1-1.4-.8.9-1.5-.8-.4-.8-.4-.9,1.5-1.4-.8-1.2,2.1-1.2-.7-1.2,2.1-1.2-.7-1.1,1.9-.6-.3-14.2,23.7.2-.2Z"/>
      <path class="cls-8" d="M701.2,168.7l46.8,31.4,26.1-38.9-2-1.3,1.4-2.1-1.4-.9,1.4-2.1-1.6-1.1,1.4-2-1.8-1.2,1.4-2.1-1.6-1.1,1.3-1.9-1.4-.9,1.3-1.9-1-.7,1.3-2-1.2-.8,1.2-1.8-1.4-.9,1.3-1.9-1.5-1,1.3-1.9-1.5-1,1.3-1.9-1.4-1,1.3-1.9-1.4-.9,1.3-2-1.5-1,1.3-1.9-1.2-.8,1.3-1.9-.7-.5,1.4-2.1-.8-.5-.8-.5-1.4,2.1-.7-.5-1.3,1.9-1.2-.8-1.3,1.9-1.5-1-1.3,2-1.4-.9-1.3,1.9-1.5-1-1.3,1.9-1.5-1-1.3,1.9-1.5-1-1.3,1.9-1.4-.9-1.2,1.8-1.2-.8-1.3,2-1-.7-1.3,1.9-1.4-.9-1.3,1.9-1.6-1.1-1.4,2.1-1.8-1.2-1.3,2-1.6-1.1-1.4,2.1-1.4-.9-1.4,2.1-2-1.3-10.7,15.9-15.2,23.1-.2-.3Z"/>
      <path class="cls-6" d="M554.7,41.2l.6-1.4v-.2l1.1-2.9h0l-.7-1.1,2-4.9h-.3v-.4h0l.4-.9h-.2l1-2.5h-.2v-.3h0c.2-.6,0-1.2-.2-1.5v-.2c0-.1,0-.3,0-.3,0,0-.3,0-.3.1v.2c-.5,0-1,.3-1.3.9v.2h0v.2h0l-.9,2.1h0v.2h0l-.4.9h-.2c0-.1,0,.2,0,.2h0l-1.4,3.3-.5-2.2v-.2h0v-.2h0v-.3c0-.1,0-.1,0-.1h0c0-.1,0-.3-.2-.2,0,.2,0,.3,0,.3h0s0,0,0,.2h0v.2l-2,.8h-1.2l2.3-5.5h-.3l.5-1.4h-.3l1.1-2.8h0c.3-.8.2-1.6-.2-1.9v-.2c0-.1,0-.3,0-.3,0,0-.3,0-.3.1v.2c-.6,0-1.2.4-1.6,1.2h0l-1.1,2.6-.2-.2-.5,1.3-.3-.2-.9,2.1c.4-1.2,0-2.6-1.2-3.5v-.2h0c0-.1.2-.7.2-.7.2-.4,0-.9-.3-1.1v-.2h0v-.3c0,0,.4.1.4.1h-.3v-.3h0v.2h-.4c0-.1.3-.1.3-.1,0,.1-.2.6-.2.6-.4-.1-.9,0-1.1.5h0l-.3.5h0l-.2.2c-1.5-.2-3,.5-3.6,1.8v.2l-.4.8h0l-.2.4h-.2l-.3.8h-.2c0-.1,0,0,0,0h-.5v.2h-.3v.3h-.2c0-.1,0,0,0,0h-.2l-.2-.2h0c0,.1-.2,0-.2,0v.3h-.2l-.8,1.9-1.9-1.1v-.4h-.3v.2l-1.2,1.6s-1.5-.5-2.5.8h0l-.5.7h0v.2c0,0-.5-.2-.5-.2v.3c0,0-.5-.2-.5-.2l-2.2,5.2,27,11.3,2.2-5.3v-.3h-1.4Z"/>
      <path class="cls-8" d="M168.2,114.3c.8,1.1,2,2.4,3.7,3.6.9.6,1.7,1,2.5,1.4l.6-.5.5.6-.6.5,3.1,3.9c4-.5,4.7,2.4,4.5,3.9-.2,1.3,1.3,1.9,1.9,2.4.5.2.9.8,1.9.8s1.7-.2,2.3-.3c0-2.5-2.2-4.9-2.2-4.9,0,0,1.8,2.7,4.3,3.3,2.5.6,1.7,2.1,2.1,3,.4.9,1.6,1.4,2.6.6v.2c0,.6-.5,1.9-.5,1.9,0,0,1.8,2.5,2.9,3.9,1.5-.4,4.1,3.4,4.1,3.4l.8-.6.2.2c-.4.7-1.4,2.1-1.4,2.1l35.6,45.3-12.8,10.1-35.6-45.3s-1.6.6-2.3.8c0,0-.1-.2-.2-.2l.8-.6s-3.1-3.5-2.3-4.8c-1.2-1.4-3.1-3.8-3.1-3.8,0,0-1.4.2-2,.2v-.2c.9-.9.7-2.1,0-2.7-.7-.6-2.4-.3-2.4-2.8s-2.2-4.9-2.2-4.9c0,0,1.8,2.7,4.3,3.3.3-.5.6-1.2.9-2.1.2-1-.2-1.5-.3-2.1-.3-.7-.6-2.3-1.9-2.4-1.5-.1-4.1-1.5-2.7-5.3l-3.1-3.9-.6.5-.5-.6.6-.5c-.1-.8-.4-1.7-.7-2.7-.7-2-1.8-3.5-2.6-4.5h0l-.2-.2Z"/>
      <path class="cls-8" d="M825.7,274.9s.7-.6,1-.6.7-.5,1-.3,1.5,1.9,1.5,1.9c0,0,.9-.4,2,1,1.3.2,2.2.4,2.3.1.2-.3,0-.9.5-.9s.7.2.8.4c0,.2.8,0,1,0s.5.2.6.4c0,.1,1.2-1.3,1.8-.4s1.5-.2,1.3-.5-.3-1.2.8-.8c1.1.4.9-.6,1.7-.5s1.3-.3,1.4-.7c.2-.4,0-.5.3-.6s-.2-.3.4-.4c.6,0-.5-.8,0-1.6.2-.3.7-.5.3-.6-.4,0-.5.2-.7-.2-.2-.3.7-.7,1.1-.3.5.3,0,1,0,1,0,0,.3-.3.6,0,.3.4,1.6-.7,1.6-.7v.2c0,0,.6-.4.6-.4h.9c0,0,.3-.2.4-.2h.6c0,0,.4-.2.8,0l.2-.3s-.8,0-1.2-.5c-.3-.5-.7-1.2-.9-1.2s-.4.2-.4.2c0,0-.2-.2,0-.3.2-.2.4-.1.6-.2.2-.1.3,0,.4.2,0,.3.4.5.5.6,0,0,.3.4.4.5l.9-.2s.2-.6.7-.4.8-.3.8-.3c0,0,0-.3.2-.6-.3-.4-.7-1.2-.2-1.3.5-.1.7,0,.8,0,0,0,.3-.3.4-.3,0,0,.4.2.5.3,0,0,0,0,0,0,0,0-.3-.5,0-.2s.8.6.8.7-.2.1-.5,0c-.3,0-.5,0-.6-.1h-.6c0,0-.4.2-.5.2,0,0,.6.9.7.9v-.2c0,0,.2-.4.5-.4s.4,0,.6.2c.2.3,0,.5-.2.6,0,.1-.3.2-.4.2s.3.4,0,.6-.7,1-1.1.5c-.5,0-.7.2-.8.3s-.4.2-.6.2c0,.2-.5.8-.7,1s-1.4,0-1.6,0-.4.1-.4.4v.6c0,.1.2.3,0,.4,0,0-.5.4-.5.4l.2.2-.6.5s0,.4-.4.6c-.3.2-.5.4-.4.6,0,.2.4.5.2.6-.2.2-.3,0-.3,0l-.4.4s0,.2-.3.5-.5.6-.9.5-.9.4-.9.4c0,0-1.2.9-1.3,1.1s0,1-.4,1.3c-.3.3-.3.4-.7.2-.4-.3-.9.2-.9.5s.3,1.2,1,2.4c.7,1.2-.5,1.2-.5.7s-.3-1-.6-1h-.6c0,0,0,.5-.2.7-.3.3,0,.4,0,.7s-.2.8-.2.8c0,0,.5.4.2.8-.3.5-.2.8,0,.9,0,.2.2.6,0,.9,0,.3-.2.7-.5,1.4-.3.7.5,1.6.6,1.7s.4.5-.2.8c-.4.3-1,.6-1.1.8h-.2c-1.5-1.8-13.4-16.7-13.4-16.7h.4Z"/>
      <path class="cls-8" d="M843.5,236.5l.8-.7-.4-.5,1.5-1.4v-.9c0,0-.5-.8-.5-.8l1.6-4.1-4.2,1.2-1.5-1.7s.9-1,1.5-1.7c.7-.7,2.4-2,2.4-2l-.3-.4,1-.8s2.4-.8,4.1-2.4c1.7-1.5,2.1-4.7,2.4-5.2.5.1.8-.3.8-.5s.3-.7,1-1.5c0,0,1.4-1.4,2-1.6.6-.2.7-.4.8-1.1,0-.8.2-.9,1-1.1.9-.3,1.4-1,1.4-2s6.9-7.3,6.9-7.3c0,0-7,6.2-8.1,6-1-.2-1.8.3-2.2,1.2-.4.8-.5,1-1.2.9-.8,0-.9,0-1.2.6s-1.8,1.8-1.8,1.8c-.8.6-1.4.8-1.6.8s-.6.3-.6.7c-.5.2-3.7.2-5.5,1.7-1.7,1.5-2.8,3.8-2.8,3.8l-1,.9-.3-.4s-1.5,1.6-2.2,2.2c-.8.6-1.9,1.3-1.9,1.3l-1.5-1.7,1.2-3.7-3.8.8-.7-.8h-.9l-1.7,1.6-.9.2-1-1.2-26.8,24,18.3,20.6,26.7-24.2-.6-.7h-.2Z"/>
      <path class="cls-8" d="M867.6,240.3l5.3-4.5.4.5.5-.4-1.3-1.5-.5.4.5.5-2.3,1.9-1.2-1.4,2-6.4-6.5,1.2h0l-1.4-1.6,2.3-1.9.5.5.5-.4-1.3-1.5-.5.4.4.5-5.9,5h0l-10.6,2.1-41.7,35.4,15.3,18,41.8-35.6,3.5-11.2h.2ZM862.8,229.4l1.2,1.4-3.5.7,2.4-2h-.1ZM869.7,237.6l-1.7,1.5.8-2.6.9,1.1h0Z"/>
      <path class="cls-8" d="M125.9,215.1l-1.2,1.5-2.3-1.9-1,1.2-2.4-1.9-.8,1-6.7-5.3.5-.6-.4-.3-1.5,1.9.4.3.5-.6,4.9,3.9-.7.9-2.7-2.1-1.3,1.6-2.6-2-.4.5-6.7-5.3.3-.4-.4-.3-1.5,1.9.4.3.3-.4,4.4,3.5-.7.9-2.4-1.9-.5.6-.5.6,2.4,1.9-.7.9-4.4-3.5.3-.4-.4-.3-1.5,1.9.4.3.3-.4,6.7,5.3-.4.5,2.6,2-1.3,1.6,2.7,2.1-.7.9-4.9-3.9.5-.6-.4-.3-1.5,1.9.4.3.5-.6,6.7,5.3-.8,1,2.4,1.9-1,1.2,2.3,1.9-1.2,1.5,50.1,39.9,16.2-20.4-50.3-39.8v.3Z"/>
      <path class="cls-8" d="M85.7,234.6l.3,3.6.3-.4s.9.5,2.4,1.5c-1.8,3,4.4,4.3,2.4,7.4-2,3,4.3,1.7,2.6,2.9-1.3,2.1,1.9,1.4,1.6,2.1-1.4,2.7,2,3.5,2,3.5l-.6,1,41.5,25.3,13.1-21.4-41.5-25.3-.6,1s-2.2-2.8-4-.2c-.5.6-1.3-2.6-2.6-.5-.3,2-2-4.3-3.8-1-1.8,3.2-5.8-1.8-7.7,1.3-1.6-.9-2.4-1.5-2.4-1.5l.3-.4-3.4,1.4v-.3Z"/>
      <path class="cls-10" d="M134.8,270.4c35.6-44.9,80.6-83.6,134.1-112.9,196.3-107.3,439-48.7,567.8,126.9l-357.8,195.5-344.1-209.6h0Z"/>
    </g>
  </g>
  <g>
    <rect class="cls-4" x="-1.1" width="961.1" height="1024.9"/>
    <g>
      <path class="cls-4" d="M959.5,543c.5,264.8-213.8,479.9-478.5,480.4C216.2,1024,1.1,809.7.5,544.8,0,280.1,214.3,65,479.2,64.5c264.8-.5,479.9,213.8,480.4,478.5Z"/>
      <g>
        <path class="cls-22" d="M585.7,111.3c-28.6-7-67-13.3-112.5-12.6-39.9.6-74,6.6-100.3,13.1-1.9-7.6-4.1-15.5-6-23.2,28.4-7.1,66.7-13.7,111.3-14,46.1-.2,84.1,6.2,113.2,13.4-2,8.2-3.9,15.7-5.7,23.4h-.1Z"/>
        <path class="cls-15" d="M586.4,108.2c-27.1-6.6-62.8-12.7-105-12.8-44.1-.2-81.4,6.3-109.2,13.2.2,1,.4,2,.7,3,27.6-6.9,64.7-13.3,108.5-13.2,41.9.1,77.4,6.1,104.2,12.7.2-1.1.5-1.9.7-3h0Z"/>
        <path class="cls-14" d="M517,70.4l4.1.4-.3,4.8-4-.3.2-4.9h0Z"/>
        <path class="cls-11" d="M508.1,70.5l4.8.4v4.3c-.1,0-4.9-.3-4.9-.3v-4.3h.1-.1Z"/>
        <path class="cls-17" d="M394.6,111.6c.9-1,1-2.5,0-3.5s-2.5-1-3.5,0-1,2.5,0,3.5,2.5,1,3.5,0Z"/>
        <path class="cls-17" d="M408.4,109.5c1.3,0,2.5-1,2.4-2.5s-1-2.5-2.5-2.4-2.5,1-2.4,2.5,1,2.5,2.5,2.4Z"/>
        <path class="cls-17" d="M550.6,109.3c1.3,0,2.5-1,2.4-2.5s-1-2.5-2.5-2.4-2.5,1-2.4,2.5,1,2.5,2.5,2.4Z"/>
        <path class="cls-17" d="M564.8,111.9c1.3,0,2.5-1,2.4-2.5s-1-2.5-2.5-2.4-2.5,1-2.4,2.5,1,2.5,2.5,2.4Z"/>
        <path class="cls-20" d="M471.3,74v-3.6c7-.2,14.6-.2,22.2,0,4.6,0,9.1.3,13.4.6,0,1.2,0,2.5-.2,3.7-4.2-.3-8.6-.5-13-.6-7.9-.2-15.4-.2-22.6,0h0Z"/>
        <path class="cls-13" d="M428.9,76.8l-.4-4.2c3.2-.4,6.5-.7,9.9-1.1,4.8-.4,9.5-.8,14.1-1.1.1,1.4.2,2.9.4,4.3-3.5.2-7.1.5-10.8.7-4.4.4-8.8.8-13,1.2h0ZM539.6,77.7l.5-4.2c4.3.6,8.5,1.1,12.9,1.9,3.9.6,7.6,1.3,11.3,1.9-.3,1.4-.4,2.7-.7,4.1-3.7-.7-7.5-1.3-11.4-1.9-4.3-.7-8.5-1.2-12.6-1.8h0Z"/>
        <path class="cls-14" d="M455.5,74.6l-.5-6c1.8-.1,3.7-.3,5.5-.3,1.6,0,3.2,0,4.8-.2,0,2,.2,4,.3,6l-10.3.4h0Z"/>
        <path class="cls-13" d="M408.5,79.4l-.7-4.1c0,0,9-1.3,9-1.3l.7,4.1c0,0-9,1.3-9,1.3h0Z"/>
        <path class="cls-14" d="M421.2,77.7l-.4-2.5,4-.5.4,2.5c0,0-4,.5-4,.5Z"/>
        <path class="cls-3" d="M503.8,99.2c2.5.2,5,.3,7.6.5,2.8.2,5.6.4,8.3.6,0,.8-.2,1.8-.2,2.6-2.7-.2-5.5-.4-8.2-.7-2.6-.2-5.1-.3-7.6-.5,0-.8,0-1.7.2-2.6h0ZM437.5,100.7c2.3-.2,4.6-.4,6.9-.6,3.1-.2,6.1-.5,9-.6.1.7,0,1.3.2,2-2.6.2-5.2.3-7.9.5s-5.4.5-8,.7c-.1-.7-.1-1.3-.2-2h0ZM474.3,98.7v1.5c3-.1,6-.2,9.2-.1,2.9,0,5.8,0,8.6.2,0-.5,0-1,0-1.5-2.9,0-5.7,0-8.7-.2-3.1,0-6.1,0-9.1,0h0ZM459.6,99v2.6c1.9-.1,3.7-.1,5.5-.3,1.9,0,3.8,0,5.7,0,0-.9,0-1.7,0-2.6-1.9,0-3.8,0-5.8.1-1.8,0-3.6.1-5.4.3h0Z"/>
        <path class="cls-2" d="M382.7,109.5s-.6,3.4-3.1,3.9l-5.8,1.4-.7-3,9.7-2.3h0ZM576.1,109s.4,3.8,2.6,3.8l6.1,1.4.7-3.1-9.5-2.3h.1Z"/>
        <path class="cls-20" d="M576.1,109s0,1.8-6,.8c-6.6-1.2-29.8-5.1-29.8-5.1l2.3-1.6c5.4.8,11,1.7,16.7,2.7,5.8,1,11.4,2.1,16.6,3.3h0ZM416.8,103.1s-.1,2.3-6.1,3c-6,.8-21.3,4.3-24.3,4.5-1.7.1-3.7-1.3-3.7-1.3,4.5-1,9.1-2,13.9-2.9,7-1.2,13.7-2.4,20.2-3.4h0Z"/>
        <path class="cls-22" d="M779.7,177.9l-1.8,3.3c-20.2-16.2-45.2-34.6-77.2-51.6-38.6-20.6-73.7-32-102.2-39.8-2.3,8.4-4.3,15.9-6.4,23,27.1,7.1,61.9,18.8,99.5,39.2,37.7,20.4,66.5,43.1,87.2,61.8,1.6-1,17.1-21.9.8-35.9h0Z"/>
        <path class="cls-19" d="M774.7,178.6h6c11.4,10.8,4.1,25.2,3.2,27.1-1.2-.6-2-1.3-2.6-1.8.5-1,8-14.5-6.7-25.4h0Z"/>
        <path class="cls-15" d="M778.8,213.9c-21.2-19.2-50.8-42.4-89.7-63.1-36.6-19.5-70.4-30.9-97.1-37.9.2-1,.6-1.9.8-2.9,26.6,6.9,61.2,18.5,97.7,38,39.1,20.9,68.5,43.9,90.2,63.3.4.3-.7,1-1.1,1.5-.3.4-.7.7-.9,1.1h0Z"/>
        <path class="cls-12" d="M768.1,184.6v-.3c0-.9,1.1-5.6,1.9-5,1.3.9,4,3.1,7.4,5.9,2.7,2.3,1.7,8.3,1.5,10.6,0,.3-.3.5-.5.3-2.6-2.7-9.3-10.4-10.3-11.5h0Z"/>
        <path class="cls-5" d="M750.5,169.1l-4,5.7c-.2.2,0,.5.1.6,2,1.4,4,2.8,6,4.3,2,1.5,4,2.9,5.9,4.4,0,0,.2,0,.3,0s.2,0,.3-.2l4.2-5.4c.2-.2,0-.5-.1-.6-1.9-1.5-3.9-3-5.9-4.5s-4.1-3-6.1-4.5c0,0-.2,0-.6.1h0Z"/>
        <path class="cls-9" d="M735.6,154.4c-.1,0-.3,0-.4,0l-10.2,15.3v.4c2,1.4,4.4,2.9,6.4,4.3,1.3.8,2.5,1.8,3.7,2.6.1,0,.3,0,.4,0l10.5-15.2v-.4c-1.7-1.1-3.4-2.2-5.1-3.5-1.8-1.2-3.6-2.4-5.4-3.6h0Z"/>
        <path class="cls-1" d="M739.6,161.1l-4.5,6.7v.2s3.5,2.3,3.5,2.3h.2s4.6-6.6,4.6-6.6v-.2s-3.5-2.4-3.5-2.4h-.2s0,0,0,0Z"/>
        <path class="cls-5" d="M666.1,123.2l-2.9,6.5c-.2.2,0,.5.1.6,9.3,4,19,8.8,29.2,14.3,10.9,5.9,21.2,11.8,30.2,17.6,0,0,.2,0,.3,0s.2,0,.3-.2l3.8-6.1c.2-.2,0-.5-.1-.6-9.2-5.9-19.7-12-31.1-18-10.3-5.5-20-10.2-29.3-14.3,0,0-.2,0-.6.1h.1Z"/>
        <path class="cls-12" d="M695.6,137.1l3.5,1.9-3.8,7.1-3.3-1.9,3.6-7.1h0ZM679.9,138l-3.3-1.6,3.4-7.3,3.6,1.7-3.5,7.2h0Z"/>
        <path class="cls-12" d="M710.9,145.6l3.3,2-4,6.9-3.3-1.9,3.9-7h0Z"/>
        <path class="cls-5" d="M640.2,118.1c-5.7-2.1-11.4-4.2-17.6-6.2-5.7-1.9-11.4-3.7-16.9-5.2,0,0-.2,0-.2-.3s0-.2,0-.3l1.9-6.6c.2-.2.4-.3.6-.1,5.6,1.5,11.3,3.4,17.2,5.3,6.3,2,12.1,4.2,17.9,6.4,0,0,.2,0,.2.3s0,.2,0,.3l-2.4,6.4c-.2.2-.4.3-.6.1h0Z"/>
        <path class="cls-2" d="M773.4,201.7c0,0,0,.3,0,.4,0,0,0,0-.2.1h-.2q0,0-.2-.1s-.1-.2-.2-.3v-.3c0,0,0,0,.1-.2h0s0,0,0,0h.2s0-.2,0-.2c0,0,0,0,0-.2h0s0,0,0,0h.2s0,0,.2,0v.2c.1,0,.2.2.2.2,0,0,0,0,0,.2-.2.1-.3.2-.4,0h0v.2ZM772.7,201.7h0c0,0,0,.2,0,.2h0s0,0,0,0h0s0,0,0-.2h0q0,0,0,0h0s0,0,0,0h0s0,.1,0,.1ZM773.4,201.1h0s0,0,0,0h0c0,0,0,.2,0,.2h0s0,0,0,0h0c0,0,0-.2-.1-.3,0,0,0,0,0,0h.1ZM772.5,200.9c0,0,0,.3,0,.4,0,0,0,0-.2.1h-.2q0,0-.2-.1s-.1-.2-.2-.3v-.3c0,0,0,0,.1-.2h0s0,0,0,0h.2s0-.2,0-.2c0,0,0,0,0-.2h0s0,0,0,0h.2s0,0,.2,0v.2c.1,0,.2.2.2.2,0,0,0,0,0,.2,0,.2-.3.2-.4,0h0v.2ZM771.8,201h0c0,0,0,.2,0,.2h0s0,0,0,0h0s0,0,0-.2h0q0,0,0,0h-.2s0,0,0,0h0ZM772.5,200.3h0s0,0,0,0h0c0,0,0,.2,0,.2h0s0,0,0,0h0c0,0,0-.2-.1-.3q0,0,0,0h.1ZM771.5,200.1c0,0,0,.3,0,.4,0,0,0,0-.2.1h-.2q0,0-.2-.1s-.1-.2-.2-.3v-.3c0,0,0,0,.1-.2h0s0,0,0,0h.2s0-.2,0-.2c0,0,0,0,0-.2h0s0,0,0,0h.2s0,0,.2,0v.2c.1,0,.2.2.2.2,0,0,0,0,0,.2-.2.1-.3.2-.4,0h0v.2ZM770.8,200.1h0c0,0,0,.2,0,.2h0s0,0,0,0h0s0,0,0-.2h0q0,0,0,0h0s0,0,0,0h0s0,.1,0,.1ZM771.5,199.5h0c0,0,0,0,0,0h0c0,0,0,.2,0,.2h0s0,0,0,0h0c0,0,0-.2-.1-.3,0,0,0,0,0,0h.1ZM770.6,199.3c0,0,0,.3,0,.4,0,0,0,0-.2.1h-.2q0,0-.2-.1s-.1-.2-.2-.3v-.3c0,0,0,0,.1-.2h0s0,0,0,0h.2s0-.2,0-.2c0,0,0,0,0-.2h0s0,0,0,0h.2s0,0,.2,0v.2c.1,0,.2.2.2.2,0,0,0,0,0,.2-.2.1-.3.2-.4,0h0v.2ZM770,199.4h0c0,0,0,.2,0,.2h0s0,0,0,0h0s0,0,0-.2h0q0,0,0,0h-.2s0,0,0,0h0ZM770.7,198.7h0s0,0,0,0h0c0,0,0,.2,0,.2h0s0,0,0,0h0c0,0,0-.2-.1-.3h.1ZM769.7,198.5c0,0,0,.3,0,.4,0,0,0,0-.2.1h-.2q0,0-.2-.1s-.1-.2-.2-.3v-.3c0,0,0,0,.1-.2h0s0,0,0,0h.2s0-.2,0-.2c0,0,0,0,0-.2h0s0,0,0,0h.2s0,0,.2,0v.2c.1,0,.2.2.2.2,0,0,0,0,0,.2-.2.1-.3.2-.4,0h0v.2ZM769,198.6h0c0,0,0,.2,0,.2h0s0,0,0,0h0s0,0,0-.2h0q0,0,0,0h0s0,0,0,0h0s0,.1,0,.1ZM769.7,197.9h0s0,0,0,0h0c0,0,0,.2,0,.2h0s0,0,0,0h0c0,0,0-.2-.1-.3,0,0,0,0,0,0h.1Z"/>
        <path class="cls-2" d="M730.1,157.4l.8.6s.1,0,.1.2v.2s0,0,0,0c0,0,0,0-.2,0l-1.2-.8v-.2s0,0,0-.2h.2q0-.2.2-.2h.6c.2-.1.3-.2.4-.2h.3c0,0,.2,0,.2,0,0,0,0,0,.2-.1,0,0,0-.1,0-.2v-.2s0,0-.2-.2c-.1,0-.2-.2-.4,0h0q0,0-.2,0h0s0,0,0,0h0c0,0,0-.2.2-.2h.3c0,0,.2,0,.4-.1s.2,0,.3.1c.1,0,.2.3.4.3v.3c0,0,0,.2.1.3s0,.2-.2.2c0,.1-.2.2-.3.2h-.4c0,0-.3.1-.5.2h-.5q0,.1-.2.1h-.2Z"/>
        <path class="cls-2" d="M744.7,167.4l1-1.4c-.4,0-.6,0-.7,0h0c0,0,0-.2,0-.2h0s0,0,.2,0h.4c0,0,.4-.1.4-.1h.2s0,0,0,0v.2s0,0,0,.2l-1.2,1.7c-.2.2-.3.2-.5.2v-.2s.1-.2.1-.2h0Z"/>
        <path class="cls-2" d="M663.5,121.1l.9.4s0,0,.1.2v.2s0,0,0,.1h-.2s-1.3-.5-1.3-.5c0,0,0,0-.1-.2v-.2s0,0,.1-.1h.2s.6-.1.6-.1c.2-.2.3-.2.4-.3h.3c0,0,.2,0,.2,0,0,0,0-.1.2-.2v-.2s0-.2,0-.2c0,0-.1,0-.2-.2,0,0-.3,0-.4,0h0s0,0-.2.2h-.2s0,0-.1,0v-.2s0-.2.1-.2c0,0,.2-.1.3-.2h.4c0,0,.2-.1.4,0,.2,0,.3.1.5.3,0,0,0,.2.2.3v.3c0,0,0,.2,0,.3,0,0-.2.2-.2.3-.2,0-.3.2-.4.2h-.5c-.3.1-.4.2-.5.2h-.2s0,0,0,0Z"/>
        <path class="cls-2" d="M646.7,114.2l1,.3s0,0,.1,0v.2s0,0,0,.1h-.2s-1.3-.4-1.3-.4c0,0-.1,0-.1-.2v-.2s0,0,0-.1c0,0,0-.1.2,0l.6-.3h.4c0,0,.2-.1.3-.1h.2s0-.2.2-.3v-.2s0-.2,0-.2h-.2c0,0-.3-.1-.4,0h0c0,.1,0,.2-.2.2h-.2s0,0-.1,0v-.2s0-.2.1-.2c0,0,.2-.1.3-.2h.4c0,0,.2-.1.4,0,.2,0,.3.1.4.2,0,0,0,.2.2.3v.3c0,0,0,.2,0,.3,0,0-.2.2-.2.3-.2,0-.3.2-.4.2h-.5c-.2.1-.4.2-.5.2h-.2s0-.2,0-.2Z"/>
        <path class="cls-19" d="M747,162.2c3.6,2.5,7.3,5.2,11.1,8,3.5,2.6,7,5.2,10.3,7.9-.2.2-.3.4-.5.6-3.3-2.6-6.7-5.2-10.3-7.9-3.7-2.8-7.5-5.4-11.1-8,.2-.2.2-.4.4-.7h.1Z"/>
        <path class="cls-14" d="M778.3,181.6c-1.5-1.2-3.1-2.6-4.7-3.9-1.3-1.1-2.7-2-3.9-3,.3-.2,1.5-1.1,3.3-1.3.9-.2,1.7.3,2.4.8l5.3,4.3-2.5,3.1h0ZM758.8,160.2l3.4,2.5-2.9,3.9-3.4-2.4,2.9-3.9h0Z"/>
        <path class="cls-11" d="M755.9,164.4l-3.9-2.9,2.2-3,4,2.8-2.2,3h0Z"/>
        <path class="cls-17" d="M613.7,122.3c.6-1.1.2-2.7-1-3.3-1.1-.6-2.7-.2-3.3,1-.6,1.1-.2,2.7,1,3.3,1.1.6,2.7.2,3.3-1Z"/>
        <path class="cls-17" d="M626.6,126.5c.6-1.1.2-2.7-1-3.3-1.1-.6-2.7-.2-3.3,1-.6,1.1-.2,2.7,1,3.3,1.1.6,2.7.2,3.3-1Z"/>
        <path class="cls-17" d="M749.3,192.2c.6-1.1.2-2.7-1-3.3-1.1-.6-2.7-.2-3.3,1-.6,1.1-.2,2.7,1,3.3,1.1.6,2.7.2,3.3-1Z"/>
        <path class="cls-17" d="M761.7,201.9c.6-1.1.2-2.7-1-3.3-1.1-.6-2.7-.2-3.3,1-.6,1.1-.2,2.7,1,3.3,1.1.6,2.7.2,3.3-1Z"/>
        <path class="cls-20" d="M752.1,161.5l2-2.8c-5.3-3.8-10.8-7.8-16.7-11.7-4.5-3-8.8-5.7-13.2-8.4-.5,1-1.1,2.1-1.7,3.1,4.8,2.9,9.7,5.9,14.7,9.3,5.3,3.5,10.2,7.1,15,10.5h0Z"/>
        <path class="cls-13" d="M715.7,137.8l2.4-4.4c-4.8-2.8-9.8-5.6-15-8.4s-10.4-5.5-15.4-7.9c-.8,1.5-1.4,3-2.3,4.5,5,2.4,10,5,15.2,7.8,5.3,2.8,10.2,5.6,15.1,8.4ZM681.9,119.9l1.8-3.9c-3.4-1.6-6.9-3.2-10.6-4.9-4-1.7-7.8-3.4-11.5-4.8-.6,1.3-1.2,2.6-1.7,3.9,4,1.6,8.1,3.4,12.2,5.2,3.3,1.5,6.6,3,9.9,4.5h0Z"/>
        <path class="cls-14" d="M658.2,109.6l2.5-5.5-9.9-3.9-2.3,5.6c1.7.6,3.5,1.3,5.2,2,1.5.6,3,1.2,4.5,1.7h0Z"/>
        <path class="cls-13" d="M646.8,105.1l1.5-3.9-8.5-3.1-1.5,3.9c1.4.5,2.8,1,4.2,1.5,1.4.6,2.8,1,4.2,1.6h0Z"/>
        <path class="cls-12" d="M623.2,103.9l4.4,1.5-2.4,7.4-4.3-1.5,2.3-7.4h0Z"/>
        <path class="cls-5" d="M540.6,93.1c5.9.8,12,1.7,18.4,2.8,6,1.1,11.9,2.1,17.4,3.4h.3c0,0,.2-.3.1-.4l1.4-6.8c0-.3-.2-.5-.5-.4-5.6-1.2-11.5-2.4-17.6-3.5-6.4-1.1-12.7-2.1-18.7-2.9h-.3c0,0-.2.3-.1.4l-.9,6.9c0,.3.2.5.5.4h0Z"/>
        <path class="cls-12" d="M562.2,88.6l-4.6-.8-1.3,7.6,4.5.8,1.5-7.7h0Z"/>
        <path class="cls-14" d="M637.8,101.8l.9-2.4-3.7-1.3-.9,2.4c.5.2,1.2.4,1.8.6.6.2,1.3.4,1.8.7h0Z"/>
        <path class="cls-3" d="M688.3,150.3l-.7,1.2c-1.9-1-3.8-2.1-5.8-3-3.4-1.7-6.7-3.4-9.9-4.9.2-.4.5-.9.7-1.3,3,1.5,6.1,3,9.3,4.6,2.2,1.1,4.4,2.3,6.6,3.4h0ZM669.2,140.8l-1.1,2.3c-1.8-.8-3.6-1.7-5.4-2.5-1.7-.7-3.2-1.5-4.7-2.1.4-.8.7-1.6,1.1-2.3,1.6.7,3.2,1.4,4.7,2.1,1.9.8,3.7,1.7,5.4,2.5h0Z"/>
        <path class="cls-2" d="M642.1,131.2l4.1,1.6c1.6.6,2.7-1,2.7-1l-6-2.5-.7,1.8h0ZM593.4,113.2l-.9,3.2,5.9,1.5c2.3.5,4.5-2,4.5-2l-9.4-2.6h-.1ZM776.8,212.1l-1.9-1.8c-.5,1.5.6,3.3.6,3.3l1.4-1.6h0Z"/>
        <path class="cls-20" d="M741.8,183.8l-3,.2s18.1,14.2,24.2,18.8c4.8,3.6,5.5,2.1,5.5,2.1-4-3.5-8.1-6.9-12.5-10.4-4.8-3.8-9.6-7.4-14.2-10.9h0ZM602.9,115.8s0,.5,1.1,1.8c1,1.4,18.8,6.5,24.5,8.5,6.2,2.1,6.7.2,6.7.2-5.3-2-10.8-3.9-16.6-5.8-5.4-1.8-10.7-3.4-15.8-4.9h0Z"/>
        <path class="cls-3" d="M698.5,155.8c2.4,1.4,4.9,2.8,7.4,4.3,2.2,1.2,4.3,2.6,6.5,3.8-.3.5-.5.9-.8,1.3-2.5-1.5-5-3.1-7.6-4.5-2-1.2-4.1-2.4-6.1-3.6l.7-1.2h0Z"/>
        <path class="cls-18" d="M590.8,90.3l7.1,1.8c-.8,3-1.6,6.1-2.4,9.3-1.1,4-2.3,7.8-3.4,11.6-1.1-.2-2.1-.5-3.2-.8-1.1-.2-2.2-.5-3.3-.8,1.6-7.4,3.3-13.6,5.2-21Z"/>
        <path class="cls-21" d="M766.1,187.1c-1.4-1.1-3.2-1.2-3.9-.2-.7.9-.2,2.6,1.4,3.7,1.4,1.1,3.2,1.2,3.9.2.7-.9.2-2.6-1.4-3.7ZM763.6,190.4c-1.2-.9-1.6-2.3-1.1-3.2.7-.8,2.1-.8,3.3.1,1.2.9,1.6,2.3,1.1,3.2-.7.8-2.1.8-3.3-.1Z"/>
        <path class="cls-21" d="M764.1,187.1c.4,0,.8.2,1.3.4h0l-.2.2h-.2s-1.1,1.6-1.1,1.6v.2c.4.2.7.6,1.1.5,0,0,0,0,.1,0v.3h0c-.8,0-1.8-.7-2.1-1.7h.2s0,0,0,0l.9-1.3h0c0,0,0-.3,0-.3h0c0,0,0,0,0,0Z"/>
        <path class="cls-21" d="M765.6,188.8c.1,0,0,.3,0,.4,0,.1-.3,0-.4,0-.1,0,0-.3,0-.4,0-.1.3,0,.4,0ZM764.5,189.8h0v-.4c0-.1.2,0,.4,0,.1,0,.3.4,0,.5h0v.3h0c0,0,.3,0,.4-.2,0-.1,0-.3,0-.5.2,0,.5,0,.4-.4,0-.5-.7-.9-1.2-.8s-.4.3-.3.6c0,0-.3,0-.5,0s-.1.3-.1.5h0c.2.3.3.4.4.3h.4Z"/>
        <path class="cls-1" d="M738.2,159.9l-3.6-2.3s-.2,0-.2,0l-4.4,6.7s0,.2,0,.2l3.5,2.3s.2,0,.2,0l4.5-6.7s0-.2,0-.2h0Z"/>
        <path class="cls-9" d="M651.3,110.8c-.2,0-.3,0-.4.2l-6.8,17.1c0,0,0,.3.2.4,2.2.9,4.8,2,7,2.9,1.3.6,2.8,1.2,4.2,1.8.2,0,.4,0,.4-.2l7.2-16.9c0,0,0-.3-.2-.4-1.9-.8-3.7-1.6-5.6-2.4-2-.9-4-1.6-6-2.4h0Z"/>
        <path class="cls-1" d="M656.7,116.5l-3,7.4v.2s3.9,1.6,3.9,1.6h.2s3.2-7.4,3.2-7.4v-.2s-4-1.6-4-1.6h-.2s0,0,0,0Z"/>
        <path class="cls-1" d="M655,115.7l-3.9-1.6h-.3c0,0-2.9,7.5-2.9,7.5v.3c0,0,3.9,1.6,3.9,1.6h.3c0,0,3-7.5,3-7.5v-.3h0,0Z"/>
        <path class="cls-22" d="M179.2,178.9l1.8,3.2c20.1-16.3,45.1-34.8,77-51.9,38.5-20.8,73.5-32.2,102-40.1,2.3,8.4,4.4,15.9,6.4,22.9-27,7.1-61.8,19-99.4,39.5-37.6,20.5-66.4,43.3-87,62.2-1.5-1.1-17.1-21.9-.9-35.9h.1Z"/>
        <path class="cls-19" d="M184.1,179.5h-6c-11.4,10.8-4,25.3-3.2,27.1,1.2-.6,1.9-1.3,2.5-1.8-.5-1-8-14.5,6.6-25.4h0Z"/>
        <path class="cls-15" d="M180.1,214.9c21.1-19.3,50.7-42.7,89.5-63.4,36.5-19.6,70.3-31.1,96.9-38.2-.3-1-.5-1.9-.8-2.9-26.7,7-61.1,18.7-97.6,38.3-39,21-68.3,44.1-90,63.6-.3.4.7,1.1,1.1,1.5.4.3.6.7,1,1h0Z"/>
        <path class="cls-12" d="M190.8,185.5s0-.1.2-.2c0-.9-1.2-5.6-2-5-1.3.9-4,3.2-7.4,6-2.8,2.2-1.7,8.3-1.5,10.5,0,.3.3.5.5.3,2.6-2.7,9.2-10.5,10.2-11.6h0Z"/>
        <path class="cls-5" d="M208.4,170l3.9,5.6c0,.2,0,.5-.2.6-2,1.4-4,2.8-5.9,4.3-2,1.5-3.9,3-5.9,4.5h-.4c0,0-.2,0-.2-.2l-4.2-5.4c0-.2,0-.5.2-.6,2-1.5,3.9-3,5.9-4.5,2.1-1.6,4-3.1,6.1-4.5,0,0,.2,0,.6.2h.1Z"/>
        <path class="cls-9" d="M223.2,155.3c.2,0,.4,0,.4.1l10.1,15.3c0,0,0,.3-.1.4-2,1.4-4.4,2.9-6.3,4.3-1.2.8-2.5,1.8-3.7,2.6-.2,0-.4,0-.4-.1l-10.5-15.1c0,0,0-.3.1-.4,1.6-1.1,3.3-2.3,5-3.4,1.8-1.2,3.6-2.5,5.4-3.6h0Z"/>
        <path class="cls-1" d="M218.9,161.9l-3.5,2.5s0,.1,0,.2l4.6,6.6s.1,0,.2,0l3.4-2.3s0-.1,0-.2l-4.5-6.6s-.1,0-.2,0h0Z"/>
        <path class="cls-5" d="M292.6,123.9l3,6.5c0,.2,0,.5-.2.6-9.2,4.1-19,8.9-29.1,14.3-10.8,5.9-21.1,11.9-30.1,17.8h-.4c0,0-.2,0-.2-.2l-3.8-6.1c0-.2,0-.5.2-.6,9.2-5.9,19.7-12,31-18.1,10.3-5.5,19.9-10.3,29.1-14.3,0,0,.2,0,.6.2h0Z"/>
        <path class="cls-12" d="M266.8,144.9l-3.3,1.8-3.8-7,3.5-1.9,3.6,7.2h0ZM275.3,131.5l3.5-1.8,3.3,7.2-3.4,1.7-3.5-7.2h0Z"/>
        <path class="cls-12" d="M247.8,146.4l-3.3,1.9,4.1,7,3.2-1.9-4-7h0Z"/>
        <path class="cls-5" d="M318.5,118.6c5.6-2.1,11.3-4.3,17.5-6.3,5.7-1.9,11.4-3.7,16.9-5.3,0,0,.2,0,.3-.2v-.4c0,0-2-6.6-2-6.6,0-.2-.4-.3-.6-.2-5.5,1.6-11.3,3.4-17.1,5.4-6.2,2.1-12.2,4.2-17.8,6.4,0,0-.2,0-.3.2v.4c0,0,2.5,6.4,2.5,6.4,0,.2.4.3.6.2h0Z"/>
        <path class="cls-2" d="M227.9,158l.8-.6h.2s0,0,.1,0v.2s0,0-.1.1l-1.2.7h-.2s0,0-.2,0v-.2c0,0,0-.2,0-.2v-.6c0-.2.2-.3.2-.3,0,0,0-.2.1-.3v-.2s0-.2,0-.3c0,0,0,0-.1-.2h-.2c0,0-.2,0-.2,0,0,0-.3.2-.2.3v.2s0,.2,0,.2h0c0,.2,0,.1-.2.2h-.1c0,0,0-.3,0-.4v-.3c0,0,0-.2,0-.3,0,0,.2-.1.4-.3.2,0,.3,0,.5-.2h.3c0,0,.2,0,.2.1,0,0,.1.2.2.3v.4c.1.2.1.3,0,.4,0,0,0,.3-.1.5s-.1.3-.1.5v.2h0,0Z"/>
        <path class="cls-2" d="M213.7,167.8l-1-1.4c-.1.4-.2.6-.3.7h-.2s0,0-.1,0v-.2s0,0,0-.2c0-.1.2-.2.1-.3v-.3c0-.1,0-.2.1-.2h.2s0,0,.1.1l1.2,1.7c.1.2,0,.4,0,.5h-.2s0-.2,0-.2h0s0-.2,0-.2Z"/>
        <path class="cls-2" d="M294.9,121.8l.9-.4h.2s0,0,.1,0v.2s0,0-.2,0l-1.3.5h-.2s0,0-.1-.1v-.4c0,0,.1-.5.1-.5,0-.2.1-.3.1-.3,0,0,.2-.2.1-.3,0,0,0-.2,0-.2v-.3c0,0,0,0,0-.2h-.2c0,0-.2,0-.2,0,0,0-.3.2-.2.3v.2c0,0,0,.2,0,.2h0s0,0-.2,0h0c0,0,0-.3,0-.4v-.3c0,0,0-.2,0-.3,0,0,.2-.1.4-.2h.5c0-.1.2-.1.3-.1l.2.2s0,.2.2.3v.4c.1.2.1.3,0,.4,0,0-.2.2-.2.4-.2.2-.1.3-.2.4v.2h0v.2Z"/>
        <path class="cls-2" d="M311.5,114.9l.9-.4h.2q0,0,.1,0v.2s0,0-.2,0l-1.3.5h-.2s0,0-.1-.1v-.2c0,0,0-.2,0-.2l.3-.6c0-.2.2-.2.1-.3l.2-.2s0-.2,0-.2v-.3c0,0,0,0,0-.2h-.2c0-.2-.2,0-.2,0,0,0-.3.2-.3.4v.2s0,.2,0,.2h0s0,0-.2,0h0c0-.2,0-.3,0-.4v-.3c0,0,0-.2.2-.3,0,0,.2,0,.4-.2h.5c0-.1.2-.1.3-.1l.2.2s0,.2.2.3v.4c.1.2.1.3,0,.3s-.2.2-.2.4c-.2.2-.1.3-.2.4v.2h0l-.2.2Z"/>
        <path class="cls-19" d="M211.8,163.1c-3.6,2.6-7.3,5.3-11.1,8-3.6,2.7-7,5.3-10.4,7.9.1.2.3.4.5.6,3.3-2.6,6.7-5.3,10.3-7.9,3.8-2.8,7.5-5.5,11.1-8-.1-.2-.3-.5-.4-.6h0Z"/>
        <path class="cls-14" d="M178.1,179.6l5.3-4.3c.7-.5,1.5-.9,2.3-.8,1.8.2,3,1,3.4,1.3-1.2,1-2.6,1.9-3.9,3-1.5,1.3-3.1,2.7-4.6,4l-2.5-3.1h0ZM202.7,165.1l-3.4,2.5-2.8-3.9,3.3-2.5,2.8,3.9h0Z"/>
        <path class="cls-11" d="M202.9,165.3l3.9-2.8-2.2-3.1-3.9,2.9,2.3,2.9h0Z"/>
        <path class="cls-17" d="M348.2,123.7c1.2-.6,1.6-2.1.9-3.2-.6-1.2-2.1-1.6-3.2-.9-1.2.6-1.6,2.1-.9,3.2.6,1.2,2.1,1.6,3.2.9Z"/>
        <path class="cls-17" d="M335.4,127.9c1.2-.6,1.6-2.1.9-3.2-.6-1.2-2.1-1.6-3.2-.9-1.2.6-1.6,2.1-.9,3.2s2.1,1.6,3.2.9Z"/>
        <path class="cls-17" d="M212.9,194.1c1.2-.6,1.6-2.1.9-3.2-.6-1.2-2.1-1.6-3.2-.9-1.2.6-1.6,2.1-.9,3.2.6,1.2,2.1,1.6,3.2.9Z"/>
        <path class="cls-20" d="M206.7,162.4l-2-2.8c5.2-3.9,10.8-7.8,16.7-11.8,4.5-2.9,8.9-5.8,13.2-8.5.6,1,1.2,2.1,1.7,3.2-4.8,3-9.7,5.9-14.6,9.3-5.3,3.6-10.2,7.1-15,10.6Z"/>
        <path class="cls-13" d="M258,130.3c5.2-2.8,10.3-5.5,15.2-7.9-.8-1.5-1.4-3-2.2-4.5-5,2.4-10.2,5.2-15.3,7.9-5.3,2.9-10.3,5.6-15,8.5l2.4,4.3c4.8-2.8,9.8-5.6,15.1-8.4h0ZM286.6,116.1c4.1-1.9,8.2-3.6,12.3-5.2-.6-1.3-1.2-2.6-1.8-3.9-3.8,1.5-7.7,3.2-11.5,4.9-3.7,1.7-7.1,3.3-10.6,4.9l1.9,3.9c3.2-1.5,6.5-3.1,9.8-4.5h0Z"/>
        <path class="cls-14" d="M300.4,110.2l-2.5-5.4,9.9-3.9,2.2,5.6c-1.7.6-3.4,1.3-5.2,2-1.5.6-3,1.3-4.5,1.8h0Z"/>
        <path class="cls-13" d="M311.8,105.7l-1.5-3.9,8.5-3.1,1.5,3.9c-1.4.5-2.8,1-4.2,1.6s-2.9,1-4.2,1.6h0Z"/>
        <path class="cls-12" d="M335.3,104.4l-4.4,1.5,2.5,7.4,4.3-1.5-2.3-7.4h0Z"/>
        <path class="cls-14" d="M320.9,102.4l-.9-2.4,3.7-1.3.9,2.4c-.6.1-1.1.4-1.8.6-.7.2-1.2.4-1.9.6h0Z"/>
        <path class="cls-3" d="M277,147.6c3.2-1.6,6.2-3.1,9.2-4.6.2.5.5.8.6,1.3-3.3,1.6-6.5,3.2-10,4.9-1.9,1.1-3.9,2-5.9,3.1l-.7-1.3c2.1-1.2,4.4-2.3,6.6-3.4h0ZM295,138.8c1.6-.7,3.2-1.5,4.7-2.2l1.1,2.3c-1.6.7-3.2,1.4-4.8,2.1-1.9.8-3.7,1.7-5.3,2.5l-1.1-2.3c1.8-.8,3.7-1.7,5.4-2.5h0Z"/>
        <path class="cls-2" d="M315.8,129.9l-6.1,2.5s1.1,1.5,2.7.9l4.1-1.6-.7-1.8h0ZM355.8,116.1s2.2,2.6,4.5,2l5.8-1.5-.9-3.2-9.4,2.6h0ZM183.5,214.6s1.1-1.8.5-3.3l-1.9,1.8,1.4,1.6h0Z"/>
        <path class="cls-20" d="M202.9,195.5c-4.3,3.5-8.5,6.9-12.5,10.4,0,0,.8,1.6,5.5-2.1,6.1-4.6,24.1-18.9,24.1-18.9l-3-.2c-4.7,3.4-9.4,7.1-14.2,10.9h0ZM355.7,116.2c-5.1,1.5-10.4,3.2-15.8,4.9-5.7,1.9-11.2,3.8-16.5,5.8,0,0,.5,1.8,6.8-.3,5.6-2,23.5-7.3,24.5-8.6s1.1-1.8,1.1-1.8h0Z"/>
        <path class="cls-3" d="M260.2,156.6c-2.4,1.3-4.9,2.8-7.4,4.3-2.2,1.3-4.3,2.6-6.4,3.9.3.5.6.9.8,1.3,2.5-1.6,5-3,7.6-4.6,2-1.2,4.1-2.3,6.1-3.5l-.7-1.3Z"/>
        <path class="cls-18" d="M367.4,90.7l-6.8,1.7c.7,3,1.6,6.1,2.5,9.2,1.1,4,2.3,7.8,3.4,11.6,1.1-.2,2.1-.6,3.2-.8s2.1-.6,3.2-.8c-2-7.6-3.4-13.5-5.5-20.9h0Z"/>
        <path class="cls-21" d="M192.8,188c-1.4,1.1-2,2.8-1.3,3.7.8,1,2.5.8,3.9-.3s2-2.8,1.3-3.7c-.8-1-2.5-.8-3.9.3ZM195.3,191.2c-1.2.9-2.7,1-3.3.2s-.2-2.2,1-3.1,2.7-1,3.3-.2.2,2.2-1,3.1Z"/>
        <path class="cls-21" d="M192.3,189.8c0-.4.4-.8.7-1.1h0v.2q.1,0,0,0h0v.2s1.2,1.5,1.2,1.5c0,0,.1,0,.2,0,.4-.3.7-.5.7-.9h0s.3,0,.3,0v.2c-.2.8-1.1,1.6-2.2,1.6h0v-.2h0l-.9-1.3h0s-.2,0-.2,0h0s.3-.1.3-.1Z"/>
        <path class="cls-21" d="M194.3,189c0,0,.3,0,.3,0s0,.3,0,.3-.3,0-.3,0,0-.3,0-.3ZM195,190.1h0c-.2,0-.3,0-.4-.1,0,0,0-.3.1-.5h.5c0-.1.2-.1.3-.1h0v-.4c0,0-.4,0-.6,0,0-.2,0-.5-.3-.6-.5,0-1,.4-1.1.9,0,.3.2.4.5.4,0,.1-.1.3-.1.4,0,.2.3.2.5.2h0c.2,0,.3-.2.3-.4h0l.2.2Z"/>
        <path class="cls-1" d="M220.6,161l4.5,6.6h.2s3.4-2.4,3.4-2.4v-.2s-4.5-6.7-4.5-6.7h-.2s-3.5,2.4-3.5,2.4v.2h0Z"/>
        <path class="cls-9" d="M307.3,111.4c.2,0,.3,0,.4.2l6.9,17.1c0,.2,0,.3-.1.3-2.2.9-4.8,2-7,2.9-1.3.5-2.8,1.2-4.2,1.8-.2,0-.3,0-.4-.2l-7.3-16.9c0-.2,0-.3.1-.3,1.8-.8,3.7-1.6,5.6-2.3,2-.9,4-1.6,6-2.4h0Z"/>
        <path class="cls-1" d="M301.8,116.9l-3.9,1.6s-.2.1-.2.2l3.1,7.4s.1.2.2.2l3.8-1.6s.2-.1.2-.2l-3.1-7.5s-.1-.2-.2-.2h0Z"/>
        <path class="cls-1" d="M303.6,116.5l3,7.4s.1,0,.2,0l3.9-1.6s0-.2,0-.2l-3-7.5s-.2,0-.2,0l-4,1.6s0,.2,0,.2h0Z"/>
        <path class="cls-9" d="M439.2,80.1c.2,0,.3.1.4.3l1.7,18.3c0,.2-.1.3-.3.2-2.4.2-5.2.5-7.6.7-1.5.3-3,.3-4.5.5-.2,0-.3-.1-.4-.3l-2.1-18.3c0-.2.1-.3.3-.2,2-.3,4-.4,6.1-.7,2.2-.2,4.3-.5,6.4-.6h0Z"/>
        <path class="cls-1" d="M432.2,83.9l-4.2.4s-.2,0-.2.1l.9,8s0,.2.1.2l4.1-.4s.2,0,.2-.1l-.8-8s0-.2-.1-.2h0Z"/>
        <path class="cls-5" d="M515.1,85.4l-.5,7.1c0,.3-.2.4-.4.5-10.1-.7-20.9-1.2-32.4-1.2-12.4,0-24.3.4-34.9,1.3,0,0-.2,0-.3-.1v-.3c0,0-.5-7.1-.5-7.1,0-.3.2-.4.4-.5,10.8-.8,23-1.3,35.8-1.2,11.7,0,22.4.5,32.5,1.2,0,0,.2,0,.5.4h-.2Z"/>
        <path class="cls-12" d="M482.4,91.7h-3.7c0,0,0-8,0-8h4s-.2,8.1-.2,8.1h0ZM496.3,84h4c0,.1-.5,8.1-.5,8.1h-3.8c0-.1.3-8.1.3-8.1h0Z"/>
        <path class="cls-12" d="M465.1,84l-3.8.2.2,8.1,3.7-.2-.2-8.1h0Z"/>
        <path class="cls-5" d="M384.7,99.2c5.9-1.3,11.9-2.4,18.3-3.6s11.8-1.9,17.5-2.7c0,0,.2,0,.3-.2,0,0,0-.2,0-.3l-.9-6.8c0-.3-.4-.3-.6-.3-5.8.7-11.7,1.7-17.7,2.8s-12.7,2.3-18.6,3.6c0,0-.2,0-.3.2,0,0,0,.2,0,.3l1.5,6.7c0,.3.4.3.6.3h0Z"/>
        <path class="cls-2" d="M441.9,84.5l1-.2c0,0,.2,0,.2,0v.2s0,0,0,0h-.2s-1.4.3-1.4.3c-.1,0-.1-.2-.2-.2v-.2s0,0,0-.2c0,0,0,0,0-.1l.4-.5c.2-.1.3-.2.3-.2,0,0,.2-.1.3-.2,0,0,0-.1.2-.2v-.2c0,0,0-.2,0-.2v-.2c-.2,0-.3,0-.3,0-.2,0-.3,0-.4.3h0q0,.2,0,.3h-.2s0,0,0,0v-.2c0,0,0-.2,0-.2,0,0,0-.2.2-.2s.2-.1.3-.2h.4c.2-.1.3-.1.5,0,0,0,.1,0,.2.2,0,0,0,.2.2.3v.3c0,.2.1.3,0,.4s-.2.2-.2.3c0,0-.2.2-.3.4-.2.1-.3.2-.3.4,0,0,0,0,0,.1h-.1Z"/>
        <path class="cls-2" d="M517.9,84.5h1c0,.1,0,.1.2,0v.2c0,0,0,0,0,0h-.2s-1.4-.1-1.4-.1c0,0,0,0-.2,0v-.2s0,0,0-.2c0,0,0,0,0-.1l.5-.4c.2-.1.3-.2.4-.3,0,0,.2,0,.3-.2,0,0,0-.1.2-.2,0,0,0,0,0-.2v-.2s0-.2,0-.2h-.3c0,0-.3.1-.4.1h0c0,0,0,.2,0,.3h-.2c0,0,0,0,0,0v-.2s0-.2,0-.2c0,0,0-.2.2-.2s.2-.1.3-.2h.4c.2-.1.3,0,.5,0,0,0,.1,0,.2.2v.3c0,0,0,.2.1.3s0,.3-.1.4c0,.1-.2.2-.3.2s-.2.1-.5.3c-.2,0-.4.3-.5.3h0c0,.1,0,.2,0,.2Z"/>
        <path class="cls-2" d="M535.7,86.3h1c0,.1,0,.1.2.2v.2c0,0,0,0,0,0s0,0-.2,0l-1.4-.2s0,0-.2-.2v-.2s0,0,0-.2c0,0,0,0,0-.1l.5-.4c.2,0,.3-.2.4-.2s.2,0,.3-.2,0-.1.2-.1c0,0,0,0,0-.2v-.2s0-.2,0-.2c0,0-.2,0-.3,0h-.4q0,0,0,.2s0,0-.2.2h-.2s0,0,0,0v-.2s0-.2,0-.2l.2-.2c0,0,.2,0,.3-.2h.4c.2-.1.3,0,.5,0,0,0,.1,0,.2.2v.3c0,0,0,.2.1.3s0,.3-.1.4c0,.1-.2.2-.3.2s-.3.2-.5.3c-.2,0-.4.2-.5.3h0c0,.1-.2.2-.2.2Z"/>
        <path class="cls-12" d="M403.5,87.6l-4.6.8,1.4,7.7,4.5-.8-1.2-7.7h0Z"/>
        <path class="cls-1" d="M434.2,83.9l.8,8s.1.2.2,0l4.2-.4s.2-.1,0-.2l-.7-8s-.1-.2-.2,0l-4.3.4s-.2.1,0,.2h0Z"/>
        <path class="cls-9" d="M534,81.4c.2,0,.3.1.3.4l-2,18.2c0,0-.2.2-.4.3-2.4-.3-5.2-.6-7.6-.8-1.4-.1-3.1-.3-4.5-.4-.2,0-.3-.1-.3-.4l1.7-18.4c0,0,.2-.2.4-.3,2,.2,4,.4,6.1.5,2.2.2,4.3.4,6.4.7h0Z"/>
        <path class="cls-1" d="M526.5,83.8l-4.2-.4s-.2,0-.2.1l-.7,8s0,.2.1.2l4.1.4s.2,0,.2-.1l.8-8s0-.2-.1-.2h0Z"/>
        <path class="cls-1" d="M528.3,84.1l-.8,8s0,.2.2.2l4.1.5s.2,0,.2-.2l.9-8s0-.2-.2-.2l-4.2-.5s-.2,0-.2.2h0Z"/>
        <path class="cls-2" d="M424.3,86.2l1-.2c0,0,.2,0,.2,0v.2s0,0,0,0h-.2s-1.4.3-1.4.3c0,0-.1,0-.2-.2v-.2s0,0,0-.2c0,0,0,0,0-.1l.4-.5c.2-.1.3-.2.3-.2,0,0,.2-.1.3-.2l.2-.2v-.2c0,0,0-.2,0-.2v-.2c-.2,0-.3,0-.3,0-.2,0-.3,0-.4.3h0q0,.2,0,.3h-.2s0,0,0,0v-.2c0,0,0-.2,0-.2,0,0,0-.2.2-.2s.2-.1.3-.2h.4c.2-.1.3-.1.5,0l.2.2s0,.2.2.3v.3c0,.2.1.3,0,.4s-.2.2-.2.3c0,0-.2.2-.3.4-.2.1-.3.2-.3.4,0,0,0,0,0,.1h-.1Z"/>
      </g>
      <rect class="cls-4" x=".6" y="64.3" width="959" height="959" transform="translate(-1.1 1) rotate(-.1)"/>
    </g>
  </g>
</svg>