<svg width="831" height="480" viewBox="0 0 831 480" fill="none" xmlns="http://www.w3.org/2000/svg">
<g clip-path="url(#clip0_668_6612)">
<path d="M579.001 55.8898L580.48 53.3163L579.624 51.2822L582.633 46.056L584.033 45.9768L583.692 42.8787L583.212 42.6015L584.32 41.7899C584.32 41.7899 584.706 41.6167 584.523 41.0822V41.0723C584.974 40.9733 585.78 40.7506 586.226 40.3101C586.854 39.7162 586.686 38.8353 586.206 38.4196C585.721 37.9989 585.092 37.9841 585.092 37.9841C585.092 37.9841 584.964 37.1279 584.142 36.7963C583.311 36.4647 581.757 36.1579 581.425 35.3808C581.089 34.6088 580.98 33.0399 580.98 32.6935C580.985 32.357 580.505 31.5057 579.773 31.4216C579.04 31.3325 578.511 31.768 578.021 32.2085C577.521 32.649 577.259 33.0201 577.105 33.619C576.967 34.2079 577.442 34.6385 577.194 34.9701C576.952 35.3165 576.576 35.3957 576.576 35.3957C576.576 35.3957 575.878 34.9948 575.457 35.2373C575.027 35.46 575.111 35.9945 575.111 35.9945C575.111 35.9945 574.453 36.2915 574.374 36.9349C574.319 37.3902 574.438 37.6228 574.765 37.791L571.964 39.0234L572.607 40.2755L569.598 45.5066L567.401 45.7838L566.164 47.9366L538.961 53.4697C538.214 53.6033 537.051 53.7963 535.631 53.9893C506.483 57.9634 483.715 46.0708 471.076 40.9931C445.105 30.5605 421.09 32.5054 400.008 34.2129C334.088 39.548 324.957 86.7027 264.653 85.9949C246.086 85.7772 233.299 81.1746 211.322 87.4896C192.844 92.7999 187.821 102.807 164.859 112.933C159.01 115.511 153.828 117.13 149.404 118.441C142.442 120.51 136.389 121.767 131.866 122.544C127.967 123.217 125.077 123.563 124.468 123.642C119.856 124.217 93.0443 128.324 75.2144 138.569C47.7 154.381 48.2839 180.963 25.0352 196.874C23.7189 197.775 18.6465 201.16 14.7915 207.48C13.683 209.296 7.3933 219.595 11.1642 229.81C11.7481 231.394 12.8863 233.814 17.0036 238.174C25.9903 247.686 35.7886 252.279 37.0802 252.887C48.0216 258.049 65.9555 268.942 93.4303 287.298L631.12 355.902C666.027 336.482 700.94 317.067 735.848 297.647C739.609 295.048 744.928 290.728 749.541 284.081C756.434 274.144 757.829 264.231 760.101 252.358C761.457 245.276 762.145 237.644 762.061 228.622C757.493 220.936 750.342 210.033 740.029 198.274C717.29 172.351 692.582 157.549 675.905 147.735C650.404 132.724 645.456 134.184 628.269 121.287C613.933 110.527 602.497 103.01 594.035 91.914C589.249 85.6436 582.093 74.1172 579.015 55.8799L579.001 55.8898ZM585.137 38.4295C585.137 38.4295 586.443 38.7512 586.156 39.6074C585.919 40.2705 584.865 40.6566 584.464 40.7605C584.375 40.1567 584.424 39.2708 584.424 39.2708L585.137 38.4344V38.4295ZM576.165 38.5483L575.047 37.9049C575.116 37.9247 575.17 37.9544 575.235 37.9593C575.942 38.1721 576.541 37.7465 576.561 37.1774C576.596 36.6181 576.111 36.435 576.111 36.435C576.111 36.435 576.046 35.9698 576.462 36.0044C576.863 36.049 577.293 36.2469 577.491 36.4103C577.689 36.5686 578.016 36.6033 577.872 36.925C577.749 37.2269 577.531 37.6871 577.204 37.8306C576.962 37.9445 576.437 38.3305 576.16 38.5483H576.165ZM580.455 41.0228L576.729 38.8798C576.982 38.7017 577.447 38.3998 577.734 38.1771C578.144 37.895 578.377 37.7366 578.57 37.5485C578.768 37.3803 579.872 38.2414 580.644 38.4097C581.43 38.568 582.366 38.5384 582.366 38.5384C582.366 38.5384 581.797 39.3599 581.816 39.8202C581.861 40.2755 581.846 40.3646 581.524 40.513C581.272 40.6368 580.718 40.8941 580.455 41.0178V41.0228ZM583.534 41.5721C583.346 41.6662 582.836 42.0027 582.519 42.2007L581.143 41.4088C581.524 41.295 582.237 41.0574 582.272 40.8842C582.301 40.6763 582.43 40.028 582.791 39.8993C583.157 39.7657 583.425 40.3992 583.504 40.6813C583.588 40.9634 583.806 41.4336 583.534 41.5721Z" fill="#D6EEFC"/>
<path d="M244.72 115.071L243.992 113.828L244.082 113.665L243.884 113.324L243.131 113.076L242.542 112.067L242.602 111.849L242.419 111.537L242.186 111.458L241.929 111.606L241.761 111.319L240.87 110.621L241.038 111.735L241.206 112.022L240.949 112.171L241.573 113.24L233.056 118.218L231.576 115.684L231.606 115.373L231.081 114.477L230.433 114.309L229.948 113.477L230.008 113.245L229.661 112.651L229.211 112.532L228.78 111.794L228.855 111.512L228.563 111.012L227.904 110.839L227.202 109.632C227.162 109.562 227.068 109.538 226.999 109.577C226.93 109.617 226.905 109.711 226.944 109.78L227.068 109.988L226.801 110.141L226.36 109.389L226.415 109.221L225.955 108.434L225.841 108.498L225.747 108.335L225.816 108.295L225.712 108.107L225.801 108.053L225.361 107.301L225.277 107.35L225.336 107.449L225.227 107.513L224.331 106.152L224.426 106.098L223.822 105.054L223.723 105.113L223.782 105.212L223.718 105.252L223.461 104.811L223.297 104.905L222.877 104.188L222.797 104.232L222.743 104.138L222.664 104.183L222.525 103.945L222.392 104.019L222.451 104.118L222.372 104.168L222.283 104.014L222.387 103.95L222.228 103.673L222.07 103.767L222.016 103.678L222.105 103.628L221.917 103.307L221.728 103.416L221.684 103.341L221.778 103.287L221.585 102.955L221.402 103.064L221.343 102.96L221.446 102.896L221.303 102.653L221.234 102.693L221.065 102.406L220.971 102.46L220.759 102.099L220.813 101.891L220.759 101.792L220.516 101.931L220.274 102.07L220.328 102.168L220.536 102.223L220.749 102.584L220.655 102.639L220.823 102.926L220.754 102.965L220.897 103.208L221.001 103.143L221.06 103.247L220.877 103.356L221.07 103.688L221.164 103.633L221.209 103.708L221.021 103.817L221.209 104.138L221.298 104.089L221.352 104.178L221.194 104.272L221.352 104.549L221.456 104.485L221.545 104.638L221.466 104.688L221.407 104.589L221.273 104.663L221.412 104.9L221.333 104.945L221.387 105.039L221.308 105.083L221.728 105.801L221.565 105.895L221.823 106.336L221.758 106.375L221.699 106.276L221.6 106.336L222.213 107.37L222.307 107.316L223.055 108.766L222.946 108.83L222.886 108.731L222.802 108.78L223.243 109.533L223.332 109.478L223.446 109.661L223.515 109.622L223.609 109.785L223.495 109.849L223.955 110.636L224.129 110.671L224.569 111.423L224.302 111.577L224.178 111.369C224.138 111.3 224.044 111.275 223.975 111.314C223.906 111.354 223.881 111.448 223.921 111.517L224.623 112.725L224.45 113.383L224.742 113.883L225.024 113.957L225.455 114.695L225.336 115.145L225.682 115.739L225.915 115.798L226.4 116.63L226.232 117.278L226.756 118.174L227.043 118.297L228.523 120.831L217.2 127.448L216.651 126.508L216.132 126.81L215.795 126.236L215.478 126.424L216.186 127.636L216.161 128.206L216.013 128.29L215.607 127.592L215.271 127.79L215.602 128.359L215.483 128.428L215.078 127.73L215.191 127.666L215.028 127.389L215.132 126.988L214.82 126.449L214.464 126.355L214.271 126.468L213.202 125.192L213.791 126.75L213.346 127.013L213.276 126.889L213.103 126.988L213.37 127.448L213.341 127.572L213.509 127.854L213.83 127.938L214.583 129.225L214.518 129.472L214.756 129.878L214.637 129.948L214.409 129.562L214.256 129.829L214.503 130.254L214.454 130.383L214.637 130.695L214.934 130.739L215.825 132.264L215.508 132.976L216.072 133.937L216.285 134.085L216.473 134.407L220.16 140.717L250.124 123.202L245.467 115.234L244.715 115.041L244.72 115.071ZM225.069 112.651L224.901 112.606L224.401 111.755L224.668 111.601L224.925 112.042L225.069 112.651ZM227.147 110.74L226.89 110.3L227.157 110.146L227.657 110.998L227.612 111.166L227.152 110.74H227.147Z" fill="#C4E5F9"/>
<path d="M252.029 72.4791C245.972 74.0776 246.788 74.0083 243.879 75.7999L236.817 64.3379L233.783 66.2334L233.308 65.4712L231.586 66.5501L228.864 62.1949L228.459 62.4473L227.954 61.6357L225.118 63.4074L224.93 63.1055L224.475 63.3926L224.252 63.0363L223.777 63.3332C223.743 63.2788 223.713 63.2194 223.678 63.1649C223.46 62.8185 223.228 62.477 222.985 62.1504C222.743 61.8188 222.481 61.4971 222.189 61.2002C222.327 61.5961 222.505 61.9673 222.693 62.3335C222.882 62.6997 223.084 63.0561 223.302 63.4025C223.337 63.4569 223.376 63.5114 223.411 63.5658L222.738 63.9865L222.961 64.3428L222.505 64.6299L222.693 64.9317L220.11 66.5451L220.65 67.4063L219.991 67.8171L222.971 72.5781L221.085 73.7609L217.685 71.7318C218.111 70.6776 218.047 69.4502 217.398 68.4109C216.493 66.9609 214.736 66.367 213.177 66.8569L210.149 61.121C211.727 59.7897 212.014 57.3696 210.589 55.6819C209.515 54.415 207.684 53.9844 206.155 54.6476C204.903 55.192 204.121 56.2709 203.894 57.4636L194.031 57.3102C193.952 56.7361 193.744 56.1719 193.378 55.6621C192.279 54.1329 190.151 53.6825 188.528 54.6426C186.747 55.6968 186.192 58.0031 187.281 59.7501C187.533 60.1559 187.855 60.4924 188.216 60.7597L184.094 69.866C183.01 69.5591 181.793 69.7274 180.793 70.4549C179.264 71.5635 178.764 73.5679 179.601 75.2555C180.59 77.2599 183.005 77.9676 184.891 76.9382L188.731 82.2089C187.751 83.3918 187.583 85.119 188.444 86.4948C189.166 87.648 190.423 88.2616 191.69 88.2171L192.121 91.8448L191.492 92.3001L190.898 91.4884L189.904 92.211L190.498 93.0226L189.503 93.7452L187.202 90.5828L185.217 92.0279L183.639 89.8602L182.738 90.5184L182.342 89.974L179.724 91.8844L180.12 92.4287L179.309 93.0226L182.402 97.2689L181.496 97.9272L178.007 93.1414L177.74 92.7752L177.003 93.3146L176.547 92.6861L175.533 93.4235L176.236 94.3886L175.85 94.6707L178.032 97.6649L172.772 101.5L173.37 102.322L172.885 102.673L173.588 103.638L172.717 104.272L171.871 103.114L171.435 103.431L170.941 102.753L166.304 106.128L167.076 107.192L166.447 107.647L167.15 108.612L166.665 108.964L165.962 107.999L163.018 110.141L159.712 105.603L159.084 106.058L158.485 105.237L156.02 107.028L155.808 106.737L155.372 107.053L155.125 106.717L154.486 107.182C154.447 107.127 154.412 107.073 154.373 107.019C154.13 106.687 153.878 106.365 153.61 106.054C153.343 105.742 153.061 105.44 152.744 105.163C152.913 105.549 153.111 105.91 153.328 106.256C153.541 106.608 153.769 106.949 154.011 107.281C154.051 107.335 154.09 107.385 154.13 107.439L153.675 107.771L153.922 108.107L153.487 108.424L153.7 108.716L150.998 110.686L151.562 111.458L151.176 111.74L154.199 115.892L152.556 117.09L153.086 117.813L150.196 119.916L158.317 130.913C124.028 152.624 100.972 167.14 80.4894 179.943C59.5913 193.009 42.7313 203.446 38.1983 222.762C35.5904 233.878 34.67 246.157 37.0651 252.887L89.6444 285.19L641.368 353.086C684.149 309.49 722.085 295.949 750.535 292.505C773.224 289.753 794.499 293.519 807.098 278.454C819.395 263.751 821.825 235.699 810.131 219.451C801.659 207.683 790.084 208.029 784.398 193.083C781.088 184.373 783.255 179.631 777.708 171.579C776.694 170.104 776.827 168.907 764.906 156.564C763.97 155.599 763.184 154.827 762.407 154.059C760.769 152.446 758.799 151.209 756.632 150.437C754.954 149.838 753.153 149.204 750.09 147.443C746.591 145.428 745.176 143.919 742.201 142.023C717.434 126.206 705.166 130.358 647.648 114.314C612.839 104.603 595.435 99.7484 578.387 92.8049C550.452 81.4319 523.051 66.6887 500.975 54.8109C475.613 41.1663 473.406 38.8304 461.069 34.0298C447.678 28.8184 425.093 20.2565 395.604 20.2565C387.354 20.2565 343.124 22.2263 302.178 50.6933L252.014 72.4791H252.029ZM210.248 79.0514L207.145 80.9915L204.077 77.3588C205.18 76.0473 205.368 74.1271 204.413 72.5929C204.309 72.4296 204.195 72.2811 204.077 72.1376L210.742 71.3457C210.837 71.6724 210.97 71.9941 211.163 72.3009C211.445 72.7513 211.811 73.1175 212.222 73.3996L210.248 79.0514ZM206.828 61.9524C207.541 62.1108 208.303 62.0662 209.015 61.799L212.009 67.4756C211.188 68.1189 210.708 69.0593 210.624 70.0491L203.245 70.9251L206.828 61.9574V61.9524ZM203.097 78.4378L203.933 77.9181L204.126 78.1507L203.814 78.7099L203.419 78.9574L203.097 78.4427V78.4378ZM205.541 79.8383L204.834 79.8581L205.081 80.7193L204.547 79.868L204.834 79.8581L204.458 78.5466L205.541 79.8383ZM206.734 81.2538L205.789 81.8427L205.155 80.8281L205.601 79.9027L206.734 81.2538ZM196.733 84.5795L195.219 84.4261C195.199 83.8025 195.021 83.174 194.664 82.6049C194.521 82.3772 194.358 82.1693 194.174 81.9862L197.376 76.6462C197.421 76.7303 197.465 76.8145 197.515 76.8986C198.44 78.3833 200.167 79.0564 201.785 78.7198L202.127 79.2642L201.355 79.7492L201.597 80.1353L204.74 85.1586L204.428 85.3516L203.483 85.2576L201.009 81.2983L200.157 81.8328L199.801 81.2637L197.055 82.981L197.411 83.5501L196.466 84.144L196.738 84.5845L196.733 84.5795ZM196.738 75.1714L193.106 81.229C192.056 80.7391 190.799 80.7589 189.731 81.3725L185.915 76.1315C186.341 75.6564 186.638 75.0872 186.781 74.4834L196.738 75.1714ZM189.389 61.3387C190.131 61.5466 190.938 61.5268 191.685 61.2447L198.242 71.7417C197.604 72.3207 197.178 73.073 197 73.8797L186.875 73.1818C186.816 72.6127 186.638 72.0485 186.316 71.5338C186.039 71.0884 185.683 70.7172 185.277 70.4302L189.389 61.3387ZM203.859 58.7801C203.938 59.2799 204.111 59.7748 204.398 60.2351C204.715 60.7448 205.141 61.1507 205.616 61.4526L201.884 70.7914C201.053 70.5984 200.162 70.6727 199.341 71.029L192.804 60.5667C193.398 60.047 193.793 59.364 193.962 58.6266L203.854 58.7801H203.859ZM216.973 72.8453L219.937 74.622L220.501 75.5277L219.996 75.8444L219.363 74.8299L218.705 75.2407L218.007 74.1271L213.148 77.1658L213.593 77.8736L213.138 78.1606L213.9 79.3781L212.989 79.9472L212.356 78.9327L211.851 79.2494L211.683 78.9821L213.435 73.9292C214.355 74.1469 215.36 74.0133 216.226 73.4689C216.513 73.2907 216.76 73.073 216.983 72.8404L216.973 72.8453ZM199.128 100.001C199.009 100.075 198.895 100.149 198.777 100.224L193.6 93.1117L192.977 87.935C193.155 87.8608 193.333 87.7717 193.501 87.6678C194.254 87.1976 194.773 86.5047 195.036 85.7277L197.619 85.9851L197.886 86.4156L195.803 87.7172L197.876 91.0331L196.832 91.6864L196.297 90.8352L195.253 91.4884L195.788 92.3397L194.744 92.993L199.128 100.001Z" fill="#C4E5F9"/>
<path d="M63.8915 192.821C62.7187 194.32 59.8733 193.939 60.1454 192.91C60.6106 191.153 59.512 191.648 59.0864 191.989C57.8196 192.999 55.8846 189.693 56.4438 188.129C56.7655 187.223 53.7567 186.431 49.7483 190.841C46.0715 195.572 47.3384 198.364 48.1747 197.893C49.6246 197.087 53.2074 198.448 52.4206 199.863C52.1583 200.338 51.8466 201.506 53.5044 200.759C54.4743 200.318 55.3156 203.06 54.0339 204.466C55.8599 208.257 54.7762 210.741 54.7762 210.741C53.7073 212.033 52.1237 213.948 52.1237 213.948L98.5568 253.338L119.386 228.781L72.9377 189.376C72.9377 189.376 71.3096 191.257 70.211 192.524C70.211 192.524 67.9395 194.003 63.8965 192.821H63.8915Z" fill="#9FD4F3"/>
<path d="M122.286 156.4L120.806 157.747L119.475 156.282L118.257 154.94L116.313 156.707L114.031 154.203L112.418 155.673L110.265 153.307L108.835 154.604L106.237 151.748L104.599 153.238L102.258 150.664L100.596 152.179L98.3144 149.675L96.7457 151.1L94.6376 148.784L94.2862 149.105L93.1431 150.145L95.2512 152.461L93.6825 153.886L95.9638 156.391L94.3011 157.905L96.6418 160.478L95.0038 161.968L97.6018 164.824L96.1717 166.125L98.3243 168.491L96.7111 169.961L98.9924 172.465L97.0476 174.232L98.2649 175.573L97.2109 176.533L95.9935 175.192L94.0487 176.959L91.7674 174.455L90.1541 175.924L88.0015 173.559L86.5713 174.86L83.9733 172.005L82.3353 173.494L79.9946 170.921L78.3318 172.435L76.0505 169.931L74.4818 171.356L72.3737 169.04L71.2305 170.08L70.4833 170.758L72.5914 173.074L71.0227 174.499L73.304 177.003L71.6413 178.518L73.982 181.091L72.344 182.581L74.942 185.437L73.5118 186.738L75.6645 189.104L74.0512 190.574L76.3326 193.078L74.3878 194.845L76.7928 197.493L75.7387 198.448L112.215 238.54L158.821 196.132L122.271 156.4H122.286Z" fill="#9FD4F3"/>
<path d="M384.262 39.9687L384.069 37.2219L384.638 36.7617L384.039 36.8013C384.039 36.8013 383.109 35.5442 383.233 32.6242C383.302 31.867 383.762 32.1046 383.079 31.5256C382.396 30.9416 382.936 30.996 383.025 30.7485C383.114 30.5011 383.238 29.7142 382.53 30.2734C382.188 30.5654 382.579 30.9614 382.347 31.0653C382.114 31.1742 381.793 31.3127 381.847 32.5104C381.901 33.7081 381.802 35.3066 381.941 35.9896L381.669 36.7914L378.244 37.0339L377.17 35.7323C377.17 35.7323 376.977 33.4804 377.166 33.3023C377.349 33.1241 378.175 32.7381 377.423 31.8423C377.235 31.0009 377.502 31.0801 377.002 31.0207C376.507 30.9564 376.611 30.1052 375.824 30.5803C375.508 30.7634 376.398 31.2929 376.052 31.5107C375.706 31.7334 375.478 31.7483 375.458 32.3718C375.438 32.9954 375.26 33.3072 375.26 33.3072L374.226 32.0996L372.266 32.2679L372.158 30.7189L371.633 30.7535L370.96 30.803L370.797 28.5017L368.11 28.6897L368.283 31.1445L367.575 31.194L365.338 29.5558L365.007 24.8196L366.15 24.0475L366.12 23.6268L365.422 23.2705L365.358 22.3896L364.749 21.1226L364.25 21.1573C364.25 21.1573 363.547 17.8661 358.846 14.9759L358.811 14.4562C358.811 14.4562 358.296 14.6146 358.069 14.3078C357.841 14.0009 359.232 13.8871 358.113 13.3179C356.995 12.7537 356.391 12.7785 356.391 12.7785L356.371 12.4815H356.47L356.446 12.1549L356.109 12.1797C356.109 12.1797 356.139 11.665 355.857 11.5165C355.822 11.2789 355.832 11.1651 355.832 11.1651C355.832 11.1651 356.094 10.2644 355.505 10.1258C355.431 9.52201 355.228 7.87397 355.243 7.54733C355.263 7.14151 356.312 8.91822 356.322 9.06174C356.332 9.20527 356.371 9.7942 356.614 9.51706C356.856 9.23991 355.515 7.53248 355.54 6.81982C355.565 6.10715 355.352 5.71617 355.847 5.70628C356.342 5.69638 356.752 5.0431 356.188 4.11268C355.624 3.18225 356.218 2.9447 354.991 3.28618C353.763 3.62767 353.531 4.25125 353.046 4.42942C352.561 4.60758 353.407 5.40933 353.546 5.66668C353.684 5.92403 354.595 5.79041 354.595 5.79041C354.595 5.79041 354.723 6.25562 354.659 6.73568C354.605 7.1613 355.159 9.67543 355.278 10.205C354.907 10.497 355.228 11.2096 355.228 11.2096C355.228 11.2096 355.253 11.3185 355.253 11.561C354.996 11.7491 355.095 12.2539 355.095 12.2539L354.758 12.2786L354.783 12.5954H354.882L354.902 12.8824C354.902 12.8824 354.298 12.9418 353.269 13.6594C352.239 14.377 353.635 14.2979 353.452 14.6294C353.269 14.966 352.734 14.8818 352.734 14.8818L352.769 15.4015C348.518 18.9203 348.28 22.2757 348.28 22.2757L347.781 22.3104L347.355 23.6516L347.419 24.5325L346.776 24.9829L346.806 25.4036L348.043 26.0123L348.602 34.005C348.602 34.005 348.498 33.3419 348.132 33.2924C347.761 33.2429 348.112 32.8618 348.092 32.7282C348.068 32.5896 347.949 31.966 347.469 32.1541C346.989 32.3372 347.172 32.7925 347.33 32.8865C347.489 32.9806 347.553 33.1983 347.469 33.233C347.385 33.2627 346.806 33.2429 346.712 33.7774C346.637 34.198 346.598 34.1535 346.598 34.1535L342.307 34.4554C342.307 34.4554 342.154 33.7031 341.53 33.5448C341.372 33.2429 341.412 33.3023 341.456 33.1637C341.501 33.0251 341.535 32.5599 341.144 32.649C340.753 32.7381 340.674 32.9014 340.852 33.3171C341.031 33.7328 340.462 33.7922 340.407 34.0298C340.353 34.2673 340.363 34.594 340.363 34.594L339.17 34.6781L339.13 34.0892L338.645 34.1238L338.685 34.7128L338.294 34.7424L338.254 34.1337L337.68 34.1733L337.72 34.782L335.731 35.5293C335.731 35.5293 335.612 34.1783 334.756 34.1139C334.637 33.7774 334.696 33.8071 334.726 33.6982C334.756 33.5943 334.795 33.0697 334.226 33.2181C333.657 33.3666 334.291 33.9308 334.127 34.1139C333.959 34.297 333.449 34.2079 333.444 34.9948C333.444 35.7817 333.627 35.8065 333.924 35.8164C334.221 35.8263 333.835 37.7317 334.182 39.2461C333.87 39.2659 333.736 39.2758 333.736 39.2758L333.781 39.939L334.414 40.2953L340.541 127.523L390.161 124.038L384.371 41.5672L385.455 39.9093L384.262 39.9934V39.9687ZM354.773 4.31064C354.456 4.36013 354.342 4.86988 354.605 4.98866C354.867 5.10744 354.832 5.36479 354.832 5.36479C354.832 5.36479 354.545 5.50336 354.412 5.51326C354.278 5.52316 353.912 5.50336 353.521 5.22622C353.13 4.94907 353.283 4.38488 353.773 4.23145C354.263 4.07803 354.491 3.83058 354.996 3.51879C355.5 3.207 355.753 3.69696 355.822 3.83058C355.891 3.96915 355.901 4.5185 356.099 4.62243C356.297 4.72636 356.287 5.19652 356.03 5.25096C355.773 5.3054 355.233 5.22622 355.233 5.22622C355.233 5.22622 355.189 5.12724 355.233 4.82534C355.278 4.52345 355.09 4.25125 354.773 4.30569V4.31064Z" fill="#9FD4F3"/>
<path d="M334.731 37.019C334.686 36.7913 334.558 36.4202 334.162 36.2816C334.162 36.0044 334.098 35.8758 334.098 35.8758C334.098 35.8758 334.746 35.3066 334.271 34.9404C334.157 34.3812 334.107 33.7823 334.107 33.7823C334.107 33.7823 335.35 32.9311 333.756 32.352C333.523 31.7631 333.37 31.3622 333.266 31.095C333.217 30.9712 333.034 31.0009 333.024 31.1346C333.009 31.4216 332.984 31.8472 332.954 32.4807C331.623 33.5299 333.068 33.9456 333.068 33.9456C333.068 33.9456 333.207 34.5247 333.276 35.0938C332.94 35.5887 333.736 35.9253 333.736 35.9253C333.736 35.9253 333.712 36.0688 333.801 36.3311C333.469 36.5884 333.459 36.9794 333.494 37.2071L332.662 37.3407L332.722 37.7218L333.761 37.9148L333.84 38.4146C333.84 38.4146 330.213 37.9742 329.955 34.6237C329.97 34.2624 330.411 33.9308 330.411 33.9308L330.356 33.5794L329.787 33.6734L329.609 32.5698L330.03 32.2778L329.97 31.9116L330.431 31.2781L330.346 30.7485L329.238 30.9267C329.193 30.699 329.065 30.3279 328.669 30.1893C328.669 29.9121 328.605 29.7835 328.605 29.7835C328.605 29.7835 329.253 29.2143 328.778 28.8481C328.664 28.2889 328.614 27.69 328.614 27.69C328.614 27.69 329.857 26.8388 328.263 26.2597C328.03 25.6708 327.877 25.2699 327.773 25.0027C327.724 24.8789 327.541 24.9086 327.531 25.0423C327.516 25.3293 327.491 25.7549 327.461 26.3884C326.13 27.4376 327.575 27.8533 327.575 27.8533C327.575 27.8533 327.714 28.4324 327.783 29.0015C327.447 29.4964 328.243 29.833 328.243 29.833C328.243 29.833 328.219 29.9765 328.308 30.2388C327.976 30.4961 327.966 30.8871 328.001 31.1148L327.318 31.2236L323.74 27.2347C323.74 27.2347 325.715 31.1148 324.126 30.8822C322.537 30.6496 323.112 26.3587 323.112 26.3587L322.636 26.433L322.533 25.7995L323.596 24.3247C323.596 24.3247 323.037 21.6423 319.395 21.0484C319.534 20.1278 319.336 18.1631 317.114 18.5243C314.892 18.8856 315.322 20.8108 315.743 21.6423C312.472 23.3546 312.789 26.0766 312.789 26.0766L314.263 27.1407L314.367 27.7741L313.892 27.8484C313.892 27.8484 315.788 31.7433 314.352 32.4609C312.917 33.1835 313.571 28.8778 313.571 28.8778L311.428 33.7922L310.745 33.9011C310.7 33.6734 310.572 33.3023 310.176 33.1637C310.176 32.8865 310.111 32.7579 310.111 32.7579C310.111 32.7579 310.76 32.1887 310.285 31.8225C310.171 31.2632 310.121 30.6644 310.121 30.6644C310.121 30.6644 311.363 29.8132 309.77 29.2341C309.537 28.6452 309.384 28.2443 309.28 27.9771C309.231 27.8533 309.047 27.883 309.038 28.0167C309.023 28.3037 308.998 28.7293 308.968 29.3628C307.637 30.412 309.082 30.8277 309.082 30.8277C309.082 30.8277 309.221 31.4068 309.29 31.9759C308.953 32.4708 309.75 32.8073 309.75 32.8073C309.75 32.8073 309.725 32.9509 309.815 33.2132C309.483 33.4705 309.473 33.8615 309.508 34.0892L308.399 34.2673L308.483 34.7969L309.117 35.2571L309.176 35.6234L309.671 35.7718L309.849 36.8755L309.28 36.9695L309.335 37.3209C309.335 37.3209 309.854 37.4991 309.983 37.8405C310.794 41.102 307.489 42.6609 307.489 42.6609L307.41 42.1611L308.335 41.6513L308.271 41.2703L307.439 41.4039C307.395 41.1762 307.266 40.805 306.87 40.6665C306.87 40.3893 306.806 40.2606 306.806 40.2606C306.806 40.2606 307.454 39.6915 306.979 39.3253C306.865 38.766 306.816 38.1672 306.816 38.1672C306.816 38.1672 308.058 37.3159 306.464 36.7369C306.232 36.148 306.078 35.7471 305.974 35.4798C305.925 35.3561 305.742 35.3858 305.732 35.5194C305.717 35.8065 305.692 36.2321 305.663 36.8656C304.331 37.9148 305.776 38.3305 305.776 38.3305C305.776 38.3305 305.915 38.9095 305.984 39.4787C305.648 39.9736 306.445 40.3101 306.445 40.3101C306.445 40.3101 306.42 40.4537 306.509 40.716C306.177 40.9733 306.167 41.3643 306.202 41.5919L305.39 41.7206L305.455 42.1066L306.42 42.3046L318.371 116.288L346.726 111.705L334.775 37.7218L335.627 37.2318L335.562 36.8458L334.751 36.9745L334.731 37.019Z" fill="#9FD4F3"/>
<path d="M305.024 42.3096C304.45 42.3739 304.143 42.7995 304.198 43.3984C304.247 43.9972 301.763 43.1707 303.163 40.909C303.579 40.2607 302.98 40.1171 301.298 38.5928C301.234 38.6077 301.115 38.6374 300.976 38.672C301.055 38.385 301.174 37.6476 300.412 37.415C300.244 36.8062 300.15 36.4746 300.15 36.4746C300.15 36.4746 300.476 35.9946 299.863 35.8164C299.754 35.4551 299.615 34.9206 299.615 34.9206C299.615 34.9206 299.784 34.0793 299.259 34.2129C298.739 34.3663 299.318 34.9998 299.318 34.9998C299.318 34.9998 299.477 35.5294 299.566 35.8956C299.13 36.3608 299.66 36.6033 299.66 36.6033L299.922 37.5436C299.383 38.1375 299.873 38.7116 300.085 38.9145C299.863 38.9789 299.699 39.0283 299.699 39.0283L298.982 36.4301L297.24 36.9101L296.795 35.2918L297.329 35.1433L297.171 34.5742L296.636 34.7227L296.409 33.9061L295.963 34.0298L295.627 32.8222L295.844 32.4362L295.745 32.0799L295.265 32.2135L294.875 30.8079L295.107 30.5555L295.053 30.3526L294.563 30.4863L294.291 29.5063L293.82 29.635L294.093 30.6149L293.603 30.7486L293.657 30.9515L293.984 31.0505L294.375 32.456L293.895 32.5896C293.895 32.5896 292.945 31.4662 291.673 31.5256L291.801 31.9908L291.282 32.1343L290.891 30.7139L291.247 30.417L290.93 29.2787L291.608 28.5413L291.43 27.8929L290.203 28.2344L288.174 27.7346L287.249 27.9919L287.179 27.7494L287.892 27.2397L287.748 26.7299L286.6 27.0467L286.274 25.8688L285.898 25.7451L285.744 25.2007C286.061 24.9829 286.219 24.582 286.11 24.191C286.002 23.8001 285.655 23.5328 285.269 23.513L285.116 22.9637C285.071 22.8053 284.908 22.7113 284.75 22.7558C284.591 22.8004 284.497 22.9637 284.542 23.1221L284.695 23.6714C284.374 23.8892 284.21 24.29 284.319 24.686C284.428 25.0819 284.769 25.3392 285.155 25.364L285.309 25.9084L285.047 26.2103L285.373 27.3881L284.225 27.7049L284.369 28.2146L285.24 28.2839L285.309 28.5264L284.383 28.7838L282.899 30.2537L281.672 30.5951L281.85 31.2435L282.815 31.5305L283.131 32.6688L283.587 32.7381L283.978 34.1585L283.458 34.302L283.329 33.8368C282.206 34.4406 281.973 35.8906 281.973 35.8906L281.493 36.0243L281.102 34.6187L281.335 34.3663L281.281 34.1634L280.791 34.297L280.519 33.3171L280.048 33.4458L280.321 34.4257L279.831 34.5593L279.885 34.7623L280.212 34.8612L280.603 36.2668L280.123 36.4004L280.222 36.7567L280.608 36.9745L280.944 38.1821L280.499 38.3058L280.726 39.1224L280.192 39.2709L280.35 39.84L280.885 39.6915L281.33 41.3099L279.588 41.7899L280.306 44.3882C280.306 44.3882 280.142 44.4327 279.915 44.4921C279.994 44.21 280.118 43.4627 279.351 43.2301C279.182 42.6214 279.088 42.2898 279.088 42.2898C279.088 42.2898 279.415 41.8097 278.801 41.6316C278.692 41.2703 278.554 40.7358 278.554 40.7358C278.554 40.7358 278.722 39.8944 278.198 40.0281C277.678 40.1815 278.257 40.815 278.257 40.815C278.257 40.815 278.415 41.3445 278.504 41.7107C278.069 42.176 278.598 42.4185 278.598 42.4185C278.598 42.4185 278.688 42.75 278.861 43.3588C278.326 43.9477 278.811 44.5218 279.024 44.7297C278.885 44.7693 278.767 44.8039 278.707 44.8237C278.044 46.9963 277.609 47.4269 278.297 47.7684C280.662 48.9908 278.955 50.9754 278.688 50.4359C278.425 49.8965 277.945 49.6837 277.416 49.9262C275.367 50.8962 277.243 53.0886 277.243 53.0886L296.557 122.915L326.135 114.729L306.821 44.9029C306.821 44.9029 307.301 42.0572 305.049 42.2799L305.024 42.3096Z" fill="#9FD4F3"/>
<path d="M668.873 192.776L669.605 192.568L669.338 194.568L667.992 196.24L669.887 197.799L673.485 198.997L694.062 174.054C694.062 174.054 693.809 173.648 693.898 173.168C694.388 172.846 697.263 171.782 703.256 167.184C701.668 170.941 701.222 171.812 701.222 171.812C701.222 171.812 701.811 171.243 702.395 171.678C703.241 171.025 707.586 168.338 709.091 167.155C707.304 171.48 704.755 176.004 704.929 177.449C704.023 177.83 703.835 177.874 703.835 177.874L702.459 179.537L706.987 183.269L730.35 154.906C730.35 154.906 730.043 154.653 730.31 154.084C731.132 153.871 732.641 153.238 736.679 150.882C736.244 152.941 735.61 154.698 735.61 154.698L736.62 154.614L737.372 153.703C737.372 153.703 737.174 153.144 737.352 152.654C737.951 152.491 739.455 152.06 744.473 149.244C743.776 151.184 742.964 153.377 742.964 153.377L750.263 151.209L752.02 149.076C751.956 148.967 751.941 148.838 751.97 148.719L751.357 148.215C751.273 148.145 751.258 148.017 751.327 147.933C751.396 147.848 751.525 147.834 751.609 147.903L752.223 148.408C752.337 148.353 752.465 148.348 752.584 148.388L753.46 147.329C753.361 147.16 753.371 146.943 753.505 146.789C753.673 146.586 753.97 146.557 754.178 146.725C754.385 146.893 754.41 147.19 754.242 147.398C754.113 147.556 753.9 147.606 753.717 147.542L752.841 148.601C752.906 148.71 752.921 148.838 752.891 148.957L753.505 149.462C753.589 149.531 753.603 149.66 753.534 149.744C753.465 149.828 753.336 149.843 753.252 149.774L752.639 149.269C752.525 149.323 752.396 149.328 752.277 149.289L750.511 151.432L749.432 164.047L750.897 165.284C750.897 165.284 754.588 163.666 756.706 161.963C756.182 164.111 754.831 168.09 755.039 169.228C754.43 169.629 753.846 169.738 753.846 169.738L733.101 194.939L745.527 197.577L741.38 214.948L742.999 219.902L741.306 220.174L743.201 231.379L744.968 232.834L743.919 234.106L743.879 234.947L748.902 239.084L725.03 268.066L656.66 208.964L666.018 191.173L668.863 192.796L668.873 192.776Z" fill="#9FD4F3"/>
<path d="M271.022 127.161L246.996 59.8986L247.407 59.3344L246.219 56.0086L245.576 55.9245L245.962 54.1181C245.962 54.1181 245.72 53.5786 246.091 53.2371C246.462 52.8956 245.452 52.8907 245.279 52.4007C245.106 51.9108 244.324 50.3221 245.596 49.8668C246.863 49.4115 247.269 51.1387 247.447 51.6287C247.625 52.1186 246.843 52.762 247.348 52.7868C247.853 52.8115 248.006 53.3856 248.006 53.3856L249.995 48.6592L249.857 48.2683L249.387 48.4365L249.302 48.2039L249.688 47.1696L250.347 46.937L250.109 46.2688L250.762 45.4522L253.123 44.6109C253.123 44.6109 253.405 43.4429 254.068 42.0226C253.583 40.7012 254.865 39.9439 254.395 39.6866C253.924 39.4292 253.024 39.84 252.445 39.9043C251.866 39.9687 252.128 39.6717 252.816 39.0284C253.504 38.385 253.816 38.1425 254.429 38.4691C255.043 38.7958 254.855 38.9789 254.969 38.38C255.082 37.7812 254.32 37.9099 254.568 37.4843C254.815 37.0586 255.097 37.222 255.132 37.5189C255.167 37.8158 255.686 37.9247 255.686 37.9247L256.201 36.4845L256.493 36.3806C256.493 36.3806 256.631 36.4103 257.275 36.9399C259.111 36.6776 259.784 37.6377 259.784 37.6377L258.942 37.9396L264.945 41.691L265.603 41.4584L266.578 42.077L266.662 42.3096L266.192 42.4779L266.331 42.8688L270.864 45.2642C270.864 45.2642 270.621 44.7247 270.992 44.3833C271.363 44.0418 270.354 44.0368 270.181 43.5469C270.008 43.0569 269.226 41.4683 270.497 41.0129C271.764 40.5576 272.17 42.2848 272.348 42.7748C272.526 43.2648 271.745 43.9081 272.249 43.9329C272.754 43.9626 272.907 44.5317 272.907 44.5317L274.348 45.6849L273.902 46.155L275.09 49.4808L275.763 49.654L299.788 116.917L271.047 127.161H271.022Z" fill="#9FD4F3"/>
<path d="M252.984 142.677L228.083 68.8316L229.27 67.8467L228.528 63.7242L227.914 61.9079L228.449 55.8156C228.449 55.8156 226.974 55.0534 228.033 54.1131C229.097 53.1777 230.29 54.2616 230.215 51.9157C230.245 51.3565 230.903 51.015 231.542 51.3565C232.18 51.6979 232.69 50.7527 232.279 49.9509C231.868 49.1492 233.219 48.971 233.219 48.971C233.219 48.971 234.397 48.2979 234.555 49.1789C234.714 50.0598 235.694 50.5052 235.995 49.847C236.297 49.1888 237.025 49.0601 237.391 49.4907C238.752 51.401 239.044 49.8173 240.454 49.9163C241.865 50.0202 241.157 51.5198 241.157 51.5198L245.274 56.0432L245.888 57.8595L247.793 61.5911L249.332 61.6555L274.234 135.5L252.984 142.667V142.677Z" fill="#9FD4F3"/>
<path d="M158.361 91.8943C159.633 91.3747 163.74 88.4547 163.74 88.4547C163.74 88.4547 164.334 89.4792 164.819 89.9889" stroke="#9FD4F3" stroke-width="0.5" stroke-miterlimit="10"/>
<path d="M164.884 90.3997C164.884 90.3997 159.96 92.2457 158.836 92.1912" stroke="#9FD4F3" stroke-width="0.5" stroke-miterlimit="10"/>
<path d="M164.552 91.7112C164.552 91.7112 161.717 94.057 160.821 94.1412" stroke="#9FD4F3" stroke-width="0.5" stroke-miterlimit="10"/>
<path d="M172.034 83.9114C172.034 83.9114 174.543 84.238 176.8 82.9166" stroke="#9FD4F3" stroke-width="0.5" stroke-miterlimit="10"/>
<path d="M173.158 86.8413C173.158 86.8413 175.607 84.3865 176.795 83.2433" stroke="#9FD4F3" stroke-width="0.5" stroke-miterlimit="10"/>
<path d="M176.399 80.7737C176.399 80.7737 176.275 81.2735 176.35 81.6051C176.424 81.9318 176.379 82.4465 176.122 82.7978" fill="#9FD4F3"/>
<path d="M234.189 85.8515L232.051 82.1545L231.23 82.6296C231.23 82.6296 230.715 82.783 230.468 82.3723L230.225 82.5108L229.785 81.7487L229.572 81.8724L229.29 81.8229L228.196 79.9373L227.949 80.0809L227.702 79.6503C227.702 79.6503 226.865 79.6651 226.618 79.3583C226.539 79.3583 226.509 79.4226 226.509 79.4226L226.158 78.8139C226.158 78.8139 225.707 78.8683 225.762 78.4477C225.816 78.027 225.445 77.3886 225.445 77.3886C225.445 77.3886 225.316 77.1857 225.113 77.3242C224.906 77.4628 225.044 77.057 225.044 77.057L225.079 76.9283L224.965 76.7303L225.084 76.2849L225.039 76.2107L224.574 76.4779L224.238 76.275L224.099 76.3542L223.99 76.1661L223.505 76.4482L223.347 76.176L221.63 77.1708L221.585 77.5618L221.456 77.636L221.422 78.3041L221.219 78.4229L221.09 80.066L221.174 80.2095L222.065 80.1947L222.134 80.3135L221.753 80.6797L222.174 81.4023L222.595 81.5458L222.748 81.8081L222.629 81.9912L223.03 83.0552L222.986 83.5798L219.917 85.3516L219.769 85.0943L219.531 85.2328L219.309 84.8518L217.577 85.8515L217.557 86.4404L199.39 96.9423L198.633 95.6358L198.475 95.7298C198.475 95.7298 198.703 95.1013 198.198 94.839C197.698 94.5717 197.208 94.9924 197.208 94.9924L197.084 94.7845L196.327 95.225L194.516 95.6358C194.516 95.6358 194.462 95.319 194.313 95.3883C194.165 95.4626 193.507 95.2052 193.507 95.2052C193.507 95.2052 193.759 94.8687 193.764 94.7895C193.769 94.7103 193.358 94.5024 193.645 94.3243C193.937 94.1461 193.957 93.9382 193.497 93.7997C193.036 93.6611 192.69 93.3889 192.388 93.6017C192.091 93.8145 191.958 93.4532 192.061 93.3196C192.16 93.186 192.106 92.7851 191.76 92.6663C191.413 92.5476 190.983 92.9732 191.151 93.2256C191.319 93.478 191.794 93.9481 191.492 94.1213C191.191 94.2946 190.819 94.3738 190.795 94.8192C190.527 95.0419 190.042 94.9676 190.042 94.9676C190.042 94.9676 190.003 94.8538 189.884 94.7202C189.765 94.5866 189.988 94.9874 189.79 94.9973C189.592 95.0072 189.221 94.7746 189.127 94.8241C189.033 94.8736 188.409 94.5519 188.409 94.5519L187.004 90.3848L185.574 91.2113L184.896 90.0384L183.659 90.751L183.184 89.9295L182.402 89.4395L180.66 90.4491C180.66 90.4491 179.992 89.4098 180.091 89.2416C180.19 89.0733 179.734 88.3656 179.734 88.3656C179.734 88.3656 179.843 87.3065 180.313 87.0788C180.437 87.2026 180.729 87.2323 180.68 86.866C180.63 86.4998 180.952 86.1435 180.952 86.1435C180.952 86.1435 181.358 86.9848 181.466 87.0541C181.575 87.1234 181.6 87.2521 181.6 87.2521C181.6 87.2521 181.269 87.7865 181.699 88.0587C182.13 88.3309 182.407 87.841 182.268 87.5985C182.13 87.356 181.897 87.0293 181.927 86.9403C181.956 86.8512 181.857 86.6037 181.664 86.5047C181.471 86.4058 181.283 85.5644 181.12 85.4753C180.957 85.3863 180.754 85.3219 180.526 85.5941C180.299 85.8663 180.061 84.9111 179.729 84.6538C179.398 84.3964 179.151 84.248 178.982 83.956C178.814 83.664 178.567 83.466 178.275 83.1443C177.983 82.8226 177.849 82.4317 178.195 82.1199C178.542 81.813 178.774 81.7734 178.715 81.5903C178.656 81.4072 178.938 81.2785 178.74 81.1053C178.542 80.9271 178.433 80.8084 178.017 80.9271C177.602 81.0459 177.136 81.3379 177.003 81.1746C176.869 81.0113 176.379 80.8232 176.256 81.5458C176.132 82.2683 175.335 83.0948 175.335 83.1889C175.335 83.2829 176.013 82.981 176.265 82.7039C176.518 82.4267 176.256 83.0651 176.3 83.1394C176.345 83.2136 175.667 83.8174 175.959 84.1787C176.251 84.54 175.909 83.6244 176.454 83.6343C176.998 83.6442 176.78 84.2331 176.78 84.2331C176.78 84.2331 176.35 83.8471 176.285 84.055C176.221 84.2628 176.414 84.5301 176.414 84.5301C176.414 84.5301 175.894 84.3915 175.894 84.7478C175.894 85.1042 176.315 85.1982 176.087 85.4654C175.86 85.7327 176.246 86.094 176.607 85.8614C176.968 85.6288 177.171 85.4605 177.171 85.4605C177.171 85.4605 177.295 86.7918 176.785 87.2471C176.275 87.6975 176.132 88.3557 176.29 88.6675C176.043 88.8506 175.884 88.8902 175.884 88.8902L175.469 88.1676C175.469 88.1676 175.454 87.8657 175.251 87.544C175.172 87.1927 175.439 87.2867 175.231 86.9551C175.023 86.6235 174.85 86.48 174.806 86.188C174.761 85.896 174.573 85.7673 174.405 85.8614C174.237 85.9554 174.276 85.0844 172.599 85.0398C172.465 84.8518 172.455 84.7924 172.455 84.7924C172.455 84.7924 172.282 84.6241 172.415 84.4608C172.549 84.2975 172.381 83.9015 172.331 83.8223C172.282 83.7432 172.455 83.5205 172.227 83.4264C172 83.3324 171.436 83.174 171.208 83.1394C170.98 83.1047 170.866 82.6841 170.688 82.9711C170.51 83.2631 170.654 83.5254 170.575 83.56C170.495 83.5947 169.956 83.1394 169.639 83.4908C169.323 83.8421 169.639 84.5103 169.817 84.5103C169.996 84.5103 170.02 84.9804 169.872 85.025C169.718 85.0695 169.214 84.9854 168.753 85.2625C168.293 85.5397 167.571 85.2873 167.209 84.8765C166.848 84.4657 166.893 84.0055 166.051 84.1589L165.888 83.8768C165.888 83.8768 165.755 83.0701 164.953 83.5304C164.448 83.8223 165.181 84.629 165.398 84.5499C165.616 84.4657 165.656 84.8221 165.656 84.8221C165.656 84.8221 165.388 85.1883 165.428 85.4654C165.25 85.8267 165.002 86.1088 165.002 86.1088C165.002 86.1088 164.265 86.2127 164.176 86.1534C164.087 86.094 163.701 85.7228 163.543 85.7624C163.364 85.5149 162.756 84.5746 162.805 84.3667C162.855 84.1589 161.919 82.7385 161.835 82.788C161.751 82.8375 161.147 84.827 161.231 85.0943C161.316 85.3615 161.964 86.2474 162.33 86.3068C162.696 86.3662 163.255 87.6727 163.255 87.6727L163.117 87.8212C163.117 87.8212 162.389 87.5045 162.276 87.6381C162.162 87.7717 162.399 88.0538 162.389 88.1478C162.38 88.2468 162.033 88.5685 162.063 88.7219C162.093 88.8753 162.192 89.0436 162.192 89.0436C162.192 89.0436 162.127 89.2861 162.291 89.4296C162.454 89.5732 162.558 89.6177 162.647 89.7909C162.736 89.9641 162.874 89.9889 163.018 89.9245C163.161 89.8602 163.226 89.974 163.29 90.0829C163.354 90.1918 163.379 90.5729 163.538 90.8451C163.696 91.1173 163.33 91.5082 163.671 92.1368C164.013 92.7653 164.196 93.7502 164.196 93.7502C164.196 93.7502 164.602 95.0419 164.824 95.4625C164.616 95.6308 164.349 95.6803 164.349 95.6803C164.349 95.6803 163.513 95.0963 163.142 95.2992C162.771 95.5021 162.85 95.0716 162.211 95.1557C161.573 95.2448 162.256 93.8244 161.405 93.5819C160.549 93.3394 160.43 93.2256 160.504 93.1414C160.578 93.0524 161.167 92.9385 160.633 92.8395C160.098 92.7406 160.009 92.8692 159.707 92.6218C159.405 92.3743 160.925 92.701 159.722 92.2061C158.52 91.7112 158.411 91.2608 157.941 91.5577C157.693 91.726 157.985 91.8992 157.896 91.9735C157.807 92.0526 157.322 92.5426 157.223 92.6762C157.124 92.8049 156.916 92.9187 156.946 93.0919C156.976 93.2652 157.045 93.6017 157.337 93.5374C157.634 93.473 157.416 93.8887 157.668 93.7848C157.921 93.6809 157.96 93.572 157.96 93.572L158.421 93.6809C158.421 93.6809 159.257 95.2745 159.336 95.4625C159.415 95.6506 159.049 95.8139 159.712 97.1205C159.203 97.5412 159.435 97.843 159.613 97.9816C159.796 98.1202 160.123 98.7636 160.123 98.7636C160.123 98.7636 159.994 98.8576 160.242 99.0358C160.494 99.2139 160.435 99.407 160.484 99.5059C160.534 99.6049 160.737 100.035 161.053 99.8474C161.37 99.6544 161.335 99.1941 161.029 99.0556C160.727 98.917 160.549 98.8527 160.544 98.7438C160.539 98.6349 160.474 98.5706 160.385 98.5359C160.301 98.5013 160.128 98.0707 160.128 98.0707C160.128 98.0707 160.504 98.3528 160.781 98.2043C161.058 98.0559 161.34 97.8381 161.677 98.1796C162.013 98.5211 162.523 98.3281 162.523 98.3281C162.523 98.3281 162.84 98.9912 163.132 99.11C163.424 99.2288 163.825 100.179 163.825 100.179L161.756 101.372L161.835 102.144L162.35 103.035L161.019 103.802L161.677 104.935L160.232 105.771L163.142 109.305C163.142 109.305 163.255 110.988 163.077 111.344C162.899 111.7 162.573 110.884 162.795 111.616C163.018 112.349 162.578 112.438 162.578 112.438C162.578 112.438 161.771 111.676 161.375 111.908C160.979 112.141 160.504 112.299 160.638 111.898C160.771 111.493 160.445 111.022 160.445 111.022C160.445 111.022 160.054 110.661 159.757 111.349C159.46 112.032 160.029 112.012 160.029 112.012C160.029 112.012 160.385 112.408 159.836 113.002C159.287 113.596 159.767 114.175 159.767 114.175C159.767 114.175 159.178 114.041 159.054 114.333C158.93 114.625 159.242 114.66 159.48 114.655C159.717 114.65 159.633 114.952 159.881 114.937C160.128 114.922 160.395 114.878 160.395 114.878L160.667 115.635L159.024 116.585L159.237 116.956C159.237 116.956 157.906 117.56 158.985 118.327L159.975 120.04L141.556 130.378L141.036 130.101L139.304 131.101L139.527 131.482L139.289 131.62L139.438 131.878L136.37 133.65L135.894 133.427L135.172 132.551L134.954 132.566L134.801 132.303L134.89 131.868L134.469 131.145L133.964 131.289L133.895 131.17L134.35 130.408L134.266 130.264L132.777 129.557L132.574 129.675L131.98 129.374L131.851 129.448L131.49 129.294L129.773 130.289L129.931 130.561L129.446 130.843L129.555 131.031L129.417 131.111L129.427 131.502L128.961 131.769L129.006 131.843L129.451 131.962L129.565 132.16L129.694 132.195C129.694 132.195 130.114 132.279 129.887 132.388C129.664 132.496 129.773 132.709 129.773 132.709C129.773 132.709 130.139 133.348 130.535 133.511C130.926 133.674 130.654 134.036 130.654 134.036L131.005 134.644C131.005 134.644 130.941 134.644 130.896 134.709C131.035 135.075 130.604 135.792 130.604 135.792L130.852 136.223L130.604 136.367L131.698 138.252L131.599 138.524L131.386 138.648L131.827 139.41L131.584 139.549C131.817 139.97 131.426 140.336 131.426 140.336L130.604 140.811L132.742 144.508L129.07 146.631L129.105 146.685L129.258 146.671L129.352 146.829L130.718 147.131L130.926 147.492L134.628 148.432L136.147 151.06L135.602 151.372L135.731 151.595L136.3 151.758L136.637 152.337L136.973 152.402L137.31 152.981L136.78 153.362L136.825 153.466C136.825 153.466 137.047 153.515 137.384 153.609C137.142 154.124 137.399 154.48 137.815 154.935C138.235 155.391 138.888 154.688 138.888 154.688L139.18 155.168L139.482 155.356L153.789 180.883C153.635 181.071 153.848 181.319 153.848 181.319L154.046 181.66L153.813 182.002L153.972 182.274L153.482 182.556L153.838 183.17L153.309 183.477L153.526 183.853L154.239 184.244L156.649 188.411L156.313 188.842L156.377 188.95L156.575 189.005L156.59 189.539L156.293 189.713L156.822 190.628L156.659 190.722L157.545 192.256L156.501 192.86L158.792 196.824L176.206 186.758L159.925 158.598C157.223 153.926 159.099 147.789 164.107 144.894C169.115 141.999 175.37 143.434 178.067 148.106L194.348 176.266L203.433 171.01L187.152 142.85C184.45 138.178 186.326 132.041 191.334 129.146C196.342 126.251 202.597 127.686 205.294 132.358L221.575 160.518L230.661 155.262L214.38 127.102C211.678 122.43 213.553 116.293 218.561 113.398C223.569 110.503 229.825 111.938 232.522 116.61L248.803 144.77L266.538 134.516L264.247 130.551L263.203 131.155L262.317 129.621L262.154 129.715L261.625 128.799L261.328 128.973L260.872 128.691L260.927 128.493L260.862 128.384L260.323 128.458L257.913 124.291L257.928 123.479L257.71 123.103L257.181 123.41L256.824 122.796L256.334 123.078L256.176 122.806L255.765 122.836L255.567 122.494C255.567 122.494 255.458 122.188 255.221 122.227L240.236 97.0908L240.227 96.7345L239.954 96.2445C239.954 96.2445 240.89 96.0267 240.702 95.4378C240.514 94.8489 240.335 94.448 239.766 94.4034C239.855 94.0669 239.925 93.8492 239.925 93.8492L239.86 93.7601L239.267 94.0273L238.93 93.4483L239.039 93.1266L238.702 92.5475L238.846 91.9735L238.717 91.7507L238.173 92.0625L236.654 89.4346L237.688 85.7574L237.48 85.3962L237.901 84.0649L237.807 83.9065L237.896 83.7828L237.861 83.7283L234.189 85.8515ZM165.334 99.3228L164.869 99.5901C164.869 99.5901 164.814 99.5455 164.676 99.4614C164.423 99.2981 164.285 98.2736 164.676 98.3874C165.067 98.4963 165.329 99.3228 165.329 99.3228H165.334ZM167.378 97.5758C167.62 97.5758 167.719 97.942 167.719 97.942L165.992 98.9417C165.992 98.9417 165.458 98.234 165.438 97.9816C165.418 97.7292 165.012 96.8087 165.012 96.8087C165.012 96.8087 165.576 96.878 165.72 96.7097C165.863 96.5414 166.155 96.586 166.739 96.4722C167.323 96.3583 167.135 97.5709 167.378 97.5758ZM166.937 91.5973C166.873 91.6369 166.358 90.657 166.358 90.657C166.358 90.657 166.729 90.7312 166.908 90.6916C167.086 90.6521 167.002 91.5577 166.937 91.5973ZM166.794 90.3997C166.71 90.4145 166.566 90.0087 166.378 89.8454C166.19 89.687 165.952 89.3059 165.952 89.3059C166.091 89.2069 166.037 89.2416 166.512 89.4049C166.982 89.5682 166.883 90.3848 166.794 90.3997ZM165.591 86.4652C165.176 86.8314 165.324 87.2521 165.314 87.4005C165.304 87.549 165.082 87.6777 165.195 87.8756C165.309 88.0736 165.23 88.5487 165.23 88.5487C165.23 88.5487 164.834 87.8459 164.74 87.6529C164.646 87.455 164.512 87.455 164.379 87.0887C164.245 86.7225 163.933 86.3216 163.933 86.3216C163.933 86.3216 164.715 86.8314 165.126 86.574C165.537 86.3216 166.007 86.094 165.591 86.4602V86.4652ZM169.788 86.6186C169.931 86.97 170.644 88.3408 170.604 88.6477C170.565 88.9545 170.57 89.0733 170.604 89.2119C170.639 89.3504 170.461 89.5286 170.461 89.5286L169.872 89.8058C169.872 89.8058 169.486 88.9248 169.308 88.8258C169.125 88.7269 168.298 87.3263 168.353 87.1679C168.402 87.0145 167.353 85.4407 167.353 85.4407C167.353 85.4407 168.046 86.0197 168.551 85.901C168.669 86.2375 168.516 86.3266 168.551 86.5988C168.585 86.8759 168.842 86.6483 168.981 86.6433C169.12 86.6433 169.323 86.8314 169.357 86.0049L169.58 85.8762C169.58 85.8762 169.644 86.2573 169.788 86.6136V86.6186ZM171.822 86.6483C171.668 86.6681 171.391 86.5344 171.282 86.2028C171.173 85.8713 171.406 85.7921 171.406 85.7921C171.406 85.7921 171.975 86.6334 171.822 86.6532V86.6483ZM174.944 90.1522C175.241 90.0037 174.895 89.2614 175.058 89.2218C175.221 89.1822 175.414 89.0189 175.414 89.0189C175.414 89.0189 175.978 89.9394 175.652 89.9889C175.33 90.0334 175.568 90.0235 175.296 90.266C175.023 90.5036 174.939 90.1571 174.939 90.1571L174.944 90.1522ZM178.2 91.8893L176.454 92.894C176.454 92.894 176.389 92.7851 176.147 92.3595C176.201 91.7557 175.835 91.6072 175.682 91.4785C175.533 91.3499 175.296 90.9193 175.454 90.9539C175.612 90.9886 176.142 90.6471 176.345 90.5184C176.369 90.271 176.463 90.078 176.745 89.9592C177.621 90.3007 178.2 91.8893 178.2 91.8893ZM179.111 91.3598L178.765 91.5577C178.765 91.5577 178.552 91.0876 178.23 90.3254C179.037 90.2116 179.111 91.3598 179.111 91.3598ZM180.175 90.5085C180.175 90.5085 180.19 90.6521 180.214 90.7164C180.101 90.7906 179.65 91.043 179.65 91.043C179.65 91.043 179.373 89.6523 179.467 89.2861L180.175 90.5085ZM176.83 85.1289C176.854 84.9953 177.057 84.7528 177.057 84.7528C177.211 85.0695 176.81 85.2625 176.83 85.1289ZM191.047 95.8981L190.25 95.7347C190.25 95.7347 190.706 95.6011 190.918 95.4526C191.186 95.4724 191.324 95.6358 191.324 95.6358L191.047 95.8981Z" fill="#9FD4F3"/>
<path d="M518.449 60.4083C518.726 59.2255 520.102 53.7122 520.102 53.7122L519.731 52.8066L520.928 52.2275L521.304 50.7923C521.304 50.7923 521.423 49.5055 522.487 49.7827C523.442 48.6296 524.308 48.001 524.308 48.001L524.61 46.8479L525.347 47.0409L525.931 44.8089C525.931 44.8089 523.417 42.2354 526.881 41.1862C527.203 40.2904 527.099 40.1815 527.718 39.9984C528.029 38.9739 529.563 34.7771 530.053 32.9064C529.563 34.7771 528.846 39.1867 528.613 40.2359C529.059 40.6913 528.915 40.7407 528.757 41.6811C531.256 44.2942 527.807 45.3038 527.807 45.3038L527.223 47.5358L527.96 47.7288L527.658 48.882C527.658 48.882 528.104 49.852 528.371 51.3268C529.435 51.6039 528.905 52.7868 528.905 52.7868L528.529 54.222L529.291 55.3157L528.519 55.9245C528.519 55.9245 527.698 58.9038 527.445 60.0273C527.965 60.2054 527.559 61.4179 527.559 61.4179L527.005 63.5312L528.158 66.6293L515.786 114.353L498.397 109.8L508.339 71.6229C508.339 71.6229 508.171 71.6328 507.661 71.0092C507.156 70.3856 509.502 69.3117 509.502 69.3117L510.581 65.5108L510.031 65.3673L511.224 63.254L514.341 64.0805L518.444 60.4133" fill="#A5DDF9"/>
<path d="M562.576 66.3373L552.283 63.9964L553.733 57.6269C553.733 57.6269 555.133 57.2409 554.242 56.0927C553.352 54.9396 554.658 53.7716 553.777 52.5987C552.891 51.4257 553.723 50.5992 553.812 50.2974C553.901 49.9955 553.292 49.6985 553.589 49.0551C553.881 48.4118 554.401 47.9169 553.589 47.7436C552.787 47.5457 553.035 48.2237 553.025 48.9265C553.01 49.6342 552.337 49.6391 552.288 49.9509C552.238 50.2627 552.629 51.3664 551.328 52.0394C550.026 52.7125 550.694 54.3358 549.398 54.9891C548.101 55.6423 549.195 56.5975 549.195 56.5975L547.745 62.967L537.828 60.7102L537.565 60.6508H537.556C537.556 60.6508 536.412 61.8881 534.809 63.5114L533.577 63.2293L532.068 64.5309L531.968 64.9713L532.379 65.0654L532.142 66.1146C529.836 68.2823 527.351 70.3757 525.882 70.8756L521.081 91.9883L516.618 87.5094L502.014 84.1886L487.411 80.8677L481.265 83.0453L475.163 109.889L486.481 112.463L488.985 101.441C488.985 101.441 489.87 95.5863 498.951 97.6451C508.032 99.7138 506.3 105.376 506.3 105.376L503.796 116.397L514.95 118.936L577.575 133.179L586.295 94.839L583.256 87.9795L576.392 81.4814L574.636 81.0805L575.517 77.2153C575.517 77.2153 576.021 75.8692 574.759 75.5227C573.502 75.1763 573.156 75.4188 572.592 75.7999C572.028 76.181 571.439 76.5126 571.785 77.6409C571.582 78.7347 571.078 80.942 571.078 80.942L568.994 77.344L567.965 77.1114L566.461 74.0232L566.718 72.8997L567.129 72.9938L567.228 72.5533L566.431 70.7271L564.743 70.3411L562.868 66.4115H562.843L562.581 66.3472L562.576 66.3373Z" fill="#9FD4F3"/>
<path d="M416.153 31.0529L385.075 30.2933L384.565 51.1375L415.643 51.8971L416.153 31.0529Z" fill="#D6EEFC"/>
<path d="M408.465 70.5044L407.817 96.9868L382.832 96.3781L382.648 103.891L479.206 106.256L479.394 98.7388L480.043 72.2613L408.465 70.5044Z" fill="#D6EEFC"/>
<path d="M444.877 52.0444C442.542 52.9204 441.814 53.5192 441.814 53.5192C441.814 53.5192 439.518 54.9891 440.048 57.424L440.627 57.8299L440.161 69.5987L422.886 69.1781L423.222 50.5201C423.222 50.5201 423.45 50.4508 424.539 49.5996C411.296 43.339 417.304 29.5558 417.304 29.5558C417.304 29.5558 385.776 28.6304 383.495 28.5759C383.46 31.6196 384.37 33.3369 384.37 33.3369L384.079 45.3137L384.059 46.0758L382.876 94.3391L382.861 94.9132L382.802 97.363L384.4 97.4026L384.242 103.93L384.875 103.945L385.034 97.4174L387.166 97.4719L387.008 104L387.642 104.015L387.8 97.4867L389.913 97.5362L389.755 104.064L390.388 104.079L390.546 97.5511L392.57 97.6006L392.412 104.128L393.045 104.143L393.204 97.6154L395.317 97.6649L395.159 104.193L395.792 104.208L395.95 97.6797L398.098 97.7342L397.94 104.262L398.573 104.277L398.731 97.749L400.939 97.8035L400.78 104.331L401.414 104.346L401.572 97.8183L403.814 97.8727L403.655 104.401L404.289 104.415L404.447 97.8876L406.689 97.942L406.53 104.47L407.164 104.485L407.322 97.9569L409.455 98.0113L409.297 104.539L409.93 104.554L410.089 98.0262L412.221 98.0806L412.063 104.608L412.696 104.623L412.855 98.0955L414.968 98.1449L414.81 104.673L415.443 104.688L415.601 98.1598L417.625 98.2093L417.467 104.737L418.1 104.752L418.259 98.2241L420.372 98.2736L420.213 104.801L420.847 104.816L421.005 98.2885L423.153 98.3429L422.995 104.871L423.628 104.886L423.786 98.3578L425.993 98.4122L425.835 104.94L426.469 104.955L426.627 98.427L428.869 98.4815L428.71 105.009L429.344 105.024L429.502 98.4963L431.744 98.5508L431.585 105.079L432.219 105.093L432.377 98.5656L434.609 98.6201L434.451 105.148L435.084 105.163L435.242 98.6349L437.375 98.6893L437.217 105.217L437.85 105.232L438.009 98.7042L440.122 98.7537L439.963 105.281L440.597 105.296L440.755 98.7685L442.779 98.818L442.621 105.346L443.254 105.361L443.413 98.8329L445.526 98.8824L445.367 105.41L446.001 105.425L446.159 98.8972L448.307 98.9516L448.149 105.479L448.782 105.494L448.94 98.9665L451.147 99.0209L450.989 105.549L451.622 105.564L451.781 99.0358L454.023 99.0902L453.864 105.618L454.498 105.633L454.656 99.1051L456.898 99.1595L456.739 105.687L457.373 105.702L457.531 99.1744L459.867 99.2337L459.709 105.762L460.342 105.776L460.5 99.2486L462.633 99.303L462.475 105.831L463.108 105.846L463.267 99.3179L465.38 99.3674L465.221 105.895L465.855 105.91L466.013 99.3822L468.037 99.4317L467.879 105.96L468.512 105.974L468.671 99.4466L470.784 99.496L470.625 106.024L471.259 106.039L471.417 99.5109L473.565 99.5653L473.406 106.093L474.04 106.108L474.198 99.5802L476.178 99.6297L476.019 106.157L476.653 106.172L476.811 99.6445L478.79 99.694L478.632 106.222L479.266 106.237L479.424 99.7089L479.459 98.234L479.498 96.685L441.29 95.7496C441.438 95.5962 441.987 95.3636 442.844 95.0864L442.829 95.7842L443.259 95.7941L443.279 94.9479C443.863 94.7647 444.551 94.5668 445.328 94.354L445.293 95.8436L445.724 95.8535L445.763 94.2401C446.392 94.0719 447.075 93.8937 447.792 93.7106L447.738 95.903L448.168 95.9129L448.223 93.6017C448.866 93.4433 449.534 93.2751 450.227 93.1117L450.158 95.9624L450.588 95.9723L450.662 93.0078C451.385 92.8346 452.127 92.6614 452.884 92.4882L452.795 96.0317L455.166 96.0911L455.265 91.9487C455.819 91.825 456.373 91.7013 456.932 91.5825L456.819 96.1307L457.249 96.1406L457.363 91.4835C458.165 91.3103 458.961 91.1371 459.753 90.9738L459.624 96.2L460.055 96.2099L460.184 90.8847C460.886 90.7362 461.579 90.5927 462.257 90.459L462.114 96.2643L462.544 96.2742L462.688 90.37C463.455 90.2165 464.207 90.0681 464.924 89.9295L464.766 96.3286L465.197 96.3385L465.355 89.8454C466.092 89.7068 466.795 89.5732 467.458 89.4544L467.29 96.3831L469.66 96.4425L469.843 89.0486C470.502 88.9347 471.184 88.811 471.877 88.6724L471.684 96.492L472.115 96.5019L472.308 88.5834C472.976 88.4448 473.659 88.3013 474.347 88.1478L474.139 96.5513L474.569 96.5612L474.777 88.0489C475.435 87.9004 476.093 87.742 476.752 87.5836L476.529 96.6107L476.959 96.6206L477.182 87.4748C477.89 87.3015 478.593 87.1184 479.285 86.9403L479.048 96.6701L479.478 96.68L479.721 86.8264C484.976 85.4456 489.361 84.0599 489.361 84.0599L490.108 53.5291C490.108 53.5291 494.784 51.5792 489.499 49.3125C484.214 47.0458 468.883 46.9865 457.398 48.9562C451.439 49.9757 447.649 51.0447 445.308 51.886L444.942 52.0197L444.877 52.0444ZM385.039 31.5949L387.171 31.6493L387.023 37.6921L384.89 37.6377L385.039 31.5949ZM392.575 31.778L392.427 37.8208L390.403 37.7713L390.551 31.7285L392.575 31.778ZM393.209 31.7928L395.322 31.8423L395.173 37.8851L393.06 37.8356L393.209 31.7928ZM395.95 31.8621L398.098 31.9165L397.95 37.9594L395.802 37.9049L395.95 31.8621ZM398.731 31.9264L400.939 31.9809L400.79 38.0237L398.583 37.9693L398.731 31.9264ZM401.572 31.9957L403.814 32.0502L403.665 38.093L401.423 38.0385L401.572 31.9957ZM404.442 32.07L406.684 32.1244L406.535 38.1672L404.294 38.1128L404.442 32.07ZM407.317 32.1393L409.505 32.1937L409.356 38.2365L407.169 38.1821L407.317 32.1393ZM410.138 32.2085L412.231 32.258L412.083 38.3008L409.99 38.2514L410.138 32.2085ZM412.86 32.2729L414.953 32.3224L414.805 38.3652L412.711 38.3157L412.86 32.2729ZM387.805 31.6592L389.918 31.7087L389.769 37.7515L387.656 37.702L387.805 31.6592ZM389.76 38.192L389.581 45.4522L387.468 45.4028L387.646 38.1425L389.76 38.192ZM390.393 38.2068L392.417 38.2563L392.239 45.5166L390.215 45.4671L390.393 38.2068ZM393.05 38.2711L395.163 38.3206L394.985 45.5809L392.872 45.5314L393.05 38.2711ZM395.792 38.3404L397.94 38.3949L397.762 45.6552L395.614 45.6007L395.792 38.3404ZM398.573 38.4048L400.78 38.4592L400.602 45.7195L398.395 45.6651L398.573 38.4048ZM401.414 38.4741L403.655 38.5285L403.477 45.7888L401.235 45.7343L401.414 38.4741ZM404.284 38.5483L406.526 38.6027L406.347 45.863L404.106 45.8086L404.284 38.5483ZM407.159 38.6176L409.346 38.672L409.168 45.9323L406.981 45.8779L407.159 38.6176ZM409.98 38.6869L412.073 38.7364L411.895 45.9966L409.802 45.9471L409.98 38.6869ZM412.701 38.7512L414.795 38.8007L414.617 46.061L412.523 46.0115L412.701 38.7512ZM414.612 71.999L416.665 72.0485L416.502 78.7941L414.448 78.7446L414.612 71.999ZM419.897 78.8782L420.06 72.1327L422.173 72.1821L422.01 78.9277L419.897 78.8782ZM419.263 78.8634L417.13 78.8089L417.294 72.0634L419.427 72.1178L419.263 78.8634ZM419.278 81.8922L418.952 95.225L416.819 95.1706L417.145 81.8378L419.278 81.8922ZM419.912 81.9071L422.025 81.9566L421.698 95.2893L419.585 95.2398L419.912 81.9071ZM422.658 81.9714L424.682 82.0209L424.355 95.3537L422.331 95.3042L422.658 81.9714ZM436.534 79.289L436.697 72.5434L438.939 72.5979L438.776 79.3434L436.534 79.289ZM435.906 79.2742L433.664 79.2197L433.827 72.4741L436.069 72.5286L435.906 79.2742ZM433.03 79.1999L430.823 79.1455L430.987 72.3999L433.194 72.4543L433.03 79.1999ZM430.19 79.1306L428.042 79.0762L428.206 72.3306L430.353 72.3851L430.19 79.1306ZM427.409 79.0663L425.296 79.0168L425.459 72.2712L427.572 72.3207L427.409 79.0663ZM425.311 82.0407L427.424 82.0902L427.097 95.423L424.984 95.3735L425.311 82.0407ZM428.057 82.105L430.205 82.1595L429.878 95.4922L427.73 95.4378L428.057 82.105ZM430.833 82.1743L433.04 82.2287L432.714 95.5615L430.507 95.5071L430.833 82.1743ZM433.674 82.2436L435.915 82.298L435.589 95.6308L433.347 95.5764L433.674 82.2436ZM436.549 82.3129L438.791 82.3673L438.464 95.7001L436.222 95.6457L436.549 82.3129ZM439.409 79.3583L439.573 72.6127L441.799 72.6672L441.636 79.4127L439.409 79.3583ZM424.831 72.2514L424.667 78.997L422.643 78.9475L422.807 72.2019L424.831 72.2514ZM384.88 38.0732L387.013 38.1276L386.835 45.3879L384.702 45.3335L384.88 38.0732ZM414.374 81.7685L416.512 81.8229L416.185 95.1557L414.047 95.1013L414.374 81.7685ZM439.097 95.7199L439.424 82.3871L441.562 82.4416L441.235 95.7743L439.097 95.7199Z" fill="#9FD4F3"/>
<path d="M638.968 135.961L645.51 121.861L642.14 120.297L640.299 124.271L638.201 123.296L639.968 119.49L636.439 117.852L634.712 121.579L629.848 119.322L631.253 116.288L628.828 115.165L630.422 111.725L627.794 110.508L629.294 107.271L626.329 105.895L628.922 100.298L626.225 99.0506L627.759 95.7446L624.795 94.3688L626.324 91.0678L623.36 89.6919L624.795 86.5938L622.93 85.7228L621.059 84.8567L619.624 87.9597L616.655 86.5839L615.126 89.8849L612.156 88.5091L610.627 91.8151L607.93 90.563L605.337 96.1604L602.373 94.7845L600.869 98.0163L598.241 96.7988L596.647 100.238L594.223 99.11L592.817 102.144L590.323 100.986L589.135 103.549L583.736 101.045L568.94 132.957L626.933 160.79L638.968 135.961Z" fill="#9FD4F3"/>
<path d="M623.632 162.275L634.519 168.545L634.747 168.679L648.296 144.631L647.529 144.191L648.598 142.33L647.356 141.618L648.559 139.534L647.361 138.846L648.559 136.767L647.188 135.976L648.079 134.427L647.326 133.991L646.574 133.56L645.683 135.109L644.308 134.318L643.11 136.396L641.918 135.708L640.715 137.792L639.478 137.074L638.404 138.935L637.82 138.599L623.632 162.275Z" fill="#9FD4F3"/>
<path d="M632.238 168.724L679.043 200.11L705.107 161.245L703.128 159.919L704.543 157.811L703.137 156.87L704.518 154.812L702.88 153.708L704.231 151.699L702.405 150.471L703.786 148.413L702.192 147.344L703.484 145.423L702.123 144.513L703.41 142.597L702.43 141.934L703.746 139.969L702.529 139.153L703.721 137.376L702.316 136.431L703.573 134.56L702.029 133.521L703.316 131.606L701.866 130.631L703.152 128.71L701.702 127.735L702.989 125.815L701.584 124.875L702.905 122.91L701.356 121.871L702.613 120L701.395 119.183L702.682 117.263L701.979 116.793L703.395 114.685L702.598 114.15L701.801 113.621L700.391 115.724L699.688 115.254L698.402 117.174L697.184 116.357L695.927 118.228L694.383 117.194L693.062 119.159L691.662 118.218L690.37 120.139L688.92 119.164L687.633 121.084L686.183 120.114L684.897 122.029L683.348 120.995L682.096 122.87L680.69 121.925L679.498 123.707L678.28 122.89L676.959 124.855L675.979 124.197L674.693 126.117L673.332 125.206L672.045 127.127L670.452 126.058L669.071 128.116L667.245 126.894L665.899 128.908L664.256 127.81L662.875 129.868L661.47 128.923L660.06 131.036L658.08 129.71L647.391 145.656L632.238 168.724Z" fill="#9FD4F3"/>
<path d="M485.729 41.2362L486.327 39.7911L486.243 39.6129L487.451 36.6979L487.599 36.7326L487.639 36.6385L486.966 35.53L488.985 30.6452L488.703 30.5561L488.826 30.2542L488.802 30.2443L489.163 29.3634L488.965 29.2991L489.955 26.9087L489.796 26.8641L489.781 26.7998L489.866 26.6018H489.856C490.088 26.0277 489.984 25.424 489.633 25.132L489.702 24.9587C489.752 24.84 489.697 24.7063 489.579 24.6569C489.46 24.6074 489.326 24.6618 489.277 24.7806L489.207 24.9538C488.747 24.9142 488.247 25.2755 488.005 25.8496C487.98 25.9139 487.955 25.9783 487.936 26.0475H487.926L487.812 25.9981L487.708 26.2505L487.624 26.2158L486.743 28.3439L486.649 28.2796L486.53 28.5617L486.466 28.5023L486.08 29.4327L485.926 29.3189L485.788 29.6505L485.699 29.6208L484.338 32.9119L483.848 30.6898L483.922 30.5066L483.893 30.4572L483.987 30.2246L483.967 30.185L484.026 30.0365C484.026 30.0365 484.11 30.0266 484.061 29.9227C484.011 29.8138 483.932 29.8088 483.932 29.8088L483.942 29.7841C483.942 29.7841 484.006 29.7643 483.982 29.7049C483.957 29.6455 483.972 29.6406 483.992 29.6257C484.016 29.6158 484.001 29.5317 483.937 29.5317C483.873 29.5317 483.878 29.5317 483.858 29.4624C483.838 29.3931 483.794 29.2397 483.62 29.3535C483.546 29.5416 483.497 29.6356 483.497 29.6356L483.353 29.5762C483.353 29.5762 483.244 29.7346 483.299 29.8583C483.264 29.9474 483.259 29.9573 483.259 29.9573L483.22 29.9375L483.18 30.0266H483.111L483.041 30.1949L481.067 30.9521L479.949 31.0263L479.815 30.863L482.076 25.3893L481.775 25.3299L482.314 24.0234L482.052 23.9293L483.155 21.2618L483.041 21.2173C483.358 20.4501 483.264 19.6632 482.848 19.3168L482.933 19.1188C482.982 19.0001 482.928 18.8664 482.809 18.817C482.69 18.7675 482.556 18.8219 482.507 18.9407L482.423 19.1386C481.883 19.0892 481.26 19.5791 480.943 20.3462C480.943 20.3512 480.938 20.3611 480.933 20.366L480.79 20.267L479.671 22.9692L479.488 22.8059L478.944 24.1224L478.657 23.964L477.781 26.0772C478.192 24.8499 477.682 23.479 476.579 22.5782L476.608 22.3357L476.494 22.2912L476.46 22.1675L476.668 21.5835C476.836 21.1777 476.692 20.7174 476.351 20.4996L476.445 20.272L476.39 20.2472L476.514 19.9453L476.796 20.0592C476.836 20.074 476.875 20.0592 476.89 20.0196C476.905 19.98 476.89 19.9404 476.851 19.9255L476.569 19.8117L476.653 19.6039C476.668 19.5643 476.653 19.5247 476.613 19.5098C476.574 19.495 476.534 19.5098 476.519 19.5494L476.435 19.7573L476.153 19.6435C476.113 19.6286 476.074 19.6434 476.059 19.683C476.044 19.7226 476.059 19.7622 476.099 19.7771L476.381 19.8909L476.168 20.4056C475.747 20.267 475.272 20.4897 475.094 20.9253C475.094 20.9352 475.089 20.9401 475.084 20.95L474.807 21.4499L474.723 21.3954L474.51 21.6676C472.961 21.4449 471.486 22.1328 470.942 23.4394C470.907 23.5186 470.883 23.5978 470.853 23.6819L470.432 24.4886L470.343 24.5678L470.239 24.5579L470.071 24.9686L469.957 25.0181L469.848 24.9538L469.532 25.716L469.334 25.6071L469.274 25.7506L468.997 25.7852L468.819 25.6813L468.745 25.8595L468.606 25.9337L468.497 25.8644L468.428 26.0327L468.369 26.1762L468.334 26.1614L468.319 26.196L468.339 26.2208L468.24 26.4484L468.146 26.4088L468.052 26.2851L467.993 26.4336L467.78 26.394L467.592 26.201L467.527 26.3494L467.33 26.2505L467.201 26.5573L467.176 26.5474L467.166 26.5721L467.186 26.5969L466.384 28.5369L464.435 27.4085V27.1759L464.504 27.0176L464.469 26.9384L464.177 26.9285L464.098 27.1165L462.94 28.7497C462.94 28.7497 461.411 28.235 460.471 29.502C460.396 29.4624 460.342 29.4475 460.342 29.4475L459.882 30.1107L459.847 30.0959L459.738 30.3582L459.313 30.1107L459.194 30.4027L458.783 30.2345L456.616 35.4805L483.64 46.8188L485.818 41.553L485.743 41.2214L485.729 41.2362Z" fill="#C4E5F9"/>
<path d="M99.1655 114.318C99.9474 115.382 101.15 116.724 102.907 117.911C103.783 118.505 104.634 118.946 105.396 119.272L106.009 118.797L106.509 119.441L105.861 119.946L108.929 123.855C112.952 123.38 113.63 126.27 113.408 127.735C113.215 129.037 114.719 129.685 115.283 130.126C115.823 130.314 116.199 130.883 117.233 130.883C118.183 130.883 118.975 130.71 119.514 130.546C119.504 128.017 117.302 125.607 117.302 125.607C117.302 125.607 119.118 128.324 121.573 128.933C124.027 129.542 123.295 131.071 123.716 131.947C124.136 132.818 125.284 133.367 126.363 132.526L126.497 132.694C126.343 133.278 125.819 134.57 125.819 134.57C125.819 134.57 127.66 137.03 128.763 138.49C130.263 138.104 132.886 141.895 132.886 141.895C132.886 141.895 132.851 141.919 133.672 141.276C133.722 141.335 133.781 141.415 133.855 141.509C133.484 142.197 132.5 143.567 132.5 143.567L168.065 188.896L155.219 198.977L119.653 153.649C119.653 153.649 118.084 154.277 117.327 154.475C117.253 154.381 117.193 154.307 117.144 154.243C117.965 153.599 117.931 153.624 117.931 153.624C117.931 153.624 114.873 150.169 115.605 148.808C114.447 147.388 112.497 145.017 112.497 145.017C112.497 145.017 111.121 145.215 110.513 145.225L110.379 145.057C111.453 144.206 111.191 142.964 110.443 142.345C109.696 141.726 108.033 142.073 108.029 139.549C108.019 137.02 105.816 134.61 105.816 134.61C105.816 134.61 107.633 137.327 110.087 137.935C110.374 137.45 110.735 136.728 110.958 135.802C111.201 134.798 110.74 134.298 110.686 133.729C110.394 133.075 110.122 131.457 108.81 131.338C107.336 131.205 104.688 129.858 106.104 126.063L103.035 122.153L102.392 122.663L101.887 122.024L102.496 121.544C102.357 120.727 102.13 119.797 101.764 118.802C101.031 116.813 100.007 115.328 99.1655 114.313V114.318Z" fill="#9FD4F3"/>
<path d="M756.716 274.911C756.716 274.911 757.453 274.307 757.735 274.351C758.017 274.396 758.438 273.812 758.74 274.079C759.042 274.346 760.254 275.965 760.254 275.965C760.254 275.965 761.115 275.604 762.248 276.965C763.57 277.212 764.401 277.336 764.554 277.083C764.708 276.831 764.614 276.158 765.079 276.158C765.515 276.183 765.797 276.356 765.91 276.514C766.024 276.673 766.732 276.559 766.95 276.484C767.167 276.41 767.484 276.702 767.588 276.846C767.692 276.989 768.82 275.505 769.404 276.42C769.988 277.336 770.889 276.212 770.681 275.95C770.473 275.688 770.369 274.747 771.507 275.153C772.645 275.559 772.443 274.564 773.224 274.688C774.006 274.812 774.501 274.396 774.669 273.98C774.838 273.564 774.818 273.525 774.986 273.416C775.154 273.307 774.759 273.075 775.362 273.06C775.966 273.045 774.902 272.288 775.392 271.501C775.56 271.243 776.055 270.966 775.684 270.937C775.313 270.907 775.204 271.105 774.976 270.768C774.749 270.432 775.639 270.08 776.095 270.427C776.55 270.773 776.154 271.436 776.154 271.436C776.154 271.436 776.451 271.159 776.728 271.53C777.005 271.902 778.282 270.823 778.282 270.823L778.416 270.986L778.905 270.605C778.905 270.605 779.692 270.595 779.806 270.674C779.92 270.753 780.128 270.496 780.182 270.511C780.237 270.526 780.242 270.56 780.276 270.585C780.311 270.61 780.712 270.57 780.845 270.486C780.979 270.402 781.276 270.303 781.647 270.387C781.82 270.1 781.815 270.041 781.815 270.041C781.815 270.041 780.974 270.026 780.628 269.526C780.281 269.026 779.93 268.353 779.727 268.348C779.524 268.343 779.361 268.541 779.282 268.561C779.202 268.581 779.044 268.373 779.267 268.22C779.489 268.066 779.628 268.106 779.831 267.997C780.034 267.888 780.143 267.957 780.256 268.22C780.37 268.482 780.633 268.749 780.761 268.838C780.89 268.927 781.078 269.259 781.147 269.323C781.217 269.387 782.087 269.12 782.087 269.12C782.087 269.12 782.241 268.541 782.741 268.714C783.241 268.888 783.503 268.403 783.503 268.403C783.503 268.403 783.547 268.106 783.721 267.848C783.443 267.418 783.023 266.68 783.508 266.547C783.993 266.413 784.186 266.517 784.26 266.482C784.334 266.448 784.557 266.205 784.656 266.22C784.755 266.235 785.072 266.428 785.131 266.522C785.19 266.616 785.235 266.487 785.205 266.448C785.175 266.408 784.879 265.987 785.25 266.215C785.621 266.443 786.022 266.784 786.022 266.918C786.022 267.052 785.853 267.047 785.566 267.007C785.279 266.967 785.027 266.933 784.958 266.868C784.888 266.804 784.502 266.868 784.374 266.789C784.245 266.71 783.943 266.962 783.909 267.037C783.874 267.111 784.532 267.928 784.577 267.898C784.621 267.868 784.671 267.814 784.72 267.725C784.77 267.636 784.854 267.358 785.116 267.279C785.378 267.2 785.556 267.254 785.72 267.507C785.883 267.759 785.69 268.007 785.542 268.116C785.393 268.224 785.255 268.299 785.136 268.338C785.017 268.378 785.433 268.774 785.26 268.972C785.086 269.17 784.542 269.932 784.176 269.457C783.706 269.496 783.513 269.64 783.414 269.709C783.315 269.778 782.983 269.902 782.85 269.877C782.701 270.061 782.365 270.654 782.122 270.847C781.88 271.04 780.766 270.838 780.568 270.882C780.37 270.927 780.162 271.011 780.128 271.263C780.093 271.516 780.103 271.704 780.172 271.837C780.242 271.971 780.326 272.114 780.212 272.213C780.098 272.312 779.697 272.639 779.697 272.639L779.856 272.822L779.262 273.317C779.262 273.317 779.237 273.688 778.896 273.936C778.554 274.183 778.391 274.351 778.49 274.525C778.589 274.698 778.881 274.995 778.653 275.168C778.425 275.341 778.346 275.128 778.346 275.128L777.901 275.5C777.901 275.5 777.921 275.717 777.584 276.029C777.248 276.341 777.075 276.638 776.684 276.519C776.293 276.4 775.748 276.885 775.748 276.885C775.748 276.885 774.526 277.742 774.412 277.974C774.298 278.207 774.377 279.018 774.061 279.271C773.744 279.523 773.739 279.696 773.343 279.429C772.947 279.162 772.433 279.662 772.413 279.914C772.393 280.167 772.735 281.102 773.408 282.29C774.081 283.477 772.878 283.477 772.957 283.037C773.036 282.597 772.7 282.027 772.393 282.022C772.086 282.018 771.874 282.057 771.76 281.998C771.646 281.938 771.859 282.453 771.532 282.73C771.205 283.007 771.601 283.126 771.631 283.433C771.661 283.74 771.418 284.205 771.418 284.205C771.418 284.205 771.878 284.571 771.606 285.036C771.334 285.502 771.413 285.809 771.478 285.972C771.542 286.135 771.646 286.62 771.552 286.877C771.458 287.135 771.304 287.57 771.042 288.253C770.78 288.936 771.557 289.807 771.641 289.931C771.725 290.055 772.017 290.431 771.458 290.772C771.022 291.035 770.493 291.376 770.31 291.599C770.26 291.658 770.166 291.658 770.117 291.599C768.662 289.802 756.721 274.916 756.721 274.916L756.716 274.911Z" fill="#9FD4F3"/>
<path d="M774.501 236.536L775.268 235.853L774.867 235.402L776.411 234.031L776.545 233.16L775.867 232.398L777.421 228.271L773.239 229.429L771.784 227.756C771.784 227.756 772.646 226.776 773.309 226.063C773.972 225.356 775.743 224.099 775.743 224.099L775.402 223.713L776.357 222.866C776.357 222.866 778.772 222.03 780.454 220.486C782.137 218.942 782.592 215.745 782.815 215.26C783.275 215.369 783.577 214.933 783.617 214.775C783.651 214.616 783.914 214.047 784.572 213.295C784.572 213.295 785.957 211.874 786.596 211.686C787.234 211.493 787.303 211.33 787.353 210.563C787.402 209.796 787.541 209.712 788.402 209.435C789.263 209.157 789.793 208.415 789.807 207.43C789.822 206.341 796.681 200.106 796.681 200.106C796.681 200.106 789.713 206.302 788.6 206.074C787.635 205.876 786.823 206.411 786.447 207.232C786.071 208.054 785.972 208.182 785.205 208.143C784.438 208.103 784.265 208.148 784.003 208.762C783.74 209.375 782.167 210.583 782.167 210.583C781.34 211.147 780.746 211.34 780.583 211.355C780.425 211.37 779.955 211.622 780.009 212.092C779.499 212.256 776.278 212.33 774.541 213.824C772.809 215.314 771.695 217.615 771.695 217.615L770.745 218.467L770.404 218.081C770.404 218.081 768.949 219.694 768.167 220.273C767.385 220.847 766.286 221.609 766.286 221.609L764.787 219.917L766.004 216.225L762.184 216.997L761.506 216.235L760.625 216.264L758.908 217.794L758.017 217.987L756.983 216.824L730.137 240.822L748.457 261.429L775.145 237.253L774.501 236.531V236.536Z" fill="#9FD4F3"/>
<path d="M798.601 240.307L803.886 235.808L804.282 236.273L804.772 235.858L803.49 234.348L803.001 234.764L803.451 235.293L801.184 237.224L800.012 235.843L802.026 229.463L795.508 230.696L795.578 230.636L794.227 229.053L796.493 227.123L796.943 227.652L797.433 227.236L796.152 225.727L795.662 226.143L796.058 226.608L790.164 231.621L790.223 231.691L779.608 233.695L737.951 269.13L753.227 287.095L795.053 251.521L798.596 240.312L798.601 240.307ZM793.766 229.449L794.919 230.805L791.381 231.473L793.761 229.449H793.766ZM800.719 237.624L798.987 239.099L799.799 236.541L800.724 237.629L800.719 237.624Z" fill="#9FD4F3"/>
<path d="M56.8894 215.052L55.672 216.591L53.3214 214.73L52.3465 215.958L49.9761 214.082L49.1942 215.067L42.5185 209.781L42.9985 209.177L42.5878 208.856L41.0933 210.741L41.4991 211.068L41.9742 210.464L46.8486 214.324L46.1409 215.215L43.439 213.072L42.1375 214.715L39.5642 212.676L39.1831 213.156L32.4579 207.831L32.7697 207.435L32.3639 207.114L30.8694 208.999L31.2752 209.321L31.5919 208.925L36.0358 212.449L35.3084 213.364L32.9231 211.474L32.4184 212.107L31.9185 212.741L34.3038 214.636L33.5763 215.552L29.1275 212.028L29.4442 211.632L29.0384 211.31L27.5439 213.196L27.9497 213.518L28.2615 213.122L34.9867 218.452L34.6007 218.937L37.174 220.976L35.8725 222.619L38.5794 224.762L37.8718 225.653L33.0023 221.788L33.4774 221.189L33.0716 220.867L31.5721 222.753L31.9829 223.074L32.4579 222.475L39.1287 227.766L38.3468 228.751L40.7172 230.631L39.7423 231.864L42.088 233.725L40.8706 235.264L90.9954 275.193L107.163 254.803L56.8894 215.052Z" fill="#9FD4F3"/>
<path d="M16.6919 234.571L16.9987 238.184L17.256 237.763C17.256 237.763 18.1221 238.243 19.6858 239.243C17.8449 242.272 24.1297 243.588 22.0859 246.637C20.0421 249.685 26.4209 248.309 24.7334 249.502C23.4319 251.556 26.5991 250.878 26.317 251.576C24.8868 254.323 28.3608 255.04 28.3608 255.04L27.7669 256.01L69.2464 281.265L82.3009 259.816L40.8215 234.561L40.2276 235.531C40.2276 235.531 37.9958 232.774 36.2143 235.308C35.7244 235.877 34.8732 232.755 33.6459 234.853C33.3639 236.902 31.6516 230.597 29.885 233.819C28.1183 237.036 24.0604 232.057 22.2146 235.086C20.6112 234.155 19.7848 233.606 19.7848 233.606L20.0421 233.185L16.6919 234.571Z" fill="#9FD4F3"/>
<path fill-rule="evenodd" clip-rule="evenodd" d="M65.8169 270.417C101.432 225.484 146.455 186.793 199.93 157.563C396.213 50.2825 638.953 108.87 767.697 284.457L409.93 479.995L65.8169 270.417Z" fill="#D6EEFC"/>
</g>
<defs>
<clipPath id="clip0_668_6612">
<rect width="831" height="480" fill="white"/>
</clipPath>
</defs>
</svg>
