<?xml version="1.0" encoding="UTF-8"?>
<svg id="Layer_1" data-name="Layer 1" xmlns="http://www.w3.org/2000/svg" version="1.1" viewBox="0 0 3000 1695.375">
  <path d="M3000,332.397s-2.708-35.209-73.805-29.794c-6.771-12.866-15.574-30.471-42.658-28.438-4.741-16.928-10.833-37.242-45.367-37.919-34.532-.677-43.335,35.886-41.304,45.367-14.897-4.062-40.627-17.605-56.201,20.312-16.928,2.708-49.429,12.187-50.783,30.471,32.503,0,310.117,0,310.117,0Z" fill="#d6eefc" opacity=".4" stroke-width="0"/>
  <path d="M2169.702,466.627s12.788-43.75,85.48-39.038c23.556-22.211,41.057-27.596,88.845-12.115,14.134-7.404,26.25-25.577,76.73-23.556,7.404-24.231,27.596-67.307,76.73-67.307s81.442,6.058,101.634,64.615c28.942,7.404,50.526,12.583,74.711,35.673,46.008,43.927-21.5,41.73-21.5,41.73h-482.63v-.002Z" fill="#d6eefc" opacity=".4" stroke-width="0"/>
  <path d="M830.3,96.16s-2.708-35.209-73.805-29.794c-6.771-12.866-15.574-30.471-42.658-28.438C709.097,21.001,703.004.686,668.47.009s-43.335,35.886-41.304,45.367c-14.897-4.062-40.627-17.605-56.201,20.312-16.928,2.708-49.429,12.187-50.783,30.471h310.117Z" fill="#d6eefc" opacity=".4" stroke-width="0"/>
  <path d="M0,230.39s12.788-43.75,85.48-39.038c23.556-22.211,41.057-27.596,88.845-12.115,14.133-7.404,26.25-25.577,76.73-23.556,7.404-24.231,27.596-67.307,76.73-67.307s81.442,6.058,101.634,64.615c28.942,7.404,50.526,12.583,74.711,35.673,46.008,43.927-21.502,41.73-21.502,41.73H0v-.002Z" fill="#d6eefc" opacity=".4" stroke-width="0"/>
  <path d="M1140.417,698.421c-1.354-18.284-33.855-27.763-50.783-30.471-15.574-37.917-41.304-24.374-56.201-20.312,2.031-9.481-6.771-46.044-41.304-45.367-34.534.677-40.627,20.991-45.367,37.919-27.084-2.033-35.886,15.572-42.658,28.438-71.097-5.416-73.805,29.794-73.805,29.794,0,0,277.614,0,310.117,0Z" fill="#d6eefc" opacity=".4" stroke-width="0"/>
  <path d="M1660.599,832.653h-482.63s-67.508,2.198-21.5-41.73c24.185-23.09,45.769-28.269,74.711-35.673,20.192-58.557,52.5-64.615,101.634-64.615s69.326,43.075,76.73,67.307c50.48-2.021,62.596,16.152,76.73,23.556,47.788-15.481,65.288-10.096,88.845,12.115,72.692-4.712,85.48,39.038,85.48,39.038v.002Z" fill="#d6eefc" opacity=".4" stroke-width="0"/>
  <path d="M2429.793,1321.125h-482.63s-67.508,2.198-21.5-41.73c24.185-23.09,45.769-28.269,74.711-35.673,20.192-58.557,52.5-64.615,101.634-64.615s69.326,43.075,76.73,67.307c50.48-2.021,62.596,16.152,76.73,23.556,47.788-15.481,65.288-10.096,88.845,12.115,72.692-4.712,85.48,39.038,85.48,39.038v.002Z" fill="#d6eefc" opacity=".4" stroke-width="0"/>
  <path d="M2920.869,1450.211s-2.708-35.209-73.805-29.794c-6.771-12.866-15.574-30.471-42.658-28.438-4.741-16.928-10.833-37.242-45.367-37.919-34.532-.677-43.335,35.886-41.304,45.367-14.897-4.062-40.627-17.605-56.201,20.312-16.928,2.708-49.429,12.187-50.783,30.471,32.503,0,310.117,0,310.117,0Z" fill="#d6eefc" opacity=".4" stroke-width="0"/>
  <path d="M2090.571,1584.441s12.788-43.75,85.48-39.038c23.556-22.211,41.057-27.596,88.845-12.115,14.134-7.404,26.25-25.577,76.73-23.556,7.404-24.231,27.596-67.307,76.73-67.307s81.442,6.058,101.634,64.615c28.942,7.404,50.526,12.583,74.711,35.673,46.008,43.927-21.5,41.73-21.5,41.73h-482.63v-.002Z" fill="#d6eefc" opacity=".4" stroke-width="0"/>
  <path d="M830.298,1560.939s-2.708-35.209-73.805-29.794c-6.771-12.866-15.574-30.471-42.658-28.438-4.741-16.928-10.833-37.242-45.367-37.919-34.532-.677-43.335,35.886-41.304,45.367-14.897-4.062-40.627-17.605-56.201,20.312-16.928,2.708-49.429,12.187-50.783,30.471,32.503,0,310.117,0,310.117,0Z" fill="#d6eefc" opacity=".4" stroke-width="0"/>
  <path d="M0,1695.169s12.788-43.75,85.48-39.038c23.556-22.211,41.057-27.596,88.845-12.115,14.134-7.404,26.25-25.577,76.73-23.556,7.404-24.231,27.596-67.307,76.73-67.307s81.442,6.058,101.634,64.615c28.942,7.404,50.526,12.583,74.711,35.673,46.008,43.927-21.5,41.73-21.5,41.73H0v-.002Z" fill="#d6eefc" opacity=".4" stroke-width="0"/>
</svg>