<?xml version="1.0" encoding="UTF-8"?>
<svg id="Layer_1" data-name="Layer 1" xmlns="http://www.w3.org/2000/svg" version="1.1" viewBox="0 0 1914.7 1914.4">
  <defs>
    <style>
      .cls-1 {
        fill: #b5b5b5;
      }

      .cls-1, .cls-2, .cls-3, .cls-4, .cls-5, .cls-6, .cls-7, .cls-8, .cls-9, .cls-10, .cls-11, .cls-12, .cls-13, .cls-14, .cls-15, .cls-16, .cls-17 {
        stroke-width: 0px;
      }

      .cls-2 {
        fill: #898989;
      }

      .cls-3 {
        fill: #282828;
      }

      .cls-4 {
        fill: none;
      }

      .cls-5 {
        fill: #809da8;
      }

      .cls-6 {
        fill: #d82f20;
      }

      .cls-7 {
        fill: #b2b2b2;
      }

      .cls-8 {
        fill: #475c63;
      }

      .cls-9 {
        fill: #a8a8a8;
      }

      .cls-10 {
        fill: #777;
      }

      .cls-11 {
        fill: #033376;
      }

      .cls-12 {
        fill: #161616;
      }

      .cls-13 {
        fill: #383838;
      }

      .cls-14 {
        fill: #fcea5c;
      }

      .cls-18 {
        isolation: isolate;
      }

      .cls-15 {
        fill: #494949;
      }

      .cls-16 {
        fill: #01527f;
      }

      .cls-17 {
        fill: #fff;
      }
    </style>
  </defs>
  <g id="Layer_5" data-name="Layer 5">
    <circle class="cls-4" cx="957.4" cy="957.4" r="957.4"/>
    <g>
      <g id="Wagon">
        <path class="cls-17" d="M1169.8,94.7c-56.9-14-133.6-26.9-224.3-25.6-79.6,1.1-147.6,12.8-200.1,25.7-3.7-15.2-8.1-31-11.9-46.3,56.8-14,133.2-27.2,222-27.5,91.9-.2,167.8,12.7,225.7,27.1-4.1,16.2-7.9,31.4-11.4,46.5h0Z"/>
        <path class="cls-11" d="M1171.2,88.7c-54.1-13.3-125.2-25.5-209.4-25.8-87.9-.4-162.3,12.3-217.9,26,.5,2,1,4,1.5,5.9,55.2-13.6,129-26.2,216.4-25.8,83.5.4,154.3,12.5,208,25.7.5-2,.9-3.8,1.4-6Z"/>
        <path class="cls-10" d="M1032.9,13.1l8.2.7-.6,9.7-8.1-.6.4-9.8h0Z"/>
        <path class="cls-7" d="M1015.2,13.1l9.6.7-.4,8.5-9.5-.6.3-8.5h0Z"/>
        <circle class="cls-12" cx="785.3" cy="91.2" r="4.8" transform="translate(165.5 582) rotate(-45)"/>
        <circle class="cls-12" cx="816" cy="85.8" r="4.8"/>
        <circle class="cls-12" cx="1099.9" cy="85.9" r="4.8"/>
        <circle class="cls-12" cx="1128.2" cy="90.9" r="4.8"/>
        <path class="cls-15" d="M941.7,20l-.3-7.3c14.3-.3,29.2-.2,44.7.2,9.1.3,18.1.7,26.8,1.2,0,2.4-.2,4.9-.3,7.3-8.4-.6-17.1-1-26-1.3-15.6-.5-30.6-.5-45-.2h0Z"/>
        <path class="cls-9" d="M857.3,25.3l-.8-8.3c6.4-.7,13-1.4,19.6-2,9.6-.9,19-1.6,28.1-2.2.2,2.9.4,5.7.6,8.6-7.1.4-14.3.9-21.7,1.5-8.8.7-17.5,1.5-25.9,2.5h.1ZM1078,27.6l.9-8.4c8.4,1.1,17,2.3,25.9,3.8,7.7,1.2,15.2,2.5,22.5,3.9-.4,2.7-.9,5.5-1.3,8.2-7.4-1.4-14.9-2.7-22.7-3.9-8.6-1.4-17-2.6-25.2-3.6h-.1Z"/>
        <path class="cls-10" d="M910.3,21.1l-.9-12c3.6-.2,7.3-.4,11.1-.6,3.3-.1,6.5-.2,9.7-.3.2,4,.3,8,.5,12l-20.4.9h0Z"/>
        <path class="cls-9" d="M816.4,30.6l-1.2-8.2,17.7-2.6,1.2,8.3-17.7,2.5h0Z"/>
        <path class="cls-10" d="M841.8,27.1l-.7-4.9,7.8-1,.6,4.9-7.7.9h0Z"/>
        <path class="cls-3" d="M1006.5,70.4c5,.3,10.1.6,15.2,1,5.6.4,11.1.8,16.6,1.3-.2,1.7-.3,3.4-.5,5.2-5.3-.5-10.8-1-16.4-1.4-5.2-.4-10.2-.7-15.2-.9,0-1.7.2-3.5.3-5.2h0ZM874.2,73c4.5-.4,9.1-.8,13.8-1.2,6.1-.5,12.1-.9,18-1.2,0,1.3.2,2.7.2,4-5.2.3-10.4.6-15.7,1-5.4.4-10.8.9-16,1.4,0-1.3-.2-2.7-.3-4h0ZM947.7,69.1v3.1c5.9,0,12-.2,18.2,0,5.9,0,11.6.2,17.2.4v-3.1c-5.7-.2-11.4-.3-17.3-.3h-18.1ZM918.4,69.9l.2,5.2c3.5-.2,7.2-.3,10.9-.4,3.8,0,7.6-.2,11.3-.3v-5.2c-3.8,0-7.6.2-11.5.3-3.7,0-7.3.2-10.9.4Z"/>
        <path class="cls-2" d="M764.9,90.4s-1.2,6.6-6.2,7.7l-11.7,2.8-1.6-6.1,19.5-4.6v.2h0ZM1150.8,90.2s.7,7.6,5.3,7.6l12.3,2.9,1.4-6.1-19-4.4h0Z"/>
        <path class="cls-15" d="M1150.7,90.2s0,3.7-11.9,1.6c-13.1-2.3-59.3-10.4-59.3-10.4l4.7-3.4c10.8,1.6,21.9,3.3,33.3,5.4,11.5,2.1,22.6,4.4,33.2,6.7h0ZM832.8,77.9s-.2,4.4-12.1,5.9c-11.8,1.5-42.4,8.6-48.5,8.9-3.3.2-7.4-2.5-7.4-2.5,9-2,18.2-3.9,27.7-5.7,13.9-2.6,27.3-4.8,40.3-6.7h0Z"/>
      </g>
      <g id="Tête_droite" data-name="Tête droite">
        <path class="cls-17" d="M1556.3,228.4l-3.6,6.5c-40.1-32.4-90-69.2-153.7-103.4-76.9-41.3-146.7-64-203.7-79.6-4.5,16.8-8.6,31.7-12.8,45.8,53.9,14.1,123.3,37.7,198.4,78.5,75,40.8,132.5,86.2,173.7,123.7,3-2,34.1-43.7,1.7-71.6h0Z"/>
        <path class="cls-14" d="M1546.6,229.7h12c22.8,21.7,8,50.4,6.4,54.2-2.5-1.3-3.9-2.5-5.2-3.5,1-2.1,15.9-29-13.3-50.7h0Z"/>
        <path class="cls-11" d="M1554.5,300.2c-42.1-38.4-101.2-84.9-178.6-126.3-72.9-39-140.3-62-193.4-75.9.6-1.9,1.1-3.9,1.7-5.8,53.2,13.9,121.9,37.2,194.8,76.3,77.8,41.7,136.3,87.6,179.7,126.7.8.7-1.5,2.1-2.2,3-.7.8-1.3,1.5-1.9,2.1h0Z"/>
        <path class="cls-8" d="M1533.3,241.6c0-.1-.2-.3-.2-.5,0-1.8,2.3-11.2,3.9-10,2.5,1.8,7.9,6.3,14.7,11.9,5.4,4.4,3.4,16.7,3,21.1,0,.5-.6.9-1,.5-5.1-5.5-18.5-20.9-20.4-23h0Z"/>
        <path class="cls-5" d="M1498.2,210.7l-7.9,11.2c-.2.4,0,1,.4,1.2,3.9,2.8,7.8,5.7,11.8,8.6,4,3,7.9,6,11.7,8.9,0,0,.3.2.7,0,.2,0,.4-.2.6-.4l8.3-10.9c.2-.4,0-1-.4-1.2-3.8-3-7.8-6-11.8-9-4.1-3.1-8.1-6-12.2-8.9,0,0-.3-.2-1.2.4h0Z"/>
        <path class="cls-6" d="M1468.4,181.4c-.3-.2-.7-.1-.9.2l-20.3,30.5c-.2.3,0,.6.2.8,4,2.7,8.6,5.8,12.6,8.5,2.4,1.7,5,3.5,7.4,5.2.3.2.7.1.9-.2l21-30.2c.2-.3,0-.6-.2-.8-3.3-2.3-6.6-4.6-10-6.9-3.6-2.4-7.2-4.8-10.7-7.1h0Z"/>
        <path class="cls-1" d="M1476.6,194.7l-9,13.3c0,.2,0,.4,0,.5l6.8,4.7c.2,0,.4,0,.5-.1l9.2-13.2c0-.2,0-.4,0-.5l-7-4.8c-.2,0-.4,0-.5.1h0Z"/>
        <path class="cls-5" d="M1330.1,118.9l-5.9,12.9c-.2.4,0,1,.4,1.2,18.4,8.1,37.9,17.6,58.2,28.5,21.7,11.7,42.2,23.6,60.1,35.3,0,0,.3.2.7,0,.2,0,.4-.2.6-.4l7.7-12.1c.2-.4,0-1-.4-1.2-18.3-11.7-39.3-24-61.8-36.1-20.5-11-39.8-20.4-58.2-28.5,0,0-.3-.2-1.2.4h-.2Z"/>
        <path class="cls-8" d="M1388.8,146.6l7,3.8-7.6,14.1-6.6-3.6,7.2-14.3h0ZM1357.7,148.6l-6.7-3.3,6.7-14.5,7.1,3.5-7,14.4h0Z"/>
        <path class="cls-8" d="M1419.5,163.7l6.6,3.9-8,13.9-6.5-3.8,8-13.9h0Z"/>
        <path class="cls-5" d="M1278.4,108.6c-11.2-4.3-22.7-8.4-34.9-12.5-11.5-3.8-22.9-7.4-33.8-10.5,0,0-.3-.2-.4-.6v-.7l3.8-13.2c.2-.4.8-.6,1.2-.4,11.1,3.2,22.5,6.8,34.2,10.7,12.4,4.1,24.2,8.4,35.6,12.7,0,0,.3.2.4.6v.7l-4.9,12.8c-.2.4-.8.6-1.2.4h0Z"/>
        <g class="cls-18">
          <path class="cls-2" d="M1544,275.8c.2.3,0,.6,0,.9,0,.1-.2.2-.4.3h-.5c-.2,0-.3-.1-.5-.3-.2-.1-.3-.3-.4-.5s0-.4,0-.5c0-.1,0-.3.2-.5,0,0,0-.1.3-.2h.7v-.4c0-.1,0-.2,0-.4,0,0,0-.1.3-.2h.7c.2,0,.3.1.4.2.2.1.3.3.3.4v.4c0,.1,0,.2,0,.4-.3.3-.5.4-.8.3h-.2ZM1542.6,275.9v.3s0,.2.2.3.2.1.3.1h.3s.2,0,.3-.2c0-.1.2-.2.2-.4s0-.2-.2-.3-.2-.1-.3-.1h-.3q-.2,0-.3.2c-.1.2,0,0-.2,0h0ZM1543.9,274.6h-.5v.3h0c0,.1.2.3.2.3,0,0,.2.1.3.1s.2,0,.3-.2,0-.1,0-.3,0-.2-.3-.3c.2,0,0,0,0,0h-.1ZM1542.1,274.2c.2.3,0,.6,0,.9,0,.1-.2.2-.4.3h-.5c-.2,0-.3-.1-.5-.3-.2-.1-.3-.3-.4-.5s0-.4,0-.5c0-.1,0-.3.2-.5,0,0,0-.1.3-.2h.7v-.4c0-.1,0-.2,0-.4,0,0,0-.1.3-.2h.7c.2,0,.3.1.4.2.2.1.3.3.3.4v.4c0,.1,0,.2,0,.4-.2.4-.5.4-.8.3h-.2ZM1540.7,274.4v.3s0,.2.2.3.2.1.3.1h.3s.2,0,.3-.2c0-.1.2-.2.2-.4s0-.2-.2-.3-.2-.1-.3-.1h-.3q-.2,0-.3.2c-.1.2-.2,0-.2,0h0ZM1542.1,273h-.5v.3h0c0,.1.2.3.2.3,0,0,.2.1.3.1s.2,0,.3-.2,0-.1,0-.3,0-.2-.3-.3h-.1ZM1540.2,272.6c.2.3,0,.6,0,.9,0,.1-.2.2-.4.3h-.5c-.2,0-.3-.1-.5-.3-.2-.1-.3-.3-.4-.5s0-.4,0-.5,0-.3.2-.5c0,0,0-.1.3-.2h.7v-.4c0-.1,0-.2,0-.4,0,0,0-.1.3-.2h.7c0,0,.3.1.4.2.2.1.3.3.3.4v.4c0,.1,0,.2,0,.4-.3.3-.5.4-.8.3h-.2ZM1538.8,272.8v.3s0,.2.2.3.2.1.3.1h.3s.2,0,.3-.2c0-.1.2-.2.2-.4s0-.2-.2-.3-.2-.1-.3-.1h-.3q-.2,0-.3.2c-.1.2,0,0-.2,0h0ZM1540.2,271.4h-.5v.3h0c0,.1.2.3.2.3,0,0,.2.1.3.1s.2,0,.3-.2,0-.1,0-.3,0-.2-.3-.3c.2,0,0,0,0,0h-.1ZM1538.3,271c.2.3,0,.6,0,.9,0,.1-.2.2-.4.3h-.5c-.2,0-.3-.1-.5-.3-.2-.1-.3-.3-.4-.5s0-.4,0-.5,0-.3.2-.5c0,0,0-.1.3-.2h.7v-.4c0-.1,0-.2,0-.4,0,0,0-.1.3-.2h.7c0,0,.3.1.4.2.2.1.3.3.3.4v.4c0,.1,0,.2,0,.4-.3.3-.5.4-.8.3h-.2ZM1537,271.2v.3q0,.2.2.3t.3.1h.3s.2-.1.3-.2c0-.1.2-.2.2-.4s0-.2-.2-.3-.2-.1-.3-.1h-.3q-.2,0-.3.2c-.1.2-.2,0-.2,0h0ZM1538.3,269.9h-.5v.3h0c0,.1.2.3.2.3,0,0,.2.1.3.1s.2,0,.3-.2,0-.1,0-.3,0-.2-.3-.3c0,0,0,0,0,0h-.1ZM1536.5,269.5c.2.3,0,.6,0,.9,0,.1-.2.2-.4.3h-.5c-.2,0-.3-.1-.5-.3-.2-.1-.3-.3-.4-.5s0-.4,0-.5c0-.1,0-.3.2-.5,0,0,0-.1.3-.2s.2,0,.3,0h.4v-.4c0-.1,0-.2,0-.4,0,0,0-.1.3-.2h.7c.2,0,.3.1.4.2.2.1.3.3.3.4v.4c0,.1,0,.2,0,.4-.3.3-.5.4-.8.3h-.2ZM1535.1,269.6v.3s0,.2.2.3.2.1.3.1h.3c0,0,.2-.1.3-.2,0-.1.2-.2.2-.4s0-.2-.2-.3-.2-.1-.3-.1h-.3q-.2,0-.3.2c-.1.2,0,0-.2,0h0ZM1536.4,268.3h-.5v.3h0c0,.1.2.3.2.3,0,0,.2.1.3.1s.2,0,.3-.2,0-.1,0-.3,0-.2-.3-.3c.2,0,0,0,0,0h-.1Z"/>
        </g>
        <g class="cls-18">
          <path class="cls-2" d="M1457.5,187.3l1.7,1.1c.2.1.2.2.3.3s0,.3,0,.4,0,.2-.2.2-.2,0-.4-.1l-2.3-1.6c-.2-.1-.2-.2-.2-.4v-.4s0-.2.3-.3.2-.2.3-.1l1.2-.2h1.4c0,0,.3-.1.5-.2,0,0,.2-.2.4-.4s.2-.2,0-.4v-.4c0-.1-.3-.2-.4-.3-.2-.2-.6-.2-.9-.1,0,0,0,0-.2.2s-.2.2-.4.2h-.3c-.1,0-.2-.1-.2-.2v-.3c0-.2.2-.3.4-.4.2-.1.4-.2.5-.2h.7c.2,0,.5.2.7.4.3.2.5.5.7.7,0,.2,0,.3.2.5v.6c0,.2,0,.4-.2.6-.2.2-.4.4-.6.6-.3.1-.5.2-.8.2s-.6.1-1.1.1-.8,0-1.1.1c-.2.1-.3,0-.3.1h0l.2-.3Z"/>
        </g>
        <g class="cls-18">
          <path class="cls-2" d="M1486.7,207.4l1.9-2.8c-.8,0-1.3,0-1.5-.1,0,0-.2-.1-.2-.2v-.3c0-.1,0-.2.2-.2h1.9c.2-.2.3-.3.5-.3h.2s0,.2,0,.3,0,.2,0,.4l-2.4,3.6c-.3.4-.6.6-.9.4-.2-.1-.2-.2-.2-.4l.3-.4h.2Z"/>
        </g>
        <g class="cls-18">
          <path class="cls-2" d="M1324.8,114.6l1.8.8c.2,0,.3,0,.3.2s0,.3,0,.3,0,.2-.2.2h-.4l-2.6-1.1c-.2,0-.2-.2-.3-.3s0-.3,0-.4c0,0,0-.2.2-.3s.2-.2.3-.2l1.2-.5c.4-.2.6-.2.8-.2s.5,0,.6-.2.3-.2.4-.2.2-.2.3-.4,0-.3,0-.4l-.2-.4c0,0-.2-.2-.3-.2-.3,0-.6,0-.9,0,0,0,0,0-.2.2s-.2.2-.3.3-.2,0-.3,0-.2,0-.2-.2v-.3c0-.2.2-.4.3-.4.2-.2.3-.3.5-.3.3,0,.4-.2.7,0,.2,0,.5,0,.8.2.4.2.6.4.8.6.2.2.2.3.3.5v.6c0,.2,0,.4,0,.6,0,.3-.3.5-.5.7-.3.2-.5.3-.7.4s-.5.2-1,.3-.8.2-1,.3c0,0-.2.2-.3.2h0l.2-.3Z"/>
        </g>
        <g class="cls-18">
          <path class="cls-2" d="M1291.5,100.8l1.9.7c.2,0,.3,0,.3.2s0,.3,0,.3,0,.2-.2.2h-.4l-2.6-1c-.2,0-.2-.2-.3-.3,0,0,0-.3,0-.4,0,0,0-.2.2-.3s.2-.2.3-.2l1.2-.5c.4-.2.6-.2.7-.2.2,0,.5,0,.6-.2s.3-.2.4-.3.2-.2.3-.4,0-.3,0-.4l-.2-.4c0,0-.2-.2-.3-.2-.3,0-.6,0-.9,0,0,0,0,0-.2.2s-.2.2-.3.3h-.3c-.1,0-.2,0-.2-.2v-.3c0-.2,0-.4.3-.4.2-.2.3-.3.5-.4.3,0,.4-.2.7-.2s.5,0,.8.2c.4,0,.6.3.9.6.2.2.2.3.4.5v.6c0,.3,0,.4,0,.6,0,.3-.3.5-.5.7-.3.2-.5.4-.7.4s-.5.2-1,.4c-.5,0-.7.2-1,.4,0,0-.2.2-.3.2h0v-.2Z"/>
        </g>
        <path class="cls-14" d="M1491.4,196.9c7.2,5.1,14.6,10.4,22.1,15.9,7.1,5.3,14,10.6,20.6,15.8-.3.4-.6.8-.9,1.2-6.6-5.2-13.4-10.5-20.5-15.7-7.5-5.6-14.8-10.9-22.1-15.9.3-.4.6-.9.8-1.3h0Z"/>
        <path class="cls-10" d="M1553.6,235.8c-3-2.5-6.2-5.2-9.2-7.8-2.6-2.2-5.3-3.9-7.8-6,.6-.6,3.1-2.1,6.7-2.6,1.7-.2,3.3.6,4.7,1.6l10.7,8.6-5,6.2h0ZM1515,193.1l6.7,5.1-5.7,7.6-6.7-5,5.7-7.7h0Z"/>
        <path class="cls-7" d="M1509.1,201.3l-7.7-5.7,4.3-6,7.8,5.8-4.4,6h0Z"/>
        <circle class="cls-12" cx="1222.4" cy="115.2" r="4.8" transform="translate(534.3 1132.1) rotate(-61.3)"/>
        <circle class="cls-12" cx="1248" cy="123.6" r="4.8" transform="translate(540.3 1158.9) rotate(-61.3)"/>
        <circle class="cls-12" cx="1492.6" cy="255.4" r="4.8" transform="translate(551.8 1442) rotate(-61.3)"/>
        <circle class="cls-12" cx="1517.3" cy="274.6" r="4.8" transform="translate(547.8 1473.6) rotate(-61.3)"/>
        <path class="cls-15" d="M1501.4,195.6l4-5.6c-10.5-7.8-21.6-15.6-33.4-23.4-8.9-5.9-17.7-11.5-26.3-16.8-1.1,2.1-2.3,4.2-3.4,6.2,9.5,5.8,19.3,11.8,29.2,18.4,10.5,7.1,20.4,14.2,29.9,21.1h0Z"/>
        <path class="cls-9" d="M1429.1,148.3l4.8-8.7c-9.5-5.6-19.5-11.2-30-16.8-10.4-5.6-20.8-11-30.7-15.8-1.6,2.9-2.9,6-4.4,8.9,9.9,4.8,20,10.1,30.4,15.6,10.4,5.6,20.5,11.2,30,16.8h-.1ZM1361.5,112.4l3.7-7.8c-6.8-3.3-13.8-6.6-21.1-9.8-7.9-3.5-15.6-6.7-23.1-9.8-1.2,2.6-2.4,5.2-3.6,7.8,8,3.3,16.1,6.8,24.4,10.5,6.7,3,13.2,6,19.6,9h0Z"/>
        <path class="cls-10" d="M1314.5,91.8l4.9-11-19.8-7.8-4.4,11.2c3.4,1.3,6.9,2.6,10.3,4,3,1.2,6,2.4,8.9,3.6h0Z"/>
        <path class="cls-9" d="M1291.8,82.8l3.1-7.7-16.9-6.1-3,7.7c2.8,1,5.6,2,8.4,3s5.7,2.1,8.4,3.1h0Z"/>
        <path class="cls-8" d="M1244.8,80.2l8.9,3-4.9,14.8-8.6-2.9,4.7-14.8h0Z"/>
        <path class="cls-5" d="M1079.9,58.3c11.9,1.6,23.9,3.4,36.6,5.6,11.9,2.1,23.6,4.4,34.7,6.8,0,0,.4,0,.7-.3.2-.2.3-.4.3-.7l2.9-13.4c0-.5-.4-.9-.9-.9-11.3-2.4-23-4.8-35.1-6.9-12.8-2.2-25.3-4.2-37.3-5.7,0,0-.4,0-.7.3-.2.2-.3.4-.3.7l-1.8,13.6c0,.5.4.9.9.9h0Z"/>
        <path class="cls-8" d="M1123,49.4l-9.2-1.6-2.7,15.3,8.9,1.6,2.9-15.3h0Z"/>
        <path class="cls-10" d="M1273.6,76.1l1.8-4.7-7.3-2.5-1.8,4.7c1.2.4,2.4.8,3.6,1.2,1.3.4,2.5.9,3.7,1.3h0Z"/>
        <path class="cls-3" d="M1374.3,173l-1.4,2.5c-3.8-2.1-7.7-4.1-11.6-6.1-6.7-3.5-13.3-6.7-19.8-9.8.4-.9.8-1.8,1.3-2.6,6.1,2.9,12.3,6,18.5,9.2,4.4,2.3,8.8,4.6,13.1,6.8h0ZM1336.3,153.9l-2.3,4.6c-3.5-1.7-7.1-3.3-10.7-5-3.2-1.4-6.4-2.8-9.5-4.2.7-1.6,1.5-3.1,2.2-4.7,3.1,1.4,6.3,2.8,9.4,4.2,3.7,1.7,7.3,3.4,10.9,5.1h0Z"/>
        <path class="cls-2" d="M1282.3,134.6l8.2,3.2c3.2,1.2,5.3-1.9,5.3-1.9l-12.1-4.9-1.4,3.5h0ZM1185.1,98.6l-1.7,6.3,11.6,3c4.6,1.1,8.9-4.1,8.9-4.1l-18.8-5.2h0ZM1550.6,296.6l-3.9-3.5c-1.1,2.9,1.1,6.6,1.1,6.6l2.8-3.1h0Z"/>
        <path class="cls-15" d="M1480.9,239.9l-5.9.4s36.1,28.5,48.3,37.7c9.6,7.3,11,4.2,11,4.2-7.9-6.8-16.3-13.7-25-20.7-9.6-7.7-19.1-14.9-28.4-21.6h0ZM1204.1,103.9s.3.9,2.3,3.6,37.5,13,48.7,17.1c12.3,4.2,13.5.6,13.5.6-10.6-3.9-21.6-7.8-33-11.6-10.7-3.6-21.2-6.8-31.4-9.8h0Z"/>
        <path class="cls-3" d="M1394.7,184.2c4.8,2.7,9.7,5.6,14.6,8.5,4.3,2.6,8.6,5.1,12.8,7.7-.6.9-1.1,1.8-1.6,2.6-4.9-3-10-6.1-15.1-9.1-4.1-2.4-8.1-4.8-12.1-7.1l1.4-2.5h0Z"/>
        <path class="cls-13" d="M1180,52.8l14.2,3.6c-1.6,6-3.1,12.2-4.9,18.4-2.2,7.9-4.5,15.6-6.8,23.1-2.1-.5-4.2-1.1-6.3-1.6-2.1-.5-4.4-1.1-6.5-1.6,3.2-14.7,6.7-27.1,10.3-41.8h0Z"/>
        <path class="cls-4" d="M1181.6,53.2l12.6,3.2-11.8,41.5-12.6-3.2,11.8-41.5h0Z"/>
        <path class="cls-16" d="M1529.2,246.6c-2.9-2.2-6.3-2.4-7.8-.5-1.4,1.9-.3,5.2,2.6,7.4s6.3,2.4,7.8.5c1.4-1.9.3-5.2-2.6-7.4ZM1524.3,253.1c-2.4-1.8-3.3-4.6-2-6.3s4.2-1.6,6.6.2,3.3,4.6,2,6.3-4.2,1.6-6.6-.2Z"/>
        <path class="cls-16" d="M1525.4,246.6c.8,0,1.7.3,2.5.7h0c0,.1-.3.5-.3.5h0c0-.1-.2,0-.3,0l-2.3,3.1c0,.2,0,.3,0,.4.7.5,1.4,1.1,2.3,1,0,0,.2,0,.2.2v.6c.2,0,0,0,0,.2-1.6,0-3.8-1.3-4.2-3.4h0l.3-.2s0,0,.2.1.2.1.2,0l1.9-2.5v-.2h0v-.4c-.2-.1,0-.2,0-.2h-.4Z"/>
        <path class="cls-16" d="M1528.2,250c.2.2.3.5,0,.7s-.5.3-.7.1-.3-.5,0-.7.5-.3.7-.1ZM1526.3,252s0,0,0,0c0-.3-.2-.6,0-.9s.6-.3,1,0c.3.2.5.7.3,1h0c0,.3,0,.6.2.7h0c.3,0,.5-.2.7-.4s0-.6-.2-.9c.5,0,1-.3.9-.8,0-1-1.3-1.8-2.2-1.7-.6,0-.7.6-.6,1.1-.3-.1-.7-.1-.9,0-.3.3-.3.8-.2,1.1h.2c.3.4.5.6.8.7h0Z"/>
      </g>
      <path class="cls-1" d="M1473.7,192.3l-7.1-4.7c0-.1-.4-.1-.5,0l-8.8,13.3c0,.1-.2.4,0,.5l6.9,4.6c0,.1.4.1.5,0l9-13.3c0-.1.2-.4,0-.5h0Z"/>
      <path class="cls-6" d="M1300.7,94.1c-.3,0-.7,0-.8.4l-13.7,34c0,.3,0,.6.3.7,4.4,1.8,9.6,3.9,14.1,5.7,2.7,1.1,5.6,2.4,8.3,3.6.3.1.7,0,.8-.4l14.4-33.8c0-.3,0-.6-.3-.7-3.7-1.6-7.4-3.1-11.2-4.7-4-1.7-8-3.3-11.9-4.8h0Z"/>
      <path class="cls-1" d="M1311.3,105.5l-6.1,14.8c0,.2,0,.4.2.4l7.6,3.2c.2,0,.4,0,.4-.2l6.3-14.7c0-.2,0-.4-.2-.4l-7.8-3.3c-.2,0-.4,0-.4.2h0Z"/>
      <path class="cls-1" d="M1308.1,103.8l-7.9-3.2c-.2,0-.4,0-.5,0l-5.9,14.9c0,.2,0,.4,0,.5l7.7,3.1c.2,0,.4,0,.5,0l6.1-14.8c0-.2,0-.4,0-.5h0Z"/>
      <path class="cls-17" d="M358.8,228.1l3.5,6.5c40.1-32.4,90.1-69.2,153.8-103.3,77-41.2,146.7-63.9,203.7-79.5,4.5,16.8,8.6,31.7,12.8,45.8-53.9,14.1-123.3,37.6-198.4,78.4-75.1,40.8-132.6,86.1-173.7,123.6-3-2-34.1-43.7-1.7-71.6h0Z"/>
      <path class="cls-14" d="M368.5,229.4h-12c-22.8,21.7-8,50.4-6.4,54.2,2.5-1.2,3.9-2.5,5.1-3.5-1-2.1-15.9-29,13.3-50.6h0Z"/>
      <path class="cls-11" d="M360.6,299.9c42.1-38.4,101.3-84.8,178.7-126.2,72.9-39,140.3-61.9,193.5-75.8-.5-1.9-1-3.9-1.6-5.8-53.2,13.9-121.9,37.2-194.8,76.2-77.9,41.7-136.4,87.6-179.8,126.6-.8.7,1.5,2.1,2.2,3,.6.8,1.3,1.5,1.9,2.1h-.1Z"/>
      <path class="cls-8" d="M381.9,241.3c.1-.1.2-.3.2-.5,0-1.8-2.3-11.2-3.9-10-2.5,1.8-7.9,6.3-14.7,11.9-5.4,4.4-3.4,16.7-3,21.1,0,.5.6.9,1,.5,5.1-5.5,18.5-20.9,20.4-23h0Z"/>
      <path class="cls-5" d="M417,210.4l7.9,11.2c.2.4,0,1-.4,1.2-3.9,2.8-7.8,5.7-11.8,8.6-4,3-7.9,6-11.7,8.9,0,0-.3.2-.7,0-.2,0-.4-.2-.5-.4l-8.3-10.9c-.2-.4,0-1,.4-1.2,3.9-3,7.8-6,11.8-9,4.1-3.1,8.1-6,12.1-8.9,0,0,.3-.2,1.2.4h0Z"/>
      <path class="cls-6" d="M446.7,181.1c.3-.2.7-.1.9.2l20.3,30.5c.1.3,0,.6-.2.8-4,2.7-8.6,5.8-12.6,8.4-2.4,1.7-5,3.5-7.4,5.2-.3.2-.7.1-.9-.2l-21-30.2c-.1-.3,0-.6.2-.8,3.3-2.3,6.6-4.6,10-6.9,3.6-2.4,7.2-4.8,10.7-7.1h0Z"/>
      <path class="cls-1" d="M438.1,194.3l-7,4.8c-.2,0-.2.3-.1.5l9.1,13.2c0,.2.3.2.5.1l6.8-4.7c.2,0,.2-.3.1-.5l-9-13.3c0-.2-.3-.2-.5-.1h.1Z"/>
      <path class="cls-5" d="M585.1,118.7l5.9,12.9c.2.4,0,1-.4,1.2-18.4,8.1-37.9,17.6-58.2,28.5-21.7,11.7-42.3,23.6-60.1,35.2,0,0-.3.2-.7,0-.2,0-.4-.2-.5-.4l-7.7-12.1c-.2-.4,0-1,.4-1.2,18.3-11.6,39.3-24,61.8-36,20.5-10.9,39.8-20.4,58.2-28.5,0,0,.3-.2,1.2.4h.1Z"/>
      <path class="cls-8" d="M533.6,160.7l-6.6,3.6-7.6-14.1,7-3.8,7.2,14.3h0ZM550.5,134l7.1-3.5,6.7,14.5-6.7,3.3-7-14.4h0Z"/>
      <path class="cls-8" d="M495.7,163.5l-6.6,3.9,8,13.9,6.5-3.8-8-13.9h.1Z"/>
      <path class="cls-5" d="M636.9,108.4c11.2-4.3,22.7-8.4,34.9-12.4,11.5-3.8,22.9-7.3,33.8-10.5,0,0,.3-.2.4-.6v-.7l-3.8-13.2c-.2-.4-.8-.6-1.2-.4-11.1,3.2-22.5,6.7-34.2,10.6-12.4,4.1-24.2,8.4-35.6,12.7,0,0-.3.2-.4.6v.7l4.9,12.8c.2.4.8.6,1.2.4h0Z"/>
      <g class="cls-18">
        <path class="cls-2" d="M456,186.6l1.7-1.1c.2-.1.2-.2.4-.1s.3,0,.3.1.1.2,0,.3-.1.2-.3.3l-2.4,1.5c-.2.1-.3,0-.5,0s-.3,0-.4-.2c0,0-.1-.2-.1-.4v-.4l.3-1.2c0-.4.2-.6.2-.7.1-.2.2-.5.2-.6v-.5c0-.1,0-.3-.2-.5s-.2-.2-.3-.3h-.4c-.1-.1-.3,0-.4,0-.2.2-.5.4-.5.8v.7c0,0-.1.2-.2.2s-.2.1-.3,0c-.1,0-.2-.1-.2-.2-.1-.2-.2-.3-.2-.5v-.6c0-.3,0-.4.3-.7.1-.2.4-.4.6-.5.3-.2.6-.3,1-.4h.6c.1,0,.3.1.5.3s.3.3.4.4c.2.2.2.6.3.8,0,.4,0,.6-.1.8s-.1.6-.3,1-.2.7-.3,1v.4h0l.3.3Z"/>
      </g>
      <g class="cls-18">
        <path class="cls-2" d="M427.6,206.1l-2-2.8c-.2.8-.5,1.2-.6,1.3,0,0-.2.1-.3,0-.1,0-.2-.1-.3-.2s-.1-.2,0-.3c0-.1.1-.2.2-.4.2-.3.2-.5.3-.7v-.7c0-.2,0-.4.1-.5,0,0,0-.2.1-.2h.4c.1,0,.2.1.3.3l2.5,3.5c.3.4.3.8,0,.9-.2.1-.3,0-.4,0l-.3-.4h0v.2Z"/>
      </g>
      <g class="cls-18">
        <path class="cls-2" d="M589.6,114.7l1.8-.8c.2,0,.3,0,.4,0s.3,0,.3.2v.3c0,.1,0,.2-.3.2l-2.6,1.1h-.5c-.2,0-.3,0-.3-.3v-.7l.5-1.2c.2-.4.3-.6.3-.7,0-.2.2-.4.3-.6s0-.3,0-.5c0,0,0-.3,0-.5s0-.3-.2-.3l-.4-.2h-.4c-.3,0-.5.3-.6.7v.7c0,0,0,.2-.2.2h-.3c0,0-.2,0-.2-.2,0-.2-.2-.4,0-.5v-.6c0-.3.2-.4.4-.6,0-.2.4-.3.7-.4.4-.2.7-.2,1-.2h.6c0,0,.3.2.5.3s.2.3.3.5c0,.3.2.6,0,.8,0,.3,0,.6-.2.8s-.2.5-.5,1-.3.7-.5,1v.3h0v.2Z"/>
      </g>
      <g class="cls-18">
        <path class="cls-2" d="M622.9,101.1l1.9-.7c.2,0,.3,0,.4,0,0,0,.3,0,.3.2v.3c0,.1-.2.2-.3.2l-2.6,1h-.5c0,0-.3,0-.3-.3v-.7l.5-1.2c.2-.4.3-.6.4-.7.2-.2.3-.4.3-.6s0-.3,0-.5,0-.3,0-.5,0-.3-.2-.3l-.4-.2h-.4c-.3,0-.5.3-.6.7v.7c0,0-.2.2-.2.2h-.3c0,0-.2-.2-.2-.2,0-.2,0-.4,0-.5v-.6c0-.3.2-.4.4-.6s.4-.3.7-.4c.4,0,.7-.2,1-.2h.6c0,0,.3.2.5.4s.2.3.3.5c0,.3,0,.6,0,.8,0,.3,0,.6-.2.7s-.2.5-.5.9-.4.7-.5.9v.3h0l-.2.4Z"/>
      </g>
      <path class="cls-14" d="M423.8,196.6c-7.2,5.1-14.6,10.4-22.1,15.9-7.1,5.3-14,10.6-20.6,15.8.3.4.6.8,1,1.2,6.6-5.2,13.4-10.4,20.5-15.7,7.5-5.6,14.8-10.8,22.1-15.9-.3-.4-.6-.9-.8-1.3h-.1Z"/>
      <path class="cls-10" d="M356.5,229.3l10.7-8.6c1.4-1.1,3-1.8,4.7-1.6,3.6.4,6.1,2,6.7,2.6-2.5,2.1-5.3,3.8-7.8,6-3.1,2.6-6.2,5.3-9.2,7.8l-5-6.2h-.1ZM405.9,200.6l-6.7,5-5.7-7.6,6.7-5.1,5.7,7.7h0Z"/>
      <path class="cls-7" d="M406.1,201l7.7-5.7-4.3-6.1-7.8,5.8,4.4,6h0Z"/>
      <circle class="cls-12" cx="693.9" cy="114.6" r="4.8" transform="translate(29.8 346.2) rotate(-28.6)"/>
      <circle class="cls-12" cx="668.3" cy="123.1" r="4.8" transform="translate(22.6 334.9) rotate(-28.6)"/>
      <circle class="cls-12" cx="423.6" cy="254.3" r="4.8" transform="translate(-70 233.8) rotate(-28.6)"/>
      <path class="cls-15" d="M413.8,195.3l-4-5.6c10.5-7.8,21.6-15.6,33.4-23.4,8.9-5.9,17.7-11.5,26.3-16.7,1.1,2.1,2.3,4.2,3.4,6.2-9.5,5.8-19.4,11.8-29.2,18.4-10.5,7-20.4,14.2-29.9,21.1h0Z"/>
      <path class="cls-9" d="M516.2,131.3c10.4-5.6,20.5-10.8,30.4-15.6-1.6-2.9-2.9-6-4.4-8.9-9.9,4.8-20.3,10.2-30.7,15.8-10.5,5.6-20.5,11.2-30,16.8l4.7,8.7c9.6-5.6,19.6-11.2,30-16.7h0ZM573.2,103.2c8.3-3.7,16.4-7.2,24.4-10.5-1.2-2.6-2.4-5.2-3.5-7.8-7.5,3-15.2,6.2-23.1,9.7-7.3,3.2-14.3,6.5-21.1,9.8l3.7,7.8c6.3-3,12.9-6,19.5-9h0Z"/>
      <path class="cls-10" d="M600.8,91.6l-4.9-11,19.8-7.8,4.4,11.2c-3.4,1.3-6.9,2.6-10.3,4-3,1.2-6,2.4-8.9,3.6h0Z"/>
      <path class="cls-9" d="M623.5,82.6l-3-7.7,16.9-6.1,3,7.7c-2.8,1-5.6,2-8.4,3-2.8,1-5.7,2.1-8.5,3.1h0Z"/>
      <path class="cls-8" d="M670.5,80l-8.9,3,4.9,14.8,8.6-2.9-4.7-14.8h.1Z"/>
      <path class="cls-10" d="M641.6,75.9l-1.8-4.7,7.3-2.5,1.8,4.7c-1.2.4-2.4.8-3.6,1.2-1.3.4-2.5.9-3.7,1.3h0Z"/>
      <path class="cls-3" d="M554,165.9c6.2-3.2,12.4-6.3,18.5-9.2.4.9.8,1.8,1.3,2.6-6.5,3.1-13.1,6.4-19.8,9.8-4,2-7.8,4.1-11.6,6.1l-1.4-2.5c4.3-2.3,8.7-4.6,13.1-6.8h0ZM589.8,148.6c3.2-1.4,6.3-2.9,9.5-4.2.7,1.6,1.5,3.1,2.2,4.7-3.1,1.3-6.3,2.7-9.5,4.2-3.7,1.6-7.2,3.3-10.7,5l-2.3-4.6c3.6-1.7,7.2-3.4,10.9-5.1h-.1Z"/>
      <path class="cls-2" d="M631.4,130.9l-12,4.9s2.1,3.1,5.3,1.9l8.2-3.2-1.4-3.5h0ZM711.3,103.7s4.3,5.1,9,4.1l11.6-3-1.7-6.3-18.8,5.2h0ZM367.3,299.4s2.2-3.7,1.1-6.6l-3.9,3.5,2.8,3.1h0Z"/>
      <path class="cls-15" d="M405.8,261.3c-8.7,6.9-17.1,13.8-25,20.7,0,0,1.5,3.1,11-4.1,12.2-9.2,48.3-37.7,48.3-37.7l-6-.4c-9.3,6.8-18.7,14-28.4,21.6h.1ZM711,103.7c-10.2,3-20.7,6.2-31.5,9.7-11.4,3.8-22.4,7.6-33,11.6,0,0,1.2,3.7,13.5-.6,11.2-4.1,46.8-14.4,48.7-17.1,2-2.7,2.3-3.6,2.3-3.6h0Z"/>
      <path class="cls-3" d="M520.5,183.9c-4.8,2.7-9.7,5.6-14.6,8.5-4.4,2.6-8.6,5.1-12.8,7.7.5.9,1.1,1.8,1.6,2.6,4.9-3,10-6.1,15.1-9.1,4.1-2.4,8.1-4.8,12.1-7.1l-1.4-2.5h0Z"/>
      <path class="cls-13" d="M734.6,52.9l-13.5,3.4c1.5,6,3.1,12.2,4.9,18.4,2.2,7.9,4.5,15.6,6.8,23.1,2.1-.5,4.2-1.1,6.3-1.6s4.2-1.1,6.3-1.6c-3.8-15.1-6.9-27-10.8-41.7h0Z"/>
      <path class="cls-4" d="M745.4,94.6l-12.6,3.2-11.7-41.5,12.6-3.2s11.7,41.5,11.7,41.5Z"/>
      <path class="cls-16" d="M385.9,246.3c-2.9,2.2-4,5.5-2.5,7.4s4.9,1.6,7.8-.6,4-5.5,2.5-7.4-4.9-1.6-7.8.6ZM390.8,252.8c-2.4,1.8-5.3,1.9-6.6.3s-.4-4.5,2-6.3,5.3-1.9,6.6-.3.4,4.5-2,6.3Z"/>
      <path class="cls-16" d="M384.9,250c.2-.8.7-1.6,1.4-2.2h.1l.3.4h0c0,.2-.1.4,0,.5l2.4,3.1c.1.2.3.2.4,0,.7-.6,1.4-1.1,1.5-1.9,0-.1.1-.2.2-.2h.6s0,.2.1.2c-.5,1.5-2.3,3.3-4.4,3.1h0v-.4s0-.1.2-.1.2-.1.1-.2l-1.9-2.5s-.2-.1-.2,0h-.3c-.2.1-.2,0-.2,0h0l-.3.2Z"/>
      <path class="cls-16" d="M388.9,248.2c.2-.2.5-.1.7,0s.1.5,0,.7-.5.1-.7,0-.1-.5,0-.7ZM390.3,250.6s0,0,0,0c-.4,0-.6,0-.8-.2s-.1-.7.3-1c.3-.2.8-.2,1,0h.7c0-.3,0-.6-.2-.9s-.6-.1-.9,0c.1-.5,0-1-.6-1.1-1-.1-2.1.7-2.2,1.7,0,.6.4.8.9.8-.2.3-.3.6-.2.9.2.4.6.5,1,.5h.2c.4-.3.6-.5.8-.7h0Z"/>
      <path class="cls-1" d="M441.5,192.6l9,13.3c.1.1.4.1.5,0l6.9-4.6c.1-.1.1-.4,0-.5l-8.8-13.4c-.1-.1-.4-.1-.5,0l-7.1,4.7c-.1.1-.1.4,0,.5h0Z"/>
      <path class="cls-6" d="M614.6,93.9c.3,0,.7,0,.8.4l13.7,34c0,.3,0,.6-.3.7-4.4,1.8-9.6,3.9-14.1,5.7-2.7,1.1-5.6,2.4-8.3,3.6-.3.1-.7,0-.8-.4l-14.4-33.8c0-.3,0-.6.3-.7,3.7-1.6,7.4-3.1,11.2-4.7,4-1.7,8-3.3,11.9-4.8h0Z"/>
      <path class="cls-1" d="M603.5,105.1l-7.8,3.3c-.2,0-.3.3-.2.4l6.3,14.7c0,.2.3.3.4.2l7.6-3.2c.2,0,.3-.3.2-.4l-6.1-14.8c0-.2-.3-.3-.4-.2h0Z"/>
      <path class="cls-1" d="M607.1,104.1l6.1,14.8c0,.2.3.2.5,0l7.7-3.1c.2,0,.2-.3,0-.5l-5.9-14.9c0-.2-.3-.2-.5,0l-7.9,3.2c-.2,0-.2.3,0,.5h0Z"/>
      <path class="cls-6" d="M877.7,32c.3,0,.7.2.7.6l3.3,36.5c0,.3-.2.6-.5.6-4.8.5-10.3,1-15.1,1.4-2.9.3-6,.7-9,1.1-.4,0-.7-.2-.7-.6l-4.1-36.5c0-.3.2-.6.5-.6,4-.5,8-.9,12-1.3,4.3-.4,8.6-.8,12.8-1.2h0Z"/>
      <path class="cls-1" d="M863.9,39.6l-8.4.9c-.2,0-.3.2-.3.4l1.8,15.9c0,.2.2.3.4.3l8.2-.9c.2,0,.3-.2.3-.4l-1.6-16c0-.2-.2-.3-.4-.3h0Z"/>
      <path class="cls-5" d="M1029.2,42.8l-.9,14.2c0,.5-.4.9-.9.9-20.1-1.6-41.7-2.5-64.8-2.5s-48.4.7-69.7,2.5c0,0-.4,0-.7-.3-.2-.2-.3-.4-.3-.7l-1-14.3c0-.5.4-.9.9-.9,21.7-1.5,46-2.5,71.5-2.4,23.3,0,44.7,1,64.8,2.6,0,0,.4,0,.9.9h.2Z"/>
      <path class="cls-8" d="M963.8,55.3h-7.5v-16h8l-.5,16h0ZM991.5,39.9l7.9.3-1,16-7.5-.3.6-16h0Z"/>
      <path class="cls-8" d="M929.2,39.8l-7.6.3.5,16,7.5-.2-.4-16h0Z"/>
      <path class="cls-5" d="M769,70c11.7-2.5,23.7-4.9,36.4-7.1,12-2.1,23.7-3.8,35-5.3,0,0,.4,0,.5-.5,0-.2,0-.5,0-.7l-1.8-13.6c-.2-.5-.7-.7-1.2-.5-11.4,1.5-23.2,3.3-35.4,5.4-12.9,2.2-25.2,4.6-37.1,7.2,0,0-.4,0-.5.5,0,.2,0,.5,0,.7l2.9,13.4c.2.5.7.7,1.2.6h0Z"/>
      <g class="cls-18">
        <path class="cls-2" d="M883.1,41l2-.2h.4c.1,0,.2.2.2.3v.3c0,0-.2,0-.4,0l-2.8.3c-.2,0-.3,0-.4-.2s-.2-.2-.2-.4v-.4c0-.2,0-.3.2-.3l.8-1c.3-.3.5-.4.5-.5.2,0,.4-.3.5-.4s.2-.3.3-.4,0-.3,0-.5,0-.3,0-.4l-.3-.3h-.4c-.3,0-.6.2-.8.5v.3c0,.2,0,.3-.2.4s-.2,0-.3,0h-.3c0,0,0-.2,0-.3v-.5c0-.2.2-.4.2-.5.2-.2.3-.3.6-.5.2,0,.5-.2.8-.2s.7,0,1,0c.2,0,.3.2.5.2s.2.3.3.5,0,.4.2.6c0,.3,0,.6,0,.8-.2.3-.2.5-.4.6s-.4.4-.7.8-.5.5-.7.8c0,.2-.2.2-.2.3h0Z"/>
      </g>
      <g class="cls-18">
        <path class="cls-2" d="M1034.7,41l2,.2c.2,0,.3,0,.4,0s.2.2.2.3,0,.2,0,.3-.2,0-.4,0l-2.8-.2c-.2,0-.3,0-.4-.2s-.2-.2-.2-.4c0,0,0-.2,0-.4s0-.3.2-.3l1-.8c.3-.3.5-.4.6-.5.2,0,.4-.3.5-.4s.2-.3.3-.4,0-.3,0-.5v-.4l-.3-.3c0,0-.3,0-.4,0-.3,0-.6,0-.8.3,0,0,0,0,0,.3s0,.3-.2.4-.2,0-.3,0-.2,0-.3,0v-.3c0-.2,0-.4,0-.5,0-.2.2-.4.3-.5.2-.2.3-.3.6-.3h.8c.4,0,.7.2,1,.3.2,0,.3.2.5.3,0,0,.2.3.3.5v.6c0,.3-.2.6-.3.8-.2.3-.3.5-.6.6s-.4.4-.8.6-.6.5-.8.6c0,0,0,.2-.2.3h0Z"/>
      </g>
      <g class="cls-18">
        <path class="cls-2" d="M1070.1,44.7l2,.2c.2,0,.3,0,.4.2,0,0,.2.2.2.3s0,.2,0,.3-.2,0-.4,0l-2.8-.3c-.2,0-.3,0-.4-.2,0,0-.2-.2-.2-.4s0-.2.2-.4,0-.3.2-.3l1-.8c.3-.3.6-.3.7-.4.2,0,.4-.2.6-.3s.2-.3.3-.4,0-.3.2-.5,0-.3,0-.4l-.3-.3c0,0-.3,0-.4-.2-.3,0-.6,0-.8.3,0,0,0,0,0,.3s0,.3-.2.4h-.3c-.1,0-.2,0-.3,0s0-.2,0-.3c0-.2,0-.4.2-.5,0-.2.2-.4.4-.5.2-.2.3-.3.7-.3h.8c.4,0,.7.2,1,.3.2,0,.3.2.5.4,0,0,.2.3.2.5v.6c0,.3-.2.6-.3.8-.2.3-.4.5-.6.5s-.4.3-.9.6c-.4.2-.7.4-.9.6,0,0-.2.2-.2.3h-.4Z"/>
      </g>
      <path class="cls-8" d="M806.5,47l-9.2,1.6,2.7,15.3,9-1.6-2.4-15.4h0Z"/>
      <path class="cls-1" d="M867.7,39.6l1.6,16c0,.2.3.3.5.2l8.3-.8c.2,0,.3-.3.2-.5l-1.4-15.9c0-.2-.3-.3-.5-.2l-8.5.8c-.2,0-.3.3-.2.5h0Z"/>
      <path class="cls-6" d="M1066.8,35c.3,0,.6.4.5.7l-4.1,36.4c0,.3-.3.5-.7.5-4.8-.5-10.3-1.1-15.1-1.6-2.9-.3-6.1-.5-9-.8-.4,0-.6-.4-.5-.7l3.4-36.6c0-.3.3-.5.6-.5,4,.4,8,.8,12.1,1.2,4.3.5,8.6.9,12.8,1.4h0Z"/>
      <path class="cls-1" d="M1051.8,39.6l-8.4-.8c-.2,0-.4,0-.4.3l-1.5,16c0,.2,0,.4.3.4l8.2.8c.2,0,.4,0,.4-.3l1.7-16c0-.2,0-.4-.3-.4h0Z"/>
      <path class="cls-1" d="M1055.4,40.4l-1.7,15.9c0,.2.2.3.4.3l8.3.9c.2,0,.3-.2.3-.4l1.8-15.9c0-.2-.2-.3-.4-.3l-8.4-1c-.2,0-.3.2-.3.4h0Z"/>
      <g class="cls-18">
        <path class="cls-2" d="M848,44.2l2-.2h.4c.1,0,.2.2.2.3v.3c0,0-.2,0-.4.2l-2.8.3c-.2,0-.3,0-.4-.2s-.2-.2-.2-.4v-.4c0-.2,0-.3.2-.3l.8-1c.3-.3.5-.5.5-.6.2,0,.4-.3.5-.5s.2-.3.2-.4v-.5c0-.2,0-.3-.2-.4l-.3-.3h-.4c-.3,0-.6.2-.8.5v.3c0,.2,0,.3-.2.4s-.2,0-.3,0h-.3c0,0,0-.2,0-.3v-.5c0-.2.2-.4.2-.5.2-.2.3-.3.5-.5.2,0,.5-.2.8-.2h1c.2,0,.3.2.5.2s.2.3.4.5c0,.2.2.4.2.6,0,.3,0,.6,0,.8-.2.3-.2.5-.4.7s-.3.4-.7.8-.5.6-.7.8c0,.2-.2.2-.2.3h0Z"/>
      </g>
    </g>
  </g>
  <rect class="cls-4" width="1914.4" height="1914.4"/>
</svg>