<svg width="18" height="18" viewBox="0 0 18 18" fill="none" xmlns="http://www.w3.org/2000/svg">
<g clip-path="url(#clip0_673_6658)">
<path d="M12.9904 0.333862H5.00954C2.43434 0.333862 0.347168 2.42178 0.347168 4.99745V12.9791C0.347168 15.5547 2.43471 17.6427 5.00991 17.6427H12.9901C15.5653 17.6427 17.6528 15.5547 17.6528 12.9791V4.99745C17.6528 2.42178 15.5656 0.333862 12.9904 0.333862Z" stroke="black" stroke-width="0.861111" stroke-miterlimit="10"/>
<path d="M9.00005 13.1662C11.3071 13.1662 13.1774 11.2956 13.1774 8.98812C13.1774 6.68064 11.3071 4.81006 9.00005 4.81006C6.693 4.81006 4.82275 6.68064 4.82275 8.98812C4.82275 11.2956 6.693 13.1662 9.00005 13.1662Z" stroke="black" stroke-width="0.861111" stroke-miterlimit="10"/>
<path d="M14.0723 4.81028C14.5666 4.81028 14.9673 4.40949 14.9673 3.91509C14.9673 3.42069 14.5666 3.0199 14.0723 3.0199C13.578 3.0199 13.1772 3.42069 13.1772 3.91509C13.1772 4.40949 13.578 4.81028 14.0723 4.81028Z" fill="black"/>
</g>
<defs>
<clipPath id="clip0_673_6658">
<rect width="18" height="18" fill="white"/>
</clipPath>
</defs>
</svg>
