<?xml version="1.0" encoding="UTF-8"?>
<svg id="Layer_1" data-name="Layer 1" xmlns="http://www.w3.org/2000/svg" version="1.1" viewBox="0 0 3820 3820">
  <circle cx="1910.155" cy="1910.155" r="1909.845" fill="#000" stroke-width="0"/>
  <path d="M2199.161,790.741s195.092,311.731,52.875,555.992c-153.584,263.783-509.578,552.109-625.707,914.432-122.819,383.195-22.907,654.833,222.542,681.558,227.071,24.724,322.034-215.381,203.268-728.022-130.95-565.231-389.074-1110.306-786.011-1608.682,143.1,634.421,52.319,984.131-135.798,1376.706-222.198,463.699-762.979,750.682-738.091,397.987,24.465-346.7,368.686-539.561,561.675-598.429,292.313-89.166,959.975-59.723,1270.197,73.117,310.222,132.84,543.95,333.144,514.547,606.589-29.403,273.445-287.567,593.982-516.908,415.875-229.341-178.108-112.437-884.366,269.925-827.512,168.977,39.705,220.459,201.136,220.459,201.136" fill="none" stroke="#fff" stroke-linecap="round" stroke-linejoin="round" stroke-width="165.859"/>
  <path d="M2851.279,1203.774s133.191-107.743,215.286,51.464c99.739,193.423-412.566,1174.72-311.703,1408.008,18.333,42.402,90.661,491.384,472.922,214.616" fill="none" stroke="#fff" stroke-linecap="round" stroke-linejoin="round" stroke-width="165.859"/>
</svg>