<?xml version="1.0" encoding="UTF-8"?>
<svg id="Layer_1" data-name="Layer 1" xmlns="http://www.w3.org/2000/svg" version="1.1" viewBox="0 0 3029.934 2503.802">
  <path d="M1890.887,267.499s195.092,311.731,52.875,555.992c-153.584,263.783-509.578,552.109-625.707,914.432-122.819,383.195-22.907,654.833,222.542,681.558,227.071,24.724,322.034-215.381,203.268-728.022-130.95-565.231-389.074-1110.306-786.011-1608.682,143.1,634.421,52.319,984.131-135.798,1376.706-222.198,463.699-762.979,750.682-738.091,397.987,24.465-346.7,368.686-539.561,561.675-598.429,292.313-89.166,959.975-59.723,1270.197,73.117,310.222,132.84,543.95,333.144,514.547,606.589-29.403,273.445-285.819,609.373-515.161,431.265-229.341-178.108-114.184-899.756,268.178-842.903,168.977,39.705,220.459,201.136,220.459,201.136" fill="none" stroke="#fff" stroke-linecap="round" stroke-linejoin="round" stroke-width="165.859"/>
  <path d="M2543.006,680.532s133.191-107.743,215.286,51.464c99.739,193.423-395.894,1168.199-311.703,1408.008,18.87,53.749,115.622,464.289,497.883,187.521" fill="none" stroke="#fff" stroke-linecap="round" stroke-linejoin="round" stroke-width="165.859"/>
</svg>