<?xml version="1.0" encoding="UTF-8"?>
<svg id="Layer_1" data-name="Layer 1" xmlns="http://www.w3.org/2000/svg" viewBox="0 0 3813.7 3821.76">
  <defs>
    <style>
      .cls-1 {
        fill: #000;
      }

      .cls-1, .cls-2 {
        stroke-width: 0px;
      }

      .cls-2 {
        fill: #fff;
      }
    </style>
  </defs>
  <rect class="cls-1" x="0" y="0" width="3813.7" height="3821.76" rx="1906.85" ry="1906.85"/>
  <path class="cls-2" d="M3416.42,2780.5c-35.11-39.37-95.49-42.82-134.86-7.71-43.35,38.67-109.96,81.89-181.06,68.27-57.08-10.94-109.52-58.97-147.66-135.24-34.23-68.46-28.98-220.6,14.41-417.43,39.35-178.49,100.69-356.09,141.26-453.93,64.44-155.41,111.78-294.09,140.69-412.16,21.41-87.41,32.57-163.93,33.19-227.43.39-39.65-3.32-75.7-11.02-107.14-9.66-39.43-25.91-73.24-48.3-100.5-60.28-73.39-128.1-91.32-174.38-93.44-52.69-2.43-99.63,14.18-135.93,33.8-45.24,24.45-61.45,81.37-36.07,126.09h0c22.5,39.63,70.73,56.99,113.13,40.28,48.42-19.08,72.03-2.05,85.64,14.53,4.25,5.18,40.04,56.68-11.8,268.37-26.61,108.65-70.89,237.99-131.61,384.44-22.47,54.19-50.86,131.09-78.85,219.02-33.75-54.34-76.54-105.53-128.08-153.05-79.45-73.25-178.72-138.17-303.46-198.47-83.77-40.49-186.56-78.57-297.94-110.73,17.72-18,36.36-36.86,55.98-56.71,34.1-34.5,72.74-73.6,113.87-115.61,89.81-91.71,144.71-201.24,163.18-325.54,14.32-96.34,6.42-200.65-23.46-310.03-24.91-91.18-61.01-170.56-91.1-227.46-26.84-50.75-92.05-66.52-139.13-33.67h0c-39.57,27.62-52.32,80.39-29.75,123.05,25.32,47.88,56.39,115.9,76.95,193.04,22.1,82.89,27.87,160.07,17.17,229.37-6.08,39.37-17.67,76.79-34.44,111.22-18.53,38.05-44.08,73.83-75.92,106.35-40.83,41.69-77.65,78.95-113.26,114.98-28.16,28.49-54.41,55.05-78.95,80.08-79.64-172.65-169.63-340.81-264.65-492.88-247.51-396.15-336.36-540.76-367.28-591.68-26.02-42.87-80.18-59.8-125.98-39.4-45.81,20.41-69.44,72-54.97,120.02,26.86,89.12,89.53,327.67,91.29,617.26.88,145.05-13.86,282.86-43.85,410.4-123.45,15.53-236.91,43.91-339.11,84.89-195.05,78.23-346.64,201.47-450.55,366.3-88.03,139.63-142.58,262.2-162.13,364.29-30.94,161.51,34.96,234.76,76.99,264.05,33,23,90.82,46.77,178.85,29.41,57.03-11.24,120.05-38.33,187.31-80.49,137.74-86.35,287.02-231.62,431.7-420.09,97.36-126.82,172.82-270.94,224.93-429.4,27.12-1.27,54.76-1.93,82.89-1.96.83,0,1.64,0,2.47,0,109.84,0,220.4,9.54,326.52,25.6-19.25,24.75-36.78,49.25-53.02,74.39-72.54,112.27-114.77,229.24-155.81,431.59-30.11,148.47-34.88,303.73-13.44,437.16,24.49,152.37,81.55,272.13,165.03,346.34,47.86,42.55,103.3,69.61,164.79,80.43,19.96,3.51,40.43,5.27,61.37,5.27,44.42,0,90.89-7.9,138.81-23.64,46.92-15.42,106.68-49.07,151.78-122.37,51.54,59.38,116.81,101.06,188.9,119.74,39.52,10.24,79.92,13.32,120.08,9.13,40.81-4.26,80.37-15.91,117.57-34.64,59.69-30.05,111.14-77.36,151.09-138.46,65.24,115.21,159.54,189.45,268.08,210.26,20.87,4,41.91,6,63.08,6,38.22,0,76.8-6.52,115.3-19.51,57.56-19.43,113.34-53.01,165.8-99.8,39.37-35.11,42.82-95.49,7.71-134.86ZM970.98,1922.91c-158.98,207.1-288.34,313.54-368.87,366.37-58.72,38.52-100.19,54.22-124.64,60.6-26.18,6.84-38.92,4.87-42.84,3.86-3.76-7.96-8.89-37.12,5.88-94.67,13.33-51.95,46.86-141.85,130.88-275.13,42.2-66.94,95.07-125.8,157.14-174.97,58.57-46.39,126.84-85.39,202.93-115.9,62.57-25.09,130.61-44.7,203.69-58.74-42.52,105.04-97.45,201.67-164.17,288.58ZM1432.73,1416.83c-.88,0-1.78,0-2.66,0-10.79.01-21.51.11-32.19.29,25.05-125.69,37.29-259.02,36.44-397.81-.39-63.86-3.51-125.46-8.49-183.9,33.28,53.39,70.57,113.14,112.39,180.08,82.64,132.26,161.3,277.23,232.17,426.58-115.3-16.64-229.43-25.25-337.67-25.25ZM2072.44,2727.9c-19.99,55.2-46.69,69.59-65.03,75.62-40.29,13.24-76.43,17.18-107.43,11.72-26.46-4.66-49.68-16.13-70.98-35.06-49.47-43.98-86.17-127.04-103.34-233.89-17.9-111.34-13.62-242.34,12.05-368.88,36.27-178.82,70.04-274.57,129.04-365.89,11.73-18.15,24.57-36.25,38.73-54.73,30.93,80.49,58.92,160.62,83.37,239.09,51.17,164.19,84.37,312.18,98.69,439.85,17.72,158.06,1.57,246.12-15.1,292.16ZM2203.54,2048.86c-9.9-35.86-20.68-72.48-32.31-109.81-23.71-76.08-50.59-153.63-80.15-231.6,96.14,28.73,180.7,61.07,247.46,93.34,38.39,18.56,74.03,37.61,106.96,57.18-100.3,26.96-183.23,92.16-241.95,190.89ZM2559.46,2786.24c-32.7,16.47-68.6,20.35-103.81,11.22-45.65-11.83-87.04-44.82-116.55-92.89-37.52-61.12-54.68-143.33-49.61-237.75,7.28-135.48,34.24-246.09,77.98-319.88,38.71-65.31,89.43-101.26,155.03-109.91,11.2-1.48,22.1-2.21,32.72-2.21,39.74,0,75.34,10.33,106.14,30.86,26.57,17.71,41.79,37.89,45.72,43.49,9.84,18.78,18.15,37.96,24.95,57.57,23.15,66.82,29.34,138.6,18.91,219.44-11.44,88.7-43.68,187.93-95.84,294.93-24.08,49.41-57.16,85.77-95.64,105.14Z"/>
</svg>