<?xml version="1.0" encoding="UTF-8"?>
<svg id="Layer_1" data-name="Layer 1" xmlns="http://www.w3.org/2000/svg" viewBox="0 0 2784.03 2381.92">
  <defs>
    <style>
      .cls-1 {
        fill: #fff;
        stroke-width: 0px;
      }
    </style>
  </defs>
  <path class="cls-1" d="M2712.24,2133.95c-29.41-32.97-79.98-35.86-112.95-6.46-36.31,32.39-92.1,68.59-151.65,57.18-47.81-9.17-91.73-49.39-123.67-113.27-28.67-57.34-24.27-184.77,12.07-349.62,32.96-149.5,84.33-298.25,118.31-380.2,53.97-130.17,93.62-246.32,117.84-345.21,17.93-73.21,27.28-137.3,27.8-190.49.32-33.21-2.78-63.4-9.23-89.74-8.09-33.02-21.7-61.34-40.45-84.17-50.49-61.46-107.29-76.49-146.06-78.26-44.13-2.03-83.44,11.88-113.85,28.31-37.89,20.48-51.47,68.15-30.21,105.61h0c18.84,33.19,59.24,47.73,94.75,33.74,40.55-15.98,60.33-1.71,71.73,12.17,3.56,4.33,33.54,47.47-9.88,224.78-22.29,91-59.37,199.33-110.23,321.99-18.82,45.39-42.6,109.8-66.04,183.45-28.27-45.52-64.11-88.39-107.28-128.19-66.55-61.35-149.69-115.73-254.17-166.23-70.17-33.91-156.26-65.81-249.54-92.74,14.84-15.08,30.45-30.87,46.88-47.49,28.56-28.9,60.93-61.65,95.38-96.83,75.22-76.82,121.21-168.55,136.68-272.66,11.99-80.69,5.38-168.06-19.65-259.67-20.86-76.37-51.1-142.86-76.3-190.51-22.48-42.51-77.1-55.72-116.53-28.2h0c-33.15,23.13-43.82,67.34-24.92,103.07,21.21,40.1,47.23,97.08,64.45,161.68,18.51,69.43,23.35,134.07,14.38,192.11-5.09,32.97-14.8,64.32-28.84,93.16-15.52,31.87-36.92,61.84-63.58,89.07-34.19,34.92-65.04,66.12-94.86,96.3-23.58,23.86-45.57,46.11-66.12,67.07-66.71-144.61-142.08-285.45-221.66-412.82-207.31-331.8-281.72-452.92-307.62-495.57-21.79-35.9-67.15-50.09-105.52-33-38.37,17.09-58.16,60.31-46.04,100.52,22.5,74.64,74.99,274.45,76.46,517,.74,121.49-11.6,236.91-36.72,343.73-103.39,13.01-198.43,36.77-284.03,71.1-163.37,65.52-290.33,168.74-377.37,306.8-73.73,116.95-119.42,219.61-135.8,305.11-25.91,135.28,29.28,196.63,64.48,221.16,27.64,19.26,76.07,39.17,149.8,24.63,47.77-9.42,100.55-32.1,156.88-67.42,115.36-72.33,240.4-194,361.58-351.85,81.55-106.22,144.74-226.93,188.39-359.65,22.71-1.06,45.86-1.61,69.42-1.64.7,0,1.37,0,2.07,0,92,0,184.6,7.99,273.48,21.44-16.12,20.73-30.8,41.25-44.4,62.31-60.76,94.03-96.12,192.01-130.5,361.49-25.22,124.36-29.22,254.39-11.25,366.15,20.51,127.62,68.31,227.92,138.22,290.08,40.09,35.64,86.52,58.3,138.02,67.37,16.72,2.94,33.87,4.41,51.4,4.41,37.2,0,76.12-6.62,116.26-19.8,39.3-12.91,89.35-41.1,127.13-102.5,43.17,49.73,97.83,84.64,158.22,100.29,33.1,8.58,66.94,11.15,100.58,7.64,34.18-3.56,67.31-13.33,98.47-29.01,49.99-25.17,93.08-64.79,126.55-115.97,54.64,96.5,133.62,158.68,224.54,176.11,17.48,3.35,35.11,5.02,52.83,5.02,32.01,0,64.33-5.46,96.57-16.34,48.21-16.28,94.93-44.4,138.87-83.59,32.97-29.41,35.86-79.98,6.46-112.95ZM664.02,1415.66c-133.16,173.46-241.51,262.61-308.95,306.86-49.18,32.26-83.91,45.41-104.39,50.76-21.93,5.73-32.6,4.08-35.88,3.24-3.15-6.67-7.44-31.09,4.93-79.29,11.17-43.51,39.25-118.81,109.62-230.44,35.34-56.06,79.62-105.37,131.61-146.55,49.06-38.86,106.24-71.52,169.96-97.08,52.41-21.02,109.39-37.44,170.61-49.2-35.61,87.98-81.62,168.92-137.5,241.71ZM1050.77,991.79c-.73,0-1.49,0-2.23,0-9.04.01-18.02.09-26.96.24,20.98-105.27,31.23-216.94,30.52-333.19-.33-53.49-2.94-105.08-7.11-154.03,27.87,44.71,59.11,94.77,94.14,150.83,69.21,110.78,135.1,232.2,194.46,357.29-96.57-13.94-192.17-21.15-282.82-21.15ZM1586.57,2089.89c-16.74,46.23-39.1,58.29-54.46,63.34-33.74,11.09-64.02,14.39-89.98,9.82-22.16-3.9-41.61-13.51-59.45-29.37-41.43-36.84-72.17-106.41-86.56-195.89-14.99-93.25-11.41-202.98,10.09-308.96,30.38-149.77,58.66-229.97,108.08-306.46,9.82-15.2,20.58-30.36,32.44-45.84,25.91,67.42,49.35,134.53,69.83,200.25,42.86,137.52,70.67,261.47,82.66,368.4,14.85,132.39,1.32,206.15-12.65,244.71ZM1696.37,1521.16c-8.3-30.04-17.32-60.71-27.06-91.98-19.86-63.72-42.37-128.67-67.13-193.98,80.52,24.07,151.34,51.15,207.27,78.18,32.16,15.54,62.01,31.5,89.58,47.9-84,22.58-153.46,77.19-202.65,159.88ZM1994.48,2138.76c-27.39,13.79-57.46,17.04-86.95,9.4-38.23-9.91-72.9-37.54-97.62-77.8-31.43-51.19-45.79-120.05-41.55-199.13,6.09-113.47,28.68-206.12,65.32-267.92,32.42-54.7,74.9-84.81,129.85-92.06,9.38-1.24,18.51-1.85,27.4-1.85,33.28,0,63.1,8.65,88.9,25.85,22.25,14.83,35,31.74,38.29,36.42,8.25,15.73,15.2,31.79,20.89,48.22,19.39,55.96,24.57,116.08,15.84,183.8-9.58,74.29-36.59,157.4-80.27,247.02-20.17,41.38-47.87,71.84-80.1,88.06Z"/>
</svg>