<svg width="23" height="18" viewBox="0 0 23 18" fill="none" xmlns="http://www.w3.org/2000/svg">
<path d="M22.6517 2.27999V15.72C22.6517 16.2292 22.4709 16.7176 22.1492 17.0776C21.8274 17.4377 21.3911 17.64 20.936 17.64H2.06425C1.60924 17.64 1.17287 17.4377 0.851126 17.0776C0.529385 16.7176 0.348633 16.2292 0.348633 15.72V2.27999M22.6517 2.27999C22.6517 1.77077 22.4709 1.28241 22.1492 0.92234C21.8274 0.56227 21.3911 0.359985 20.936 0.359985H2.06425C1.60924 0.359985 1.17287 0.56227 0.851126 0.92234C0.529385 1.28241 0.348633 1.77077 0.348633 2.27999M22.6517 2.27999L12.4763 10.1635C12.1895 10.3856 11.849 10.5046 11.5001 10.5046C11.1513 10.5046 10.8108 10.3856 10.524 10.1635L0.348633 2.27999" stroke="black" stroke-linecap="round" stroke-linejoin="round"/>
</svg>
