<svg width="33" height="25" viewBox="0 0 33 25" fill="none" xmlns="http://www.w3.org/2000/svg">
<g clip-path="url(#clip0_484_209787)">
<path d="M32.5 3.16667V21.8333C32.5 22.5406 32.2407 23.2189 31.779 23.719C31.3174 24.219 30.6913 24.5 30.0385 24.5H2.96154C2.3087 24.5 1.6826 24.219 1.22097 23.719C0.75934 23.2189 0.5 22.5406 0.5 21.8333V3.16667M32.5 3.16667C32.5 2.45942 32.2407 1.78115 31.779 1.28105C31.3174 0.780951 30.6913 0.5 30.0385 0.5H2.96154C2.3087 0.5 1.6826 0.780951 1.22097 1.28105C0.75934 1.78115 0.5 2.45942 0.5 3.16667M32.5 3.16667L17.9006 14.116C17.4891 14.4245 17.0005 14.5898 16.5 14.5898C15.9995 14.5898 15.5109 14.4245 15.0994 14.116L0.5 3.16667" stroke="white" stroke-linecap="round" stroke-linejoin="round"/>
</g>
<defs>
<clipPath id="clip0_484_209787">
<rect width="33" height="25" fill="white"/>
</clipPath>
</defs>
</svg>
