<?xml version="1.0" encoding="UTF-8"?>
<svg id="Layer_1" data-name="Layer 1" xmlns="http://www.w3.org/2000/svg" viewBox="0 0 544.54 150.96">
  <defs>
    <style>
      .cls-1 {
        fill: #fff;
        stroke-width: 0px;
      }
    </style>
  </defs>
  <path class="cls-1" d="M544.54,150.96V5.77s-24.62-4.34-37.94,11.59c-5.94,7.11-12.58,11.58-18.11,14.36-7.55,3.79-16.48,3.79-24.03,0-5.53-2.78-12.16-7.25-18.11-14.36-.37-.44-.75-.88-1.13-1.3-17.19-19.14-46.31-21.23-66.98-5.92-2.86,2.12-5.52,4.52-7.78,7.22-5.94,7.11-12.58,11.58-18.11,14.36-7.55,3.79-16.48,3.79-24.03,0-5.53-2.78-12.16-7.25-18.11-14.36-3.75-4.48-8.39-7.81-13.12-10.29-15.49-8.1-34.15-8.1-49.64,0-4.74,2.48-9.38,5.81-13.12,10.29-5.94,7.11-12.58,11.58-18.11,14.36-7.55,3.79-16.48,3.79-24.03,0-5.53-2.78-12.16-7.25-18.11-14.36-2.26-2.7-4.92-5.1-7.78-7.22-20.67-15.31-49.79-13.22-66.98,5.92-.38.43-.76.86-1.13,1.3-5.94,7.11-12.58,11.58-18.11,14.36-7.55,3.79-16.48,3.79-24.03,0-5.53-2.78-12.16-7.25-18.11-14.36C24.62,1.42,0,5.77,0,5.77v145.19"/>
</svg>