<svg width="1440" height="1427" viewBox="0 0 1440 1427" fill="none" xmlns="http://www.w3.org/2000/svg">
<path d="M-7.49983 304.501C-151 -97 384.5 -59 368 194.5C346.84 519.588 773 543.001 887.5 409.001C932.167 274.501 1078.3 17.1 1305.5 63.5C1532.7 109.9 1578.5 286.833 1573 369.5" stroke="#5C94CF" stroke-width="5" stroke-linecap="round" stroke-dasharray="30 30"/>
<path d="M-6 453.109C55.5 401.609 213.8 334.009 355 475.609C531.5 652.609 419 780.109 355 844.109C291 908.109 284 1175.11 460.5 1182.61C637 1190.11 697.5 1099.61 727.5 1054.61C757.5 1009.61 862.5 671.109 1035.5 784.109C1208.5 897.109 1069.5 979.609 1077 1081.11C1084.5 1182.61 1111.5 1280.61 1254 1310.61C1368 1334.61 1451.83 1267.94 1479.5 1231.61" stroke="#5C94CF" stroke-width="5" stroke-linecap="round" stroke-dasharray="30 30"/>
<path d="M1455 775.5C1385 634.334 1183.3 381.9 946.5 511.5C650.5 673.5 798.334 861.286 825.5 972.002C852 1080 934.5 1365.5 557 1419.5C179.5 1473.5 252 966.002 25.9999 1043C-154.8 1104.6 -118.5 1250.5 -98.5002 1297" stroke="#5C94CF" stroke-width="5" stroke-linecap="round" stroke-dasharray="30 30"/>
</svg>
