<?xml version="1.0" encoding="UTF-8"?>
<svg id="Layer_1" data-name="Layer 1" xmlns="http://www.w3.org/2000/svg" viewBox="0 0 30.7 30.7">
  <defs>
    <style>
      .cls-1 {
        fill: #fff;
        stroke-width: 0px;
      }
    </style>
  </defs>
  <path class="cls-1" d="M14.41,28.7c3.47-.81,6.07-2.59,7.71-5.29,2.14-3.55,2.5-8.64,1.01-14.35-.93-3.58-.37-5.58.25-6.62,4.32,2.78,7.32,7.63,7.32,12.91,0,8.46-6.89,15.35-15.35,15.35-2.7,0-5.27-.79-7.53-2.13,1.11.26,2.29.42,3.55.42.97,0,1.99-.09,3.04-.29Z"/>
  <path class="cls-1" d="M19.97,9.88c1.27,4.85,1.04,9.05-.65,11.83-1.16,1.93-3.06,3.21-5.58,3.79-6.76,1.3-11.53-3.29-12.5-4.32-.79-1.82-1.24-3.79-1.24-5.83C0,7.17,7.17,0,15.35,0c1.78,0,3.5.36,5.11.97-.96,1.74-1.62,4.55-.49,8.91Z"/>
</svg>