<?xml version="1.0" encoding="UTF-8"?>
<svg id="Layer_1" data-name="Layer 1" xmlns="http://www.w3.org/2000/svg" version="1.1" viewBox="0 0 901 620">
  <path d="M538.506,101.353c4.854.686,22.766-.926,22.766-.926,0,0-.012,4.225.566,6.668" fill="none" stroke="#5c94cf" stroke-miterlimit="10" stroke-width=".5"/>
  <path d="M561.297,108.477s-18.497-3.166-21.861-5.355" fill="none" stroke="#5c94cf" stroke-miterlimit="10" stroke-width=".5"/>
  <path d="M557.918,111.923s-12.959,2.13-15.871.778" fill="none" stroke="#5c94cf" stroke-miterlimit="10" stroke-width=".5"/>
  <path d="M595.007,101.341s7.146,5.519,16.478,5.505" fill="none" stroke="#5c94cf" stroke-miterlimit="10" stroke-width=".5"/>
  <path d="M593.201,112.391s11.965-3.16,17.682-4.547" fill="none" stroke="#5c94cf" stroke-miterlimit="10" stroke-width=".5"/>
  <path d="M614.103,99.521s-1.281,1.318-1.648,2.473c-.359,1.141-1.422,2.647-2.847,3.267" fill="#5c94cf" stroke-width="0"/>
  <path d="M425.399,247.974v-11.529l-1.092-.973v-23.304l1.092-.189v-.764l-7.714-5.656v-39.026l-2.193.187v-2.421h-.193v-7.026l-1.543.13v-19.101l-1.196.12-.28-.38v-1.589l-.079.014c-.045-4.564-2.446-8.374-5.664-9.389v-1.381c0-.947-.767-1.714-1.714-1.714h0c-.947,0-1.714.767-1.714,1.714v1.381c-3.249,1.025-5.665,4.898-5.665,9.52,0,.521.031,1.032.09,1.531l-.09.01-.92.016v2.001h-.662v17.024l-.838-.176v2.254l-.611-.237v7.434l-1.367-.349v2.667l-.696.044v26.3l-9.61-13.77v-1.459l-.345-.26v-1.854l-.255-.226v-1.167s.549-.294-.088-.883c-.638-.589-1.2-.422-1.2-.422v-.205s.383-.31.058-.652c-.325-.342-.268-.422-.138-.56.13-.138-.2-.665-.629-.497-.429.168-.414.191-.736-.262s-1.089-1.349-1.917-.077c.023,1.487-.061,2.285-.061,2.285h-1.136s-.294,1.373.421,2.062c.026.689.013.793.013.793l-.325-.026-.013.715-.481.221v1.312l-11.326,10.739-7.423,3.666-1.39-.745v-43.75l-2.242.437v-10.452l-2.056.086v-21.332h-.907c0-6.113-2.867-11.214-6.683-12.409v-1.59c0-.947-.767-1.714-1.714-1.714h0c-.947,0-1.714.767-1.714,1.714v1.59c-3.815,1.194-6.683,6.296-6.683,12.409,0,.051,0,.102.001.153h-.001s-1.268-.262-1.268-.262v21.615l-1.715-.603v10.526l-2.414-.268v16.896l-.049-.027c-.654-9.48-7.995-17.424-18.053-20.444l-.49-1.736h-.906l-.598-.743-.23-4.584c0-3.262-2.263-5.97-5.236-6.504v-1.804h-.45v-2.399h2.242c.297,0,.538-.241.538-.538s-.241-.538-.538-.538h-2.242v-1.672c0-.297-.241-.538-.538-.538s-.538.241-.538.538v1.672h-2.242c-.297,0-.538.241-.538.538s.241.538.538.538h2.242v4.124c-3.276.242-5.863,3.096-5.863,6.584,0,.067.003.134.005.201l-.494,4.183-.71-.137-.688,2.473c-11.184,2.847-19.339,11.694-19.339,22.168,0,.639.032,1.271.091,1.897h0s-.596,6.707-.596,6.707l-.388.777-.725.233v3.289l-.647.647-.932-.13v6.092l-1.642-.182v1.15l-1.785,1.029-1.513-.212v1.422l-.726.877-.938-.182v2.524h-.283v.265l.202.126-.013,1.844h-.732l-1.01-.581v1.187l-1.579.341-1.831-.783v1.2l-1.623-.12v2.454h-.211v.2l.199.133v15.524l-16.483-2.196-.641-1.601v-1.281l-.467-.441-2.028.764v1.513l-3.301,14.419s-11.89.818-14.747,12.102c-.63-.048-1.031,0-1.031,0l-1.267,5.822h-.275v2.112l-3.62-.484v2.326h-3.284v41.924l216.465,1.137v-42.068l-1.436-2.048Z" fill="#80bae5" stroke-width="0"/>
  <path d="M782.127,219.871l.06-15.239-3.387-.013s-1.862-.453-1.886-2.164l-.997-.009.014-3.141-.879-.002-.78-.66.02-7.778-1.021-.003.012-1.772s-2.605-1.458-2.816-2.849c-.244-.142-.451.003-.451.003l.012-2.509s-1.486-.642-.562-1.84c.924-1.199.929-3.834.929-3.834,0,0-.032-.857-.907-.795-.889.053.267-.948.267-.948l.339-.334.005-.815,1.167-1.159-.004-.309-1.914-.013-.673-1.231-.569-.005.003-.775-2.003-.003.002-1.124-7.082-.023-.84,1.125-.531-.002-1.308,1.997h-.839s-3.351,4.833-3.351,4.833v.594s2.773,1.556,2.773,1.556v.491l-1.833.444-.003,2.983,1.038,1.199v1.084s-.694.351-.694.351l-.678,4-1.081,1.537-12.643-.057.005-1.061h-.981v-1.575s-7.138-.034-7.138-.034l-1.12,1.78-74.882-.306.016-5.389-.657.005s1.832-1.528.748-3.244c-1.06-1.722-3.327-1.307-3.327-1.307l-.007-.863-3.126-.004-6.322-1.992s.402-1.074-.18-1.128c-.591-.038-2.157-2.015-2.157-2.015,0,0,1.383-.583,1.541-.818.157-.235-.735-1.615.47-1.648,1.221-.024,1.656-.629.486-1.883-1.169-1.255-1.747-2.717-3.061-2.604-1.297.122-1.06-1.232-.499-1.457.545-.234,1.099-1.567.245-2.557-.855-.989-2.947-.451-2.882.629.064,1.081.683,3.384-.559,3.375-1.242-.009-2.528-.432-3.406.896-1.224.206-2.585-.895-2.585-.895,0,0,.083-.422-.043-1.048-.126-.625-.161,1.011-.788.685-.628-.325-1.354-1.71-1.733-1.726-.379-.017-1.722-2.13-1.722-2.13l3.162-15.371-5.894-.025.019-4.834-5.095-.029.013-3.386-1.528-2.917-7.185-.021s-.19-4.405.417-4.745c.608-.341.477-3.341.477-3.341,0,0,2.241-3.068,4.099-2.924.159.604,1.006,1.22,1.512.002.506-1.217,2.138-1.737,2.138-1.737,0,0-.262,3.323-.051,3.732.211.41.056.851.056.851,0,0-1.984,1.051-1.146,2.664.837,1.613,2.573.602,2.582-.395.009-.997-.121-2.422.131-2.643.252-.221.392-1.162-.025-1.814s.516-3.583.173-4.152c-.343-.568-.853-1.131-2.044-.702-1.191.43-.205-2.941-.764-4.331-.56-1.389-1.055-2.292-1.049-3.494.007-1.203-.4-2.258-.721-3.775-.322-1.516-.03-2.962,1.598-3.3,1.62-.322,2.408-.026,2.554-.697.146-.671,1.247-.561.948-1.45-.289-.906-.411-1.467-1.906-1.849-1.495-.382-3.454-.318-3.572-1.062-.118-.744-1.29-2.204-2.971-.2-1.681,2.005-5.623,3.119-5.792,3.409-.169.289,2.464.578,3.74.178,1.276-.4-.68,1.096-.677,1.405.004.309-3.171.95-2.921,2.589.25,1.638.844-1.798,2.504-.788,1.66,1.01-.07,2.433-.07,2.433,0,0-.633-1.964-1.205-1.439-.572.525-.458,1.696-.458,1.696,0,0-1.352-1.362-1.993-.264s.487,2.145-.696,2.559c-1.182.414-.642,2.222.89,2.155,1.532-.067,2.46-.221,2.46-.221,0,0-2.013,4.326-4.403,4.812-2.381.472-4.007,2.242-4.08,3.488-1.092.119-1.651-.044-1.651-.044l.018-2.974s.497-.957.45-2.314c.388-1.225,1.043-.455.999-1.85-.045-1.396-.321-2.15.067-3.13.388-.98.04-1.715-.648-1.728s1.001-2.626-4.09-5.781c-.073-.819.003-1.02.003-1.02,0,0-.231-.83.474-1.093.706-.264.899-1.786.889-2.119-.01-.334.924-.708.392-1.408-.533-.699-1.987-2.202-2.626-2.718-.64-.516-.234-2.017-1.299-1.453-1.074.579-1.104,1.646-1.41,1.61-.307-.036-1.15-2.409-2.758-1.896-1.609.513-1.834,3.142-1.285,3.463.549.32-.22,1.814-.758,1.685-.553-.139-1.957-1.306-3.874-1.28-1.917.026-3.69-2.051-4.065-3.967-.375-1.916.59-3.254-2.279-4.294l.004-1.163s1.039-2.727-2.26-2.75c-2.081-.008-1.274,3.796-.46,3.943.822.132.303,1.302.303,1.302,0,0-1.482.648-1.858,1.573-1.199.793-2.469,1.218-2.469,1.218,0,0-2.46-1.006-2.628-1.349-.167-.343-.69-2.181-1.249-2.344-.104-1.083-.289-5.076.237-5.628.527-.552.198-6.611-.15-6.61s-5.787,5.047-6.009,6.022c-.221.975.184,4.871,1.206,5.713,1.022.842.396,5.874.396,5.874l-.694.208s-1.673-2.285-2.264-2.077c-.591.207-.366,1.504-.566,1.776-.208.287-1.855.656-2.039,1.182-.184.526-.182,1.223-.182,1.223,0,0-.634.631-.389,1.368.245.736.485,1.06.448,1.754s.346,1.019.904,1.079c.558.06.552.527.554.978.003.451-.606,1.67-.608,2.794-.001,1.124-1.833,1.67-1.911,4.221-.078,2.552-1.285,5.916-1.285,5.916,0,0-1.072,4.711-1.142,6.408-.943.145-1.856-.183-1.856-.183,0,0-1.528-3.304-3.037-3.346-1.508-.042-.49-1.227-2.609-2.116-2.128-.873,2.531-4.023.344-6.301-2.203-2.287-2.364-2.852-1.984-2.978.389-.141,2.409.568.94-.699-1.47-1.266-1.976-1.03-2.461-2.335-.486-1.306,3.61,2.433.793-1.255-2.816-3.688-2.342-5.272-4.325-5.202-1.065.074-.477,1.133-.885,1.201-.417.084-2.793.722-3.338.956-.537.218-1.382.195-1.602.783-.22.587-.612,1.749.404,2.075,1.031.336-.388,1.226.577,1.359.965.134,1.282-.13,1.282-.13l1.223,1.163s-.288,6.416-.382,7.138c-.094.722-1.517.567-1.823,5.786-2.327.38-2.153,1.729-1.853,2.476.315.757.165,3.327.165,3.327,0,0-.566.058-.124,1.052.458,1.003-.073,1.492-.098,1.886-.025.394-.174,2.086,1.14,2.076,1.323-.026,2.044-1.506,1.348-2.485-.681-.97-1.115-1.489-.934-1.834.18-.344.098-.658-.115-.925-.197-.258.044-1.897.044-1.897,0,0,.652,1.546,1.773,1.587,1.121.041,2.382-.123,2.805,1.535.423,1.657,2.342,1.979,2.342,1.979,0,0-.217,2.614.47,3.505.686.891.213,4.541.213,4.541l-8.521-.044-1.145,2.521-.015,3.672-5.483-.03-.01,4.677-5.958-.022,2.614,16.125s-2.675,5.391-3.865,6.168c-1.19.778-.728-2.326-1.359.332-.631,2.658-2.149,2.141-2.149,2.141,0,0-1.115-3.8-2.754-3.795-1.639.004-3.388-.362-2.255-1.357,1.142-1.011.981-3.047.981-3.047,0,0-.556-1.817-2.708-.231-2.144,1.571-.354,2.534-.354,2.534,0,0,.386,1.861-2.375,2.704-2.761.842-2.323,3.49-2.323,3.49,0,0-1.575-1.471-2.481-.794-.906.678-.008,1.345.733,1.757.741.412-.061,1.191.728,1.591.79.399,1.694.742,1.694.742l-.523,2.824-6.773-.027-.012,1.527s-5.189-.533-3.243,3.771l-.029,7.058-75.366-1.263-1.103-1.789-7.137-.034v1.575s-.98,0-.98,0l-.005,1.06-12.644-.058-1.064-1.54-.651-4-.698-.346v-1.084s1.057-1.182,1.057-1.182l.003-2.984-1.814-.465v-.491l2.774-1.53v-.594s-3.32-4.86-3.32-4.86h-.839s-1.287-1.997-1.287-1.997l-.531-.003-.837-1.122-7.082-.023v1.124s-2.004-.003-2.004-.003l-.002.776-.57-.006-.672,1.223-1.915-.013.004.309,1.159,1.167-.005.815.334.338s1.145,1.016.248.942c-.882-.065-.929.787-.929.787,0,0-.02,2.626.907,3.842.911,1.206-.578,1.83-.578,1.83l-.011,2.508s-.199-.115-.452.003c-.231,1.378-2.849,2.815-2.849,2.815l-.011,1.772-1.021-.002-.02,7.778-.795.661h-.878s-.013,3.14-.013,3.14l-.997-.009c-.04,1.715-1.903,2.14-1.903,2.14l-3.387-.013-.059,15.239-15.136-.06.009.23.499.23.005.657,3.667,3.387-.009,1.488,9.718,9.555-.043,10.832-2.239-.018-.003.918,1.46,1.527-.004,2.39.921.803-.004,2.39-2.317.222-.05.401s.598.553,1.466,1.448c-1.673,1.15-1.521,2.711-1.059,4.862.478,2.16,3.755,1.169,3.755,1.169l.037,2.004.592,1.123-1.811,104.408c-.811.304-.6,1.449-.6,1.449l-.004,1.408-1.331.635-.002,1.123-2.017-.011-.005,2.532-2.184-.007-.006,1.551,1.494,2.487-.066,17.178-1.812.721.003.452.512.524-.916,1.674h-1.226s-.015,3.774-.015,3.774l-.672-.004-.029,6.321-4.304-.017-.067,16.339,71.78.296.46-116.074c.074-19.259,16.891-34.8,37.534-34.716,20.643.084,37.343,15.758,37.254,35.008l-.461,116.074,37.458.142.46-116.074c.074-19.259,16.891-34.8,37.534-34.716,20.644.084,37.343,15.758,37.254,35.008l-.46,116.074,37.457.142.46-116.074c.074-19.259,16.891-34.8,37.535-34.715,20.643.084,37.342,15.757,37.253,35.007l-.46,116.074,73.109.294.067-16.338-4.304-.017.029-6.322-.673-.004.015-3.774h-1.227l-.896-1.689.524-.512-.003-.451-1.796-.742.066-17.177,1.506-2.475.005-1.551-2.184-.007.005-2.532-2.017-.012v-1.124s-1.318-.647-1.318-.647l.004-1.408s.216-1.142-.587-1.447l-.982-104.422.61-1.116.043-2s3.274,1.011,3.754-1.142c.479-2.154.651-3.709-1.023-4.87.88-.877,1.485-1.424,1.485-1.424l-.038-.39-2.311-.244.004-2.39.914-.796.004-2.39,1.475-1.511.004-.918-2.239-.018.044-10.832,9.801-9.473.009-1.487,3.691-3.347-.005-.657.497-.221-.009-.23-15.137-.061ZM545.666,137.55l-1.915-.013s-.088-.235-.363-.744c-.485-.957.931-4.364,1.931-3.31,1.009,1.039.331,4.058.331,4.058l.016.009ZM555.107,135.841c.748.436.394,1.743.394,1.743l-7.121-.025s-.375-3.143.018-3.956c.393-.814.798-4.38.798-4.38,0,0,1.614,1.228,2.359.967.745-.26,1.565.402,3.569,1.102,2.005.699-.755,4.098-.017,4.549ZM564.501,116.623c-.269.006-.093-3.939-.093-3.939,0,0,1.01.896,1.631,1.094.62.199-1.268,2.839-1.538,2.845ZM566.213,112.674c-.286-.106.001-1.615-.285-2.456-.294-.827-.341-2.428-.341-2.428.605-.056.375-.047,1.545,1.31,1.156,1.349-.618,3.688-.919,3.574ZM569.582,98.385c-1.94.381-2.239,1.945-2.536,2.385-.298.44-1.216.436-1.221,1.251-.005.814-1.103,2.136-1.103,2.136,0,0,.043-2.878.1-3.642.067-.779-.345-1.02-.098-2.389.246-1.369.006-3.165.006-3.165,0,0,1.494,2.977,3.223,2.923,1.719-.039,3.578.105,1.638.486l-.009.015ZM582.241,106.405c-.19,1.341-.458,6.848-1.132,7.722-.674.875-.873,1.25-1.015,1.739-.142.49-1.012.718-1.012.718l-2.314-.205s.395-3.409.024-4.035c-.386-.634-.415-6.437.038-6.827.428-.384.025-7.121.025-7.121,0,0,1.094,3.031,2.863,3.573-.239,1.251-.872,1.249-1.255,2.151-.391.916.811.677,1.247.911.427.25.715,1.194,2.308-1.291l.917.004s-.487,1.29-.685,2.647l-.009.015ZM588.457,110.154c-.509-.214-1.123-1.125-.862-2.343.261-1.217,1.12-1.043,1.12-1.043,0,0,.241,3.617-.267,3.402l.009-.016ZM591.78,126.57c1.182.076,1.45-2.835,2.024-2.663.575.172,1.463.016,1.463.016,0,0,.084,3.851-1.012,3.416-1.071-.441-.322-.044-1.597.214-1.266.242-.902-.977-.902-.977l.024-.006ZM598.693,137.78l-7.191-.045s-.003-.451.015-2.199c1.254-1.763.392-2.879.151-3.552-.227-.664-.184-2.418.241-2.026.426.391,2.672.291,3.529.26.521-.719,1.158-1.144,2.241-1.003,2.086,2.628,1.014,8.565,1.014,8.565ZM602.452,137.786l-1.424-.013s.19-1.832.569-4.759c2.691,1.1.855,4.772.855,4.772ZM607.262,137.076s-.212.469-.252.712c-.484.024-2.326-.008-2.326-.008,0,0,1.647-4.785,2.595-5.744l-.017,5.04ZM606.626,114.479c.316-.367,1.378-.75,1.378-.75-.097,1.252-1.68,1.126-1.378.75ZM631.081,173.241l-2.162-1.936s1.644.407,2.566.332c.789.542.922,1.294.922,1.294l-1.326.31Z" fill="#5c94cf" stroke-width="0"/>
  <path d="M140.466,267.926c-.125-3.648-.465-20.719-.465-20.719l-1.787-2.335,3.019-2.62-.037-4.458s-.666-3.825,2.638-3.857c1.864-4.095,3.883-6.598,3.883-6.598l-.03-3.582,2.29-.019-.059-6.932s-9.313-5.49-.089-11.254c.229-2.85-.158-3.084,1.493-4.101.099-3.217,1.253-16.594,1.205-22.404.048,5.81,1.43,19.163,1.579,22.389,1.65.971,1.272,1.227,1.552,4.079,9.301,5.616.089,11.253.089,11.253l.059,6.932,2.29-.019.03,3.582s2.054,2.463,3.987,6.531c3.304-.032,2.697,3.814,2.697,3.814l.037,4.458,3.069,2.574-1.761,2.372s-.043,9.286.107,12.743c1.647.108,1.423,3.944,1.423,3.944l.052,6.564,5.777,8.08,1.595,148.015-54.02-.095-1.141-117.87s-.48.161-2.448-1.247c-1.954-1.412,4.006-6.369,4.006-6.369l.145-11.872-1.706.016,1.799-7.066,9.692-.052,9.02-13.858" fill="#80bae5" stroke-width="0"/>
  <path d="M275.456,240.449l-31.721-.02.017-19.628s3.848-2.062.474-4.835c-3.376-2.787-.324-7.078-3.684-9.93-3.376-2.849-1.488-5.823-1.428-6.767.061-.944-1.921-1.409-1.478-3.492.428-2.079,1.622-3.875-.871-3.843-2.481-.048-1.306,1.775-.868,3.841.427,2.084-1.542,2.545-1.48,3.492.062.946,1.941,3.921-1.426,6.758-3.367,2.837-.331,7.15-3.696,9.926-3.366,2.776.474,4.848.474,4.848l-.018,19.629-30.563-.024h-.808l-.029.007s-2.528,4.385-6.148,10.207l-3.799-.007-3.558,4.817.002,1.356,1.266.003v3.232c-5.317,7.885-11.206,15.67-15.181,18.112l-.041,65.058-16.057-10.159-45.004-.028-45.005-.028-16.566,10.466-.047,82.717,34.878.022.016-33.962s-1.294-17.746,26.687-17.746c27.987.028,26.673,17.77,26.673,17.77l-.016,33.962,34.377.028,192.996.127.081-118.147-13.463-18.082-24.433-14.482-5.414-.007.013-11.912s.585-4.28-3.344-4.457c-3.913-.18-4.768.761-6.168,2.253-1.4,1.491-2.905,2.854-1.14,5.931.132,3.339.119,10.143.119,10.143l-8.496-9.159-3.171.002-6.461-8.05.008-3.463,1.266.003-.003-1.357-3.548-4.822-5.202-.01-8.107-10.269-.073.016-.811-.014-.021-.026Z" fill="#5c94cf" stroke-width="0"/>
  <path d="M371.501,251.117l.009-5.726,1.25-.869-1.248-.008s-1.743-2.746-1.05-8.783c.256-1.56,1.175-.999-.155-2.302-1.329-1.313-.218-1.12.003-1.619.222-.5.596-2.114-.955-1.06-.752.555,0,1.434-.498,1.615-.499.191-1.187.431-1.252,2.923-.066,2.492-.51,5.793-.324,7.23l-.685,1.622-7.139-.008-2.033-2.86s-.064-4.699.352-5.04c.407-.342,2.178-1.02.752-2.99-.265-1.773.278-1.569-.75-1.766-1.017-.208-.674-1.958-2.377-1.09-.685.333,1.084,1.564.333,1.964-.752.41-1.226.407-1.36,1.697-.134,1.291-.55,1.911-.55,1.911l-1.966-2.659-4.089.057.005-3.229-1.093-.007-1.404.002.005-4.797-5.602-.011-.007,5.117-1.475-.003-4.395-3.731.019-9.873,2.486-1.43v-.877s-1.393-.843-1.393-.843l-.002-1.837-1.073-2.719-1.042-.002s-.967-6.931-10.287-13.627l.006-1.083s-1.091.252-1.518-.419c-.426-.67,2.475-.699.24-2.046-2.235-1.337-3.491-1.376-3.491-1.376l.003-.619.205.015-.002-.681h-.702s.138-1.062-.425-1.412c-.036-.498.001-.732.001-.732,0,0,.679-1.829-.522-2.205-.064-1.263-.239-4.711-.159-5.387.101-.838,2.012,3.003,2.011,3.302,0,.299-.006,1.527.538.988.544-.538-1.982-4.28-1.825-5.754.158-1.475-.225-2.317.803-2.264,1.028.053,1.977-1.24.946-3.254-1.032-2.014.235-2.418-2.361-1.893-2.597.525-3.172,1.784-4.205,2.081-1.032.297.604,2.086.853,2.641.249.554,2.157.413,2.157.413,0,0,.198.984-.007,1.97-.177.874.598,6.172.765,7.288-.813.55-.252,2.076-.252,2.076,0,0,.035.229-.002.732-.561.352-.431,1.414-.431,1.414h-.702s.004.662.004.662l.205.014v.599s-1.263.033-3.505,1.367c-2.242,1.335.665,1.379.235,2.04-.43.67-1.526.416-1.526.416l-.005,1.083c-9.342,6.664-10.336,13.588-10.336,13.588l-1.042-.003-1.083,2.718.003,1.837-1.402.838v.877s2.474,1.447,2.474,1.447l-.032,16.661s-.117-1.391-.869-1.549c-.763-.158.023-.896.002-1.176-.031-.291-.184-1.602-1.208-1.283-1.023.308-.711,1.279-.397,1.498.315.219.416.68.236.739-.179.049-1.377-.078-1.652,1.016-.216.862-.292.764-.292.764l-8.944-.014s-.206-1.584-1.476-2.005c-.283-.65-.21-.521-.097-.802.113-.28.254-1.24-.57-1.114-.824.127-1.013.454-.705,1.343.307.888-.882.927-1.03,1.411-.149.485-.177,1.164-.177,1.164l-2.486-.004.006-1.227h-1.011s-.006,1.227-.006,1.227l-.815.003.008-1.268-1.196-.004-.009,1.269-4.238,1.253s-.045-2.82-1.811-3.081c-.196-.716-.077-.646.001-.867.077-.211.237-1.293-.965-1.07-1.203.223.027,1.487-.339,1.843-.377.354-1.421.094-1.548,1.725-.118,1.632.258,1.711.873,1.776.614.064-.471,3.959.022,7.151-.65-.005-.928-.005-.928-.005l-.007,1.382,1.261.834-.306,181.826,103.442.177.294-171.911,2.496-3.277-2.487-.004.004-.051ZM315.654,172.761c-.664.056-.976,1.096-.45,1.381.527.286.416.814.416.814,0,0-.616.245-.894.246-.279,0-1.035-.095-1.805-.729-.77-.633-.367-1.78.672-2.025s1.548-.725,2.642-1.296c1.093-.571,1.543.483,1.667.77.123.298.062,1.439.457,1.684.395.245.304,1.219-.238,1.293-.541.075-1.648-.17-1.648-.17,0,0-.078-.212.059-.832.138-.619-.212-1.212-.877-1.146v.01Z" fill="#5c94cf" stroke-width="0"/>
</svg>