<svg width="901" height="620" viewBox="0 0 901 620" fill="none" xmlns="http://www.w3.org/2000/svg">
<path d="M538.506 101.353C543.36 102.039 561.272 100.427 561.272 100.427C561.272 100.427 561.26 104.652 561.838 107.095" stroke="#5C94CF" stroke-width="0.5" stroke-miterlimit="10"/>
<path d="M561.297 108.477C561.297 108.477 542.8 105.311 539.436 103.122" stroke="#5C94CF" stroke-width="0.5" stroke-miterlimit="10"/>
<path d="M557.918 111.923C557.918 111.923 544.959 114.053 542.047 112.701" stroke="#5C94CF" stroke-width="0.5" stroke-miterlimit="10"/>
<path d="M595.007 101.341C595.007 101.341 602.153 106.86 611.485 106.846" stroke="#5C94CF" stroke-width="0.5" stroke-miterlimit="10"/>
<path d="M593.201 112.391C593.201 112.391 605.166 109.231 610.883 107.844" stroke="#5C94CF" stroke-width="0.5" stroke-miterlimit="10"/>
<path d="M614.103 99.5208C614.103 99.5208 612.822 100.839 612.455 101.994C612.096 103.135 611.033 104.641 609.608 105.261" fill="#5C94CF"/>
<path d="M783.1 219.11L783.16 203.871L779.773 203.858C779.773 203.858 777.911 203.405 777.887 201.694L776.89 201.685L776.904 198.544L776.025 198.542L775.245 197.882L775.265 190.104L774.244 190.101L774.256 188.329C774.256 188.329 771.651 186.871 771.44 185.48C771.196 185.338 770.989 185.483 770.989 185.483L771.001 182.974C771.001 182.974 769.515 182.332 770.439 181.134C771.363 179.935 771.368 177.3 771.368 177.3C771.368 177.3 771.336 176.443 770.461 176.505C769.572 176.558 770.728 175.557 770.728 175.557L771.067 175.223L771.072 174.408L772.239 173.249L772.235 172.94L770.321 172.927L769.648 171.696L769.079 171.691L769.082 170.916L767.079 170.913L767.081 169.789L759.999 169.766L759.159 170.891L758.628 170.889L757.32 172.886L756.481 172.887L753.13 177.719L753.131 178.313L755.903 179.869L755.903 180.36L754.07 180.804L754.067 183.787L755.105 184.986L755.106 186.07L754.411 186.421L753.733 190.421L752.652 191.958L740.009 191.901L740.014 190.84L739.033 190.84L739.032 189.265L731.895 189.231L730.775 191.011L655.893 190.705L655.909 185.316L655.252 185.321C655.252 185.321 657.084 183.793 656 182.077C654.94 180.355 652.673 180.77 652.673 180.77L652.666 179.907L649.54 179.903L643.218 177.911C643.218 177.911 643.62 176.837 643.038 176.783C642.447 176.745 640.881 174.768 640.881 174.768C640.881 174.768 642.264 174.185 642.422 173.95C642.579 173.715 641.687 172.335 642.892 172.302C644.113 172.278 644.548 171.673 643.378 170.419C642.209 169.164 641.631 167.702 640.317 167.815C639.02 167.937 639.257 166.583 639.818 166.358C640.363 166.124 640.917 164.791 640.063 163.801C639.208 162.812 637.116 163.35 637.181 164.43C637.245 165.511 637.864 167.814 636.622 167.805C635.38 167.796 634.094 167.373 633.216 168.701C631.992 168.907 630.631 167.806 630.631 167.806C630.631 167.806 630.714 167.384 630.588 166.758C630.462 166.133 630.427 167.769 629.8 167.443C629.172 167.118 628.446 165.733 628.067 165.717C627.688 165.7 626.345 163.587 626.345 163.587L629.507 148.216L623.613 148.191L623.632 143.357L618.537 143.328L618.55 139.942L617.022 137.025L609.837 137.004C609.837 137.004 609.647 132.599 610.254 132.259C610.862 131.918 610.731 128.918 610.731 128.918C610.731 128.918 612.972 125.85 614.83 125.994C614.989 126.598 615.836 127.214 616.342 125.996C616.848 124.779 618.48 124.259 618.48 124.259C618.48 124.259 618.218 127.582 618.429 127.991C618.64 128.401 618.485 128.842 618.485 128.842C618.485 128.842 616.501 129.893 617.339 131.506C618.176 133.119 619.912 132.108 619.921 131.111C619.93 130.114 619.8 128.689 620.052 128.468C620.304 128.247 620.444 127.306 620.027 126.654C619.61 126.002 620.543 123.071 620.2 122.502C619.857 121.934 619.347 121.371 618.156 121.8C616.965 122.23 617.951 118.859 617.392 117.469C616.832 116.08 616.337 115.177 616.343 113.975C616.35 112.772 615.943 111.717 615.622 110.2C615.3 108.684 615.592 107.238 617.22 106.9C618.84 106.578 619.628 106.874 619.774 106.203C619.92 105.532 621.021 105.642 620.722 104.753C620.433 103.847 620.311 103.286 618.816 102.904C617.321 102.522 615.362 102.586 615.244 101.842C615.126 101.098 613.954 99.6376 612.273 101.642C610.592 103.647 606.65 104.761 606.481 105.051C606.312 105.34 608.945 105.629 610.221 105.229C611.497 104.829 609.541 106.325 609.544 106.634C609.548 106.943 606.373 107.584 606.623 109.223C606.873 110.861 607.467 107.425 609.127 108.435C610.787 109.445 609.057 110.868 609.057 110.868C609.057 110.868 608.424 108.904 607.852 109.429C607.28 109.954 607.394 111.125 607.394 111.125C607.394 111.125 606.042 109.763 605.401 110.861C604.76 111.959 605.888 113.006 604.705 113.42C603.523 113.834 604.063 115.642 605.595 115.575C607.127 115.508 608.055 115.354 608.055 115.354C608.055 115.354 606.042 119.68 603.652 120.166C601.271 120.638 599.645 122.408 599.572 123.654C598.48 123.773 597.921 123.61 597.921 123.61L597.939 120.636C597.939 120.636 598.436 119.679 598.389 118.322C598.777 117.097 599.432 117.867 599.388 116.472C599.343 115.076 599.067 114.322 599.455 113.342C599.843 112.362 599.495 111.627 598.807 111.614C598.119 111.601 599.808 108.988 594.717 105.833C594.644 105.014 594.72 104.813 594.72 104.813C594.72 104.813 594.489 103.983 595.194 103.72C595.9 103.456 596.093 101.934 596.083 101.601C596.073 101.267 597.007 100.893 596.475 100.193C595.942 99.4941 594.488 97.9914 593.849 97.4752C593.209 96.959 593.615 95.4577 592.55 96.022C591.476 96.6015 591.446 97.6681 591.14 97.6324C590.833 97.5968 589.99 95.2233 588.382 95.7367C586.773 96.2501 586.548 98.8789 587.097 99.1993C587.646 99.5197 586.877 101.013 586.339 100.884C585.786 100.745 584.382 99.5778 582.465 99.6042C580.548 99.6307 578.775 97.5533 578.4 95.6375C578.025 93.7218 578.99 92.3833 576.121 91.3431L576.125 90.1799C576.125 90.1799 577.164 87.4533 573.865 87.43C571.784 87.4221 572.591 91.2257 573.405 91.3732C574.227 91.5055 573.708 92.675 573.708 92.675C573.708 92.675 572.226 93.3231 571.85 94.2485C570.651 95.0416 569.381 95.466 569.381 95.466C569.381 95.466 566.921 94.4602 566.753 94.1169C566.586 93.7737 566.063 91.9354 565.504 91.7726C565.4 90.6895 565.215 86.6966 565.741 86.145C566.268 85.5934 565.939 79.5335 565.591 79.5347C565.243 79.5359 559.804 84.5819 559.582 85.5569C559.361 86.5319 559.766 90.4282 560.788 91.2699C561.81 92.1115 561.184 97.1442 561.184 97.1442L560.49 97.3526C560.49 97.3526 558.817 95.068 558.226 95.2751C557.635 95.4823 557.86 96.7789 557.66 97.0509C557.452 97.3382 555.805 97.7066 555.621 98.2329C555.437 98.7591 555.439 99.4558 555.439 99.4558C555.439 99.4558 554.805 100.087 555.05 100.824C555.295 101.56 555.535 101.884 555.498 102.578C555.461 103.272 555.844 103.597 556.402 103.657C556.96 103.717 556.954 104.184 556.956 104.635C556.959 105.086 556.35 106.305 556.348 107.429C556.347 108.553 554.515 109.099 554.437 111.65C554.359 114.202 553.152 117.566 553.152 117.566C553.152 117.566 552.08 122.277 552.01 123.974C551.067 124.119 550.154 123.791 550.154 123.791C550.154 123.791 548.626 120.487 547.117 120.445C545.609 120.403 546.627 119.218 544.508 118.329C542.38 117.456 547.039 114.306 544.852 112.028C542.649 109.741 542.488 109.176 542.868 109.05C543.257 108.909 545.277 109.618 543.808 108.351C542.338 107.085 541.832 107.321 541.347 106.016C540.861 104.71 544.957 108.449 542.14 104.761C539.324 101.073 539.798 99.4893 537.815 99.559C536.75 99.6326 537.338 100.692 536.93 100.76C536.513 100.844 534.137 101.482 533.592 101.716C533.055 101.934 532.21 101.911 531.99 102.499C531.77 103.086 531.378 104.248 532.394 104.574C533.425 104.91 532.006 105.8 532.971 105.933C533.936 106.067 534.253 105.803 534.253 105.803L535.476 106.966C535.476 106.966 535.188 113.382 535.094 114.104C535 114.826 533.577 114.671 533.271 119.89C530.944 120.27 531.118 121.619 531.418 122.366C531.733 123.123 531.583 125.693 531.583 125.693C531.583 125.693 531.017 125.751 531.459 126.745C531.917 127.748 531.386 128.237 531.361 128.631C531.336 129.025 531.187 130.717 532.501 130.707C533.824 130.681 534.545 129.201 533.849 128.222C533.168 127.252 532.734 126.733 532.915 126.388C533.095 126.044 533.013 125.73 532.8 125.463C532.603 125.205 532.844 123.566 532.844 123.566C532.844 123.566 533.496 125.112 534.617 125.153C535.738 125.194 536.999 125.03 537.422 126.688C537.845 128.345 539.764 128.667 539.764 128.667C539.764 128.667 539.547 131.281 540.234 132.172C540.92 133.063 540.447 136.713 540.447 136.713L531.926 136.669L530.781 139.19L530.766 142.862L525.283 142.832L525.273 147.509L519.315 147.487L521.929 163.612C521.929 163.612 519.254 169.003 518.064 169.78C516.874 170.558 517.336 167.454 516.705 170.112C516.074 172.77 514.556 172.253 514.556 172.253C514.556 172.253 513.441 168.453 511.802 168.458C510.163 168.462 508.414 168.096 509.547 167.101C510.689 166.09 510.528 164.054 510.528 164.054C510.528 164.054 509.972 162.237 507.82 163.823C505.676 165.394 507.466 166.357 507.466 166.357C507.466 166.357 507.852 168.218 505.091 169.061C502.33 169.903 502.768 172.551 502.768 172.551C502.768 172.551 501.193 171.08 500.287 171.757C499.381 172.435 500.279 173.102 501.02 173.514C501.761 173.926 500.959 174.705 501.748 175.105C502.538 175.504 503.442 175.847 503.442 175.847L502.919 178.671L496.146 178.644L496.134 180.171C496.134 180.171 490.945 179.638 492.891 183.942L492.862 191L417.496 189.737L416.393 187.948L409.256 187.914L409.257 189.489L408.276 189.489L408.271 190.549L395.627 190.491L394.563 188.951L393.912 184.951L393.214 184.605L393.213 183.521L394.271 182.339L394.274 179.355L392.46 178.89L392.46 178.399L395.234 176.869L395.233 176.275L391.914 171.415L391.075 171.416L389.788 169.418L389.257 169.415L388.42 168.293L381.338 168.27L381.337 169.394L379.334 169.391L379.332 170.167L378.762 170.161L378.09 171.384L376.175 171.371L376.179 171.68L377.338 172.847L377.333 173.662L377.667 174C377.667 174 378.812 175.016 377.915 174.942C377.033 174.877 376.986 175.729 376.986 175.729C376.986 175.729 376.966 178.355 377.893 179.571C378.804 180.777 377.315 181.401 377.315 181.401L377.304 183.909C377.304 183.909 377.105 183.794 376.852 183.912C376.621 185.29 374.003 186.727 374.003 186.727L373.992 188.499L372.971 188.497L372.951 196.275L372.156 196.936L371.278 196.935L371.265 200.076L370.268 200.067C370.228 201.782 368.365 202.207 368.365 202.207L364.978 202.194L364.919 217.433L349.783 217.373L349.792 217.603L350.291 217.833L350.296 218.49L353.963 221.877L353.954 223.365L363.672 232.92L363.629 243.752L361.39 243.734L361.387 244.652L362.847 246.179L362.843 248.569L363.764 249.372L363.76 251.762L361.443 251.984L361.393 252.385C361.393 252.385 361.991 252.938 362.859 253.833C361.186 254.983 361.338 256.544 361.8 258.695C362.278 260.855 365.555 259.864 365.555 259.864L365.592 261.868L366.184 262.991L364.373 367.399C363.562 367.703 363.773 368.848 363.773 368.848L363.769 370.256L362.438 370.891L362.436 372.014L360.419 372.003L360.414 374.535L358.23 374.528L358.224 376.079L359.718 378.566L359.652 395.744L357.84 396.465L357.843 396.917L358.355 397.441L357.439 399.115L356.213 399.114L356.198 402.889L355.526 402.885L355.497 409.206L351.193 409.189L351.126 425.528L422.906 425.824L423.366 309.75C423.44 290.491 440.257 274.95 460.9 275.034C481.543 275.118 498.243 290.792 498.154 310.042L497.693 426.116L535.151 426.258L535.611 310.184C535.685 290.925 552.502 275.384 573.145 275.468C593.789 275.552 610.488 291.226 610.399 310.476L609.939 426.55L647.396 426.692L647.856 310.618C647.93 291.359 664.747 275.818 685.391 275.903C706.034 275.987 722.733 291.66 722.644 310.91L722.184 426.984L795.293 427.278L795.36 410.94L791.056 410.923L791.085 404.601L790.412 404.597L790.427 400.823L789.2 400.823L788.304 399.134L788.828 398.622L788.825 398.171L787.029 397.429L787.095 380.252L788.601 377.777L788.606 376.226L786.422 376.219L786.427 373.687L784.41 373.675L784.411 372.551L783.092 371.904L783.096 370.496C783.096 370.496 783.312 369.354 782.509 369.049L781.527 264.627L782.137 263.511L782.18 261.511C782.18 261.511 785.454 262.522 785.934 260.369C786.413 258.215 786.585 256.66 784.911 255.499C785.791 254.622 786.396 254.075 786.396 254.075L786.358 253.685L784.047 253.441L784.051 251.051L784.965 250.255L784.969 247.865L786.444 246.354L786.448 245.436L784.209 245.418L784.253 234.586L794.054 225.113L794.063 223.626L797.754 220.279L797.749 219.622L798.246 219.401L798.237 219.171L783.1 219.11ZM546.639 136.789L544.724 136.776C544.724 136.776 544.636 136.541 544.361 136.032C543.876 135.075 545.292 131.668 546.292 132.722C547.301 133.761 546.623 136.78 546.623 136.78L546.639 136.789ZM556.08 135.08C556.828 135.516 556.474 136.823 556.474 136.823L549.353 136.798C549.353 136.798 548.978 133.655 549.371 132.842C549.764 132.028 550.169 128.462 550.169 128.462C550.169 128.462 551.783 129.69 552.528 129.429C553.273 129.169 554.093 129.831 556.097 130.531C558.102 131.23 555.342 134.629 556.08 135.08ZM565.474 115.862C565.205 115.868 565.381 111.923 565.381 111.923C565.381 111.923 566.391 112.819 567.012 113.017C567.632 113.216 565.744 115.856 565.474 115.862ZM567.186 111.913C566.9 111.807 567.187 110.298 566.901 109.457C566.607 108.63 566.56 107.029 566.56 107.029C567.165 106.973 566.935 106.982 568.105 108.339C569.261 109.688 567.487 112.027 567.186 111.913ZM570.555 97.6234C568.615 98.0045 568.316 99.568 568.019 100.008C567.721 100.448 566.803 100.444 566.798 101.259C566.793 102.073 565.695 103.395 565.695 103.395C565.695 103.395 565.738 100.517 565.795 99.7533C565.862 98.9741 565.45 98.7338 565.697 97.3647C565.943 95.9956 565.703 94.1994 565.703 94.1994C565.703 94.1994 567.197 97.1767 568.926 97.1223C570.645 97.0831 572.504 97.227 570.564 97.6081L570.555 97.6234ZM583.214 105.644C583.024 106.985 582.756 112.492 582.082 113.366C581.408 114.241 581.209 114.616 581.067 115.105C580.925 115.595 580.055 115.823 580.055 115.823L577.741 115.618C577.741 115.618 578.136 112.209 577.765 111.583C577.379 110.949 577.35 105.146 577.803 104.756C578.231 104.372 577.828 97.6345 577.828 97.6345C577.828 97.6345 578.922 100.665 580.691 101.207C580.452 102.458 579.819 102.456 579.436 103.358C579.045 104.274 580.247 104.035 580.683 104.269C581.11 104.519 581.398 105.463 582.991 102.978L583.908 102.982C583.908 102.982 583.421 104.272 583.223 105.629L583.214 105.644ZM589.43 109.393C588.921 109.179 588.307 108.268 588.568 107.05C588.829 105.833 589.688 106.007 589.688 106.007C589.688 106.007 589.929 109.624 589.421 109.409L589.43 109.393ZM592.753 125.809C593.935 125.885 594.203 122.974 594.777 123.146C595.352 123.318 596.24 123.162 596.24 123.162C596.24 123.162 596.324 127.013 595.228 126.578C594.157 126.137 594.906 126.534 593.631 126.792C592.365 127.034 592.729 125.815 592.729 125.815L592.753 125.809ZM599.666 137.019L592.475 136.974C592.475 136.974 592.472 136.523 592.49 134.775C593.744 133.012 592.882 131.896 592.641 131.223C592.414 130.559 592.457 128.805 592.882 129.197C593.308 129.588 595.554 129.488 596.411 129.457C596.932 128.738 597.569 128.313 598.652 128.454C600.738 131.082 599.666 137.019 599.666 137.019ZM603.425 137.025L602.001 137.012C602.001 137.012 602.191 135.18 602.57 132.253C605.261 133.353 603.425 137.025 603.425 137.025ZM608.235 136.315C608.235 136.315 608.023 136.784 607.983 137.027C607.499 137.051 605.657 137.019 605.657 137.019C605.657 137.019 607.304 132.234 608.252 131.275L608.235 136.315ZM607.599 113.718C607.915 113.351 608.977 112.968 608.977 112.968C608.88 114.22 607.297 114.094 607.599 113.718ZM632.054 172.48L629.892 170.544C629.892 170.544 631.536 170.951 632.458 170.876C633.247 171.418 633.38 172.17 633.38 172.17L632.054 172.48Z" fill="#5C94CF"/>
<path d="M140.466 267.802C140.341 264.154 140.001 247.083 140.001 247.083L138.214 244.748L141.233 242.128L141.196 237.67C141.196 237.67 140.53 233.845 143.834 233.813C145.698 229.718 147.717 227.215 147.717 227.215L147.687 223.633L149.977 223.614L149.918 216.682C149.918 216.682 140.605 211.192 149.829 205.428C150.058 202.578 149.671 202.344 151.322 201.327C151.421 198.11 152.575 184.733 152.527 178.923C152.575 184.733 153.957 198.086 154.106 201.312C155.756 202.283 155.378 202.539 155.658 205.391C164.959 211.007 155.747 216.644 155.747 216.644L155.806 223.576L158.096 223.557L158.126 227.139C158.126 227.139 160.18 229.602 162.113 233.67C165.417 233.638 164.81 237.484 164.81 237.484L164.847 241.942L167.916 244.516L166.155 246.888C166.155 246.888 166.112 256.174 166.262 259.631C167.909 259.739 167.685 263.575 167.685 263.575L167.737 270.139L173.514 278.219L175.11 426.352L121.095 426.805L119.948 308.269C119.948 308.269 119.468 308.43 117.5 307.022C115.546 305.61 121.506 300.653 121.506 300.653L121.651 288.781L119.945 288.797L121.744 281.731L131.436 281.679L140.456 267.821" fill="#80BAE5"/>
<path d="M275.456 240.449L243.735 240.429L243.752 220.801C243.752 220.801 247.6 218.739 244.226 215.966C240.85 213.179 243.902 208.888 240.542 206.036C237.166 203.187 239.054 200.213 239.114 199.269C239.175 198.325 237.193 197.86 237.636 195.777C238.064 193.698 239.258 191.902 236.765 191.934C234.284 191.886 235.459 193.709 235.897 195.775C236.324 197.859 234.355 198.32 234.417 199.267C234.479 200.213 236.358 203.188 232.991 206.025C229.624 208.862 232.66 213.175 229.295 215.951C225.929 218.727 229.769 220.799 229.769 220.799L229.751 240.428L199.188 240.404L198.38 240.404L198.351 240.411C198.351 240.411 195.823 244.796 192.203 250.618L188.404 250.611L184.846 255.428L184.848 256.784L186.114 256.787L186.115 260.019C180.797 267.904 174.908 275.689 170.933 278.131L170.892 343.189L154.835 333.03L109.831 333.002L64.8265 332.974L48.2609 343.44L48.2141 426.157L83.0919 426.179L83.1075 392.217C83.1075 392.217 81.8136 374.471 109.794 374.471C137.781 374.499 136.467 392.241 136.467 392.241L136.451 426.203L170.828 426.231L363.824 426.358L363.905 308.211L350.442 290.129L326.009 275.647L320.595 275.64L320.608 263.728C320.608 263.728 321.193 259.448 317.264 259.271C313.351 259.091 312.496 260.032 311.096 261.524C309.696 263.015 308.191 264.378 309.956 267.455C310.088 270.794 310.075 277.598 310.075 277.598L301.579 268.439L298.408 268.441L291.947 260.391L291.955 256.928L293.221 256.931L293.218 255.574L289.67 250.752L284.468 250.742L276.361 240.473L276.288 240.489L275.477 240.475L275.456 240.449Z" fill="#5C94CF"/>
<path d="M371.501 251.117L371.51 245.391L372.76 244.522L371.512 244.514C371.512 244.514 369.769 241.768 370.462 235.731C370.718 234.171 371.637 234.732 370.307 233.429C368.978 232.116 370.089 232.309 370.31 231.81C370.532 231.31 370.906 229.696 369.355 230.75C368.603 231.305 369.355 232.184 368.857 232.365C368.358 232.556 367.67 232.796 367.605 235.288C367.539 237.78 367.095 241.081 367.281 242.518L366.596 244.14L359.457 244.132L357.424 241.272C357.424 241.272 357.36 236.573 357.776 236.232C358.183 235.89 359.954 235.212 358.528 233.242C358.263 231.469 358.806 231.673 357.778 231.476C356.761 231.268 357.104 229.518 355.401 230.386C354.716 230.719 356.485 231.95 355.734 232.35C354.982 232.76 354.508 232.757 354.374 234.047C354.24 235.338 353.824 235.958 353.824 235.958L351.858 233.299L347.769 233.356L347.774 230.127L346.681 230.12L345.277 230.122L345.282 225.325L339.68 225.314L339.673 230.431L338.198 230.428L333.803 226.697L333.822 216.824L336.308 215.394L336.309 214.517L334.915 213.674L334.913 211.837L333.84 209.118L332.798 209.116C332.798 209.116 331.831 202.185 322.511 195.489L322.517 194.406C322.517 194.406 321.426 194.658 320.999 193.987C320.573 193.317 323.474 193.288 321.239 191.941C319.004 190.604 317.748 190.565 317.748 190.565L317.751 189.946L317.956 189.961L317.954 189.28L317.252 189.281C317.252 189.281 317.39 188.218 316.827 187.868C316.791 187.37 316.828 187.136 316.828 187.136C316.828 187.136 317.507 185.307 316.306 184.931C316.242 183.668 316.067 180.22 316.147 179.544C316.248 178.706 318.159 182.547 318.158 182.846C318.158 183.145 318.152 184.373 318.696 183.834C319.24 183.296 316.714 179.554 316.871 178.08C317.029 176.605 316.646 175.763 317.674 175.816C318.702 175.869 319.651 174.576 318.62 172.562C317.588 170.548 318.855 170.144 316.259 170.669C313.662 171.194 313.087 172.453 312.054 172.75C311.022 173.047 312.658 174.836 312.907 175.391C313.156 175.945 315.064 175.804 315.064 175.804C315.064 175.804 315.262 176.788 315.057 177.774C314.88 178.648 315.655 183.946 315.822 185.062C315.009 185.612 315.57 187.138 315.57 187.138C315.57 187.138 315.605 187.367 315.568 187.87C315.007 188.222 315.137 189.284 315.137 189.284L314.435 189.285L314.439 189.946L314.644 189.96L314.643 190.559C314.643 190.559 313.381 190.592 311.139 191.926C308.897 193.261 311.804 193.305 311.374 193.966C310.944 194.636 309.848 194.382 309.848 194.382L309.843 195.465C300.501 202.129 299.507 209.053 299.507 209.053L298.465 209.05L297.382 211.768L297.385 213.605L295.983 214.443L295.982 215.32L298.457 216.767L298.425 233.428C298.425 233.428 298.308 232.037 297.556 231.879C296.793 231.721 297.579 230.983 297.558 230.703C297.527 230.412 297.374 229.101 296.35 229.42C295.327 229.728 295.639 230.699 295.953 230.918C296.268 231.137 296.369 231.598 296.189 231.657C296.01 231.706 294.812 231.579 294.537 232.673C294.321 233.535 294.245 233.437 294.245 233.437L285.301 233.423C285.301 233.423 285.095 231.839 283.825 231.418C283.542 230.768 283.615 230.897 283.728 230.616C283.841 230.336 283.982 229.376 283.158 229.502C282.334 229.629 282.145 229.956 282.453 230.845C282.76 231.733 281.571 231.772 281.423 232.256C281.274 232.741 281.246 233.42 281.246 233.42L278.76 233.416L278.766 232.189L277.755 232.188L277.749 233.416L276.934 233.419L276.942 232.151L275.746 232.147L275.737 233.416L271.499 234.669C271.499 234.669 271.454 231.849 269.688 231.588C269.492 230.872 269.611 230.942 269.689 230.721C269.766 230.51 269.926 229.428 268.724 229.651C267.521 229.874 268.751 231.138 268.385 231.494C268.008 231.848 266.964 231.588 266.837 233.219C266.719 234.851 267.095 234.93 267.71 234.995C268.324 235.059 267.239 238.954 267.732 242.146C267.082 242.141 266.804 242.141 266.804 242.141L266.797 243.523L268.058 244.357L267.752 426.183L371.194 426.36L371.488 254.449L373.984 251.172L371.497 251.168L371.501 251.117ZM315.654 172.761C314.99 172.817 314.678 173.857 315.204 174.142C315.731 174.428 315.62 174.956 315.62 174.956C315.62 174.956 315.004 175.201 314.726 175.202C314.447 175.202 313.691 175.107 312.921 174.473C312.151 173.84 312.554 172.693 313.593 172.448C314.632 172.203 315.141 171.723 316.235 171.152C317.328 170.581 317.778 171.635 317.902 171.922C318.025 172.22 317.964 173.361 318.359 173.606C318.754 173.851 318.663 174.825 318.121 174.899C317.58 174.974 316.473 174.729 316.473 174.729C316.473 174.729 316.395 174.517 316.532 173.897C316.67 173.278 316.32 172.685 315.655 172.751L315.654 172.761Z" fill="#5C94CF"/>
</svg>
